<?xml version="1.0" encoding="UTF-8" standalone="no"?>
<svg
   xmlns:dc="http://purl.org/dc/elements/1.1/"
   xmlns:cc="http://creativecommons.org/ns#"
   xmlns:rdf="http://www.w3.org/1999/02/22-rdf-syntax-ns#"
   xmlns:svg="http://www.w3.org/2000/svg"
   xmlns="http://www.w3.org/2000/svg"
   xmlns:sodipodi="http://sodipodi.sourceforge.net/DTD/sodipodi-0.dtd"
   xmlns:inkscape="http://www.inkscape.org/namespaces/inkscape"
   inkscape:version="1.0 (4035a4f, 2020-05-01)"
   sodipodi:docname="9.svg"
   xml:space="preserve"
   enable-background="new 0 0 600 600"
   viewBox="0 0 600 600"
   height="600px"
   width="600px"
   y="0px"
   x="0px"
   id="Layer_1"
   version="1.1"><metadata
   id="metadata125"><rdf:RDF><cc:Work
       rdf:about=""><dc:format>image/svg+xml</dc:format><dc:type
         rdf:resource="http://purl.org/dc/dcmitype/StillImage" /></cc:Work></rdf:RDF></metadata><defs
   id="defs123" /><sodipodi:namedview
   inkscape:current-layer="Layer_1"
   inkscape:window-maximized="0"
   inkscape:window-y="23"
   inkscape:window-x="0"
   inkscape:cy="300"
   inkscape:cx="300"
   inkscape:zoom="0.44666667"
   showgrid="false"
   id="namedview121"
   inkscape:window-height="480"
   inkscape:window-width="705"
   inkscape:pageshadow="2"
   inkscape:pageopacity="0"
   guidetolerance="10"
   gridtolerance="10"
   objecttolerance="10"
   borderopacity="1"
   bordercolor="#666666"
   pagecolor="#ffffff" />
<rect
   id="rect10"
   height="190.4826"
   width="36.785625"
   stroke-width="6.54228"
   stroke="#454545"
   fill="#49ea15"
   y="380.53781"
   x="254.62483" />
<rect
   id="rect12"
   height="190.4826"
   width="36.787025"
   stroke-width="6.54228"
   stroke="#454545"
   fill="#49ea15"
   y="380.53781"
   x="356.68011" />
<polygon
   transform="matrix(1.4008768,0,0,1.2221313,-90.821591,-14.682322)"
   id="polygon14"
   points="143.311,226.783 143.311,362.919 167.29,329.246 176.984,226.783 "
   stroke-width="5"
   stroke="#444444"
   fill="#2f07ef" />
<polygon
   transform="matrix(1.4008768,0,0,1.2221313,-90.821591,-14.682322)"
   id="polygon16"
   points="456.564,226.783 456.564,362.919 432.585,329.246 422.892,226.783 "
   stroke-width="5"
   stroke="#444444"
   fill="#2f07ef" />
<path
   id="path18"
   d="m 184.25598,269.76997 c 0,4.30068 -3.99669,7.78742 -8.92638,7.78742 v 0 c -4.92969,0 -8.92639,-3.48674 -8.92639,-7.78742 v -51.76704 c 0,-4.30068 3.9967,-7.78742 8.92639,-7.78742 v 0 c 4.92969,0 8.92638,3.48674 8.92638,7.78742 z"
   stroke-width="6.54228"
   stroke="#454545"
   fill="#194893" />
<path
   id="path20"
   d="m 464.29267,276.31081 c 0,4.13203 5.31072,7.48311 11.86122,7.48311 v 0 c 6.55331,0 11.86403,-3.34985 11.86403,-7.48311 v -52.37687 c 0,-4.13204 -5.31072,-7.48312 -11.86403,-7.48312 v 0 c -6.5505,0 -11.86122,3.34986 -11.86122,7.48312 z"
   stroke-width="6.54228"
   stroke="#454545"
   fill="#194893" />
<g
   transform="matrix(1.4008768,0,0,1.2221313,-90.821591,-14.682322)"
   id="g26">
	<path
   id="path22"
   d="m 319.279,151.479 c 0,0.875 -2.018,1.586 -4.508,1.586 h -39.659 c -2.49,0 -4.508,-0.711 -4.508,-1.586 v -4.334 c 0,-0.876 2.018,-1.586 4.508,-1.586 h 39.659 c 2.49,0 4.508,0.71 4.508,1.586 z"
   stroke-width="2"
   stroke="#454545"
   fill="#00e8ff" />
	<path
   id="path24"
   d="m 319.279,158.986 c 0,0.875 -2.018,1.586 -4.508,1.586 h -39.659 c -2.49,0 -4.508,-0.711 -4.508,-1.586 v -4.335 c 0,-0.876 2.018,-1.585 4.508,-1.585 h 39.659 c 2.49,0 4.508,0.709 4.508,1.585 z"
   stroke-width="2"
   stroke="#454545"
   fill="#00e8ff" />
</g>
<path
   id="path28"
   d="m 354.81555,170.14671 v -6.11187 c 0,-1.23558 -2.68969,-2.23651 -6.00977,-2.23651 h -52.89991 c -3.32008,0 -6.01256,1.00093 -6.01256,2.23651 v 6.11187 c 0,1.23557 2.69248,2.2365 6.01256,2.2365 -3.32008,0 -6.01256,1.00215 -6.01256,2.23651 v 6.11065 c 0,1.23679 2.69248,2.23771 6.01256,2.23771 h 52.89991 c 3.32008,0 6.00977,-1.00092 6.00977,-2.23771 v -6.11065 c 0,-1.23436 -2.68969,-2.23651 -6.00977,-2.23651 3.32008,0 6.00977,-0.99971 6.00977,-2.2365 z"
   stroke-width="5.23382"
   stroke="#454545"
   fill="#00e8ff" />
<path
   id="path30"
   d="m 376.11587,53.726479 c 0,19.044472 -26.13615,34.48488 -58.38013,34.48488 -32.24119,0 -58.37874,-15.440408 -58.37874,-34.48488 0,-19.044473 103.77835,-32.911996 136.02094,-32.911996 32.24398,0 -19.26207,13.867523 -19.26207,32.911996 z"
   stroke-width="6.54228"
   stroke="#454545" />
<rect
   id="rect32"
   height="56.632343"
   width="15.918163"
   stroke-width="6.54228"
   stroke="#454545"
   fill="#c8cccc"
   y="79.294693"
   x="222.03482" />
<rect
   id="rect34"
   height="56.632343"
   width="15.919565"
   stroke-width="6.54228"
   stroke="#454545"
   fill="#c8cccc"
   y="79.83976"
   x="406.39307" />
<rect
   id="rect36"
   height="107.28603"
   width="168.07581"
   stroke-width="6.54228"
   stroke="#454545"
   fill="#c8cccc"
   y="54.513535"
   x="238.31721" />
<ellipse
   id="ellipse38"
   ry="18.397964"
   rx="23.403048"
   cy="83.606377"
   cx="356.07632"
   stroke-width="3.92537"
   stroke="#454545"
   fill="#000adf" />
<ellipse
   style="stroke-width:1.30845"
   id="ellipse40"
   ry="13.04503"
   rx="16.482716"
   cy="83.261726"
   cx="356.51761"
   fill="#38f703" />
<ellipse
   id="ellipse42"
   ry="18.397964"
   rx="23.403048"
   cy="83.606377"
   cx="289.05981"
   stroke-width="3.92537"
   stroke="#454545"
   fill="#000adf" />
<ellipse
   style="stroke-width:1.30845"
   id="ellipse44"
   ry="13.04503"
   rx="16.482716"
   cy="83.261726"
   cx="289.49966"
   fill="#47f90d" />
<rect
   id="rect46"
   height="19.31823"
   width="99.983383"
   stroke-width="2.61691"
   stroke="#009245"
   y="126.2673"
   x="272.36273" />
<ellipse
   id="ellipse48"
   ry="11.958555"
   rx="14.933347"
   cy="21.396217"
   cx="420.92572"
   stroke-width="7.85073"
   stroke="#454545"
   fill="#f21621" />
<path
   id="path50"
   d="m 222.03483,120.7506 c 0,3.04678 -2.85638,5.5167 -6.37819,5.5167 v 0 c -3.52321,0 -6.37959,-2.46992 -6.37959,-5.5167 V 93.728059 c 0,-3.046773 2.85638,-5.5167 6.37959,-5.5167 v 0 c 3.5232,0 6.37819,2.469927 6.37819,5.5167 z"
   stroke-width="6.54228"
   stroke="#454545"
   fill="#0016bf" />
<path
   id="path52"
   d="m 422.3126,121.413 c 0,3.04678 2.85499,5.51548 6.37679,5.51548 v 0 c 3.52461,0 6.37959,-2.46993 6.37959,-5.51548 V 93.807498 c 0,-3.046773 -2.85498,-5.5167 -6.37959,-5.5167 v 0 c -3.5218,0 -6.37679,2.469927 -6.37679,5.5167 z"
   stroke-width="6.54228"
   stroke="#454545"
   fill="#0016bf" />
<polygon
   transform="matrix(1.4008768,0,0,1.2221313,-90.821591,-14.682322)"
   id="polygon54"
   points="193.494,160.572 191.768,160.572 191.768,279.503 189.135,283.708 242.298,367.265 348.106,366.729 400.747,282.632 399.841,281.206 399.841,160.572 398.116,160.572 "
   stroke-width="5"
   stroke="#454545"
   fill="#c8cccc" />
<polygon
   transform="matrix(1.4008768,0,0,1.2221313,-90.821591,-14.682322)"
   id="polygon56"
   points="183.617,176.668 183.617,246.477 122.393,246.477 122.393,211.572 "
   stroke-width="5"
   stroke="#454545"
   fill="#b8c7d4" />
<polygon
   transform="matrix(1.4008768,0,0,1.2221313,-90.821591,-14.682322)"
   id="polygon58"
   points="470.341,205.345 470.341,251.578 409.116,251.578 409.116,181.771 "
   stroke-width="5"
   stroke="#454545"
   fill="#b8c7d4" />
<rect
   id="rect60"
   height="82.56353"
   width="148.66385"
   stroke-width="6.54228"
   stroke="#000000"
   fill="#f7f708"
   y="194.99509"
   x="198.68501" />
<path
   id="path62"
   d="m 453.44428,210.21551 c 0,9.58884 -61.5111,17.3616 -74.14281,17.3616 -12.63311,0 8.38705,-10.52377 8.38705,-20.11262 0,-9.58884 -21.02016,-14.6118 -8.38705,-14.6118 12.6303,0.001 74.14281,7.77519 74.14281,17.36282 z"
   stroke-width="6.54228"
   stroke="#454545"
   fill="#11f426" />
<path
   id="path64"
   d="m 420.81786,263.70453 c 0,3.5454 87.29004,17.36282 -22.87071,17.36282 -12.63311,0 -22.87212,-7.77275 -22.87212,-17.36282 0,-9.58884 10.3903,-15.66772 22.87212,-17.36159 64.10972,-8.69914 22.87071,7.77275 22.87071,17.36159 z"
   stroke-width="6.54228"
   stroke="#454545"
   fill="#22efe9" />
<polygon
   transform="matrix(1.4008768,0,0,1.2221313,-90.821591,-14.682322)"
   id="polygon66"
   points="273.681,197.97 280.073,188.259 283.451,199.825 294.133,203.604 285.055,210.385 285.264,222.432 276.275,215.057 265.723,218.723 269.246,207.384 262.515,197.603 "
   stroke-width="5"
   stroke="#454545"
   fill="#f411ee" />
<polygon
   transform="matrix(1.4008768,0,0,1.2221313,-90.821591,-14.682322)"
   id="polygon68"
   points="230.048,197.97 236.441,188.259 239.818,199.825 250.501,203.604 241.422,210.385 241.631,222.432 232.643,215.057 222.091,218.723 225.614,207.384 218.883,197.603 "
   stroke-width="5"
   stroke="#454545"
   fill="#af28af" />
<path
   id="path70"
   d="m 131.74272,411.77307 c 9.32703,-4.69909 23.83171,1.98474 32.39667,14.92712 l 18.23523,-9.18555 c -15.99242,-24.1652 -44.68238,-35.83655 -64.08172,-26.06561 -19.399342,9.76971 -22.157662,37.28234 -6.16526,61.44754 l 18.23521,-9.18554 c -8.56496,-12.93992 -7.94717,-27.24008 1.37987,-31.93796 z"
   stroke-width="6.54228"
   stroke="#444444"
   fill="#26ffff" />
<path
   id="path72"
   d="m 526.78578,411.77307 c -9.32703,-4.69909 -23.83171,1.98474 -32.39667,14.92712 l -18.23522,-9.18555 c 15.99242,-24.1652 44.68237,-35.83655 64.08031,-26.06561 19.39935,9.76971 22.15768,37.28234 6.16526,61.44754 l -18.23662,-9.18554 c 8.56778,-12.93992 7.94998,-27.24008 -1.37706,-31.93796 z"
   stroke-width="6.54228"
   stroke="#444444"
   fill="#26ffff" />
<line
   id="line74"
   y2="307.86014"
   x2="148.75494"
   y1="307.86014"
   x1="106.50312"
   stroke-width="6.54228"
   stroke="#3d3d3d" />
<line
   id="line76"
   y2="307.86014"
   x2="546.30981"
   y1="307.86014"
   x1="504.05658"
   stroke-width="6.54228"
   stroke="#3d3d3d" />
<line
   id="line78"
   y2="336.56921"
   x2="143.68517"
   y1="336.56921"
   x1="111.57289"
   stroke-width="6.54228"
   stroke="#444444"
   fill="none" />
<line
   id="line80"
   y2="345.66434"
   x2="548.58905"
   y1="345.66434"
   x1="516.47675"
   stroke-width="6.54228"
   stroke="#444444"
   fill="none" />
<line
   id="line82"
   y2="373.35901"
   x2="145.3186"
   y1="374.60562"
   x1="109.93947"
   stroke-width="6.54228"
   stroke="#444444"
   fill="none" />
<line
   id="line84"
   y2="372.73453"
   x2="551.8573"
   y1="373.98111"
   x1="516.47675"
   stroke-width="6.54228"
   stroke="#444444"
   fill="none" />
<ellipse
   style="stroke-width:1.30845"
   id="ellipse86"
   ry="6.2218704"
   rx="7.6655984"
   cy="79.293465"
   cx="364.34711"
   fill="#f3f7f2" />
<ellipse
   style="stroke-width:1.30845"
   id="ellipse88"
   ry="6.2218704"
   rx="7.6655984"
   cy="79.293465"
   cx="299.07608"
   fill="#f3f7f2" />
<g
   transform="matrix(1.4008768,0,0,1.2221313,-90.821591,-14.682322)"
   id="g114">
	<line
   id="line90"
   y2="348.18399"
   x2="238.452"
   y1="263.918"
   x1="214.616"
   stroke-width="2"
   stroke="#3d3d3d"
   fill="none" />
	<line
   id="line92"
   y2="348.18399"
   x2="248.72301"
   y1="263.918"
   x1="229.22099"
   stroke-width="2"
   stroke="#3d3d3d"
   fill="none" />
	<line
   id="line94"
   y2="348.18399"
   x2="258.99399"
   y1="263.918"
   x1="243.825"
   stroke-width="2"
   stroke="#3d3d3d"
   fill="none" />
	<line
   id="line96"
   y2="348.18399"
   x2="269.26501"
   y1="263.918"
   x1="258.42999"
   stroke-width="2"
   stroke="#3d3d3d"
   fill="none" />
	<line
   id="line98"
   y2="348.18399"
   x2="279.53601"
   y1="263.918"
   x1="273.035"
   stroke-width="2"
   stroke="#3d3d3d"
   fill="none" />
	<line
   id="line100"
   y2="348.18399"
   x2="289.80701"
   y1="263.918"
   x1="287.64001"
   stroke-width="2"
   stroke="#3d3d3d"
   fill="none" />
	<line
   id="line102"
   y2="348.18399"
   x2="300.078"
   y1="263.918"
   x1="302.24399"
   stroke-width="2"
   stroke="#3d3d3d"
   fill="none" />
	<line
   id="line104"
   y2="348.18399"
   x2="310.349"
   y1="263.918"
   x1="316.85001"
   stroke-width="2"
   stroke="#3d3d3d"
   fill="none" />
	<line
   id="line106"
   y2="348.18399"
   x2="320.62"
   y1="263.918"
   x1="331.45401"
   stroke-width="2"
   stroke="#3d3d3d"
   fill="none" />
	<line
   id="line108"
   y2="348.18399"
   x2="330.89099"
   y1="263.918"
   x1="346.05899"
   stroke-width="2"
   stroke="#3d3d3d"
   fill="none" />
	<line
   id="line110"
   y2="348.18399"
   x2="341.16101"
   y1="263.918"
   x1="360.664"
   stroke-width="2"
   stroke="#3d3d3d"
   fill="none" />
	<line
   id="line112"
   y2="348.18399"
   x2="351.43301"
   y1="263.918"
   x1="375.26901"
   stroke-width="2"
   stroke="#3d3d3d"
   fill="none" />
</g>
<polygon
   transform="matrix(1.4008768,0,0,1.2221313,-90.821591,-14.682322)"
   id="polygon116"
   points="274.283,479.247 255.214,496.021 202.62,496.021 210.181,479.247 "
   stroke-width="5"
   stroke="#000000"
   fill="#f40c0c" />
<polygon
   transform="matrix(1.4008768,0,0,1.2221313,-90.821591,-14.682322)"
   id="polygon118"
   points="315.602,479.247 334.67,496.021 387.264,496.021 379.703,479.247 "
   stroke-width="5"
   stroke="#000000"
   fill="#f40c0c" />
</svg>
