<?xml version="1.0" encoding="UTF-8" standalone="no"?>
<svg
   xmlns:dc="http://purl.org/dc/elements/1.1/"
   xmlns:cc="http://creativecommons.org/ns#"
   xmlns:rdf="http://www.w3.org/1999/02/22-rdf-syntax-ns#"
   xmlns:svg="http://www.w3.org/2000/svg"
   xmlns="http://www.w3.org/2000/svg"
   xmlns:sodipodi="http://sodipodi.sourceforge.net/DTD/sodipodi-0.dtd"
   xmlns:inkscape="http://www.inkscape.org/namespaces/inkscape"
   inkscape:version="1.0 (4035a4f, 2020-05-01)"
   sodipodi:docname="1.svg"
   xml:space="preserve"
   enable-background="new 0 0 822.05 841.89"
   viewBox="0 0 822.05 841.89"
   height="841.89px"
   width="822.05px"
   y="0px"
   x="0px"
   id="Layer_1"
   version="1.1"><metadata
   id="metadata79"><rdf:RDF><cc:Work
       rdf:about=""><dc:format>image/svg+xml</dc:format><dc:type
         rdf:resource="http://purl.org/dc/dcmitype/StillImage" /></cc:Work></rdf:RDF></metadata><defs
   id="defs77" /><sodipodi:namedview
   inkscape:current-layer="Layer_1"
   inkscape:window-maximized="0"
   inkscape:window-y="23"
   inkscape:window-x="0"
   inkscape:cy="420.94501"
   inkscape:cx="411.02499"
   inkscape:zoom="0.71743338"
   showgrid="false"
   id="namedview75"
   inkscape:window-height="702"
   inkscape:window-width="1286"
   inkscape:pageshadow="2"
   inkscape:pageopacity="0"
   guidetolerance="10"
   gridtolerance="10"
   objecttolerance="10"
   borderopacity="1"
   bordercolor="#666666"
   pagecolor="#ffffff" />
<path
   style="stroke-width:1.79458"
   id="path10"
   d="m 737.26786,167.42941 c -44.9348,-4.89028 -84.97133,63.37364 -112.4458,97.05159 -43.37962,53.17368 -79.4252,108.95795 -119.20059,164.82494 -26.92706,37.81988 -66.51663,47.74089 -55.24358,103.88491 8.78874,43.76247 34.50548,80.54735 70.31002,98.83494 93.31142,47.65817 213.3708,-9.15725 261.15147,-106.77059 51.16393,-104.52553 27.53139,-273.40584 -44.57152,-357.82579 z"
   stroke-miterlimit="10"
   stroke-linecap="square"
   stroke="#020202"
   fill="#ff0000" />
<path
   style="stroke-width:1.79458"
   id="path12"
   d="m 720.94589,222.25756 c -71.10519,-5.96377 -150.76811,157.22788 -190.84146,213.5412 -23.76479,33.39707 -52.1918,42.46775 -52.73252,86.57074 -0.52732,43.01028 32.38446,72.17885 60.8935,90.8993 68.67781,45.09952 178.44011,-9.93832 215.32442,-80.79937 45.812,-88.0136 30.76732,-237.29429 -32.64394,-310.21187 z"
   fill="#fca203" />
<path
   style="stroke-width:1.79458"
   id="path14"
   d="m 705.87946,258.3287 c -68.49368,-0.18468 -132.90602,143.8402 -173.89173,197.66989 -20.62261,27.08511 -42.36179,33.19893 -43.31599,70.69946 -0.88056,34.61098 29.15354,68.97957 54.61581,81.52078 188.48942,92.83271 268.7366,-209.51084 162.59191,-349.89013 z"
   fill="#ffff00" />
<path
   id="path16"
   d="m 645.61373,434.3559 c 2.05741,-20.96167 13.83769,-31.34631 32.64394,-30.29976 -0.94752,-15.77511 0.81861,-45.34384 15.06643,-20.19985 16.42743,-10.42311 36.05565,-11.06181 53.98805,-4.32853"
   stroke-miterlimit="10"
   stroke-linecap="square"
   stroke-width="0.897291"
   stroke="#ff0000"
   fill="none" />
<path
   id="path18"
   d="m 666.95785,408.38467 c 14.77681,23.76849 45.50062,55.35142 81.60984,60.59954"
   stroke-miterlimit="10"
   stroke-linecap="square"
   stroke-width="0.897291"
   stroke="#ff0000"
   fill="none" />
<path
   id="path20"
   d="m 561.49282,510.82674 c -25.6146,29.49561 -36.5813,-8.70325 -66.5434,8.65707"
   stroke-miterlimit="10"
   stroke-linecap="square"
   stroke-width="0.897291"
   stroke="#ff0000"
   fill="none" />
<path
   id="path22"
   d="m 580.32586,551.22643 c -3.54731,5.09035 -6.99919,9.44197 -5.02214,18.75699 -0.69976,0.0732 -12.83827,-6.52167 -13.8109,-7.21423 -0.72988,4.63249 1.88499,13.22417 0,17.31415 -7.63701,-7.0661 -17.34648,-8.48009 -25.11072,-14.42846 -0.54573,17.61619 -9.58727,2.55673 -20.08857,8.65708"
   stroke-miterlimit="10"
   stroke-linecap="square"
   stroke-width="0.897291"
   stroke="#ff0000"
   fill="none" />
<path
   id="path24"
   d="m 607.94765,432.91305 c -7.94336,-35.23237 19.05234,-41.93102 0,-70.69944 6.06006,0.16737 10.47619,-1.41592 16.32197,-2.88569 -6.02824,-9.5478 -2.51609,-13.35307 1.25554,-21.64269"
   stroke-miterlimit="10"
   stroke-linecap="square"
   stroke-width="0.897291"
   stroke="#ff0000"
   fill="none" />
<path
   id="path26"
   d="m 649.38034,535.35512 c 18.25215,6.69865 42.24628,26.2117 69.05448,34.6283"
   stroke-miterlimit="10"
   stroke-linecap="square"
   stroke-width="0.897291"
   stroke="#ff0000"
   fill="none" />
<path
   id="path28"
   d="m 698.34624,447.34152 c 13.35053,-6.6294 17.38834,-21.43492 27.62179,-5.77138 1.66903,-6.41778 4.69403,-12.38732 6.27768,-18.757 10.96502,7.58744 19.01217,0.54442 30.13287,4.32853"
   stroke-miterlimit="10"
   stroke-linecap="square"
   stroke-width="0.897291"
   stroke="#ff0000"
   fill="none" />
<path
   id="path30"
   d="m 684.53535,555.55496 c 1.17685,-5.94068 1.80629,-11.56778 3.7666,-17.31415 16.02567,9.29192 26.71948,4.41319 38.92162,-4.32854"
   stroke-miterlimit="10"
   stroke-linecap="square"
   stroke-width="0.897291"
   stroke="#ff0000"
   fill="none" />
<path
   id="path32"
   d="m 617.99194,556.99781 c -5.23307,16.5023 -12.69598,37.80449 -7.53321,62.04237"
   stroke-miterlimit="10"
   stroke-linecap="square"
   stroke-width="0.897291"
   stroke="#ff0000"
   fill="none" />
<path
   id="path34"
   d="m 629.29176,417.04176 c 12.68427,-25.46335 -7.22016,-59.69728 23.85519,-54.82815 7.29382,-13.98599 7.57674,-24.06475 -1.25554,-41.84254 5.85917,0 11.71834,0 17.5775,0 -3.41337,-20.57306 20.04506,-37.49474 28.87733,-59.15667"
   stroke-miterlimit="10"
   stroke-linecap="square"
   stroke-width="0.897291"
   stroke="#ff0000"
   fill="none" />
<path
   id="path36"
   d="m 610.45873,588.74041 c 6.85354,8.028 14.13231,15.47116 22.59965,23.08553"
   stroke-miterlimit="10"
   stroke-linecap="square"
   stroke-width="0.897291"
   stroke="#ff0000"
   fill="none" />
<path
   id="path38"
   d="m 664.44677,487.7412 c 10.11627,-18.7166 21.91998,-8.96103 37.66608,1.44285"
   stroke-miterlimit="10"
   stroke-linecap="square"
   stroke-width="0.897291"
   stroke="#ff0000"
   fill="none" />
<path
   style="stroke-width:1.79458"
   id="path40"
   d="m 564.0039,493.51258 c -0.1741,93.00393 107.36003,92.38254 107.97609,0 0.62776,-94.14088 -107.2797,-94.61605 -107.97609,0 z"
   stroke-miterlimit="10"
   stroke-linecap="square"
   stroke="#020202"
   fill="#1c1c1c" />
<path
   style="stroke-width:1.79458"
   id="path42"
   d="m 78.111472,167.42941 c 46.582058,-5.7887 84.234738,63.06199 112.887748,97.05159 44.30201,52.55422 80.12831,108.80212 120.01417,164.82494 26.87014,37.74101 66.44966,48.07756 55.24359,103.88491 -9.28929,46.25956 -34.88214,78.1176 -70.93779,98.83494 C 207.69952,682.37149 76.233189,621.93934 34.167712,525.2552 -13.298243,416.16065 5.7524224,257.18212 78.111472,167.42941 Z"
   stroke-miterlimit="10"
   stroke-linecap="square"
   stroke="#020202"
   fill="#ff0000" />
<path
   style="stroke-width:1.79458"
   id="path44"
   d="m 95.688975,222.25756 c 70.109125,-5.90221 150.903705,156.38717 190.841465,213.5412 23.59069,33.75874 52.02104,42.52354 52.73252,86.57074 0.69138,42.75634 -32.57866,72.30582 -60.8935,90.8993 C 209.54433,658.4645 99.982908,603.41897 63.04504,532.46943 17.167755,444.35002 32.101937,295.37714 95.688975,222.25756 Z"
   fill="#fca203" />
<path
   style="stroke-width:1.79458"
   id="path46"
   d="m 110.75541,258.3287 c 68.91552,1.49095 132.3134,143.06107 173.89173,197.66989 20.53722,26.97352 42.53755,33.24509 43.31599,70.69946 0.69808,33.62599 -29.57708,69.18927 -54.61581,81.52078 C 84.844493,701.05731 4.5454338,398.79456 110.75541,258.3287 Z"
   fill="#ffff00" />
<path
   id="path48"
   d="m 169.76559,434.3559 c -0.88389,-21.12134 -12.51351,-31.32322 -31.38839,-30.29976 0.80187,-19.10521 -0.85376,-42.90062 -15.06644,-20.19985 -16.42743,-10.42311 -36.055639,-11.06181 -53.98804,-4.32853"
   stroke-miterlimit="10"
   stroke-linecap="square"
   stroke-width="0.897291"
   stroke="#ff0000"
   fill="none" />
<path
   id="path50"
   d="m 149.67703,408.38467 c -15.03965,23.62228 -45.32653,55.32834 -81.609846,60.59954"
   stroke-miterlimit="10"
   stroke-linecap="square"
   stroke-width="0.897291"
   stroke="#ff0000"
   fill="none" />
<path
   id="path52"
   d="m 253.88651,510.82674 c 27.09613,28.4837 36.72694,-9.31694 67.79894,8.65707"
   stroke-miterlimit="10"
   stroke-linecap="square"
   stroke-width="0.897291"
   stroke="#ff0000"
   fill="none" />
<path
   id="path54"
   d="m 236.30901,551.22643 c 4.2052,4.76331 6.92721,9.77671 5.02214,18.75699 0.68803,0.0847 11.46555,-6.38699 12.55536,-7.21423 1.24716,5.20771 -1.24884,12.24688 1.25553,17.31415 7.63031,-7.06033 17.37495,-8.457 25.11072,-14.42846 0.54575,17.61619 9.58727,2.55673 20.08858,8.65708"
   stroke-miterlimit="10"
   stroke-linecap="square"
   stroke-width="0.897291"
   stroke="#ff0000"
   fill="none" />
<path
   id="path56"
   d="m 208.68721,432.91305 c 7.94336,-35.23237 -19.05066,-41.93102 0,-70.69944 -6.28939,0.27318 -10.3858,-1.30625 -16.32197,-2.88569 6.15381,-9.74402 2.28005,-13.20108 -1.25552,-21.64269"
   stroke-miterlimit="10"
   stroke-linecap="square"
   stroke-width="0.897291"
   stroke="#ff0000"
   fill="none" />
<path
   id="path58"
   d="m 167.25453,535.35512 c -19.08749,5.62133 -41.61516,26.01354 -69.054482,34.6283"
   stroke-miterlimit="10"
   stroke-linecap="square"
   stroke-width="0.897291"
   stroke="#ff0000"
   fill="none" />
<path
   id="path60"
   d="m 118.28862,447.34152 c -12.46831,-8.80521 -18.290646,-20.05363 -27.621788,-5.77138 -1.77784,-6.43702 -4.781082,-12.03142 -6.27768,-18.757 -10.928186,7.40853 -19.243182,0.59253 -30.132864,4.32853"
   stroke-miterlimit="10"
   stroke-linecap="square"
   stroke-width="0.897291"
   stroke="#ff0000"
   fill="none" />
<path
   id="path62"
   d="m 132.09952,555.55496 c -1.17686,-5.94068 -1.80797,-11.56778 -3.76661,-17.31415 -16.02566,9.29192 -26.7178,4.41319 -38.921615,-4.32854"
   stroke-miterlimit="10"
   stroke-linecap="square"
   stroke-width="0.897291"
   stroke="#ff0000"
   fill="none" />
<path
   id="path64"
   d="m 198.64292,556.99781 c 4.91836,15.6693 12.80479,39.64363 7.53322,62.04237"
   stroke-miterlimit="10"
   stroke-linecap="square"
   stroke-width="0.897291"
   stroke="#ff0000"
   fill="none" />
<path
   id="path66"
   d="m 187.3431,417.04176 c -12.68593,-25.46335 7.22184,-59.69728 -23.85519,-54.82815 -6.20067,-10.85789 -1.98876,-7.8183 -8.78874,-15.87131 4.07462,-8.16074 5.76709,-17.78356 10.04428,-25.97123 -5.85916,0 -11.71834,0 -17.5775,0 3.06685,-20.35951 -20.42338,-37.50629 -28.87733,-59.15667"
   stroke-miterlimit="10"
   stroke-linecap="square"
   stroke-width="0.897291"
   stroke="#ff0000"
   fill="none" />
<path
   id="path68"
   d="m 206.17614,588.74041 c -6.85188,8.028 -14.13231,15.47116 -22.59964,23.08553"
   stroke-miterlimit="10"
   stroke-linecap="square"
   stroke-width="0.897291"
   stroke="#ff0000"
   fill="none" />
<path
   id="path70"
   d="m 152.18809,487.7412 c -10.7658,-18.34146 -22.45735,-9.09762 -37.66608,1.44285"
   stroke-miterlimit="10"
   stroke-linecap="square"
   stroke-width="0.897291"
   stroke="#ff0000"
   fill="none" />
<path
   style="stroke-width:1.79458"
   id="path72"
   d="m 252.63097,493.51258 c 1.72762,92.7827 -107.35837,92.60186 -107.97609,0 -0.62944,-94.264 108.88845,-94.54103 107.97609,0 z"
   stroke-miterlimit="10"
   stroke-linecap="square"
   stroke="#020202"
   fill="#1c1c1c" />
</svg>
