<?xml version="1.0" encoding="UTF-8" standalone="no"?>
<svg
   xmlns:dc="http://purl.org/dc/elements/1.1/"
   xmlns:cc="http://creativecommons.org/ns#"
   xmlns:rdf="http://www.w3.org/1999/02/22-rdf-syntax-ns#"
   xmlns:svg="http://www.w3.org/2000/svg"
   xmlns="http://www.w3.org/2000/svg"
   xmlns:sodipodi="http://sodipodi.sourceforge.net/DTD/sodipodi-0.dtd"
   xmlns:inkscape="http://www.inkscape.org/namespaces/inkscape"
   inkscape:version="1.0 (4035a4f, 2020-05-01)"
   sodipodi:docname="2.svg"
   xml:space="preserve"
   enable-background="new 0 0 822.05 841.89"
   viewBox="0 0 822.05 841.89"
   height="841.89px"
   width="822.05px"
   y="0px"
   x="0px"
   id="Layer_1"
   version="1.1"><metadata
   id="metadata94"><rdf:RDF><cc:Work
       rdf:about=""><dc:format>image/svg+xml</dc:format><dc:type
         rdf:resource="http://purl.org/dc/dcmitype/StillImage" /></cc:Work></rdf:RDF></metadata><defs
   id="defs92" /><sodipodi:namedview
   inkscape:current-layer="Layer_1"
   inkscape:window-maximized="0"
   inkscape:window-y="23"
   inkscape:window-x="0"
   inkscape:cy="420.94501"
   inkscape:cx="214.49107"
   inkscape:zoom="0.71743338"
   showgrid="false"
   id="namedview90"
   inkscape:window-height="763"
   inkscape:window-width="1440"
   inkscape:pageshadow="2"
   inkscape:pageopacity="0"
   guidetolerance="10"
   gridtolerance="10"
   objecttolerance="10"
   borderopacity="1"
   bordercolor="#666666"
   pagecolor="#ffffff" />
<path
   style="stroke-width:1.58948"
   id="path81"
   d="m 385.4627,325.58758 c -22.07509,-49.967 -76.96018,-124.72081 5.08603,-157.59055 84.45531,-33.83539 140.83231,32.7848 127.15088,102.82504 -3.95355,20.24015 -40.58995,58.11254 2.54302,63.70683 24.98938,3.24122 40.72219,-34.64758 68.66148,-34.64758 43.08888,0 100.20505,7.14561 137.32294,-17.32378 31.23842,-20.59332 45.98284,-61.25988 87.7341,-67.61865 7.66465,42.43695 -54.90375,59.54763 -43.23129,100.58973 7.39,25.98492 7.51546,96.08628 -49.58884,79.3541 -59.19298,-17.34316 -114.59855,-1.80316 -158.93861,39.11823 -44.37904,40.95714 -35.71413,82.68475 -55.94638,128.5313 -27.82909,63.05858 -85.67596,46.53504 -143.68049,58.11851 -60.67471,12.11695 -99.19803,62.65919 -162.75312,76.00111 -53.52544,11.23624 -159.550619,24.91943 -185.640283,-32.41224 -27.576482,-60.59822 33.408469,-29.15164 71.20449,-31.29457 13.505119,-0.76598 27.145863,-0.34276 40.688283,-1.11768 -2.03272,-39.47289 -19.14384,-93.31893 41.95978,-97.79555 63.07363,-4.62116 86.02181,6.36323 124.60786,-44.1477 23.24319,-30.42579 54.5223,-87.46239 -15.2581,-79.35412 -29.89401,3.4737 -32.67439,32.3124 -64.84694,15.64729 -14.38501,-7.45108 -24.1468,-33.61931 -22.25141,-46.94186 2.48877,-17.50113 22.31922,-24.95221 7.62905,-43.03005 -15.14282,-18.63368 -47.17127,-27.63162 -55.31063,-50.85368 -6.8458,-19.53081 2.65661,-31.2156 8.90056,-49.1772 10.49758,-30.20523 13.21353,-51.99968 17.16537,-83.26594 2.36501,-18.70968 7.7918,-34.20199 26.06594,-18.44144 12.21834,10.53882 1.33593,58.6222 3.17876,73.20696 2.03442,16.08839 13.86623,32.25726 31.78772,38.55939 32.38618,11.38676 6.95431,43.22824 19.70839,60.35383 5.81334,7.80725 58.59112,26.03411 72.476,30.17691 21.20876,6.32896 65.98792,21.02996 63.57544,-11.17664 z"
   stroke-miterlimit="10"
   stroke-linecap="square"
   stroke="#000000"
   fill="#ffff00" />
<path
   style="stroke-width:1.58948"
   id="path83"
   d="m 447.76663,274.17507 c 22.38703,11.67436 32.85578,53.33937 31.78772,73.76579 -0.9477,18.10018 -3.04145,49.41861 -22.25141,15.64729 -13.38814,-23.53651 -42.59554,23.22355 -42.59554,-12.2943 0,-22.94489 -11.79791,-93.97166 33.05923,-77.11878 z" />
<path
   style="stroke-width:1.58948"
   id="path85"
   d="m 421.06833,220.52722 c 10.03814,56.42114 -32.76593,4.89686 0,0 z" />
<path
   style="stroke-width:1.58948"
   id="path87"
   d="m 451.58116,217.17423 c 7.51037,57.41512 -33.41526,3.44836 0,0 z" />
</svg>
