<?xml version="1.0" encoding="UTF-8" standalone="no"?>
<svg
   xmlns:dc="http://purl.org/dc/elements/1.1/"
   xmlns:cc="http://creativecommons.org/ns#"
   xmlns:rdf="http://www.w3.org/1999/02/22-rdf-syntax-ns#"
   xmlns:svg="http://www.w3.org/2000/svg"
   xmlns="http://www.w3.org/2000/svg"
   xmlns:sodipodi="http://sodipodi.sourceforge.net/DTD/sodipodi-0.dtd"
   xmlns:inkscape="http://www.inkscape.org/namespaces/inkscape"
   inkscape:version="1.0 (4035a4f, 2020-05-01)"
   sodipodi:docname="9.svg"
   xml:space="preserve"
   enable-background="new 0 0 822.05 841.89"
   viewBox="0 0 822.05 841.89"
   height="841.89px"
   width="822.05px"
   y="0px"
   x="0px"
   id="Layer_1"
   version="1.1"><metadata
   id="metadata156"><rdf:RDF><cc:Work
       rdf:about=""><dc:format>image/svg+xml</dc:format><dc:type
         rdf:resource="http://purl.org/dc/dcmitype/StillImage" /></cc:Work></rdf:RDF></metadata><defs
   id="defs154" /><sodipodi:namedview
   inkscape:current-layer="Layer_1"
   inkscape:window-maximized="0"
   inkscape:window-y="23"
   inkscape:window-x="0"
   inkscape:cy="420.94501"
   inkscape:cx="214.49107"
   inkscape:zoom="0.71743338"
   showgrid="false"
   id="namedview152"
   inkscape:window-height="737"
   inkscape:window-width="1300"
   inkscape:pageshadow="2"
   inkscape:pageopacity="0"
   guidetolerance="10"
   gridtolerance="10"
   objecttolerance="10"
   borderopacity="1"
   bordercolor="#666666"
   pagecolor="#ffffff" />
<path
   style="stroke-width:1.69515"
   id="path135"
   d="m 215.97586,282.56567 c 45.60354,30.56086 42.35695,139.45848 45.73581,188.82023 3.70525,54.11424 21.25922,111.78827 -67.63747,94.72376 C 28.741592,534.37113 55.801735,298.85398 215.97586,282.56567 Z"
   stroke-miterlimit="10"
   stroke-linecap="square"
   stroke="#020202"
   fill="#ff0000" />
<path
   style="stroke-width:1.69515"
   id="path137"
   d="m 208.24587,312.67654 c 39.25808,30.9891 76.02538,223.94622 11.59499,239.63231 C 77.46634,586.97148 44.854341,339.26778 208.24587,312.67654 Z"
   fill="#ffda00" />
<path
   style="stroke-width:1.69515"
   id="path139"
   d="m 210.82253,489.57787 c -32.00391,38.70084 -91.36856,-2.20311 -60.55164,-42.65705 30.29128,-39.76307 87.89694,1.74308 60.55164,42.65705 z"
   stroke-miterlimit="10"
   stroke-linecap="square"
   stroke="#020202"
   fill="#1c1c1c" />
<path
   style="stroke-width:1.69515"
   id="path141"
   d="M 277.81584,541.01727 C 270.46032,474.75831 257.03418,407.37187 240.45418,342.78741 211.9013,231.5679 104.86317,160.72372 11.130941,103.1551 89.039004,128.72592 187.47107,206.46547 228.85919,275.03795 c 32.24096,53.41669 90.51312,211.02532 48.95665,265.97932 z"
   fill="#1c1c1c" />
<path
   style="stroke-width:1.69515"
   id="path143"
   d="m 577.99739,559.83656 c -46.5844,-31.38555 -147.23068,3.08136 -199.04743,13.17351 -55.3107,10.77132 -114.40739,14.05007 -72.7908,90.95991 79.59148,147.09158 301.12805,49.13926 271.83823,-104.13342 z"
   stroke-miterlimit="10"
   stroke-linecap="square"
   stroke="#020202"
   fill="#ff0000" />
<path
   style="stroke-width:1.69515"
   id="path145"
   d="M 550.9424,576.14662 C 512.84898,551.98433 303.78863,571.47442 311.95666,635.11373 331.28509,785.6965 570.0063,730.70235 550.9424,576.14662 Z"
   fill="#ffda00" />
<path
   style="stroke-width:1.69515"
   id="path147"
   d="m 375.72913,626.3314 c -26.77843,40.89891 29.80344,82.90525 60.55164,43.91168 31.4525,-39.88519 -27.3762,-81.03002 -60.55164,-43.91168 z"
   stroke-miterlimit="10"
   stroke-linecap="square"
   stroke="#020202"
   fill="#1c1c1c" />
<path
   style="stroke-width:1.69515"
   id="path149"
   d="M 307.44749,578.65586 C 372.83296,563.76771 445.1342,559.07878 512.29242,555.4454 628.86764,549.13717 731.9377,629.12502 815.05063,699.09932 765.68172,634.54664 668.7716,572.07664 590.23655,548.54499 530.62797,530.68424 344.3797,523.14145 307.44749,578.65586 Z"
   fill="#1c1c1c" />
</svg>
