<?xml version="1.0" encoding="UTF-8" standalone="no"?>
<svg
   xmlns:dc="http://purl.org/dc/elements/1.1/"
   xmlns:cc="http://creativecommons.org/ns#"
   xmlns:rdf="http://www.w3.org/1999/02/22-rdf-syntax-ns#"
   xmlns:svg="http://www.w3.org/2000/svg"
   xmlns="http://www.w3.org/2000/svg"
   xmlns:xlink="http://www.w3.org/1999/xlink"
   xmlns:sodipodi="http://sodipodi.sourceforge.net/DTD/sodipodi-0.dtd"
   xmlns:inkscape="http://www.inkscape.org/namespaces/inkscape"
   inkscape:version="1.0 (4035a4f, 2020-05-01)"
   sodipodi:docname="2.svg"
   id="svg550"
   viewBox="0 0 21000 29700"
   clip-rule="evenodd"
   version="1.1"
   width="210mm"
   height="297mm"
   xml:space="preserve"
   fill-rule="evenodd"
   style="shape-rendering:geometricPrecision;text-rendering:geometricPrecision;image-rendering:optimizeQuality"><metadata
   id="metadata554"><rdf:RDF><cc:Work
       rdf:about=""><dc:format>image/svg+xml</dc:format><dc:type
         rdf:resource="http://purl.org/dc/dcmitype/StillImage" /></cc:Work></rdf:RDF></metadata><sodipodi:namedview
   inkscape:current-layer="svg550"
   inkscape:window-maximized="0"
   inkscape:window-y="23"
   inkscape:window-x="0"
   inkscape:cy="561.25984"
   inkscape:cx="396.85039"
   inkscape:zoom="0.24231201"
   showgrid="false"
   id="namedview552"
   inkscape:window-height="480"
   inkscape:window-width="705"
   inkscape:pageshadow="2"
   inkscape:pageopacity="0"
   guidetolerance="10"
   gridtolerance="10"
   objecttolerance="10"
   borderopacity="1"
   bordercolor="#666666"
   pagecolor="#ffffff" />
 <defs
   id="defs52">
  <style
   id="style10"
   type="text/css">
   <![CDATA[
    .str1 {stroke:#824B3B;stroke-width:7.62}
    .str0 {stroke:#FEFEFE;stroke-width:7.62}
    .str2 {stroke:#824B3B;stroke-width:20}
    .str4 {stroke:#824B3B;stroke-width:50}
    .str3 {stroke:#A75F4A;stroke-width:50}
    .fil6 {fill:none}
    .fil15 {fill:#2B2A29}
    .fil0 {fill:#727271}
    .fil13 {fill:#824B3B}
    .fil2 {fill:#D19563}
    .fil1 {fill:#D7B56D}
    .fil11 {fill:#D19563;fill-opacity:0.690196}
    .fil14 {fill:#A75F4A;fill-opacity:0.819608}
    .fil8 {fill:url(#id0)}
    .fil7 {fill:url(#id1)}
    .fil10 {fill:url(#id2)}
    .fil9 {fill:url(#id3)}
    .fil4 {fill:url(#id4)}
    .fil12 {fill:url(#id5)}
    .fil3 {fill:url(#id6)}
    .fil5 {fill:url(#id7)}
   ]]>
  </style>
  <linearGradient
   x1="10639"
   y1="12202"
   x2="18802"
   gradientUnits="userSpaceOnUse"
   y2="11807"
   id="id0">
   <stop
   id="stop12"
   offset="0"
   stop-color="#E31E24" />
   <stop
   id="stop14"
   offset="1"
   stop-color="#F1BCBD" />
  </linearGradient>
  <linearGradient
   x1="1871.6"
   y1="12600"
   x2="10746"
   gradientUnits="userSpaceOnUse"
   y2="11368"
   id="id1">
   <stop
   id="stop17"
   offset="0"
   stop-color="#834E98" />
   <stop
   id="stop19"
   offset="1"
   stop-color="#EEE1F0" />
  </linearGradient>
  <radialGradient
   r="1185.3"
   cx="10450"
   cy="1713.1"
   gradientUnits="userSpaceOnUse"
   id="id2">
   <stop
   id="stop22"
   offset="0"
   stop-color="#FEFEFE" />
   <stop
   id="stop24"
   offset=".67843"
   stop-color="#FFF57F" />
   <stop
   id="stop26"
   offset="1"
   stop-color="#FFED00" />
  </radialGradient>
  <radialGradient
   r="7751.9"
   cx="10569"
   cy="8420.1"
   gradientUnits="userSpaceOnUse"
   id="id3">
   <stop
   id="stop29"
   offset="0"
   stop-color="#A8D4AF" />
   <stop
   id="stop31"
   offset=".50980"
   stop-color="#54B67A" />
   <stop
   id="stop33"
   offset="1"
   stop-color="#009846" />
  </radialGradient>
  <radialGradient
   r="344.92"
   cx="8828.3"
   cy="25950"
   gradientUnits="userSpaceOnUse"
   id="id4">
   <stop
   id="stop36"
   offset="0"
   stop-color="#FEFEFE" />
   <stop
   id="stop38"
   offset=".34902"
   stop-color="#F08E91" />
   <stop
   id="stop40"
   offset="1"
   stop-color="#E31E24" />
  </radialGradient>
  <radialGradient
   r="390.75"
   cy="26350"
   gradientUnits="userSpaceOnUse"
   xlink:href="#id4"
   cx="10303"
   id="id5">
  </radialGradient>
  <radialGradient
   r="313.85"
   cy="25752"
   gradientUnits="userSpaceOnUse"
   xlink:href="#id4"
   cx="13264"
   id="id6">
  </radialGradient>
  <radialGradient
   r="8484.4"
   cx="10661"
   cy="5813.7"
   gradientUnits="userSpaceOnUse"
   id="id7">
   <stop
   id="stop45"
   offset="0"
   stop-color="#FDFCF8" />
   <stop
   id="stop47"
   offset=".6"
   stop-color="#F6BD89" />
   <stop
   id="stop49"
   offset="1"
   stop-color="#EF7F1A" />
  </radialGradient>
 <radialGradient
   r="344.92"
   cy="25950"
   cx="8828.3"
   gradientUnits="userSpaceOnUse"
   id="radialGradient556"
   xlink:href="#id4"
   inkscape:collect="always" /><radialGradient
   r="390.75"
   cy="26350"
   cx="10303"
   gradientUnits="userSpaceOnUse"
   id="radialGradient558"
   xlink:href="#id4"
   inkscape:collect="always" /><radialGradient
   r="390.75"
   cy="26350"
   cx="10303"
   gradientUnits="userSpaceOnUse"
   id="radialGradient560"
   xlink:href="#id4"
   inkscape:collect="always" /><radialGradient
   r="390.75"
   cy="26350"
   cx="10303"
   gradientUnits="userSpaceOnUse"
   id="radialGradient562"
   xlink:href="#id4"
   inkscape:collect="always" /><radialGradient
   r="390.75"
   cy="26350"
   cx="10303"
   gradientUnits="userSpaceOnUse"
   id="radialGradient564"
   xlink:href="#id4"
   inkscape:collect="always" /></defs>
 <g
   transform="translate(0,-545.95588)"
   id="Layer_x0020_1">
  <g
   id="_459155680">
   <path
   id="path54"
   d="m 10152,22706 c 29,75 103,278 103,278 0,0 766,322 1471,-45 0,0 -5,-175 50,-284 l -78,25 31,-249 -53,-7 -34,274 -67,22 -20,167 c 0,0 -66,31 -172,42 l 41,-327 -53,-7 -43,347 c -89,21 -199,39 -322,44 l -3,-312 -53,1 3,313 c -90,1 -186,-6 -284,-25 l -86,-346 -51,13 79,321 c -58,-2 -146,-19 -207,-43 l -37,-178 -76,-9 -62,-251 -51,13 57,232 -83,-10 z"
   class="fil0" />
     <path
   id="path56"
   d="m 9935,27864 -87,144 c -10,-3 -20,-6 -31,-9 l -445,-311 93,-153 471,329 z"
   class="fil1 str0" />
     <path
   id="path58"
   d="m 9490,27896 235,-423 146,94 -214,385 c -55,-17 -111,-36 -168,-55 z"
   class="fil2 str0" />
     <polygon
   id="polygon60"
   class="fil1 str0"
   points="10192,27784 9721,27456 9814,27303 10285,27631 " />
     <polygon
   id="polygon62"
   class="fil2 str0"
   points="9787,27758 10075,27240 10221,27334 9933,27852 " />
     <path
   id="path64"
   d="m 9667,27954 19,-32 96,67 c -38,-11 -76,-23 -115,-35 z"
   class="fil1 str0" />
     <path
   id="path66"
   d="m 9863,28012 85,-152 146,94 -58,104 c -57,-14 -114,-29 -173,-46 z"
   class="fil2 str0" />
     <path
   id="path68"
   d="m 10509,28016 -75,124 c -26,-4 -53,-9 -79,-13 l -409,-286 93,-153 471,329 z"
   class="fil1 str0" />
     <path
   id="path70"
   d="m 10056,28063 243,-438 146,94 -213,384 c -58,-12 -117,-25 -176,-40 z"
   class="fil2 str0" />
     <path
   id="path72"
   d="m 10935,28056 -79,130 c -17,-1 -35,-2 -52,-3 l -433,-302 93,-153 471,329 z"
   class="fil1 str0" />
     <path
   id="path74"
   d="m 10459,28144 266,-479 146,94 -228,410 c -61,-7 -122,-15 -185,-24 z"
   class="fil2 str0" />
     <polygon
   id="polygon76"
   class="fil1 str0"
   points="11191,27976 10721,27648 10813,27494 11284,27823 " />
     <polygon
   id="polygon78"
   class="fil2 str0"
   points="10787,27950 11075,27432 11221,27526 10933,28044 " />
     <path
   id="path80"
   d="m 10653,28169 33,-55 95,66 c -43,-3 -85,-7 -128,-11 z"
   class="fil1 str0" />
     <path
   id="path82"
   d="m 10873,28186 75,-134 146,94 -25,45 c -65,0 -130,-1 -196,-4 z"
   class="fil2 str0" />
     <path
   id="path84"
   d="m 11168,28189 -223,-156 93,-153 414,289 c -95,10 -189,17 -283,20 z"
   class="fil1 str0" />
     <path
   id="path86"
   d="m 11092,28190 207,-373 146,94 -151,271 c -68,5 -135,7 -203,8 z"
   class="fil2 str0" />
     <polygon
   id="polygon88"
   class="fil1 str0"
   points="10349,27140 9878,26811 9971,26658 10441,26987 " />
     <polygon
   id="polygon90"
   class="fil2 str0"
   points="9944,27113 10232,26596 10378,26689 10090,27207 " />
     <polygon
   id="polygon92"
   class="fil1 str0"
   points="10698,26907 10228,26579 10320,26425 10791,26754 " />
     <polygon
   id="polygon94"
   class="fil2 str0"
   points="10294,26881 10581,26363 10727,26457 10440,26975 " />
     <polygon
   id="polygon96"
   class="fil1 str0"
   points="10571,27527 10100,27198 10193,27045 10664,27374 " />
     <polygon
   id="polygon98"
   class="fil2 str0"
   points="10166,27501 10454,26983 10600,27077 10312,27594 " />
     <polygon
   id="polygon100"
   class="fil1 str0"
   points="10923,27292 10452,26964 10545,26811 11015,27139 " />
     <polygon
   id="polygon102"
   class="fil2 str0"
   points="10518,27266 10806,26748 10952,26842 10664,27360 " />
     <polygon
   id="polygon104"
   class="fil1 str0"
   points="11369,27350 10899,27021 10991,26868 11462,27197 " />
     <polygon
   id="polygon106"
   class="fil2 str0"
   points="10965,27324 11252,26806 11398,26900 11111,27417 " />
     <polygon
   id="polygon108"
   class="fil1 str0"
   points="11719,27117 11248,26789 11341,26636 11811,26964 " />
     <polygon
   id="polygon110"
   class="fil2 str0"
   points="11314,27091 11602,26573 11748,26667 11460,27185 " />
     <polygon
   id="polygon112"
   class="fil1 str0"
   points="11591,27737 11121,27409 11213,27255 11684,27584 " />
     <polygon
   id="polygon114"
   class="fil2 str0"
   points="11187,27711 11475,27193 11621,27287 11333,27805 " />
     <polygon
   id="polygon116"
   class="fil1 str0"
   points="11943,27503 11472,27174 11565,27021 12036,27349 " />
     <polygon
   id="polygon118"
   class="fil2 str0"
   points="11539,27476 11826,26958 11972,27052 11685,27570 " />
     <path
   id="path120"
   d="m 11904,27992 -71,117 c -19,4 -39,8 -58,11 l -435,-304 93,-153 z"
   class="fil1 str0" />
     <path
   id="path122"
   d="m 11480,28165 -73,-47 288,-518 146,94 -254,457 c -36,5 -71,10 -107,14 z"
   class="fil2 str0" />
     <polygon
   id="polygon124"
   class="fil1 str0"
   points="12161,27912 11690,27584 11783,27431 12253,27759 " />
     <polygon
   id="polygon126"
   class="fil2 str0"
   points="11756,27886 12044,27368 12190,27462 11902,27980 " />
     <path
   id="path128"
   d="m 11595,28150 60,-100 104,73 c -55,10 -110,19 -164,27 z"
   class="fil1 str0" />
     <path
   id="path130"
   d="m 11852,28105 65,-117 117,75 c -61,15 -122,29 -182,41 z"
   class="fil2 str0" />
     <path
   id="path132"
   d="m 12046,28060 -131,-91 93,-153 263,184 c -76,22 -151,43 -225,61 z"
   class="fil1 str0" />
     <path
   id="path134"
   d="m 12107,28045 162,-291 146,94 -73,131 c -80,24 -158,47 -235,67 z"
   class="fil2 str0" />
     <polygon
   id="polygon136"
   class="fil1 str0"
   points="9388,27222 9076,27004 9050,26768 9480,27069 " />
     <polygon
   id="polygon138"
   class="fil2 str0"
   points="9105,27274 9078,27025 9271,26678 9417,26772 9129,27289 " />
     <polygon
   id="polygon140"
   class="fil1 str0"
   points="9737,26990 9267,26661 9359,26508 9830,26836 " />
     <polygon
   id="polygon142"
   class="fil2 str0"
   points="9333,26963 9621,26445 9767,26539 9479,27057 " />
     <polygon
   id="polygon144"
   class="fil1 str0"
   points="9610,27609 9139,27281 9232,27127 9703,27456 " />
     <polygon
   id="polygon146"
   class="fil2 str0"
   points="9205,27583 9493,27065 9639,27159 9351,27677 " />
     <polygon
   id="polygon148"
   class="fil1 str0"
   points="9962,27375 9491,27046 9584,26893 10054,27221 " />
     <polygon
   id="polygon150"
   class="fil2 str0"
   points="9557,27348 9845,26830 9991,26924 9703,27442 " />
     <path
   id="path152"
   d="m 9328,27704 -67,110 c -33,-12 -67,-25 -101,-38 l -22,-205 z"
   class="fil1 str0" />
     <polygon
   id="polygon154"
   class="fil2 str0"
   points="9119,27313 9265,27407 9144,27625 9111,27327 " />
     <path
   id="path156"
   d="m 9276,27820 68,-122 146,94 -48,87 c -54,-19 -109,-39 -165,-59 z"
   class="fil2 str0" />
     <polygon
   id="polygon158"
   class="fil1 str0"
   points="12534,27670 12064,27341 12156,27188 12627,27517 " />
     <polygon
   id="polygon160"
   class="fil2 str0"
   points="12130,27643 12417,27126 12563,27219 12276,27737 " />
     <polygon
   id="polygon162"
   class="fil1 str0"
   points="12884,27437 12413,27109 12506,26955 12976,27284 " />
     <polygon
   id="polygon164"
   class="fil2 str0"
   points="12479,27411 12767,26893 12913,26987 12625,27505 " />
     <path
   id="path166"
   d="m 12548,27911 -262,-183 93,-153 377,263 c -70,26 -139,50 -207,73 z"
   class="fil1 str0" />
     <path
   id="path168"
   d="m 12390,27963 250,-450 146,94 -153,276 c -83,29 -164,56 -243,81 z"
   class="fil2 str0" />
     <path
   id="path170"
   d="m 12939,27704 -302,-211 93,-153 229,160 c -7,65 -13,133 -20,204 z"
   class="fil1 str0" />
     <path
   id="path172"
   d="m 12764,27835 -61,-39 278,-499 c -15,134 -30,278 -45,437 l -26,47 c -49,19 -98,37 -146,55 z"
   class="fil2 str0" />
     <polygon
   id="polygon174"
   class="fil1 str0"
   points="12083,26875 11613,26546 11706,26393 12176,26722 " />
     <polygon
   id="polygon176"
   class="fil2 str0"
   points="11679,26848 11967,26331 12113,26424 11825,26942 " />
     <polygon
   id="polygon178"
   class="fil1 str0"
   points="12433,26642 11962,26314 12055,26160 12526,26489 " />
     <polygon
   id="polygon180"
   class="fil2 str0"
   points="12028,26616 12316,26098 12462,26192 12174,26710 " />
     <polygon
   id="polygon182"
   class="fil1 str0"
   points="12306,27262 11835,26933 11928,26780 12398,27109 " />
     <polygon
   id="polygon184"
   class="fil2 str0"
   points="11901,27236 12189,26718 12335,26812 12047,27329 " />
     <polygon
   id="polygon186"
   class="fil1 str0"
   points="12657,27027 12187,26699 12279,26546 12750,26874 " />
     <polygon
   id="polygon188"
   class="fil2 str0"
   points="12253,27001 12541,26483 12687,26577 12399,27095 " />
     <polygon
   id="polygon190"
   class="fil1 str0"
   points="9109,27310 9107,27286 9119,27294 " />
     <polygon
   id="polygon192"
   class="fil1 str0"
   points="9898,26345 9427,26016 9520,25863 9991,26192 " />
     <polygon
   id="polygon194"
   class="fil2 str0"
   points="9493,26318 9781,25801 9927,25894 9639,26412 " />
     <polygon
   id="polygon196"
   class="fil1 str0"
   points="10247,26112 9777,25784 9869,25630 10340,25959 " />
     <polygon
   id="polygon198"
   class="fil2 str0"
   points="9843,26086 10131,25568 10277,25662 9989,26180 " />
     <polygon
   id="polygon200"
   class="fil1 str0"
   points="10120,26732 9650,26403 9742,26250 10213,26579 " />
     <polygon
   id="polygon202"
   class="fil2 str0"
   points="9716,26706 10004,26188 10150,26282 9862,26799 " />
     <polygon
   id="polygon204"
   class="fil1 str0"
   points="10472,26497 10001,26169 10094,26016 10565,26344 " />
     <polygon
   id="polygon206"
   class="fil2 str0"
   points="10067,26471 10355,25953 10501,26047 10213,26565 " />
     <polygon
   id="polygon208"
   class="fil1 str0"
   points="10855,26266 10384,25937 10477,25784 10948,26113 " />
     <polygon
   id="polygon210"
   class="fil2 str0"
   points="10451,26240 10738,25722 10884,25816 10597,26333 " />
     <polygon
   id="polygon212"
   class="fil1 str0"
   points="11204,26034 10734,25705 10827,25552 11297,25880 " />
     <polygon
   id="polygon214"
   class="fil2 str0"
   points="10800,26007 11088,25489 11234,25583 10946,26101 " />
     <polygon
   id="polygon216"
   class="fil1 str0"
   points="11077,26653 10607,26325 10699,26172 11170,26500 " />
     <polygon
   id="polygon218"
   class="fil2 str0"
   points="10673,26627 10961,26109 11107,26203 10819,26721 " />
     <polygon
   id="polygon220"
   class="fil1 str0"
   points="11429,26419 10958,26090 11051,25937 11522,26265 " />
     <polygon
   id="polygon222"
   class="fil2 str0"
   points="11025,26392 11312,25875 11458,25968 11170,26486 " />
     <polygon
   id="polygon224"
   class="fil1 str0"
   points="12810,26396 12340,26067 12432,25914 12903,26242 " />
     <polygon
   id="polygon226"
   class="fil2 str0"
   points="12406,26369 12694,25851 12840,25945 12552,26463 " />
     <path
   id="path228"
   d="m 13121,26136 -432,-302 93,-153 360,251 c -7,70 -14,137 -21,203 z"
   class="fil1 str0" />
     <path
   id="path230"
   d="m 12901,26230 -146,-94 288,-518 120,77 c -2,26 -4,51 -6,75 l -255,459 z"
   class="fil2 str0" />
     <polygon
   id="polygon232"
   class="fil1 str0"
   points="13033,26783 12562,26454 12655,26301 13067,26589 13045,26762 " />
     <polygon
   id="polygon234"
   class="fil2 str0"
   points="12628,26756 12916,26239 13062,26332 12774,26850 " />
     <path
   id="path236"
   d="m 13097,26347 -183,-128 93,-153 114,79 c -8,69 -15,135 -23,202 z"
   class="fil1 str0" />
     <path
   id="path238"
   d="m 13068,26579 -89,-57 122,-220 c -11,93 -22,185 -34,277 z"
   class="fil2 str0" />
     <polygon
   id="polygon240"
   class="fil1 str0"
   points="11994,25847 11523,25519 11616,25365 12087,25694 " />
     <polygon
   id="polygon242"
   class="fil2 str0"
   points="11590,25821 11877,25303 12023,25397 11736,25915 " />
     <polygon
   id="polygon244"
   class="fil1 str0"
   points="12343,25615 11873,25286 11966,25133 12436,25462 " />
     <polygon
   id="polygon246"
   class="fil2 str0"
   points="11939,25588 12227,25071 12373,25164 12085,25682 " />
     <polygon
   id="polygon248"
   class="fil1 str0"
   points="12216,26235 11746,25906 11838,25753 12309,26081 " />
     <polygon
   id="polygon250"
   class="fil2 str0"
   points="11812,26208 12100,25690 12246,25784 11958,26302 " />
     <polygon
   id="polygon252"
   class="fil1 str0"
   points="12568,26000 12097,25671 12190,25518 12661,25847 " />
     <polygon
   id="polygon254"
   class="fil2 str0"
   points="12163,25974 12451,25456 12597,25550 12309,26067 " />
     <polygon
   id="polygon256"
   class="fil1 str0"
   points="10387,25464 9916,25135 10009,24982 10479,25310 " />
     <polygon
   id="polygon258"
   class="fil2 str0"
   points="9982,25437 10270,24919 10416,25013 10128,25531 " />
     <polygon
   id="polygon260"
   class="fil1 str0"
   points="10736,25231 10266,24902 10358,24749 10829,25078 " />
     <polygon
   id="polygon262"
   class="fil2 str0"
   points="10332,25205 10620,24687 10766,24781 10478,25298 " />
     <polygon
   id="polygon264"
   class="fil1 str0"
   points="10609,25851 10138,25522 10231,25369 10702,25698 " />
     <polygon
   id="polygon266"
   class="fil2 str0"
   points="10205,25824 10492,25307 10638,25400 10351,25918 " />
     <polygon
   id="polygon268"
   class="fil1 str0"
   points="10961,25616 10490,25287 10583,25134 11053,25463 " />
     <polygon
   id="polygon270"
   class="fil2 str0"
   points="10556,25590 10844,25072 10990,25166 10702,25683 " />
     <polygon
   id="polygon272"
   class="fil1 str0"
   points="9095,25827 9565,26155 9473,26309 9002,25980 " />
     <polygon
   id="polygon274"
   class="fil2 str0"
   points="9499,25853 9211,26371 9065,26277 9353,25760 " />
     <polygon
   id="polygon276"
   class="fil1 str0"
   points="9216,26388 9123,26541 9017,26467 8991,26231 " />
     <polygon
   id="polygon278"
   class="fil2 str0"
   points="9150,26086 9004,26348 8971,26050 9004,25992 " />
     <polygon
   id="polygon280"
   class="fil1 str0"
   points="9343,25768 9250,25921 8933,25700 8907,25464 " />
     <polygon
   id="polygon282"
   class="fil2 str0"
   points="9277,25466 8989,25984 8962,25967 8936,25723 9131,25372 " />
     <polygon
   id="polygon284"
   class="fil1 str0"
   points="8991,26003 8970,26038 8964,25984 " />
     <path
   id="path286"
   d="m 12795,26857 93,-153 152,106 c -8,65 -16,132 -25,201 l -220,-153 z"
   class="fil1 str0" />
     <path
   id="path288"
   d="m 12988,27237 -130,-83 178,-320 c -16,127 -32,259 -48,403 z"
   class="fil2 str0" />
     <polygon
   id="polygon290"
   class="fil1 str0"
   points="9871,25597 9573,26108 9429,26011 9727,25500 " />
     <polygon
   id="polygon292"
   class="fil2 str0"
   points="9854,26032 9367,25732 9452,25573 9938,25874 " />
     <polygon
   id="polygon294"
   class="fil1 str0"
   points="9649,25226 9351,25737 9207,25640 9505,25129 " />
     <polygon
   id="polygon296"
   class="fil2 str0"
   points="9631,25661 9145,25360 9230,25202 9716,25502 " />
     <polygon
   id="polygon298"
   class="fil1 str0"
   points="10228,25352 9930,25863 9786,25766 10084,25255 " />
     <polygon
   id="polygon300"
   class="fil2 str0"
   points="10210,25787 9724,25487 9809,25328 10295,25629 " />
     <polygon
   id="polygon302"
   class="fil1 str0"
   points="10004,24978 9706,25489 9562,25392 9860,24881 " />
     <polygon
   id="polygon304"
   class="fil2 str0"
   points="9986,25413 9500,25113 9584,24954 10071,25255 " />
     <polygon
   id="polygon306"
   class="fil1 str0"
   points="9205,26373 9038,26660 9007,26370 9061,26276 " />
     <polygon
   id="polygon308"
   class="fil2 str0"
   points="9187,26808 9045,26720 9020,26494 9272,26650 " />
     <polygon
   id="polygon310"
   class="fil1 str0"
   points="8983,26002 8969,26026 8965,25989 " />
     <polygon
   id="polygon312"
   class="fil2 str0"
   points="8995,26264 8990,26220 9012,26233 " />
     <polygon
   id="polygon314"
   class="fil1 str0"
   points="9562,26128 9264,26639 9120,26542 9418,26031 " />
     <polygon
   id="polygon316"
   class="fil2 str0"
   points="9544,26563 9058,26263 9142,26104 9629,26405 " />
     <polygon
   id="polygon318"
   class="fil1 str0"
   points="9338,25754 9040,26265 8991,26233 8970,26040 9194,25657 " />
     <polygon
   id="polygon320"
   class="fil2 str0"
   points="9320,26189 8963,25968 8938,25742 9405,26031 " />
     <polygon
   id="polygon322"
   class="fil1 str0"
   points="10969,27561 10670,28072 10526,27975 10825,27464 " />
     <polygon
   id="polygon324"
   class="fil2 str0"
   points="10951,27996 10464,27696 10549,27537 11035,27838 " />
     <polygon
   id="polygon326"
   class="fil1 str0"
   points="10747,27190 10448,27701 10304,27604 10602,27093 " />
     <polygon
   id="polygon328"
   class="fil2 str0"
   points="10729,27625 10242,27324 10327,27166 10813,27466 " />
     <polygon
   id="polygon330"
   class="fil1 str0"
   points="11325,27316 11027,27827 10883,27730 11181,27219 " />
     <polygon
   id="polygon332"
   class="fil2 str0"
   points="11307,27751 10821,27451 10906,27292 11392,27593 " />
     <polygon
   id="polygon334"
   class="fil1 str0"
   points="11101,26942 10803,27453 10659,27356 10957,26845 " />
     <polygon
   id="polygon336"
   class="fil2 str0"
   points="11083,27377 10597,27077 10682,26918 11168,27219 " />
     <polygon
   id="polygon338"
   class="fil1 str0"
   points="11401,26641 11103,27152 10958,27055 11257,26544 " />
     <polygon
   id="polygon340"
   class="fil1 str0"
   points="11179,26269 10880,26780 10736,26683 11034,26172 " />
     <polygon
   id="polygon342"
   class="fil2 str0"
   points="11161,26704 10674,26403 10759,26245 11245,26546 " />
     <polygon
   id="polygon344"
   class="fil1 str0"
   points="11757,26396 11459,26907 11315,26810 11613,26299 " />
     <polygon
   id="polygon346"
   class="fil2 str0"
   points="11739,26831 11253,26530 11338,26372 11824,26672 " />
     <polygon
   id="polygon348"
   class="fil1 str0"
   points="11533,26022 11235,26533 11091,26436 11389,25925 " />
     <polygon
   id="polygon350"
   class="fil2 str0"
   points="11515,26457 11029,26156 11114,25998 11600,26298 " />
     <polygon
   id="polygon352"
   class="fil2 str0"
   points="10887,26779 11175,26262 11321,26355 11033,26873 " />
     <polygon
   id="polygon354"
   class="fil1 str0"
   points="12082,25906 11611,25577 11704,25424 12174,25753 " />
     <polygon
   id="polygon356"
   class="fil1 str0"
   points="11954,26526 11484,26197 11576,26044 12047,26373 " />
     <polygon
   id="polygon358"
   class="fil2 str0"
   points="11550,26499 11838,25982 11984,26075 11696,26593 " />
     <polygon
   id="polygon360"
   class="fil1 str0"
   points="12306,26291 11835,25962 11928,25809 12399,26138 " />
     <polygon
   id="polygon362"
   class="fil2 str0"
   points="11902,26265 12189,25747 12335,25841 12048,26358 " />
     <polygon
   id="polygon364"
   class="fil2 str0"
   points="11745,26130 11259,25829 11344,25671 11830,25971 " />
     <polygon
   id="polygon366"
   class="fil1 str0"
   points="11193,25532 10723,25203 10815,25050 11286,25379 " />
     <polygon
   id="polygon368"
   class="fil2 str0"
   points="10789,25505 11077,24988 11223,25081 10935,25599 " />
     <polygon
   id="polygon370"
   class="fil1 str0"
   points="11543,25299 11072,24971 11165,24817 11635,25146 " />
     <polygon
   id="polygon372"
   class="fil2 str0"
   points="11138,25273 11426,24755 11572,24849 11284,25367 " />
     <polygon
   id="polygon374"
   class="fil1 str0"
   points="11415,25919 10945,25590 11038,25437 11508,25766 " />
     <polygon
   id="polygon376"
   class="fil1 str0"
   points="11767,25684 11297,25356 11389,25203 11860,25531 " />
     <polygon
   id="polygon378"
   class="fil2 str0"
   points="11363,25658 11651,25140 11797,25234 11509,25752 " />
     <path
   id="path380"
   d="m 11409,24736 -93,153 -365,-255 h 82 c 79,0 157,1 233,2 z"
   class="fil1 str0" />
     <path
   id="path382"
   d="m 11058,24957 -146,-94 127,-229 c 66,0 132,1 197,2 z"
   class="fil2 str0" />
     <path
   id="path384"
   d="m 11433,24712 -116,-75 c 52,1 104,3 155,5 l -39,69 z"
   class="fil2 str0" />
     <polygon
   id="polygon386"
   class="fil1 str0"
   points="12121,24718 12591,25047 12498,25200 12028,24871 " />
     <path
   id="path388"
   d="m 12523,24749 -286,514 -146,-94 250,-450 c 63,9 124,19 182,30 z"
   class="fil2 str0" />
     <polygon
   id="polygon390"
   class="fil1 str0"
   points="11771,24951 12242,25279 12149,25433 11678,25104 " />
     <polygon
   id="polygon392"
   class="fil2 str0"
   points="12176,24977 11888,25495 11742,25401 12030,24883 " />
     <path
   id="path394"
   d="m 12334,24718 -57,95 -179,-125 c 82,9 161,19 236,30 z"
   class="fil1 str0" />
     <path
   id="path396"
   d="m 12118,24690 -103,185 -146,-94 61,-110 c 64,6 127,12 188,19 z"
   class="fil2 str0" />
     <path
   id="path398"
   d="m 11454,24719 45,-75 c 58,2 115,5 172,9 l 346,242 -93,153 -471,-329 z"
   class="fil1 str0" />
     <path
   id="path400"
   d="m 11908,24670 -245,440 -146,-94 200,-361 c 65,4 128,9 190,14 z"
   class="fil2 str0" />
     <polygon
   id="polygon402"
   class="fil2 str0"
   points="11621,25783 11135,25483 11220,25324 11706,25625 " />
     <path
   id="path404"
   d="m 12381,27966 67,-110 87,60 c -52,17 -103,34 -153,50 z"
   class="fil1 str0" />
     <path
   id="path406"
   d="m 12666,27871 43,-77 62,40 c -35,13 -70,26 -105,38 z"
   class="fil2 str0" />
     <path
   id="path408"
   d="m 12780,27829 -76,-53 93,-153 141,98 -5,50 c -52,20 -103,39 -153,58 z"
   class="fil1 str0" />
     <path
   id="path410"
   d="m 12675,27789 -60,100 c -24,9 -49,17 -73,25 l -430,-300 93,-153 471,329 z"
   class="fil1 str0" />
     <path
   id="path412"
   d="m 12297,27991 -118,-76 288,-518 146,94 -270,486 c -15,5 -30,9 -45,14 z"
   class="fil2 str0" />
     <path
   id="path414"
   d="m 12934,27757 -165,-115 93,-153 92,64 c -7,65 -13,133 -20,204 z"
   class="fil1 str0" />
     <polygon
   id="polygon416"
   class="fil2 str0"
   points="12933,27768 12933,27772 12931,27772 " />
     <path
   id="path418"
   d="m 12955,27545 -428,-299 93,-153 357,249 c -7,65 -14,133 -21,203 z"
   class="fil1 str0" />
     <polygon
   id="polygon420"
   class="fil2 str0"
   points="12593,27548 12881,27031 13003,27109 12994,27183 12739,27642 " />
     <path
   id="path422"
   d="m 12978,27323 -35,-25 47,-77 c -4,33 -8,67 -11,102 z"
   class="fil1 str0" />
     <path
   id="path424"
   d="m 13150,25842 -210,-147 93,-153 135,94 c -6,71 -11,140 -17,206 z"
   class="fil1 str0" />
     <path
   id="path426"
   d="m 13127,26076 -121,-78 154,-278 c -10,126 -22,243 -33,355 z"
   class="fil2 str0" />
     <polygon
   id="polygon428"
   class="fil1 str0"
   points="12915,25803 12444,25474 12537,25321 13007,25649 " />
     <polygon
   id="polygon430"
   class="fil2 str0"
   points="12510,25776 12798,25258 12944,25352 12656,25870 " />
     <path
   id="path432"
   d="m 13177,25509 -383,-268 93,-153 304,212 c -4,72 -9,142 -13,209 z"
   class="fil1 str0" />
     <path
   id="path434"
   d="m 13006,25637 -146,-94 288,-518 55,36 c -4,85 -8,167 -13,244 z"
   class="fil2 str0" />
     <path
   id="path436"
   d="m 13139,25964 -55,-35 70,-125 c -5,55 -10,108 -15,160 z"
   class="fil2 str0" />
     <polygon
   id="polygon438"
   class="fil1 str0"
   points="12672,25407 12202,25078 12294,24925 12765,25254 " />
     <polygon
   id="polygon440"
   class="fil2 str0"
   points="12268,25380 12556,24863 12702,24956 12414,25474 " />
     <path
   id="path442"
   d="m 13195,25224 -175,-122 93,-153 73,51 c 12,18 18,36 18,54 -3,59 -6,115 -9,170 z"
   class="fil1 str0" />
     <path
   id="path444"
   d="m 13180,25465 -94,-61 110,-198 c -5,91 -10,176 -16,258 z"
   class="fil2 str0" />
     <path
   id="path446"
   d="m 13111,25043 -93,153 -471,-329 62,-102 c 55,11 106,23 155,35 l 347,242 z"
   class="fil1 str0" />
     <path
   id="path448"
   d="m 12760,25264 -146,-94 198,-356 c 63,17 119,36 168,55 z"
   class="fil2 str0" />
     <path
   id="path450"
   d="m 13110,25031 -146,-94 34,-62 c 65,27 116,55 151,85 z"
   class="fil2 str0" />
     <polygon
   id="polygon452"
   class="fil2 str0"
   points="13188,25323 13189,25320 13189,25323 " />
     <path
   id="path454"
   d="m 12518,24868 -146,-94 26,-47 c 63,10 123,20 181,32 l -60,109 z"
   class="fil2 str0" />
     <path
   id="path456"
   d="m 10030,24738 36,-60 c 55,-5 111,-10 169,-15 l 358,250 -93,153 -471,-329 z"
   class="fil1 str0" />
     <path
   id="path458"
   d="m 10508,24647 -268,482 -146,-94 209,-377 c 67,-5 135,-9 205,-12 z"
   class="fil2 str0" />
     <polygon
   id="polygon460"
   class="fil1 str0"
   points="10715,24748 11185,25077 11093,25230 10622,24901 " />
     <polygon
   id="polygon462"
   class="fil2 str0"
   points="11119,24774 10832,25292 10686,25198 10973,24681 " />
     <path
   id="path464"
   d="m 9115,25118 -93,153 -148,-103 -11,-100 c -1,-4 -1,-9 -1,-13 0,-28 15,-56 43,-83 l 210,147 z"
   class="fil1 str0" />
     <path
   id="path466"
   d="m 9006,24904 -133,240 -8,-76 c -1,-4 -1,-9 -1,-13 0,-53 51,-103 143,-150 z"
   class="fil2 str0" />
     <polygon
   id="polygon468"
   class="fil1 str0"
   points="8945,25811 8923,25605 9026,25677 " />
     <polygon
   id="polygon470"
   class="fil2 str0"
   points="8932,25687 8912,25505 9130,25112 9276,25206 8989,25723 " />
     <polygon
   id="polygon472"
   class="fil2 str0"
   points="9215,25646 8906,25455 8882,25229 9300,25488 " />
     <path
   id="path474"
   d="m 9403,24901 -93,153 -251,-175 c 59,-25 130,-48 211,-70 l 132,92 z"
   class="fil1 str0" />
     <path
   id="path476"
   d="m 9052,25122 -146,-94 55,-99 c 60,-38 147,-73 256,-105 z"
   class="fil2 str0" />
     <path
   id="path478"
   d="m 9742,24717 -56,93 -99,-69 c 50,-9 101,-17 155,-24 z"
   class="fil1 str0" />
     <path
   id="path480"
   d="m 9427,24877 -121,-77 c 58,-15 120,-28 187,-41 l -66,119 z"
   class="fil2 str0" />
     <path
   id="path482"
   d="m 9505,24760 3,-5 c 76,-15 158,-28 245,-40 l 316,220 -93,153 -471,-329 z"
   class="fil1 str0" />
     <path
   id="path484"
   d="m 9972,24688 -258,463 -146,-94 191,-343 c 68,-10 139,-18 213,-26 z"
   class="fil2 str0" />
     <polygon
   id="polygon486"
   class="fil1 str0"
   points="9222,24851 9693,25180 9600,25333 9130,25005 " />
     <polygon
   id="polygon488"
   class="fil2 str0"
   points="9627,24878 9339,25396 9193,25302 9481,24784 " />
     <path
   id="path490"
   d="m 10765,24637 -31,52 -70,-49 102,-3 z"
   class="fil1 str0" />
     <path
   id="path492"
   d="m 10638,24641 -102,184 -146,-94 45,-81 c 66,-4 134,-7 203,-9 z"
   class="fil2 str0" />
     <path
   id="path494"
   d="m 10279,24660 172,120 -93,153 -357,-249 c 89,-9 181,-17 277,-24 z"
   class="fil1 str0" />
     <path
   id="path496"
   d="m 10284,24660 -187,336 -146,-94 125,-225 c 67,-6 137,-12 208,-17 z"
   class="fil2 str0" />
     <path
   id="path498"
   d="m 10983,24634 -108,194 -146,-94 54,-98 c 66,-1 132,-2 200,-3 z"
   class="fil2 str0" />
    <path
   style="fill:url(#id6)"
   id="path500"
   d="m 13286,25364 c 60,47 102,153 102,277 0,167 -76,302 -169,302 -30,0 -59,-14 -83,-39 l 52,-791 h 143 z"
   class="fil3 str1" />
    <path
   style="fill:url(#radialGradient556)"
   id="path502"
   d="m 8976,26088 c -32,45 -72,72 -115,72 -102,0 -185,-149 -185,-332 0,-125 39,-234 96,-291 l -52,-290 h 150 l 108,841 z"
   class="fil4 str1" />
    <path
   style="fill:url(#id7)"
   id="path504"
   d="m 10507,1502 c 4261,0 7715,3608 7715,8058 0,1849 -597,3553 -1600,4913 h 1 c -1689,2634 -3272,3427 -3505,7396 -1663,1049 -2677,1193 -4433,0 C 8393,19259 5824,16972 4428,14523 3403,13155 2792,11432 2792,9561 2792,5111 6246,1503 10507,1503 Z"
   class="fil5" />
    <path
   id="path506"
   d="m 13198,25062 c 0,-232 -972,-420 -2170,-420 -1199,0 -2170,188 -2170,420 0,4 0,9 1,13 l 297,2710 c 1485,566 2362,539 3772,-6 105,-1140 214,-1522 270,-2717 z"
   class="fil6 str2" />
    <path
   id="path508"
   d="m 11024,25548 c 1079,0 1950,-208 1950,-417 0,-209 -874,-378 -1953,-378 -1079,0 -1953,169 -1953,378 0,209 878,417 1957,417 z"
   class="fil6 str2" />
    <path
   id="path510"
   d="m 17505,12958 c -1337,3618 -2976,8891 -4314,12509 -1373,513 -2743,546 -4269,35 L 3551,12885"
   class="fil6 str3" />
    <path
   style="fill:url(#id1)"
   id="path512"
   d="m 10507,1502 c 0,0 -6102,2091 -5150,8532 0,0 896,4369 3528,8905 0,0 1100,2108 865,3526 0,0 -832,-371 -1065,-597 0,0 -50,-1739 -2258,-4479 -70,-420 -4315,-4551 -3575,-8837 0,0 741,-6737 7655,-7050 z"
   class="fil7" />
    <path
   style="fill:url(#id0)"
   id="path514"
   d="m 10683,1504 c 0,0 6102,2091 5150,8532 -840,4096 -4487,9114 -3931,12469 0,0 981,-410 1215,-636 0,0 91,-3025 1600,-4785 358,-813 4041,-3907 3455,-8446 0,0 -644,-6667 -7488,-7134 z"
   class="fil8" />
    <path
   style="fill:url(#id3)"
   id="path516"
   d="m 11005,2291 c 0,0 3297,3360 1948,8513 -1267,4839 -1882,11823 -1892,11899 -10,76 -907,-95 -907,-95 l -21,-458 c -83,-1741 -350,-4593 -599,-5937 -250,-1344 0,-280 -1349,-5433 -1349,-5153 1948,-8513 1948,-8513 99,93 215,132 317,145 92,6 362,10 555,-121 z"
   class="fil9" />
    <ellipse
   style="fill:url(#id2)"
   id="ellipse518"
   ry="490"
   class="fil10"
   rx="1568"
   cx="10481"
   cy="2007" />
    <path
   id="path520"
   d="m 8869,25062 c 0,14 124,525 1426,567 0,0 1029,8 1162,169 1227,547 999,2426 -1184,2307 0,0 -865,-194 -1108,-333 l -297,-2710 z"
   class="fil11" />
    <path
   style="fill:url(#radialGradient558)"
   id="path522"
   d="m 10383,25866 c 74,58 126,191 126,345 0,208 -94,376 -210,376 -116,0 -210,-168 -210,-376 0,-142 44,-265 109,-329 l -59,-328 h 301 l -56,312 z"
   class="fil12 str1" />
    <path
   style="fill:url(#radialGradient560)"
   id="path524"
   d="m 9528,25740 c 74,58 126,191 126,345 0,208 -94,376 -210,376 -116,0 -210,-168 -210,-376 0,-142 44,-265 109,-329 l -59,-328 h 301 l -56,312 z"
   class="fil12 str1" />
    <path
   style="fill:url(#radialGradient562)"
   id="path526"
   d="m 11237,25894 c 74,58 126,191 126,345 0,208 -94,376 -210,376 -116,0 -210,-168 -210,-376 0,-142 44,-265 109,-329 l -59,-328 h 301 l -56,312 z"
   class="fil12 str1" />
    <path
   style="fill:url(#radialGradient564)"
   id="path528"
   d="m 12091,25810 c 74,58 126,191 126,345 0,208 -94,376 -210,376 -116,0 -210,-168 -210,-376 0,-142 44,-265 109,-329 l -59,-328 h 301 l -56,312 z"
   class="fil12 str1" />
    <path
   id="path530"
   d="m 10833,24898 c 1314,170 1310,699 70,650 -2430,-4 -2370,-913 -70,-650 z"
   class="fil13" />
    <path
   id="path532"
   d="m 9153,25021 c 0,0 661,-346 2369,-254 424,23 903,99 1308,215 40,9 252,164 11,293 0,0 -536,245 -1299,258 0,0 536,-297 -29,-471 0,0 -1208,-156 -2102,32 0,0 -323,96 -259,-72 z"
   class="fil14" />
    <path
   id="path534"
   d="m 10461,24374 c 0,0 -34,-39 -37,-145 0,0 11,-125 68,-150 0,0 95,-65 169,5 0,0 81,36 60,107 0,0 -5,134 -34,200 l -31,64 2,88 c 20,30 55,59 101,60 39,8 83,4 117,25 126,108 218,213 285,325 27,117 39,226 22,420 18,88 116,39 73,191 -29,8 -65,27 -91,-1 0,-77 -16,-38 -27,-68 -19,24 -14,-4 -37,61 -20,13 -23,-15 -23,-32 0,-37 10,-71 38,-101 -15,-194 -68,-332 -73,-429 l -178,-150 c 17,123 -36,280 -99,416 10,143 -12,132 -2,276 -180,1 -362,-9 -572,-36 21,-65 42,-131 63,-196 28,-131 34,-183 -10,-448 l -187,149 c -29,82 -68,114 -87,245 l -10,83 50,60 c 15,24 14,4 9,58 -5,25 -3,31 -36,23 5,-24 13,-25 0,-44 -17,-7 8,-8 -15,-9 -90,5 -44,125 -106,120 -12,-73 -79,-103 -51,-145 l 64,-60 c 15,-42 -1,-156 14,-199 20,-57 40,-113 60,-170 100,-143 147,-195 270,-320 43,-87 104,-84 127,-82 65,8 78,-6 103,-17 24,-14 51,-20 46,-115 l -35,-57 z"
   class="fil15" />
    <path
   id="path536"
   d="m 9288,24220 c -80,-112 -79,-329 92,-344 141,5 215,135 175,268 l -25,93 c 0,21 0,42 1,62 26,54 76,76 155,73 l 224,-176 c 0,0 -260,-138 -343,-176 -4,-27 -10,-64 -40,-91 l 126,18 c 93,23 438,130 479,186 0,0 -24,80 -122,197 0,0 -126,160 -211,214 0,0 165,306 116,443 l -26,98 c -26,131 -17,163 -17,181 0,45 -5,48 -34,78 -15,16 -30,18 -43,40 -6,10 5,22 -16,34 -22,12 -312,-41 -540,-136 0,0 -86,-540 -25,-718 0,0 -357,-87 -412,-270 0,0 123,-241 387,-288 l 56,-15 c 0,0 -12,61 -6,90 0,0 -143,128 -241,166 l -22,20 c 0,0 245,63 265,97 96,13 112,-49 71,-124 l -22,-21 z"
   class="fil15" />
    <path
   id="path538"
   d="m 10937,23674 -44,130 c -6,-3 -12,0 -14,7 l -41,94 c -2,36 9,122 9,122 l 81,65 c 14,82 28,164 42,246 154,149 352,162 287,231 l -42,44 c -55,140 66,158 66,158 38,190 -64,527 -64,527 -20,31 -34,102 49,143 26,13 20,51 21,90 347,-11 485,-43 485,-43 -2,-196 -120,-307 -120,-307 -11,-97 64,-217 64,-217 55,-124 47,-290 47,-290 -21,-61 -58,-82 -58,-82 l -95,-102 c 106,98 188,-26 188,-26 -68,13 -134,-37 -114,-51 -40,-60 109,-98 95,-246 40,-112 -47,-159 -47,-159 -377,-125 -302,346 -302,346 26,9 33,87 -12,87 l -47,-13 -12,-20 c -29,-29 -96,-43 -96,-43 -77,-13 -149,-37 -231,-121 l -38,-170 -30,-51 c 22,-41 13,-21 26,-59 13,-38 7,-38 5,-54 4,-3 9,-8 13,-15 l 77,-211 c 0,0 20,-41 -14,-45 l -84,-25 c 0,0 -30,-10 -35,11 l -15,50 z m -37,228 1,1 62,13 c -10,88 -56,41 -56,41 l -13,-28 c 2,-10 4,-18 5,-27 z"
   class="fil15" />
     <line
   id="line540"
   class="fil6 str4"
   y2="25580"
   x1="8685"
   x2="9128"
   y1="21868" />
     <line
   id="line542"
   class="fil6 str4"
   y2="25559"
   x1="13118"
   x2="12932"
   y1="21868" />
    <path
   style="fill:url(#id5)"
   id="path544"
   d="m 12945,25642 c 74,58 126,191 126,345 0,208 -94,376 -210,376 -116,0 -210,-168 -210,-376 0,-142 44,-265 109,-329 l -59,-328 h 301 l -56,312 z"
   class="fil12 str1" />
    <path
   id="path546"
   d="m 12764,23740 c -18,-36 -47,-50 -91,-67 -36,-5 -81,-3 -121,4 -37,9 -68,19 -99,51 -38,40 -64,71 -69,152 6,35 14,61 23,97 10,35 8,104 -55,134 0,0 -133,39 -229,283 -23,172 3,191 -32,425 16,51 -119,243 78,387 84,195 53,102 80,246 100,-18 141,-32 365,-95 -25,-195 -43,-237 -132,-459 53,-149 141,-238 158,-447 l 66,279 15,75 c 13,64 191,129 359,200 l 46,63 21,29 55,6 c 0,0 13,-118 -38,-172 l -86,-22 c 0,0 -163,-96 -210,-162 0,0 -50,-151 -81,-308 0,0 7,-99 -35,-160 0,0 -124,-60 -137,-121 l -1,-51 c 0,0 65,23 88,19 0,0 20,-47 23,-82 l 43,11 c 6,-6 12,-22 1,-34 -11,-39 -20,-55 -13,-78 l 2,-47 19,-49 47,-7 44,-28 -33,-7 -25,-1 27,-24 -32,-1 v -30 c -15,0 -28,-9 -43,-10 z"
   class="fil15" />
  </g>
 </g>
</svg>
