<?xml version="1.0" encoding="UTF-8" standalone="no"?>
<svg
   xmlns:dc="http://purl.org/dc/elements/1.1/"
   xmlns:cc="http://creativecommons.org/ns#"
   xmlns:rdf="http://www.w3.org/1999/02/22-rdf-syntax-ns#"
   xmlns:svg="http://www.w3.org/2000/svg"
   xmlns="http://www.w3.org/2000/svg"
   xmlns:xlink="http://www.w3.org/1999/xlink"
   xmlns:sodipodi="http://sodipodi.sourceforge.net/DTD/sodipodi-0.dtd"
   xmlns:inkscape="http://www.inkscape.org/namespaces/inkscape"
   inkscape:version="1.0 (4035a4f, 2020-05-01)"
   inkscape:output_extension="org.inkscape.output.svg.inkscape"
   version="1.0"
   sodipodi:version="0.32"
   viewBox="0 0 81.569 134.31"
   sodipodi:docname="3.svg"
   id="svg3243">
  <defs
     id="defs3246">
    <linearGradient
       inkscape:collect="always"
       x1="126.57"
       y1="574.35"
       gradientTransform="matrix(3.9279 0 0 3.9279 312.68 -1030.7)"
       x2="125.97"
       gradientUnits="userSpaceOnUse"
       y2="534.94"
       id="linearGradient5655">
      <stop
         offset="0"
         style="stop-color:#722b15"
         id="stop15881" />
      <stop
         offset="1"
         style="stop-color:#a56706"
         id="stop15883" />
    </linearGradient>
    <linearGradient
       inkscape:collect="always"
       x1="210.08"
       y1="492.88"
       x2="210.08"
       gradientUnits="userSpaceOnUse"
       xlink:href="#linearGradient5657"
       y2="480.91"
       id="linearGradient5653" />
    <linearGradient
       inkscape:collect="always"
       x1="799.62"
       y1="33.352"
       x2="799.62"
       gradientUnits="userSpaceOnUse"
       xlink:href="#linearGradient5657"
       y2="939.84"
       id="linearGradient5651" />
    <linearGradient
       inkscape:collect="always"
       x1="875"
       y1="256.37"
       gradientTransform="matrix(0.70069,0,0,1.0002,188.9,-223.46)"
       x2="875"
       gradientUnits="userSpaceOnUse"
       y2="1087.3"
       id="linearGradient5649">
      <stop
         offset="0"
         style="stop-color:#ffffff"
         id="stop5665" />
      <stop
         offset="1"
         style="stop-color:#ddd6ce"
         id="stop5667" />
    </linearGradient>
    <linearGradient
       id="linearGradient5657">
      <stop
         offset="0"
         style="stop-color:#216ed2"
         id="stop5659" />
      <stop
         offset="1"
         style="stop-color:#6dbffa"
         id="stop5661" />
    </linearGradient>
    <linearGradient
       gradientTransform="translate(-73.333,-223.33)"
       inkscape:collect="always"
       x1="854.1"
       y1="256.37"
       x2="875"
       gradientUnits="userSpaceOnUse"
       xlink:href="#linearGradient5657"
       y2="1146.9"
       id="linearGradient5647" />
    <filter
       id="filter250"
       inkscape:label="Color Shift"
       style="color-interpolation-filters:sRGB;">
      <feColorMatrix
         id="feColorMatrix246"
         result="color1"
         values="279"
         type="hueRotate" />
      <feColorMatrix
         id="feColorMatrix248"
         result="color2"
         values="0.841317"
         type="saturate" />
    </filter>
    <filter
       id="filter256"
       inkscape:label="Color Shift"
       style="color-interpolation-filters:sRGB;">
      <feColorMatrix
         id="feColorMatrix252"
         result="color1"
         values="279"
         type="hueRotate" />
      <feColorMatrix
         id="feColorMatrix254"
         result="color2"
         values="0.841317"
         type="saturate" />
    </filter>
  </defs>
  <sodipodi:namedview
     inkscape:window-maximized="0"
     inkscape:document-rotation="0"
     inkscape:window-width="1327"
     inkscape:pageopacity="0.0"
     showgrid="false"
     inkscape:window-height="758"
     inkscape:window-x="0"
     inkscape:window-y="23"
     inkscape:cy="67.154999"
     inkscape:cx="40.7845"
     inkscape:current-layer="g5619"
     borderopacity="1.0"
     objecttolerance="10.0"
     inkscape:zoom="3.2855619"
     gridtolerance="10.0"
     pagecolor="#ffffff"
     guidetolerance="10.0"
     inkscape:pageshadow="2"
     bordercolor="#666666"
     id="base" />
  <g
     transform="matrix(.11260 0 0 .11260 -49.479 -3.6815)"
     id="g5619">
    <path
       id="path5623"
       sodipodi:nodetypes="cccssc"
       style="fill:url(#linearGradient5647);fill-rule:evenodd;stroke:#000000;stroke-width:0.25;filter:url(#filter250)"
       d="m 1163.367,420 c 0,147.57 -145.8,339.12 -255.64,443.67 -125.02,-2 -76.52,-2.6 -218.61,2.2 C 580.917,761.63 439.997,568.11 439.997,420 c 0,-213.44 162.03,-386.66 361.67,-386.66 199.6,0 361.7,173.22 361.7,386.66 z" />
    <path
       id="path5625"
       sodipodi:nodetypes="cccsssc"
       style="fill:url(#linearGradient5649);fill-rule:evenodd;stroke:#000000;stroke-width:0.5"
       d="m 1055.4,419.99 c 0,146.9 -101.18,337.38 -178,442.26 -93.65,0.05 -55.19,-0.54 -155.81,1.5 -75.61,-104.71 -173,-296.64 -173,-443.76 0,-213.48 113.53,-386.74 253.41,-386.74 118.63,0.002 218.3,124.62 245.9,292.69 4.9,30.11 7.5,61.62 7.5,94.05 z" />
    <path
       id="path5627"
       sodipodi:nodetypes="cccssc"
       style="fill:url(#linearGradient5651);fill-rule:evenodd;stroke:#000000;stroke-width:0.62496;filter:url(#filter256)"
       d="m 895.59,419.99 c 0,146.55 -38.23,336.52 -67.3,441.37 -56.67,0.42 1.48,-0.02 -59.47,0.63 -28.59,-104.87 -65.17,-295.64 -65.17,-442 0,-213.25 42.99,-386.32 95.97,-386.32 52.97,-0.005 95.97,173.07 95.97,386.32 z" />
    <g
       transform="translate(7.0207 74.302)"
       style="stroke:#000000"
       id="g5629">
      <path
         d="m688.86 791.44c18.84 67.69 33.72 137.27 43.73 207.16"
         style="stroke:#000000;stroke-width:1px;fill:none"
         sodipodi:nodetypes="cc"
         id="path5631" />
      <path
         d="m745.62 791.42l23.51 206.63"
         style="stroke:#000000;stroke-width:1px;fill:none"
         sodipodi:nodetypes="cc"
         id="path5633" />
      <path
         d="m826.53 791.66l-10.14 206.25"
         style="stroke:#000000;stroke-width:1px;fill:none"
         sodipodi:nodetypes="cc"
         id="path5639" />
      <path
         d="m890.59 791.46c-18.16 70.47-29.12 138.47-36.28 206.74"
         style="stroke:#000000;stroke-width:1px;fill:none"
         sodipodi:nodetypes="cc"
         id="path5641" />
    </g>
    <path
       d="m187.87 487.15l-1.41-1.74 47.25 0.05-1.05 2.05-44.79-0.36z"
       transform="matrix(4.7677 0 0 4.7677 -204.45 -1453)"
       style="fill-rule:evenodd;stroke:#000000;stroke-width:.131;fill:url(#linearGradient5653)"
       sodipodi:nodetypes="ccccc"
       id="path5643" />
    <path
       d="m713.7 1070.7c-8.02 0-14.49 6.5-14.49 14.5s6.47 14.5 14.49 14.5h5.15c-0.25 1.7-0.37 3.5-0.37 5.6v69c0 28.1 22.64 50.7 50.7 50.7h66.41c28.06 0 50.69-22.6 50.69-50.7v-69c0-2.1-0.12-3.9-0.37-5.6h5.16c8.01 0 14.48-6.5 14.48-14.5s-6.47-14.5-14.48-14.5h-177.37z"
       style="fill-rule:evenodd;stroke:#000000;stroke-linecap:round;stroke-width:.51051;fill:url(#linearGradient5655)"
       id="path5645" />
  </g>
  <metadata
     id="metadata36">
    <rdf:RDF>
      <cc:Work>
        <dc:format>image/svg+xml</dc:format>
        <dc:type
           rdf:resource="http://purl.org/dc/dcmitype/StillImage" />
        <cc:license
           rdf:resource="http://creativecommons.org/licenses/publicdomain/" />
        <dc:publisher>
          <cc:Agent
             rdf:about="http://openclipart.org/">
            <dc:title>Openclipart</dc:title>
          </cc:Agent>
        </dc:publisher>
        <dc:title>Vertical Striped Hot Air Balloons</dc:title>
        <dc:date>2006-12-26T00:00:00</dc:date>
        <dc:description />
        <dc:source>https://openclipart.org/detail/18933/-by--18933</dc:source>
        <dc:creator>
          <cc:Agent>
            <dc:title>maidis</dc:title>
          </cc:Agent>
        </dc:creator>
      </cc:Work>
      <cc:License
         rdf:about="http://creativecommons.org/licenses/publicdomain/">
        <cc:permits
           rdf:resource="http://creativecommons.org/ns#Reproduction" />
        <cc:permits
           rdf:resource="http://creativecommons.org/ns#Distribution" />
        <cc:permits
           rdf:resource="http://creativecommons.org/ns#DerivativeWorks" />
      </cc:License>
    </rdf:RDF>
  </metadata>
</svg>
