<?xml version="1.0" encoding="UTF-8" standalone="no"?>
<svg
   xmlns:dc="http://purl.org/dc/elements/1.1/"
   xmlns:cc="http://creativecommons.org/ns#"
   xmlns:rdf="http://www.w3.org/1999/02/22-rdf-syntax-ns#"
   xmlns:svg="http://www.w3.org/2000/svg"
   xmlns="http://www.w3.org/2000/svg"
   xmlns:sodipodi="http://sodipodi.sourceforge.net/DTD/sodipodi-0.dtd"
   xmlns:inkscape="http://www.inkscape.org/namespaces/inkscape"
   version="1.1"
   id="Layer_1"
   x="0px"
   y="0px"
   viewBox="186.7276 -21.4665 1266.2725 1729.0923"
   enable-background="new 186.7276 -21.4665 1266.2725 1729.0923"
   xml:space="preserve"
   sodipodi:docname="HotAirBalloon.svg"
   inkscape:version="0.92.2 (5c3e80d, 2017-08-06)"><metadata
     id="metadata120"><rdf:RDF><cc:Work
         rdf:about=""><dc:format>image/svg+xml</dc:format><dc:type
           rdf:resource="http://purl.org/dc/dcmitype/StillImage" /><dc:title></dc:title></cc:Work></rdf:RDF></metadata><defs
     id="defs118" /><sodipodi:namedview
     pagecolor="#ffffff"
     bordercolor="#666666"
     borderopacity="1"
     objecttolerance="10"
     gridtolerance="10"
     guidetolerance="10"
     inkscape:pageopacity="0"
     inkscape:pageshadow="2"
     inkscape:window-width="1824"
     inkscape:window-height="1046"
     id="namedview116"
     showgrid="false"
     inkscape:zoom="0.46803491"
     inkscape:cx="631.56609"
     inkscape:cy="1291.8647"
     inkscape:window-x="-11"
     inkscape:window-y="-11"
     inkscape:window-maximized="1"
     inkscape:current-layer="Layer_1" /><g
     id="_x23_ffffffff" /><path
     style="fill:#361f16;stroke:#361f16;stroke-width:0.0938"
     inkscape:connector-curvature="0"
     id="path3"
     d="m 735.96,48.17 c 12.72,-0.55 25.2599,-3.48 38.04,-3.01 16.92,-0.26 33.2,5.43 50.07,5.85 11.94,0.96 23.9,1.67 35.88,1.87 39.49,1.66 78.03,11.21 117.19,15.74 64.5699,6.62 127.74,24.72 186.8099,51.47 37.9501,17.32 74.37,38.24 107.6001,63.53 61.97,46.24 105.5399,115.49 123.3999,190.48 11.6901,50.41 11.29,102.92 4.5901,154.02 -6.0701,45.93 -17.86,90.91 -32.4601,134.82 -25.74,78.16 -61.6799,152.69 -103.76,223.31 -9.9199,16.73 -20.22,33.23 -30.5299,49.72 -43.0901,65.76 -88.36,130.13 -136.3101,192.4501 -37.95,49.23 -77.82,97.01 -120.05,142.62 -10.95,12.5599 -24.52,22.47 -35.53,34.96 -14.17,16.96 -21.01,38.34 -29.87,58.23 -3.89,0.5701 -7.83,0.6801 -11.75,0.59 -6.39,54.9 -13.1801,109.75 -19.55,164.64 1.89,0.01 3.77,0.01 5.68,0.05 0.01,4.39 -0.01,8.79 0.04,13.1899 -1.3,0.16 -2.61,0.27 -3.87,0.5601 -0.1,32.58 0.05,65.1799 -0.08,97.77 -55.98,0.03 -111.96,-0.01 -167.94,0.02 -0.08,-32.64 -0.05,-65.27 -0.01,-97.9 -1.16,-0.15 -2.31,-0.28 -3.45,-0.39 0.01,-4.4 -0.03,-8.8 0.03,-13.1901 0.73,-0.04 2.17,-0.12 2.89,-0.1599 -6.58,-55.0801 -13.23,-110.15 -19.66,-165.24 -2.66,0.13 -5.31,0.1599 -7.96,0.1499 -9.7401,-20.2599 -19,-40.8199 -30.72,-60.0499 -8.84,-14.38 -20.27,-26.9 -31.66,-39.26 -12.24,-12.83 -24.47,-25.6901 -35.65,-39.47 -49.91,-59.98 -95.58,-123.39 -138.59,-188.48 C 419.37,992.35 390.72,947.1 364.4,900.48 c -4.89,-8.54 -9.38,-17.3 -14.49,-25.7 -14.73,-28.54 -29.19,-57.26 -41.9,-86.78 -18.99,-43.57 -34.87,-88.5 -47.42,-134.34 -10.84,-39.19 -18.82,-79.23 -22.68,-119.72 -4.48,-49.28 -3.14,-99.4 7.54,-147.84 7.82,-35.91 20.7,-70.78 38.74,-102.81 4.02,-6.78 7.67,-13.76 11.62,-20.57 3.17,-5.59 7.86,-10.08 11.51,-15.33 20.43,-28.19 45.45,-52.82 72.75,-74.34 43.62,-34.23 92.68,-61.17 144.04,-81.89 48.28,-19.4 98.85,-33.23 150.4,-40.45 20.38,-2.53 40.99,-1.25 61.45,-2.54 m -4.46,14.47 c -28.36,14.04 -48.56,39.9 -64.2,66.69 -18.7,32.19 -32.15,67.21 -41.91,103.08 -12.91,47.23 -20.08,95.84 -24.34,144.56 -8.1,99.42 -4.19,199.55 7.26,298.55 13.64,118.07 35.89,235 63.13,350.64 20,85.62 43.09,170.49 66.74,255.1599 16.14,0.08 32.35,0.2101 48.38,-1.95 -0.03,-46.13 -0.64,-92.25 -0.45,-138.37 0.5,-355.28 13.11,-710.48 34.28,-1065.11 0.46,-4.94 0.64,-9.91 0.49,-14.87 -12.56,-4.35 -25.61,-7.51 -38.91,-8.25 C 764.67,51.67 747.05,54.94 731.5,62.64 m -93.71,7.86 c -10.55,4.31 -20.45,10.09 -29.98,16.3 -27.76,18.6 -51.61,42.66 -71.8,69.19 -24.35,32.34 -42.92,68.85 -56.16,107.05 -6.5,17.54 -11.41,35.65 -15.71,53.85 -4.75,21.05 -8.68,42.34 -10.95,63.79 -6.92,57.14 -6.54,115.06 -0.74,172.27 0.14,3.96 0.52,7.93 1.03,11.87 9.78,88.87 28.04,176.71 52.85,262.57 8.8,30.11 18,60.14 28.57,89.68 0.14,0.4 0.42,1.21 0.56,1.61 6.71,20.81 14.5099,41.25 22.14,61.73 8.64,22.21 17.03,44.53 26.47,66.42 23.25,56.7101 48.63,112.54 74.94,167.9 8.61,18.4401 17.82,36.6 26.17,55.17 3.01,6.46 6.68,12.83 12.24,17.46 11.33,-2.91 24.39,-0.4399 34.33,-7.72 -38.07,-126.3201 -70.31,-254.4401 -94.93,-384.07 -1.29,-9.26 -3.46,-18.4 -4.93,-27.65 -13.81,-76.62 -24.57,-153.79 -32.18,-231.28 -3.84,-44.14 -6.44,-88.4 -7.27,-132.7 -1.22,-52.58 0.07,-105.28 5.28,-157.63 5.27,-43.06 12.83,-85.95 25.14,-127.59 3.67,-12.9 8.41,-25.45 12.73,-38.14 3.04,-6.69 5.56,-13.61 8.74,-20.24 15.49,-34.2 36.87,-66.24 65.49,-90.85 5.96,-4.71 12.17,-9.12 17.74,-14.3 -30.52,-1.99 -61.91,2.3 -89.77,15.31 M 828.6,60.7 c -1.81,6.3 -0.55,12.92 -1.89,19.3 -0.47,10.66 -1.45,21.3 -1.42,31.98 -0.97,8.97 -1.88,17.96 -1.88,27 -1.17,8.64 -0.95,17.37 -1.81,26.04 0.2401,10.37 -1.7,20.59 -1.35,30.96 -0.7,6 -0.7,12.03 -1.1,18.04 -1.1801,6.27 -0.44,12.68 -1.32,18.97 -0.6,6 0.05,12.07 -0.92,18.04 -0.8199,5.3 -0.23,10.69 -0.86,16.01 -1.01,8.61 -0.01,17.34 -1.35,25.93 -0.62,11.34 -1.25,22.69 -1.39,34.06 -1,6.24 -0.85,12.56 -1.1,18.86 -1.04,8.35 -0.39,16.78 -1.06,25.14 -1.47,9.03 -0.27,18.23 -1.35,27.29 -0.44,4.21 -0.14,8.45 -0.59,12.66 -1.39,9.77 -0.23,19.69 -1.39,29.48 -0.66,6.86 0.32,13.83 -1,20.62 -0.75,10.98 -0.03,22.01 -1.13,32.96 -0.6,8.3 0.42,16.72 -1.01,24.94 -0.56,6.64 0.01,13.33 -0.76,19.96 -0.78,10.32 0.28,20.74 -1.25,31.01 -0.36,8.33 -0.13,16.68 -0.48,25.01 -1.28,14.88 -0.13,29.88 -1.35,44.74 -0.9901,9.76 -0.1801,19.61 -0.78,29.39 -0.81,7.25 -0.46,14.56 -0.61,21.83 0.17,5.37 -1.1,10.65 -0.91,16.02 -0.21,10.69 0.11,21.41 -0.75,32.08 -0.37,13.98 -0.08,27.97 -0.58,41.95 -0.37,1.64 -0.64,3.3101 -0.64,5.02 -0.04,10.99 -0.13,21.99 -0.27,32.98 -1.08,14.69 -0.35,29.45 -0.83,44.16 -1.43,12.55 -0.52,25.22 -0.84,37.83 -0.54,25.35 0.21,50.73 -0.94,76.05 0.01,14 -0.15,27.99 -0.1,41.99 0.12,5.6899 -1.2401,11.29 -0.83,16.99 -0.12,75 -0.24,150 -0.08,225 0.16,6.17 -0.61,12.46 0.93,18.53 17.47,-0.09 34.94,0.1899 52.41,-0.13 0.59,-3.85 1.51,-7.64 2.22,-11.46 33.28,-160.7 70.43,-320.75 96.11,-482.88 1.32,-9.41 3.84,-18.62 4.32,-28.12 1.35,-5.67 1.53,-11.53 2.9,-17.18 2.26,-18.57 5.74,-37 7.18,-55.68 1.47,-4.89 1.41,-10.04 2.23,-15.04 1.72,-16.45 4.42,-32.8101 5.68,-49.3101 1.54,-7.6299 1.35,-15.46 2.77,-23.1 1.14,-7.53 0.51,-15.21 1.89,-22.7 0.54,-12.09 2.91,-24.03 3.07,-36.14 1.64,-12.86 1.18,-25.89 2.94,-38.73 0.37,-10.04 0.91,-20.07 1.97,-30.06 0.15,-7.33 0,-14.68 0.79,-21.98 0.36,-8.33 0.24,-16.68 0.47,-25.02 2.05,-19.92 0.2,-40.03 1.68,-59.98 -0.1,-11.33 0.17,-22.66 -0.03,-33.98 -1.3,-15.83 0.19,-31.81 -1.54,-47.61 -2.18,-36.73 -5.92,-73.62 -15.6,-109.24 -10.62,-39.99 -29.42,-79.64 -62.06,-106.27 -3.83,-3.47 -9.29,-2.07 -13.91,-3.16 -8.65,-1.68 -17.47,-2.02 -26.24,-2.38 -6.57,-1.02 -13.22,-0.73 -19.84,-0.76 C 838.15,58.74 832.87,57.73 828.6,60.7 m 84.27,4.87 c 1.47,1.73 3.25,3.16 5.15,4.4 8.5,5.73 14.94,13.89 20.87,22.13 18.18,26.3 28.52,57.11 35.71,88.02 10.1,44.23 13.59,89.65 15.1,134.89 0.83,30.31 0.61,60.63 -0.47,90.93 -3.58,109.05 -14.53,217.78 -30.32,325.72 -13.84,95.02 -31.42,189.46 -50.58,283.55 -18,88.84 -37.64,177.34 -55.95,266.1099 13.3,1.53 26.29,5.4601 39.72,5.92 2.17,-2.8 3.16,-6.28 4.69,-9.4299 46.72,-104.0901 92.65,-208.65 132.07,-315.7601 29.29,-79.48 54.91,-160.34 75.5701,-242.51 12,-47.45 23.21,-95.17 31.36,-143.45 8.7799,-47.9301 14.49,-96.44 16.88,-145.11 2.2799,-50.13 0.1799,-100.66 -9.25,-150.02 -8.54,-43.96 -22.9601,-87.64 -48.64,-124.72 -16.5,-24.06 -38.37,-44.51 -63.92,-58.69 -30.07,-16.99 -64.08,-25.72 -98.12,-30.25 C 926.14,66.54 919.54,65.4 912.87,65.57 m -318.38,9.28 c -39.01,10.86 -77.49,25.55 -111.1,48.5 -21.56,14.77 -39.55,34.06 -55.54,54.58 -32.94,42.58 -56.02,92.22 -71,143.77 -13.45,46.19 -20.13,94.26 -20.8,142.34 -1.42,52.7 3.36,105.48 12.8,157.32 15.09,82.26 41.85,161.86 72.56,239.48 35.48,88.95 78.26,174.8799 125.73,258.0099 18.95,33.54 39.19,66.3301 58.83,99.4601 11.05,18.33 22.26,36.6399 35.27,53.6799 4.27,5.67 9.25,10.8201 12.93,16.9301 2.04,3.7999 6.84,4.5599 10.75,4.59 6.68,-1.21 13.04,-4.11 19.94,-4.14 -3.22,-17.28 -12.13,-32.7 -20.52,-47.89 -9.4301,-16.72 -17.35,-34.23 -25.21,-51.73 -17.26,-39.29 -34.39,-78.64 -50.68,-118.34 C 544.63,965.13 506.16,856.45 477.96,744.93 467.4,704.09 459,662.69 453,620.93 c -7.03,-48.64 -11.15,-97.75 -11.4,-146.91 -0.27,-41.78 2.06,-83.66 8.85,-124.92 7.2,-42.61 19.59,-84.42 37.88,-123.61 15.98,-34.18 36.42,-66.41 61.63,-94.55 22.15,-25.17 48.46,-46.55 77.21,-63.76 -11.11,1.42 -21.85,4.9 -32.68,7.67 m 424.91,8.76 c 0.84,0.76 1.75,1.46 2.72,2.1 34.91,16.58 63.25,44.87 84.08,77.08 13.1801,20.37 23,42.75 30.76,65.69 14.9601,44.27 21.4,90.98 23.37,137.52 0.2301,28 0.77,56.08 -1.83,84 -1.22,21.69 -3.8199,43.28 -6.59,64.83 -1.91,4.07 -1.86,8.65 -2.52,13.01 -3.26,22.53 -7.51,44.89 -11.13,67.35 -4.91,24.34 -10.9,48.44 -16.0601,72.72 -2.0199,8.58 -4.4199,17.06 -6.4299,25.64 -4.6801,20.28 -10.5701,40.25 -15.61,60.45 -3.25,11.68 -7.1901,23.17 -10.14,34.94 -3.1801,11.85 -7.05,23.49 -10.5701,35.24 -1.38,3.95 -2.6,7.97 -3.08,12.15 -33.75,108.53 -74.45,214.77 -118.85,319.35 -17.11,39.74 -36.14,78.74 -50.2,119.73 -0.93,3.73 -4.85,6.9099 -3.73,10.96 4.03,4.24 10.75,8 16.48,4.76 7.11,-4.1901 10.91,-11.84 15.41,-18.4301 69.07,-100.36 134.3101,-203.62 190.13,-311.9999 37.4501,-72.69 70.65,-147.68 96.9301,-225.16 29.86,-86.37 53.62,-175.87 57.85,-267.54 0.35,-12.98 0.29,-25.96 0.25,-38.94 -0.06,-22.92 -2.35,-45.77 -5.5601,-68.44 -3.22,-21.23 -7.5399,-42.34 -13.86,-62.89 C 1248.8,255.35 1228.1,215.55 1201.3,180.5 c -22.26,-28.96 -49.4801,-55.4 -83.25,-70.37 -25.41,-11.55 -52.7001,-18.21 -80,-23.54 -6.22,-1.03 -12.33,-2.81 -18.65,-2.98 m 137.5,43.61 c 3.5499,3.09 7.46,5.76 11.14,8.71 27.5399,22.14 49.8199,50.36 66.9399,81.18 19.4401,34.87 32.62,72.99 41.09,111.94 11,51.13 13.87,103.86 10.04,155.97 -6.79,88.76 -29.02,175.68 -58.9399,259.29 -15.12,42.29 -31.91,83.98 -50.6001,124.82 -33.58,73.44 -72.2,144.49 -113.24,214 -39.77,66.6 -83.0099,131.03 -124.41,196.61 -2.25,3.66 -6.77,5.64 -8.04,9.9301 -0.48,2.2899 2.06,3.84 4.03,4.13 5.73,1.2699 11.61,-1.15 15.6801,-5.16 15.86,-15.79 30.8,-32.49 45.1,-49.6901 10.88,-13.2 22.12,-26.0699 33.2401,-39.0499 78.0599,-91.3 149.7599,-188.2401 211.5699,-291.3 18.72,-31.0099 36.25,-62.72 53.22,-94.72 11.89,-21.98 23.73,-44 34.39,-66.61 9.02,-19.08 16.78,-38.72 24.25,-58.45 23.4501,-62.31 41.59,-127.28 46.0701,-193.96 2.97,-45.08 -0.8201,-90.85 -13.13,-134.4 -10.99,-38.61 -29.17,-75.21 -53.77,-106.96 -21.8,-28.35 -48.3201,-52.87 -77.36,-73.66 -29.0801,-20.85 -60.64,-38.09 -93.25,-52.73 C 1159.62,126.27 1158.2,126.78 1156.9,127.22 m -705.31,7.54 c -44.97,26.61 -87.96,57.75 -122.53,97.24 -35.49,39.98 -61.14,88.49 -74.81,140.14 -5.96,21.51 -9.1,43.66 -11.42,65.83 -2.31,31.97 -1.9,64.15 1.29,96.04 7.88,77.44 29.28,153.08 58.93,224.91 27.26,66.75 60.68,130.85 97.89,192.56 42.37,70.18 89.72,137.23 139.21,202.54 23.3199,31.0699 47.02,62.01 73.81,90.2 3.27,3.54 7.16,6.48 10.02,10.4 -36.19,-55.37 -71.18,-111.5599 -103.35,-169.37 -58.3,-104.2 -108.19,-213.4 -144.6,-327.22 -14.52,-44.4301 -26.07,-89.86 -33.89,-135.95 -3.7,-22.57 -7.19,-45.2 -8.95,-68.02 -1.48,-10.54 -1.34,-21.2 -2.56,-31.76 -0.2,-6.09 -0.39,-12.17 -0.84,-18.24 -0.21,-14.68 -0.14,-29.36 -0.08,-44.04 0.92,-23.29 2.43,-46.58 5.73,-69.67 5.82,-43.39 17.59,-86.02 35.36,-126.05 20.69,-46.72 49.4,-89.9 84.71,-126.83 3.05,-3.06 6.28,-5.97 8.8,-9.51 -4.52,1.72 -8.58,4.37 -12.72,6.8 m 325.24,1149.27 c -15.73,0.52 -31.38,2.38 -46.87,5.1599 -4.98,0.4501 -9.94,1.1001 -14.91,1.6001 -5.26,1.3199 -10.76,1.1 -16.03,2.4099 -8.73,0.6901 -17.3,2.4601 -25.97,3.5601 -5.54,1.46 -11.36,1.8 -16.72,3.96 2.88,4.73 5.52,9.61 8.28,14.41 6.39,11.59 11.33,23.91 17.52,35.6 2,4 3.8,8.15 6.6,11.7001 51.76,-0.1101 103.53,0.2 155.29,0.1699 1.44,0 3.16,-0.08 4.15,1.24 -4.92,1.4301 -10.16,0.35 -15.21,0.6801 -30.31,-0.22 -60.62,-0.39 -90.93,-0.38 5.22,55.11 10.33,110.23 15.46,165.34 26.43,0.02 52.85,0 79.28,0.01 2.34,-32.15 4.68,-64.3 7.12,-96.4399 1.49,-23.04 3.65,-46.0601 4.84,-69.0901 2.32,-0.99 4.88,-0.5499 7.33,-0.6 16.32,-0.05 32.64,0.1 48.96,0.02 1.63,0.42 2.04,-1.29 2.59,-2.41 4.68,-12.7899 11,-24.88 17.1,-37.03 4.19,-7.85 8.75,-15.62 14.82,-22.1799 -0.01,-0.47 -0.02,-1.4301 -0.03,-1.91 -0.62,-0.2999 -1.87,-0.91 -2.49,-1.21 -4.97,-1.05 -10.09,-0.83 -15.06,-1.79 -3.66,-0.53 -7.32,-1.1 -10.96,-1.71 -3.8,-0.4 -8.06,-2.5 -11.64,-0.5601 -1.02,-0.49 -2.11,-1.0399 -3.11,-1.4399 1.6,0 3.21,-0.03 4.83,-0.07 -13.36,-2.4199 -26.77,-4.5699 -40.15,-6.85 -3.64,-0.5499 -7.37,-0.49 -10.92,-1.47 -6.19,-1.64 -12.65,-0.83 -18.92,-1.92 -12.02,-0.5299 -24.09,-0.5 -36.11,-0.04 -6,1.0898 -12.12,0.4198 -18.14,1.2398 m -80.49,79.95 c 6.72,55.16 13.0699,110.38 19.86,165.54 12.72,-0.09 25.44,0.03 38.17,-0.06 -5.09,-55.13 -10.23,-110.26 -15.45,-165.38 -14.19,0.07 -28.39,-0.1799 -42.58,-0.1 m 155.72,0.64 c -4.12,54.95 -8.32,109.9 -12.08,164.87 12.2,-0.01 24.4,0.01 36.61,-0.01 6.46,-54.89 13.15,-109.76 19.6,-164.65 -14.71,-0.1 -29.42,-0.22 -44.13,-0.21 m -135.8,178.61 c 0.01,1.09 0.04,2.21 0.07,3.34 2.07,-0.03 4.14,-0.04 6.22,-0.03 0.06,-1.0901 0.14,-2.16 0.22,-3.2101 -2.18,-0.05 -4.35,-0.08 -6.51,-0.1 m 26.01,0.02 c 0.03,7.83 -0.12,15.67 0,23.52 2.47,0 4.95,0.01 7.44,0.03 0.06,-7.8401 0.05,-15.6801 0.01,-23.52 -2.4899,-0.03 -4.9799,-0.04 -7.4499,-0.03 m 23.02,0.09 c 0.02,1.02 0.06,2.0701 0.1,3.13 2.39,0.01 4.8,0.04 7.21,0.08 0.04,-1.12 0.09,-2.2201 0.16,-3.3101 -2.5,0.02 -4.99,0.05 -7.47,0.1 m 24.04,-0.11 c -0.09,7.85 -0.13,15.71 -0.07,23.5801 2.47,-0.03 4.94,-0.04 7.42,-0.05 -0.03,-7.83 0.11,-15.65 -0.03,-23.48 -2.45,-0.03 -4.89,-0.05 -7.32,-0.05 m 22.97,0.07 c 0.05,1.0499 0.12,2.11 0.2,3.2 2.66,-0.02 5.32,-0.01 8,0 0.03,-1.08 0.07,-2.14 0.12,-3.1801 -2.78,-0.03 -5.55,-0.04 -8.32,-0.02 m 23.94,-0.06 c 0.09,7.84 -0.02,15.6801 0.03,23.53 2.49,0 4.98,0.02 7.48,0.05 -0.01,-7.85 -0.05,-15.6799 -0.05,-23.5199 -2.49,-0.04 -4.98,-0.06 -7.46,-0.06 m 22,0.03 c 0.03,1.1 0.06,2.21 0.11,3.34 2.4301,-0.04 4.87,-0.07 7.31,-0.07 0.04,-1.11 0.08,-2.2001 0.14,-3.27 -2.53,-0.02 -5.05,-0.01 -7.56,-10e-5 m 20.09,0.02 c 0.02,22.88 -0.13,45.76 -0.03,68.63 0.22,9.1799 -0.49,18.3999 0.35,27.5599 1.66,-3.59 0.67,-7.65 0.86,-11.4399 0.08,-28.24 -0.09,-56.48 0.09,-84.7201 -0.32,-0.01 -0.95,-0.02 -1.27,-0.03 m -163.2,4.99 c -0.08,4.2899 -0.07,8.58 -0.05,12.88 8.32,0.1 16.64,0.09 24.96,0.06 0.06,-4.34 0.06,-8.6699 -0.07,-12.99 -8.28,0.01 -16.56,10e-5 -24.84,0.05 m 36.68,-0.06 c -0.21,4.3101 -0.21,8.65 -0.11,12.98 11.65,-0.08 23.32,0.26 34.97,-0.1799 -0.04,-4.26 -0.06,-8.52 -0.1,-12.77 -11.59,-0.05 -23.18,0.06 -34.76,-0.03 m 47.08,0.01 c -0.14,4.3101 -0.16,8.62 -0.11,12.9501 11.68,0.05 23.37,0.09 35.05,-0.03 -0.02,-4.3 -0.02,-8.6 -0.05,-12.89 -11.63,-0.05 -23.26,0.01 -34.89,-0.03 m 47.08,0.03 c -0.1299,4.3 -0.15,8.61 -0.0699,12.92 10.13,0.07 20.27,0.09 30.41,0 0.05,-4.3201 0.05,-8.64 -0.06,-12.9401 -10.1001,0.02 -20.1901,-0.03 -30.2801,0.02 m -129.67,15.0501 c -0.02,9.1499 0,18.2999 -0.05,27.45 2.15,-0.03 4.31,-0.05 6.47,-0.05 -0.17,-9.14 -0.1,-18.2899 -0.03,-27.4299 -2.14,-0.01 -4.27,-2e-4 -6.39,0.03 m 49.05,0.04 c 0.09,9.12 0.11,18.25 -0.01,27.37 2.46,0 4.92,0 7.4,0.02 0.14,-9.15 0.13,-18.3099 -0.01,-27.46 -2.4701,0 -4.9301,0.03 -7.3801,0.07 m 47.05,-0.08 c 0.02,9.14 0.02,18.29 -0.02,27.4399 2.5,-0.01 5.01,-0.01 7.53,0 -0.22,-9.14 -0.18,-18.2799 -0.04,-27.4099 -2.5,-0.03 -4.99,-0.04 -7.47,-0.03 m 45.86,0.02 c 0.06,9.14 0,18.2899 0.06,27.4399 2.47,0.01 4.96,0.03 7.45,0.06 -0.11,-9.1801 0.11,-18.3501 -0.08,-27.52 -2.49,-0.01 -4.96,-0.01 -7.43,0.02 M 724.67,1569 c -0.08,4.76 -0.06,9.53 0,14.3 12.92,0.1 25.83,-0.05 38.75,0.08 0.16,-4.76 0.14,-9.52 0.18,-14.26 -12.97,-0.25 -25.95,-0.07 -38.93,-0.12 m 50.38,0.03 c -0.05,4.75 -0.05,9.51 -0.04,14.28 11.83,0.1 23.65,-0.07 35.47,0.08 0.22,-4.76 0.2,-9.52 0.23,-14.27 -11.89,-0.24 -23.78,-0.1 -35.66,-0.09 m 46.99,-0.01 c -0.06,4.78 -0.04,9.5499 -0.03,14.34 11.36,-0.05 22.71,0 34.07,-0.05 0.09,-4.77 0.09,-9.55 0.01,-14.3101 -11.35,0.01 -22.7,-0.03 -34.05,0.02 m 45.98,0 c -0.06,4.79 -0.05,9.58 -0.02,14.38 2.59,-0.08 5.19,-0.15 7.8,-0.23 -0.06,-4.7001 -0.08,-9.4 -0.01,-14.0901 -2.6,-0.06 -5.19,-0.08 -7.77,-0.06 m -125.72,16.32 c -0.2,10.16 0,20.3301 -0.15,30.5 2.5099,-0.06 5.02,-0.1 7.55,-0.12 0.11,-10.15 0.03,-20.2899 -0.01,-30.4299 -2.47,-10e-5 -4.94,0.02 -7.39,0.05 m 46.98,-0.01 c -0.1,10.14 0.02,20.29 -0.01,30.4401 2.47,-0.02 4.94,-0.02 7.43,-0.01 -0.06,-10.15 0.05,-20.3 -0.07,-30.4401 -2.45,-0.01 -4.9,-0.01 -7.35,0.01 m 46.99,0 c -0.02,10.16 0.2,20.3301 -0.03,30.5 2.49,-0.05 4.99,-0.09 7.5,-0.11 -0.15,-10.15 0.13,-20.28 -0.08,-30.4199 -2.47,-10e-5 -4.93,0.01 -7.39,0.03 m -120.39,7.72 c -0.01,5.63 -0.03,11.2699 0.02,16.9199 7.86,0.06 15.73,0.01 23.6,0.03 0.03,-5.67 0.05,-11.34 -0.05,-17 -7.86,0.01 -15.71,-0.05 -23.57,0.05 m 36.15,-0.05 c -0.02,5.66 0,11.33 -0.03,17 11.56,-0.06 23.11,0.11 34.67,-0.1 -0.07,-5.6 -0.05,-11.1901 0.02,-16.77 -11.55,-0.27 -23.11,-0.07 -34.66,-0.13 m 47,0.05 c 0,5.6399 0.01,11.2899 0,16.9399 11.79,0.01 23.58,0.01 35.3799,0 0.06,-5.67 0.01,-11.33 -0.01,-16.99 -11.79,0.02 -23.58,-0.06 -35.37,0.05 m 47.01,0 c -0.06,5.6399 -0.07,11.2799 0.01,16.9299 9.98,0.04 19.96,0.01 29.95,0.02 -0.01,-5.66 0.02,-11.3199 -0.03,-16.97 -9.98,-0.04 -19.95,-0.07 -29.93,0.02 m -129.78,19.17 c 0.09,8.8101 -0.01,17.62 0.1,26.4401 2.1,0.01 4.21,0.03 6.33,0.07 0.01,-8.8099 -0.04,-17.62 0.01,-26.4199 -2.16,-0.05 -4.3,-0.08 -6.44,-0.09 m 49.08,0.11 c 0.06,8.79 0.18,17.5801 -0.03,26.38 2.45,-0.04 4.91,-0.05 7.38,-0.05 0.31,-8.8201 0.07,-17.63 0.11,-26.4401 -2.49,0.02 -4.98,0.06 -7.46,0.11 m 47.04,-0.09 c 0.01,8.8 0.05,17.61 0.05,26.42 2.7,0 5.4,-0.01 8.12,-0.01 -0.11,-8.79 -0.19,-17.5701 -0.03,-26.35 -2.72,-0.05 -5.43,-0.07 -8.14,-0.06 m 45.95,0 c -0.09,8.8 -0.11,17.61 0.01,26.41 2.44,0.01 4.9,0.03 7.36,0.07 0.15,-8.83 0,-17.6599 0.01,-26.48 -2.47,-0.02 -4.93,-0.01 -7.38,10e-5 m -133.33,5.8 c 0,4.98 0,9.96 0,14.95 12.86,-0.05 25.73,0.1 38.59,-0.09 -0.09,-4.9301 -0.08,-9.85 0.06,-14.77 -12.88,-0.26 -25.77,-0.11 -38.65,-0.09 m 50.04,0.01 c -0.05,4.97 -0.05,9.9399 0.01,14.9099 11.87,0.01 23.75,0.1001 35.62,-0.05 -0.04,-4.9301 -0.03,-9.85 0.01,-14.77 -11.88,-0.27 -23.76,-0.14 -35.64,-0.09 m 47.79,-0.04 c -0.03,4.99 -0.04,9.98 0.02,14.98 10.9301,-0.06 21.87,0.13 32.81,-0.12 -0.11,-4.9399 -0.12,-9.87 -0.02,-14.79 -10.94,-0.16 -21.87,-0.06 -32.81,-0.07 m 45.18,0.01 c -0.02,4.98 -0.02,9.97 0.01,14.97 2.44,-0.02 4.88,-0.02 7.33,-0.01 0.04,-5 0.03,-9.99 -0.02,-14.98 -2.45,0 -4.89,0 -7.32,0.02 m -125.71,17.2 c -0.02,1.13 -0.03,2.29 -0.03,3.47 2.47,-0.01 4.95,-0.01 7.44,0 -0.03,-1.21 -0.04,-2.3999 -0.04,-3.5699 -2.46,0.02 -4.92,0.05 -7.37,0.1 m 46.97,0.01 c -0.02,1.11 -0.03,2.24 -0.03,3.39 2.5,0.01 5.01,0.03 7.53,0.06 -0.03,-1.17 -0.04,-2.3201 -0.05,-3.4501 -2.49,-0.02 -4.97,-0.02 -7.45,0 m 46.92,-0.07 c 0.03,1.15 0.08,2.3199 0.14,3.51 2.45,-0.01 4.9,0 7.37,0.02 0.02,-1.1899 0.05,-2.35 0.09,-3.49 -2.54,-0.03 -5.08,-0.05 -7.6,-0.04 z" /><path
     style="fill:#00ff00;stroke:#3ab54a;stroke-width:0.0938"
     inkscape:connector-curvature="0"
     id="path5"
     d="m 731.5,62.64 c 15.55,-7.7 33.17,-10.97 50.47,-9.87 13.3,0.74 26.35,3.9 38.91,8.25 0.15,4.96 -0.03,9.93 -0.49,14.87 -21.17,354.63 -33.78,709.83 -34.28,1065.11 -0.19,46.12 0.42,92.24 0.45,138.37 -16.03,2.16 -32.24,2.03 -48.38,1.95 -23.65,-84.6699 -46.74,-169.5399 -66.74,-255.1599 -27.24,-115.64 -49.49,-232.57 -63.13,-350.64 -11.45,-99 -15.36,-199.13 -7.26,-298.55 4.26,-48.72 11.43,-97.33 24.34,-144.56 9.76,-35.87 23.21,-70.89 41.91,-103.08 C 682.94,102.54 703.14,76.68 731.5,62.64 Z" /><path
     style="fill:#f7941d;stroke:#f7941d;stroke-width:0.0938"
     inkscape:connector-curvature="0"
     id="path7"
     d="m 637.79,70.5 c 27.86,-13.01 59.25,-17.3 89.77,-15.31 -5.57,5.18 -11.78,9.59 -17.74,14.3 3.29,-3.23 6.84,-6.18 10.59,-8.86 1.86,-1.26 3.09,-3.16 4.1801,-5.09 -5.19,-0.45 -10.39,-0.27 -15.56,0.26 -7.4301,0.82 -14.96,-0.26 -22.35,1.07 -9.69,1.79 -19.46,3.37 -28.85,6.45 C 651.03,65.37 644.53,68.3 637.79,70.5 Z" /><path
     style="fill:#ff8000;stroke:#f7941d;stroke-width:0.0938;fill-opacity:1"
     inkscape:connector-curvature="0"
     id="path9"
     d="m 594.49,74.85 c 10.83,-2.77 21.57,-6.25 32.68,-7.67 -28.75,17.21 -55.06,38.59 -77.21,63.76 -25.21,28.14 -45.65,60.37 -61.63,94.55 -18.29,39.19 -30.68,81 -37.88,123.61 -6.79,41.26 -9.12,83.14 -8.85,124.92 0.25,49.16 4.37,98.27 11.4,146.91 6,41.76 14.4,83.16 24.96,124 28.2,111.52 66.67,220.2 110.49,326.48 16.29,39.7 33.42,79.0499 50.68,118.34 7.86,17.5 15.78,35.01 25.21,51.73 8.39,15.1901 17.3,30.61 20.52,47.89 -6.9,0.03 -13.26,2.9301 -19.94,4.14 -3.91,-0.03 -8.71,-0.79 -10.75,-4.59 -3.68,-6.11 -8.66,-11.26 -12.93,-16.9301 -13.01,-17.04 -24.22,-35.35 -35.27,-53.6799 -19.64,-33.13 -39.8799,-65.92 -58.83,-99.4601 -47.47,-83.13 -90.25,-169.06 -125.73,-258.0099 -30.71,-77.6201 -57.47,-157.22 -72.56,-239.48 -9.44,-51.84 -14.22,-104.62 -12.8,-157.32 0.67,-48.08 7.35,-96.15 20.8,-142.34 14.98,-51.55 38.06,-101.19 71,-143.77 15.99,-20.52 33.98,-39.81 55.54,-54.58 33.61,-22.95 72.09,-37.64 111.1,-48.5 z" /><path
     style="fill:#ff8000;stroke:#f7941d;stroke-width:0.0938;fill-opacity:1"
     inkscape:connector-curvature="0"
     id="path11"
     d="m 1156.9,127.22 c 1.2999,-0.44 2.72,-0.95 4.02,-0.11 32.61,14.64 64.1699,31.88 93.25,52.73 29.0399,20.79 55.5599,45.31 77.36,73.66 24.6,31.75 42.78,68.35 53.77,106.96 12.3099,43.55 16.1,89.32 13.13,134.4 -4.4801,66.68 -22.62,131.65 -46.0701,193.96 -7.47,19.73 -15.23,39.37 -24.25,58.45 -10.66,22.61 -22.5,44.63 -34.39,66.61 -16.97,32 -34.5,63.71 -53.22,94.72 -61.8101,103.06 -133.51,200 -211.5699,291.3 -11.1201,12.98 -22.36,25.85 -33.2401,39.0499 -14.3,17.2001 -29.24,33.9 -45.1,49.6901 -4.07,4.01 -9.95,6.4299 -15.6801,5.16 -1.97,-0.29 -4.5099,-1.8401 -4.03,-4.13 1.27,-4.29 5.79,-6.27 8.04,-9.9301 41.4,-65.58 84.64,-130.01 124.41,-196.61 41.04,-69.51 79.66,-140.56 113.24,-214 18.6901,-40.84 35.4801,-82.53 50.6001,-124.82 29.9199,-83.61 52.1499,-170.53 58.9399,-259.29 3.83,-52.11 0.96,-104.84 -10.04,-155.97 -8.47,-38.95 -21.6499,-77.07 -41.09,-111.94 -17.12,-30.82 -39.4,-59.04 -66.9399,-81.18 C 1164.36,132.98 1160.45,130.31 1156.9,127.22 Z" /><path
     style="fill:#f7941d;stroke:#f7941d;stroke-width:0.0938"
     inkscape:connector-curvature="0"
     id="path13"
     d="m 622.75,217.2 c 3.95,-12.3 7.17,-24.96 12.84,-36.62 -4.32,12.69 -9.06,25.24 -12.73,38.14 -12.31,41.64 -19.87,84.53 -25.14,127.59 -0.06,-5.27 0.3101,-10.53 1.39,-15.69 5.15,-38.3 12.51,-76.38 23.64,-113.42 z" /><path
     style="fill:#f7941d;stroke:#f7941d;stroke-width:0.0938"
     inkscape:connector-curvature="0"
     id="path15"
     d="m 464.14,316.89 c 4.3,-18.2 9.21,-36.31 15.71,-53.85 -4.43,15.02 -9.49,29.87 -13.09,45.13 -4.34,18.46 -8.39,37.02 -10.83,55.84 -1.45,7.64 -2.08,15.38 -2.39,23.14 -0.13,-2.16 -0.27,-4.31 -0.35,-6.47 2.27,-21.45 6.2,-42.74 10.95,-63.79 z" /><path
     style="fill:#f7941d;stroke:#f7941d;stroke-width:0.0938"
     inkscape:connector-curvature="0"
     id="path17"
     d="m 452.45,552.95 c 2.28,7.45 1.36,15.35 3.01,22.92 6.47,57.96 17.28,115.38 30.47,172.18 8.51,35.85 18.44,71.35 29.01,106.64 1.94,6.63 4.41,13.09 6.28,19.74 4.13,14.35 9.55,28.29 13.6801,42.64 -10.57,-29.54 -19.77,-59.57 -28.57,-89.68 -24.81,-85.86 -43.07,-173.7 -52.85,-262.57 -0.5101,-3.94 -0.8901,-7.91 -1.0301,-11.87 z" /><path
     style="fill:#f7941d;stroke:#f7941d;stroke-width:0.0938"
     inkscape:connector-curvature="0"
     id="path19"
     d="m 600.66,651.98 c -0.97,-5.05 -0.89,-10.21 -0.95,-15.34 7.61,77.49 18.37,154.66 32.18,231.28 1.47,9.25 3.64,18.39 4.93,27.65 -0.14,1.45 -0.28,2.93 -0.43,4.4 -0.38,-10.52 -3.3,-20.7 -4.89,-31.06 -5.77,-32.23 -11.2,-64.5099 -15.79,-96.93 -0.9901,-9.73 -3.36,-19.26 -4.21,-29.01 -1.71,-11.77 -2.82,-23.61 -4.61,-35.35 -1.29,-5.81 -0.98,-11.8 -2.08,-17.62 -1.26,-6.3 -0.77,-12.78 -1.89,-19.1 -1.17,-6.26 -1.07,-12.67 -2.26,-18.92 z" /><path
     style="fill:#f7941d;stroke:#f7941d;stroke-width:0.0938"
     inkscape:connector-curvature="0"
     id="path21"
     d="m 535.46,918.68 c 8.58,22.71 16.31,45.74 25.24,68.32 4.32,9.31 7.24,19.17 11.14,28.65 4.15,10.37 8.5099,20.65 12.23,31.1799 -9.44,-21.89 -17.83,-44.21 -26.47,-66.42 C 549.97,959.93 542.17,939.49 535.46,918.68 Z" /><path
     style="fill:#ffff00;stroke:#ffff01;stroke-width:0.0938"
     inkscape:connector-curvature="0"
     id="path23"
     d="m 709.03,55.8 c 5.17,-0.53 10.37,-0.71 15.56,-0.26 -1.09,1.93 -2.32,3.83 -4.1801,5.09 -3.75,2.68 -7.3,5.63 -10.59,8.86 -28.62,24.61 -50,56.65 -65.49,90.85 -3.18,6.63 -5.7,13.55 -8.74,20.24 -5.67,11.66 -8.89,24.32 -12.84,36.62 -11.13,37.04 -18.49,75.12 -23.64,113.42 -1.08,5.16 -1.45,10.42 -1.39,15.69 -5.21,52.35 -6.5,105.05 -5.28,157.63 0.83,44.3 3.43,88.56 7.27,132.7 0.06,5.13 -0.02,10.29 0.95,15.34 1.19,6.25 1.09,12.66 2.26,18.92 1.12,6.3199 0.63,12.8 1.89,19.1 1.1,5.82 0.79,11.81 2.08,17.62 1.79,11.74 2.9,23.58 4.61,35.35 0.85,9.75 3.22,19.28 4.21,29.01 4.59,32.42 10.02,64.7 15.79,96.93 1.59,10.36 4.51,20.54 4.89,31.06 0.15,-1.47 0.29,-2.95 0.43,-4.4 24.62,129.6299 56.86,257.7499 94.93,384.07 -9.94,7.28 -23,4.8099 -34.33,7.72 -5.56,-4.63 -9.23,-11 -12.24,-17.46 -8.35,-18.5701 -17.56,-36.73 -26.17,-55.17 -26.31,-55.36 -51.69,-111.1899 -74.94,-167.9 -3.72,-10.5299 -8.08,-20.8099 -12.23,-31.1799 -3.9,-9.48 -6.82,-19.34 -11.14,-28.65 -8.93,-22.58 -16.66,-45.61 -25.24,-68.32 -0.14,-0.4 -0.42,-1.21 -0.56,-1.61 -4.13,-14.35 -9.55,-28.29 -13.6801,-42.64 -1.87,-6.65 -4.34,-13.11 -6.28,-19.74 -10.57,-35.29 -20.5,-70.79 -29.01,-106.64 -13.19,-56.8 -24,-114.22 -30.47,-172.18 -1.65,-7.57 -0.73,-15.47 -3.01,-22.92 -5.8,-57.21 -6.18,-115.13 0.74,-172.27 0.08,2.16 0.22,4.31 0.35,6.47 0.31,-7.76 0.94,-15.5 2.39,-23.14 2.44,-18.82 6.49,-37.38 10.83,-55.84 3.6,-15.26 8.66,-30.11 13.09,-45.13 13.24,-38.2 31.81,-74.71 56.16,-107.05 20.19,-26.53 44.04,-50.59 71.8,-69.19 9.53,-6.21 19.43,-11.99 29.98,-16.3 6.7401,-2.2 13.2401,-5.13 20.04,-7.18 9.39,-3.08 19.16,-4.66 28.85,-6.45 C 694.07,55.54 701.6,56.62 709.03,55.8 Z" /><path
     style="fill:#0000ff;stroke:#0000fe;stroke-width:0.0938"
     inkscape:connector-curvature="0"
     id="path25"
     d="m 828.6,60.7 c 4.27,-2.97 9.55,-1.96 14.42,-2.09 6.62,0.03 13.27,-0.26 19.84,0.76 8.77,0.36 17.59,0.7 26.24,2.38 4.62,1.09 10.08,-0.31 13.91,3.16 32.64,26.63 51.44,66.28 62.06,106.27 9.68,35.62 13.42,72.51 15.6,109.24 1.73,15.8 0.24,31.78 1.54,47.61 0.2,11.32 -0.07,22.65 0.03,33.98 -1.48,19.95 0.37,40.06 -1.68,59.98 -0.23,8.34 -0.11,16.69 -0.47,25.02 -0.79,7.3 -0.64,14.65 -0.79,21.98 -1.06,9.99 -1.6,20.02 -1.97,30.06 -1.76,12.84 -1.3,25.87 -2.94,38.73 -0.16,12.11 -2.53,24.05 -3.07,36.14 -1.38,7.49 -0.75,15.17 -1.89,22.7 -1.42,7.64 -1.23,15.47 -2.77,23.1 -1.2599,16.5 -3.96,32.86 -5.68,49.3101 -0.82,5 -0.76,10.15 -2.23,15.04 -1.44,18.68 -4.92,37.11 -7.18,55.68 -1.37,5.65 -1.55,11.51 -2.9,17.18 -0.48,9.5 -3,18.71 -4.32,28.12 -25.68,162.13 -62.83,322.18 -96.11,482.8801 -0.71,3.8199 -1.63,7.61 -2.22,11.46 -17.47,0.3199 -34.94,0.04 -52.41,0.13 -1.54,-6.0701 -0.77,-12.36 -0.93,-18.53 -0.16,-75 -0.04,-150 0.08,-225 -0.41,-5.7 0.95,-11.3 0.83,-16.99 -0.05,-14 0.11,-27.99 0.1,-41.99 1.15,-25.32 0.4,-50.7 0.94,-76.05 0.32,-12.61 -0.59,-25.28 0.84,-37.83 0.48,-14.71 -0.25,-29.47 0.83,-44.16 0.14,-10.99 0.23,-21.99 0.27,-32.98 0,-1.71 0.27,-3.38 0.64,-5.02 0.5,-13.98 0.21,-27.97 0.58,-41.95 0.86,-10.67 0.54,-21.39 0.75,-32.08 -0.19,-5.37 1.08,-10.65 0.91,-16.02 0.15,-7.27 -0.2,-14.58 0.61,-21.83 0.6,-9.78 -0.21,-19.63 0.78,-29.39 1.22,-14.86 0.0699,-29.86 1.35,-44.74 0.35,-8.33 0.12,-16.68 0.48,-25.01 1.53,-10.27 0.47,-20.69 1.25,-31.01 0.77,-6.63 0.2,-13.32 0.76,-19.96 1.43,-8.22 0.41,-16.64 1.01,-24.94 1.1,-10.95 0.38,-21.98 1.13,-32.96 1.32,-6.79 0.34,-13.76 1,-20.62 1.16,-9.79 0,-19.71 1.39,-29.48 0.45,-4.21 0.15,-8.45 0.59,-12.66 1.08,-9.06 -0.12,-18.26 1.35,-27.29 0.67,-8.36 0.02,-16.79 1.06,-25.14 0.25,-6.3 0.1,-12.62 1.1,-18.86 0.14,-11.37 0.77,-22.72 1.39,-34.06 1.34,-8.59 0.34,-17.32 1.35,-25.93 0.63,-5.32 0.04,-10.71 0.86,-16.01 0.97,-5.97 0.32,-12.04 0.92,-18.04 0.88,-6.29 0.14,-12.7 1.32,-18.97 0.4,-6.01 0.4,-12.04 1.1,-18.04 -0.35,-10.37 1.59,-20.59 1.35,-30.96 0.86,-8.67 0.64,-17.4 1.81,-26.04 0,-9.04 0.91,-18.03 1.88,-27 -0.03,-10.68 0.95,-21.32 1.42,-31.98 C 828.05,73.62 826.79,67 828.6,60.7 Z" /><path
     style="fill:#0000ff;stroke:#0000fe;stroke-width:0.0938"
     inkscape:connector-curvature="0"
     id="path27"
     d="m 776.83,1284.03 c 6.02,-0.8201 12.14,-0.15 18.14,-1.24 12.02,-0.4601 24.09,-0.49 36.11,0.04 6.27,1.0901 12.73,0.28 18.92,1.92 3.55,0.98 7.28,0.92 10.92,1.47 13.38,2.28 26.79,4.4301 40.15,6.85 -1.62,0.04 -3.23,0.07 -4.83,0.07 1,0.4 2.09,0.95 3.11,1.4399 3.58,-1.9399 7.84,0.16 11.64,0.5601 3.64,0.61 7.3,1.1799 10.96,1.71 4.97,0.9601 10.09,0.74 15.06,1.79 0.62,0.2999 1.87,0.91 2.49,1.21 0.01,0.48 0.02,1.4401 0.03,1.91 -6.07,6.5599 -10.63,14.33 -14.82,22.1799 -6.1,12.15 -12.42,24.2401 -17.1,37.03 -0.55,1.12 -0.96,2.8301 -2.59,2.41 -16.32,0.08 -32.64,-0.07 -48.96,-0.02 -2.45,0.05 -5.01,-0.39 -7.33,0.6 l -0.56,-0.12 c -0.99,-1.3199 -2.71,-1.24 -4.15,-1.24 -51.76,0.03 -103.53,-0.28 -155.29,-0.1699 -2.8,-3.55 -4.6,-7.7001 -6.6,-11.7001 -6.19,-11.6899 -11.13,-24.01 -17.52,-35.6 -2.76,-4.8 -5.4,-9.6801 -8.28,-14.41 5.36,-2.1599 11.18,-2.5 16.72,-3.96 8.67,-1.1 17.24,-2.87 25.97,-3.5601 5.27,-1.3099 10.77,-1.09 16.03,-2.4099 4.97,-0.5 9.93,-1.15 14.91,-1.6001 15.49,-2.7798 31.14,-4.6398 46.87,-5.1598 z" /><path
     style="fill:#ff00ff;stroke:#855fa8;stroke-width:0.0938"
     inkscape:connector-curvature="0"
     id="path29"
     d="m 912.87,65.57 c 6.67,-0.17 13.27,0.97 19.87,1.73 34.04,4.53 68.05,13.26 98.12,30.25 25.55,14.18 47.42,34.63 63.92,58.69 25.6799,37.08 40.1,80.76 48.64,124.72 9.4299,49.36 11.5299,99.89 9.25,150.02 -2.39,48.67 -8.1001,97.18 -16.88,145.11 -8.15,48.28 -19.36,96 -31.36,143.45 -20.66,82.17 -46.28,163.03 -75.5701,242.51 -39.42,107.11 -85.35,211.67 -132.07,315.7601 -1.53,3.1499 -2.52,6.6299 -4.69,9.4299 -13.43,-0.46 -26.42,-4.39 -39.72,-5.92 18.31,-88.7699 37.95,-177.2699 55.95,-266.1099 19.16,-94.09 36.74,-188.53 50.58,-283.55 15.79,-107.94 26.7401,-216.67 30.32,-325.72 1.08,-30.3 1.3,-60.62 0.47,-90.93 -1.51,-45.24 -5,-90.66 -15.1,-134.89 -7.19,-30.91 -17.53,-61.72 -35.71,-88.02 -5.93,-8.24 -12.37,-16.4 -20.87,-22.13 C 916.12,68.73 914.34,67.3 912.87,65.57 Z" /><path
     style="fill:#fe0000;stroke:#fe0000;stroke-width:0.0938"
     inkscape:connector-curvature="0"
     id="path31"
     d="m 1019.4,83.61 c 6.3199,0.17 12.4299,1.95 18.65,2.98 27.2999,5.33 54.59,11.99 80,23.54 33.7699,14.97 60.99,41.41 83.25,70.37 26.7999,35.05 47.5,74.85 59.9199,117.23 6.3201,20.55 10.64,41.66 13.86,62.89 3.2101,22.67 5.5,45.52 5.5601,68.44 0.04,12.98 0.1,25.96 -0.25,38.94 -4.23,91.67 -27.99,181.17 -57.85,267.54 -26.28,77.48 -59.48,152.47 -96.9301,225.16 -55.8199,108.38 -121.0599,211.64 -190.1299,312 -4.5,6.5901 -8.3,14.24 -15.41,18.4301 -5.73,3.24 -12.45,-0.52 -16.48,-4.76 -1.1201,-4.05 2.8,-7.23 3.73,-10.96 14.06,-40.99 33.09,-79.99 50.2,-119.73 44.4,-104.5801 85.1,-210.8201 118.85,-319.35 6.63,-19.94 12.2,-40.21 18.15,-60.36 18.61,-66.02 35.49,-132.59 47.89,-200.0699 3.4399,-20.31 7.1899,-40.59 9.5,-61.07 2.77,-21.55 5.37,-43.14 6.59,-64.83 2.6,-27.92 2.0601,-56 1.83,-84 -1.97,-46.54 -8.4099,-93.25 -23.37,-137.52 -7.76,-22.94 -17.58,-45.32 -30.76,-65.69 -20.83,-32.21 -49.1699,-60.5 -84.08,-77.08 -0.97,-0.6402 -1.88,-1.3402 -2.72,-2.1002 z" /><path
     style="fill:#ff0000;stroke:#fe0000;stroke-width:0.0938;fill-opacity:1"
     inkscape:connector-curvature="0"
     id="path33"
     d="m 451.59,134.76 c 4.14,-2.43 8.2,-5.08 12.72,-6.8 -2.52,3.54 -5.75,6.45 -8.8,9.51 -35.31,36.93 -64.02,80.11 -84.71,126.83 -17.77,40.03 -29.54,82.66 -35.36,126.05 -3.3,23.09 -4.81,46.38 -5.73,69.67 -0.06,14.68 -0.13,29.36 0.08,44.04 0.45,6.07 0.64,12.15 0.84,18.24 1.22,10.56 1.08,21.22 2.56,31.76 1.76,22.82 5.25,45.45 8.95,68.02 7.82,46.09 19.37,91.52 33.89,135.95 36.41,113.8199 86.3,223.02 144.6,327.22 32.17,57.8101 67.16,114 103.35,169.37 -2.86,-3.92 -6.75,-6.86 -10.02,-10.4 -26.79,-28.1899 -50.4901,-59.13 -73.81,-90.2 C 490.66,1088.7099 443.31,1021.66 400.94,951.48 363.73,889.77 330.31,825.67 303.05,758.92 273.4,687.09 252,611.45 244.12,534.01 c -3.19,-31.89 -3.6,-64.07 -1.29,-96.04 2.32,-22.17 5.46,-44.32 11.42,-65.83 13.67,-51.65 39.32,-100.16 74.81,-140.14 34.57,-39.49 77.56,-70.63 122.53,-97.24 z" /><path
     style="fill:#5e390f;stroke:#5e390f;stroke-width:0.0938"
     inkscape:connector-curvature="0"
     id="path35"
     d="m 1149.39,527.84 c 0.66,-4.36 0.61,-8.94 2.52,-13.01 -2.3101,20.48 -6.0601,40.76 -9.5,61.07 -12.4,67.48 -29.28,134.05 -47.89,200.0699 -5.9501,20.15 -11.52,40.42 -18.15,60.36 0.48,-4.18 1.7,-8.2 3.08,-12.15 3.52,-11.75 7.39,-23.39 10.5701,-35.24 2.95,-11.77 6.89,-23.26 10.14,-34.94 5.0399,-20.2 10.9299,-40.17 15.61,-60.45 2.01,-8.58 4.41,-17.06 6.4299,-25.64 5.16,-24.28 11.15,-48.3799 16.0601,-72.72 C 1141.88,572.73 1146.13,550.37 1149.39,527.84 Z" /><path
     style="fill:#5e390f;stroke:#5e390f;stroke-width:0.0938"
     inkscape:connector-curvature="0"
     id="path37"
     d="m 716.26,1543.23 c 2.16,0.02 4.33,0.05 6.51,0.1 -0.08,1.05 -0.16,2.12 -0.22,3.2101 -2.08,-0.01 -4.15,0 -6.22,0.03 -0.03,-1.1301 -0.06,-2.2501 -0.07,-3.34 z" /><path
     style="fill:#5e390f;stroke:#5e390f;stroke-width:0.0938"
     inkscape:connector-curvature="0"
     id="path39"
     d="m 742.27,1543.25 c 2.47,-0.01 4.96,0 7.45,0.03 0.04,7.84 0.05,15.6799 -0.01,23.52 -2.4901,-0.02 -4.97,-0.03 -7.44,-0.03 -0.1201,-7.85 0.0299,-15.69 -10e-5,-23.52 z" /><path
     style="fill:#5e390f;stroke:#5e390f;stroke-width:0.0938"
     inkscape:connector-curvature="0"
     id="path41"
     d="m 765.29,1543.34 c 2.48,-0.05 4.97,-0.08 7.47,-0.1 -0.07,1.09 -0.12,2.1901 -0.16,3.3101 -2.41,-0.04 -4.8199,-0.07 -7.21,-0.08 -0.04,-1.06 -0.08,-2.11 -0.1,-3.13 z" /><path
     style="fill:#5e390f;stroke:#5e390f;stroke-width:0.0938"
     inkscape:connector-curvature="0"
     id="path43"
     d="m 789.33,1543.23 c 2.43,0 4.87,0.02 7.32,0.05 0.14,7.83 0,15.65 0.03,23.48 -2.48,0.01 -4.95,0.02 -7.42,0.05 -0.06,-7.8701 -0.02,-15.73 0.07,-23.58 z" /><path
     style="fill:#5e390f;stroke:#5e390f;stroke-width:0.0938"
     inkscape:connector-curvature="0"
     id="path45"
     d="m 812.3,1543.3 c 2.77,-0.02 5.54,-0.01 8.32,0.02 -0.05,1.04 -0.09,2.1001 -0.12,3.1801 -2.68,-0.01 -5.34,-0.02 -8,0 -0.08,-1.09 -0.15,-2.15 -0.2,-3.2 z" /><path
     style="fill:#5e390f;stroke:#5e390f;stroke-width:0.0938"
     inkscape:connector-curvature="0"
     id="path47"
     d="m 836.24,1543.24 c 2.48,0 4.97,0.02 7.46,0.06 0,7.84 0.04,15.6699 0.05,23.5199 -2.5,-0.03 -4.99,-0.05 -7.48,-0.05 -0.05,-7.8501 0.06,-15.6901 -0.03,-23.5301 z" /><path
     style="fill:#5e390f;stroke:#5e390f;stroke-width:0.0938"
     inkscape:connector-curvature="0"
     id="path49"
     d="m 858.24,1543.27 c 2.51,-0.01 5.03,-0.02 7.56,0 -0.06,1.0699 -0.1,2.16 -0.14,3.27 -2.44,0 -4.8799,0.03 -7.31,0.07 -0.05,-1.1299 -0.08,-2.2399 -0.11,-3.3399 z" /><path
     style="fill:#5e390f;stroke:#5e390f;stroke-width:0.0938"
     inkscape:connector-curvature="0"
     id="path51"
     d="m 878.33,1543.29 c 0.32,0.01 0.95,0.02 1.27,0.03 -0.18,28.2401 -0.01,56.4801 -0.09,84.7201 -0.19,3.7899 0.8,7.85 -0.86,11.4399 -0.84,-9.16 -0.13,-18.38 -0.35,-27.5599 -0.1,-22.87 0.05,-45.75 0.03,-68.63 z" /><path
     style="fill:#5e390f;stroke:#5e390f;stroke-width:0.0938"
     inkscape:connector-curvature="0"
     id="path53"
     d="m 716.3,1563.3101 c 2.12,-0.03 4.25,-0.04 6.39,-0.03 -0.07,9.14 -0.14,18.2899 0.03,27.4299 -2.16,0 -4.3199,0.02 -6.47,0.05 0.05,-9.15 0.03,-18.3 0.05,-27.4499 z" /><path
     style="fill:#5e390f;stroke:#5e390f;stroke-width:0.0938"
     inkscape:connector-curvature="0"
     id="path55"
     d="m 765.35,1563.35 c 2.45,-0.04 4.91,-0.07 7.38,-0.07 0.14,9.15 0.15,18.3099 0.01,27.46 -2.48,-0.02 -4.94,-0.02 -7.4,-0.02 0.12,-9.1201 0.1,-18.2501 0.01,-27.3701 z" /><path
     style="fill:#5e390f;stroke:#5e390f;stroke-width:0.0938"
     inkscape:connector-curvature="0"
     id="path57"
     d="m 812.4,1563.27 c 2.48,-0.01 4.97,0 7.47,0.03 -0.14,9.13 -0.18,18.2699 0.04,27.4099 -2.52,-0.01 -5.03,-0.01 -7.53,0 0.04,-9.1498 0.04,-18.2999 0.02,-27.4399 z" /><path
     style="fill:#5e390f;stroke:#5e390f;stroke-width:0.0938"
     inkscape:connector-curvature="0"
     id="path59"
     d="m 858.26,1563.29 c 2.47,-0.03 4.94,-0.03 7.43,-0.02 0.19,9.1699 -0.03,18.34 0.08,27.52 -2.49,-0.03 -4.98,-0.05 -7.45,-0.06 -0.06,-9.1499 0,-18.2998 -0.06,-27.4399 z" /><path
     style="fill:#5e390f;stroke:#5e390f;stroke-width:0.0938"
     inkscape:connector-curvature="0"
     id="path61"
     d="m 742.3,1585.34 c 2.45,-0.03 4.92,-0.05 7.39,-0.05 0.04,10.14 0.12,20.2799 0.01,30.4299 -2.53,0.02 -5.04,0.06 -7.55,0.12 0.15,-10.17 -0.05,-20.34 0.15,-30.5 z" /><path
     style="fill:#5e390f;stroke:#5e390f;stroke-width:0.0938"
     inkscape:connector-curvature="0"
     id="path63"
     d="m 789.28,1585.33 c 2.45,-0.02 4.9,-0.02 7.35,-0.01 0.12,10.14 0.01,20.29 0.07,30.4401 -2.49,-0.01 -4.96,-0.01 -7.43,0.01 0.03,-10.1501 -0.09,-20.3001 0.01,-30.4401 z" /><path
     style="fill:#5e390f;stroke:#5e390f;stroke-width:0.0938"
     inkscape:connector-curvature="0"
     id="path65"
     d="m 836.27,1585.33 c 2.46,-0.02 4.92,-0.03 7.39,-0.03 0.21,10.1399 -0.0699,20.2699 0.08,30.4199 -2.51,0.02 -5.01,0.06 -7.5,0.11 0.23,-10.17 0.01,-20.34 0.03,-30.5 z" /><path
     style="fill:#5e390f;stroke:#5e390f;stroke-width:0.0938"
     inkscape:connector-curvature="0"
     id="path67"
     d="m 716.26,1612.22 c 2.14,0.01 4.28,0.04 6.44,0.09 -0.05,8.7999 0,17.61 -0.01,26.4199 -2.12,-0.04 -4.23,-0.06 -6.33,-0.07 -0.11,-8.8201 -0.01,-17.6301 -0.1,-26.4401 z" /><path
     style="fill:#5e390f;stroke:#5e390f;stroke-width:0.0938"
     inkscape:connector-curvature="0"
     id="path69"
     d="m 765.34,1612.33 c 2.48,-0.05 4.97,-0.09 7.46,-0.11 -0.04,8.8101 0.2,17.62 -0.11,26.4401 -2.47,0 -4.93,0.01 -7.38,0.05 0.21,-8.8 0.09,-17.59 0.03,-26.38 z" /><path
     style="fill:#5e390f;stroke:#5e390f;stroke-width:0.0938"
     inkscape:connector-curvature="0"
     id="path71"
     d="m 812.38,1612.24 c 2.71,-0.01 5.42,0.01 8.14,0.06 -0.16,8.7799 -0.08,17.5599 0.03,26.35 -2.72,0 -5.42,0.01 -8.12,0.01 0,-8.8101 -0.04,-17.6201 -0.05,-26.4201 z" /><path
     style="fill:#5e390f;stroke:#5e390f;stroke-width:0.0938"
     inkscape:connector-curvature="0"
     id="path73"
     d="m 858.33,1612.24 c 2.45,-0.01 4.91,-0.02 7.38,0 -0.01,8.8201 0.14,17.65 -0.01,26.48 -2.46,-0.04 -4.92,-0.06 -7.36,-0.07 -0.12,-8.8001 -0.1,-17.6101 -0.01,-26.4101 z" /><path
     style="fill:#5e390f;stroke:#5e390f;stroke-width:0.0938"
     inkscape:connector-curvature="0"
     id="path75"
     d="m 742.3,1635.22 c 2.45,-0.05 4.91,-0.08 7.37,-0.1 0,1.17 0.01,2.36 0.04,3.5699 -2.4901,-0.01 -4.97,-0.01 -7.44,0 0,-1.1799 0.01,-2.3399 0.03,-3.4699 z" /><path
     style="fill:#5e390f;stroke:#5e390f;stroke-width:0.0938"
     inkscape:connector-curvature="0"
     id="path77"
     d="m 789.27,1635.23 c 2.48,-0.02 4.96,-0.02 7.45,0 0.01,1.13 0.02,2.28 0.05,3.4501 -2.52,-0.03 -5.03,-0.05 -7.53,-0.06 0,-1.15 0.01,-2.28 0.03,-3.39 z" /><path
     style="fill:#5e390f;stroke:#5e390f;stroke-width:0.0938"
     inkscape:connector-curvature="0"
     id="path79"
     d="m 836.19,1635.16 c 2.52,-0.01 5.06,0.01 7.6,0.04 -0.04,1.14 -0.07,2.3 -0.09,3.49 -2.47,-0.02 -4.92,-0.03 -7.37,-0.02 -0.06,-1.19 -0.11,-2.3599 -0.14,-3.51 z" /><path
     style="fill:#a17849;stroke:#a17849;stroke-width:0.0938"
     inkscape:connector-curvature="0"
     id="path81"
     d="m 715.13,1548.28 c 8.28,-0.05 16.56,-0.04 24.84,-0.05 0.13,4.3201 0.13,8.65 0.07,12.99 -8.32,0.03 -16.64,0.04 -24.96,-0.06 -0.02,-4.3001 -0.03,-8.5902 0.05,-12.8801 z" /><path
     style="fill:#a17849;stroke:#a17849;stroke-width:0.0938"
     inkscape:connector-curvature="0"
     id="path83"
     d="m 751.81,1548.22 c 11.58,0.09 23.17,-0.02 34.76,0.03 0.04,4.25 0.06,8.51 0.1,12.77 -11.65,0.4399 -23.32,0.1 -34.97,0.1799 -0.1,-4.3299 -0.1,-8.6699 0.11,-12.9799 z" /><path
     style="fill:#a17849;stroke:#a17849;stroke-width:0.0938"
     inkscape:connector-curvature="0"
     id="path85"
     d="m 798.89,1548.23 c 11.63,0.04 23.26,-0.02 34.89,0.03 0.03,4.29 0.03,8.59 0.05,12.89 -11.68,0.12 -23.37,0.08 -35.05,0.03 -0.05,-4.33 -0.03,-8.64 0.11,-12.95 z" /><path
     style="fill:#a17849;stroke:#a17849;stroke-width:0.0938"
     inkscape:connector-curvature="0"
     id="path87"
     d="m 845.97,1548.26 c 10.09,-0.05 20.1801,0 30.28,-0.02 0.11,4.3 0.11,8.62 0.06,12.9401 -10.14,0.09 -20.28,0.07 -30.41,0 -0.08,-4.3101 -0.06,-8.62 0.07,-12.9201 z" /><path
     style="fill:#a17849;stroke:#a17849;stroke-width:0.0938"
     inkscape:connector-curvature="0"
     id="path89"
     d="m 724.67,1569 c 12.98,0.05 25.96,-0.13 38.93,0.12 -0.04,4.74 -0.02,9.5 -0.18,14.26 -12.92,-0.13 -25.83,0.02 -38.75,-0.08 -0.06,-4.77 -0.08,-9.54 0,-14.3 z" /><path
     style="fill:#a17849;stroke:#a17849;stroke-width:0.0938"
     inkscape:connector-curvature="0"
     id="path91"
     d="m 775.05,1569.03 c 11.88,-0.01 23.77,-0.15 35.66,0.09 -0.03,4.75 -0.01,9.51 -0.23,14.27 -11.82,-0.15 -23.64,0.02 -35.47,-0.08 -0.01,-4.77 -0.01,-9.53 0.04,-14.28 z" /><path
     style="fill:#a17849;stroke:#a17849;stroke-width:0.0938"
     inkscape:connector-curvature="0"
     id="path93"
     d="m 822.04,1569.02 c 11.35,-0.05 22.7,-0.01 34.05,-0.02 0.08,4.76 0.08,9.54 -0.01,14.3101 -11.36,0.05 -22.71,0 -34.07,0.05 -0.01,-4.7901 -0.03,-9.56 0.03,-14.34 z" /><path
     style="fill:#a17849;stroke:#a17849;stroke-width:0.0938"
     inkscape:connector-curvature="0"
     id="path95"
     d="m 868.02,1569.02 c 2.58,-0.02 5.17,0 7.77,0.06 -0.07,4.6901 -0.05,9.39 0.01,14.0901 -2.61,0.08 -5.21,0.1499 -7.8,0.23 -0.03,-4.8 -0.04,-9.5899 0.02,-14.38 z" /><path
     style="fill:#a17849;stroke:#a17849;stroke-width:0.0938"
     inkscape:connector-curvature="0"
     id="path97"
     d="m 715.88,1593.05 c 7.86,-0.1001 15.71,-0.04 23.57,-0.05 0.1,5.66 0.08,11.33 0.05,17 -7.87,-0.02 -15.74,0.03 -23.6,-0.03 -0.05,-5.6501 -0.03,-11.2899 -0.02,-16.92 z" /><path
     style="fill:#a17849;stroke:#a17849;stroke-width:0.0938"
     inkscape:connector-curvature="0"
     id="path99"
     d="m 752.03,1593 c 11.55,0.06 23.11,-0.14 34.66,0.13 -0.07,5.58 -0.09,11.17 -0.02,16.77 -11.56,0.21 -23.11,0.04 -34.67,0.1 0.03,-5.67 0.01,-11.34 0.03,-17 z" /><path
     style="fill:#a17849;stroke:#a17849;stroke-width:0.0938"
     inkscape:connector-curvature="0"
     id="path101"
     d="m 799.03,1593.05 c 11.79,-0.1101 23.58,-0.03 35.37,-0.05 0.02,5.66 0.0699,11.3199 0.01,16.99 -11.8,0.01 -23.59,0.01 -35.3799,0 0.01,-5.65 0,-11.3001 0,-16.94 z" /><path
     style="fill:#a17849;stroke:#a17849;stroke-width:0.0938"
     inkscape:connector-curvature="0"
     id="path103"
     d="m 846.04,1593.05 c 9.98,-0.09 19.95,-0.06 29.93,-0.02 0.05,5.65 0.02,11.3099 0.03,16.97 -9.99,-0.01 -19.97,0.02 -29.95,-0.02 -0.08,-5.65 -0.07,-11.2901 -0.01,-16.93 z" /><path
     style="fill:#a17849;stroke:#a17849;stroke-width:0.0938"
     inkscape:connector-curvature="0"
     id="path105"
     d="m 725,1618.04 c 12.88,-0.02 25.77,-0.17 38.65,0.09 -0.14,4.92 -0.15,9.84 -0.06,14.77 -12.86,0.1899 -25.73,0.04 -38.59,0.09 0,-4.99 0,-9.97 0,-14.95 z" /><path
     style="fill:#a17849;stroke:#a17849;stroke-width:0.0938"
     inkscape:connector-curvature="0"
     id="path107"
     d="m 775.04,1618.05 c 11.88,-0.05 23.76,-0.1801 35.64,0.09 -0.04,4.92 -0.05,9.84 -0.01,14.77 -11.87,0.15 -23.75,0.06 -35.62,0.05 -0.06,-4.9699 -0.06,-9.9399 -0.01,-14.9099 z" /><path
     style="fill:#a17849;stroke:#a17849;stroke-width:0.0938"
     inkscape:connector-curvature="0"
     id="path109"
     d="m 822.83,1618.01 c 10.94,0.01 21.87,-0.09 32.81,0.07 -0.1,4.92 -0.09,9.8501 0.02,14.79 -10.94,0.25 -21.8799,0.06 -32.81,0.12 -0.06,-4.9999 -0.05,-9.9899 -0.02,-14.9799 z" /><path
     style="fill:#a17849;stroke:#a17849;stroke-width:0.0938"
     inkscape:connector-curvature="0"
     id="path111"
     d="m 868.01,1618.02 c 2.43,-0.02 4.87,-0.02 7.32,-0.02 0.05,4.99 0.06,9.98 0.02,14.98 -2.45,-0.01 -4.89,-0.01 -7.33,0.01 -0.03,-5 -0.03,-9.99 -0.01,-14.97 z" /></svg>