<?xml version="1.0" encoding="UTF-8" standalone="no"?>
<svg
   xmlns:dc="http://purl.org/dc/elements/1.1/"
   xmlns:cc="http://creativecommons.org/ns#"
   xmlns:rdf="http://www.w3.org/1999/02/22-rdf-syntax-ns#"
   xmlns:svg="http://www.w3.org/2000/svg"
   xmlns="http://www.w3.org/2000/svg"
   xmlns:sodipodi="http://sodipodi.sourceforge.net/DTD/sodipodi-0.dtd"
   xmlns:inkscape="http://www.inkscape.org/namespaces/inkscape"
   inkscape:version="1.0 (4035a4f, 2020-05-01)"
   sodipodi:docname="1.svg"
   xml:space="preserve"
   enable-background="new 0 0 822.05 841.89"
   viewBox="0 0 822.05 841.89"
   height="841.89px"
   width="822.05px"
   y="0px"
   x="0px"
   id="Layer_1"
   version="1.1"><metadata
   id="metadata25"><rdf:RDF><cc:Work
       rdf:about=""><dc:format>image/svg+xml</dc:format><dc:type
         rdf:resource="http://purl.org/dc/dcmitype/StillImage" /></cc:Work></rdf:RDF></metadata><defs
   id="defs23" /><sodipodi:namedview
   inkscape:current-layer="Layer_1"
   inkscape:window-maximized="0"
   inkscape:window-y="23"
   inkscape:window-x="0"
   inkscape:cy="420.94501"
   inkscape:cx="411.02499"
   inkscape:zoom="0.71268217"
   showgrid="false"
   id="namedview21"
   inkscape:window-height="759"
   inkscape:window-width="1412"
   inkscape:pageshadow="2"
   inkscape:pageopacity="0"
   guidetolerance="10"
   gridtolerance="10"
   objecttolerance="10"
   borderopacity="1"
   bordercolor="#666666"
   pagecolor="#ffffff" />




<g
   transform="matrix(0.87247625,0,0,0.92748579,45.316808,-0.98691842)"
   id="g32"><path
     fill-rule="evenodd"
     clip-rule="evenodd"
     fill="#ffff00"
     d="M -40.75,421.765 C -40.75,194.989 216.523,83.14 410.377,83.14 604.23,83.14 861.5,194.991 861.5,421.765 861.5,648.54 604.23,760.39 410.377,760.39 216.522,760.39 -40.75,648.542 -40.75,421.765 Z"
     id="path10" /><path
     fill-rule="evenodd"
     clip-rule="evenodd"
     fill="#800080"
     d="m 49.25,421.765 c 0,-362.57 722.25,-362.571 722.25,0 0,362.571 -722.25,362.57 -722.25,0 z"
     id="path12" /><path
     fill-rule="evenodd"
     clip-rule="evenodd"
     fill="#ffff00"
     d="m 139.25,421.765 c 0,-272.294 542.25,-272.296 542.25,0 0,272.296 -542.25,272.295 -542.25,0 z"
     id="path14" /><path
     fill-rule="evenodd"
     clip-rule="evenodd"
     fill="#800080"
     d="m 229.25,421.765 c 0,-182.021 362.25,-182.021 362.25,0 0,182.023 -362.25,182.022 -362.25,0 z"
     id="path16" /><path
     fill-rule="evenodd"
     clip-rule="evenodd"
     fill="#ffff00"
     d="m 319.25,421.765 c 0,-91.752 182.25,-91.753 182.25,0 0,91.754 -182.25,91.753 -182.25,0 z"
     id="path18" /></g>
</svg>
