<?xml version="1.0" encoding="UTF-8" standalone="no"?>
<svg
   xmlns:dc="http://purl.org/dc/elements/1.1/"
   xmlns:cc="http://creativecommons.org/ns#"
   xmlns:rdf="http://www.w3.org/1999/02/22-rdf-syntax-ns#"
   xmlns:svg="http://www.w3.org/2000/svg"
   xmlns="http://www.w3.org/2000/svg"
   xmlns:sodipodi="http://sodipodi.sourceforge.net/DTD/sodipodi-0.dtd"
   xmlns:inkscape="http://www.inkscape.org/namespaces/inkscape"
   inkscape:version="1.0 (4035a4f, 2020-05-01)"
   sodipodi:docname="2.svg"
   xml:space="preserve"
   enable-background="new 0 0 822.05 841.89"
   viewBox="0 0 822.05 841.89"
   height="841.89px"
   width="822.05px"
   y="0px"
   x="0px"
   id="Layer_1"
   version="1.1"><metadata
   id="metadata27"><rdf:RDF><cc:Work
       rdf:about=""><dc:format>image/svg+xml</dc:format><dc:type
         rdf:resource="http://purl.org/dc/dcmitype/StillImage" /></cc:Work></rdf:RDF></metadata><defs
   id="defs25" /><sodipodi:namedview
   inkscape:current-layer="Layer_1"
   inkscape:window-maximized="0"
   inkscape:window-y="23"
   inkscape:window-x="0"
   inkscape:cy="420.94501"
   inkscape:cx="411.02499"
   inkscape:zoom="0.32308258"
   showgrid="false"
   id="namedview23"
   inkscape:window-height="480"
   inkscape:window-width="709"
   inkscape:pageshadow="2"
   inkscape:pageopacity="0"
   guidetolerance="10"
   gridtolerance="10"
   objecttolerance="10"
   borderopacity="1"
   bordercolor="#666666"
   pagecolor="#ffffff" />
<path
   style="stroke-width:0.880702"
   id="path10"
   d="m 13.098648,421.765 c 0,-199.82917 226.459572,-298.38761 397.095792,-298.38761 170.63446,0 397.09226,98.5602 397.09226,298.38761 0,199.82826 -226.45693,298.3876 -397.09226,298.3876 -170.63711,0 -397.095792,-98.55757 -397.095792,-298.3876 z"
   fill="#00ffff"
   clip-rule="evenodd"
   fill-rule="evenodd" />
<path
   style="stroke-width:0.880702"
   id="path12"
   d="m 92.319402,421.765 c 0,-319.48733 635.746538,-319.48821 635.746538,0 0,319.4882 -635.746538,319.48731 -635.746538,0 z"
   fill="#ffff00"
   clip-rule="evenodd"
   fill-rule="evenodd" />
<path
   style="stroke-width:0.880702"
   id="path14"
   d="m 171.54016,421.765 c 0,-239.93845 477.30503,-239.94021 477.30503,0 0,239.94019 -477.30503,239.93932 -477.30503,0 z"
   fill="#00ffff"
   clip-rule="evenodd"
   fill-rule="evenodd" />
<path
   style="stroke-width:0.880702"
   id="path16"
   d="m 250.7609,421.765 c 0,-160.39222 318.86354,-160.39222 318.86354,0 0,160.39396 -318.86354,160.39308 -318.86354,0 z"
   fill="#ffff00"
   clip-rule="evenodd"
   fill-rule="evenodd" />
<path
   style="stroke-width:0.880702"
   id="path18"
   d="m 329.98166,421.765 c 0,-80.8495 160.42203,-80.85039 160.42203,0 0,80.85125 -160.42203,80.85037 -160.42203,0 z"
   fill="#00ffff"
   clip-rule="evenodd"
   fill-rule="evenodd" />
<line
   id="line20"
   y2="720.15259"
   x2="11.118118"
   y1="720.15259"
   x1="129.94923"
   stroke-miterlimit="10"
   stroke-linecap="square"
   stroke-width="0"
   stroke="#000000"
   fill="none" />
</svg>
