<?xml version="1.0" encoding="UTF-8" standalone="no"?>
<svg
   xmlns:dc="http://purl.org/dc/elements/1.1/"
   xmlns:cc="http://creativecommons.org/ns#"
   xmlns:rdf="http://www.w3.org/1999/02/22-rdf-syntax-ns#"
   xmlns:svg="http://www.w3.org/2000/svg"
   xmlns="http://www.w3.org/2000/svg"
   xmlns:sodipodi="http://sodipodi.sourceforge.net/DTD/sodipodi-0.dtd"
   xmlns:inkscape="http://www.inkscape.org/namespaces/inkscape"
   inkscape:version="1.0 (4035a4f, 2020-05-01)"
   sodipodi:docname="3.svg"
   xml:space="preserve"
   enable-background="new 0 0 822.05 841.89"
   viewBox="0 0 822.05 841.89"
   height="841.89px"
   width="822.05px"
   y="0px"
   x="0px"
   id="Layer_1"
   version="1.1"><metadata
   id="metadata25"><rdf:RDF><cc:Work
       rdf:about=""><dc:format>image/svg+xml</dc:format><dc:type
         rdf:resource="http://purl.org/dc/dcmitype/StillImage" /></cc:Work></rdf:RDF></metadata><defs
   id="defs23" /><sodipodi:namedview
   inkscape:current-layer="Layer_1"
   inkscape:window-maximized="0"
   inkscape:window-y="23"
   inkscape:window-x="0"
   inkscape:cy="420.94501"
   inkscape:cx="411.02499"
   inkscape:zoom="0.32308258"
   showgrid="false"
   id="namedview21"
   inkscape:window-height="480"
   inkscape:window-width="705"
   inkscape:pageshadow="2"
   inkscape:pageopacity="0"
   guidetolerance="10"
   gridtolerance="10"
   objecttolerance="10"
   borderopacity="1"
   bordercolor="#666666"
   pagecolor="#ffffff" />
<path
   style="stroke-width:0.902133"
   id="path10"
   d="M 9.2524206,405.02464 C 18.88635,197.13184 251.51238,105.90836 423.2147,114.43194 594.91615,122.95548 818.03625,236.80478 808.40241,444.69575 798.76852,652.58763 566.1451,743.81216 394.44367,735.28861 222.74046,726.76499 -0.38155836,612.91835 9.2524206,405.02464 Z"
   fill="#ff0000"
   clip-rule="evenodd"
   fill-rule="evenodd" />
<path
   style="stroke-width:0.902133"
   id="path12"
   d="M 88.968142,408.98186 C 104.37088,76.602375 744.0895,108.35814 728.6867,440.73852 713.28391,773.11893 73.565374,741.36134 88.968142,408.98186 Z"
   fill="#ffff00"
   clip-rule="evenodd"
   fill-rule="evenodd" />
<path
   style="stroke-width:0.902133"
   id="path14"
   d="M 168.68385,412.93907 C 180.25148,163.31848 660.53872,187.15888 648.97099,436.78131 637.40327,686.40374 157.11616,662.56059 168.68385,412.93907 Z"
   fill="#ff0000"
   clip-rule="evenodd"
   fill-rule="evenodd" />
<path
   style="stroke-width:0.902133"
   id="path16"
   d="m 248.39955,416.89629 c 7.73265,-166.86446 328.58837,-150.93665 320.85573,15.9278 -7.73274,166.86629 -328.58841,150.93757 -320.85573,-15.9278 z"
   fill="#ffff00"
   clip-rule="evenodd"
   fill-rule="evenodd" />
<path
   style="stroke-width:0.902133"
   id="path18"
   d="m 328.11526,420.8535 c 3.89782,-84.11197 165.32217,-76.09953 161.42431,8.01338 -3.8979,84.11381 -165.32217,76.09953 -161.42431,-8.01338 z"
   fill="#ff0000"
   clip-rule="evenodd"
   fill-rule="evenodd" />
</svg>
