<?xml version="1.0" encoding="UTF-8" standalone="no"?>
<svg
   xmlns:dc="http://purl.org/dc/elements/1.1/"
   xmlns:cc="http://creativecommons.org/ns#"
   xmlns:rdf="http://www.w3.org/1999/02/22-rdf-syntax-ns#"
   xmlns:svg="http://www.w3.org/2000/svg"
   xmlns="http://www.w3.org/2000/svg"
   xmlns:sodipodi="http://sodipodi.sourceforge.net/DTD/sodipodi-0.dtd"
   xmlns:inkscape="http://www.inkscape.org/namespaces/inkscape"
   inkscape:version="1.0 (4035a4f, 2020-05-01)"
   sodipodi:docname="4.svg"
   xml:space="preserve"
   enable-background="new 0 0 822.05 841.89"
   viewBox="0 0 822.05 841.89"
   height="841.89px"
   width="822.05px"
   y="0px"
   x="0px"
   id="Layer_1"
   version="1.1"><metadata
   id="metadata29"><rdf:RDF><cc:Work
       rdf:about=""><dc:format>image/svg+xml</dc:format><dc:type
         rdf:resource="http://purl.org/dc/dcmitype/StillImage" /></cc:Work></rdf:RDF></metadata><defs
   id="defs27" /><sodipodi:namedview
   inkscape:current-layer="Layer_1"
   inkscape:window-maximized="0"
   inkscape:window-y="23"
   inkscape:window-x="0"
   inkscape:cy="420.94501"
   inkscape:cx="411.02499"
   inkscape:zoom="0.32308258"
   showgrid="false"
   id="namedview25"
   inkscape:window-height="480"
   inkscape:window-width="705"
   inkscape:pageshadow="2"
   inkscape:pageopacity="0"
   guidetolerance="10"
   gridtolerance="10"
   objecttolerance="10"
   borderopacity="1"
   bordercolor="#666666"
   pagecolor="#ffffff" />
<path
   style="stroke-width:0.895711"
   id="path10"
   d="m 19.058495,427.84007 c 0,-209.21433 223.734105,-312.40305 392.316495,-312.40305 168.5824,0 392.31651,103.18872 392.31651,312.40305 0,209.21434 -223.73324,312.40306 -392.31651,312.40306 -168.58326,0 -392.316495,-103.18688 -392.316495,-312.40306 z"
   fill="#ffff00"
   clip-rule="evenodd"
   fill-rule="evenodd" />
<path
   style="stroke-width:0.895711"
   id="path12"
   d="m 58.192314,427.84007 c 0,-334.493829 628.097746,-334.493829 628.097746,0 0,334.49476 -628.097746,334.49476 -628.097746,0 z"
   fill="#800080"
   clip-rule="evenodd"
   fill-rule="evenodd" />
<path
   style="stroke-width:0.895711"
   id="path14"
   d="m 175.59375,427.84007 c 0,-251.20942 471.56249,-251.20942 471.56249,0 0,251.21035 -471.56249,251.20942 -471.56249,0 z"
   fill="#ffff00"
   clip-rule="evenodd"
   fill-rule="evenodd" />
<path
   style="stroke-width:0.895711"
   id="path16"
   d="m 292.9952,427.84007 c 0,-167.92684 315.02722,-167.92592 315.02722,0 0,167.92592 -315.02722,167.92778 -315.02722,0 z"
   fill="#800080"
   clip-rule="evenodd"
   fill-rule="evenodd" />
<path
   style="stroke-width:0.895711"
   id="path18"
   d="m 431.92025,429.91584 c 0,-84.64797 158.49195,-84.64797 158.49195,0 0,84.64796 -158.49195,84.64796 -158.49195,0 z"
   fill="#ffff00"
   clip-rule="evenodd"
   fill-rule="evenodd" />
<path
   style="stroke-width:0.895711"
   id="path20"
   d="m 443.6604,427.84007 c 0,-48.52868 90.00777,-48.52868 90.00777,0 0,48.52868 -90.00777,48.52868 -90.00777,0 z"
   fill="#800080"
   clip-rule="evenodd"
   fill-rule="evenodd" />
<line
   id="line22"
   y2="742.31885"
   x2="799.77814"
   y1="740.2431"
   x1="799.77814"
   stroke-miterlimit="10"
   stroke-linecap="square"
   stroke-width="0"
   stroke="#000000"
   fill="none" />
</svg>
