<?xml version="1.0" encoding="UTF-8" standalone="no"?>
<svg
   xmlns:dc="http://purl.org/dc/elements/1.1/"
   xmlns:cc="http://creativecommons.org/ns#"
   xmlns:rdf="http://www.w3.org/1999/02/22-rdf-syntax-ns#"
   xmlns:svg="http://www.w3.org/2000/svg"
   xmlns="http://www.w3.org/2000/svg"
   xmlns:sodipodi="http://sodipodi.sourceforge.net/DTD/sodipodi-0.dtd"
   xmlns:inkscape="http://www.inkscape.org/namespaces/inkscape"
   inkscape:version="1.0 (4035a4f, 2020-05-01)"
   sodipodi:docname="6.svg"
   xml:space="preserve"
   enable-background="new 0 0 822.05 841.89"
   viewBox="0 0 822.05 841.89"
   height="841.89px"
   width="822.05px"
   y="0px"
   x="0px"
   id="Layer_1"
   version="1.1"><metadata
   id="metadata29"><rdf:RDF><cc:Work
       rdf:about=""><dc:format>image/svg+xml</dc:format><dc:type
         rdf:resource="http://purl.org/dc/dcmitype/StillImage" /></cc:Work></rdf:RDF></metadata><defs
   id="defs27" /><sodipodi:namedview
   inkscape:current-layer="Layer_1"
   inkscape:window-maximized="0"
   inkscape:window-y="23"
   inkscape:window-x="0"
   inkscape:cy="420.94501"
   inkscape:cx="411.02499"
   inkscape:zoom="0.32308258"
   showgrid="false"
   id="namedview25"
   inkscape:window-height="480"
   inkscape:window-width="705"
   inkscape:pageshadow="2"
   inkscape:pageopacity="0"
   guidetolerance="10"
   gridtolerance="10"
   objecttolerance="10"
   borderopacity="1"
   bordercolor="#666666"
   pagecolor="#ffffff" />
<path
   style="stroke-width:0.874264"
   id="path10"
   d="m 15.963314,393.90834 c 0,-197.75545 225.499256,-295.292426 395.411686,-295.292426 169.91242,0 395.41166,97.536976 395.41166,295.292426 0,197.75545 -225.49836,295.29242 -395.41166,295.29242 -169.91331,0 -395.411686,-97.53522 -395.411686,-295.29242 z"
   fill="#ff0000"
   clip-rule="evenodd"
   fill-rule="evenodd" />
<path
   style="stroke-width:0.874264"
   id="path12"
   d="m 55.405879,393.90834 c 0,-316.173272 633.053121,-316.173272 633.053121,0 0,316.17415 -633.053121,316.17415 -633.053121,0 z"
   fill="#ffff00"
   clip-rule="evenodd"
   fill-rule="evenodd" />
<path
   style="stroke-width:0.874264"
   id="path14"
   d="m 173.73356,393.90834 c 0,-237.45043 475.28288,-237.45043 475.28288,0 0,237.45129 -475.28288,237.45043 -475.28288,0 z"
   fill="#ff0000"
   clip-rule="evenodd"
   fill-rule="evenodd" />
<path
   style="stroke-width:0.874264"
   id="path16"
   d="m 292.06124,393.90834 c 0,-158.72933 317.51263,-158.72846 317.51263,0 0,158.72845 -317.51263,158.7302 -317.51263,0 z"
   fill="#ffff00"
   clip-rule="evenodd"
   fill-rule="evenodd" />
<path
   style="stroke-width:0.874264"
   id="path18"
   d="m 432.08234,395.87041 c 0,-80.01171 159.74238,-80.01171 159.74238,0 0,80.01172 -159.74238,80.01172 -159.74238,0 z"
   fill="#ff0000"
   clip-rule="evenodd"
   fill-rule="evenodd" />
<path
   style="stroke-width:0.874264"
   id="path20"
   d="m 443.91511,393.90834 c 0,-45.87072 90.7179,-45.87072 90.7179,0 0,45.87071 -90.7179,45.87071 -90.7179,0 z"
   fill="#ffff00"
   clip-rule="evenodd"
   fill-rule="evenodd" />
<line
   id="line22"
   y2="687.23865"
   x2="15.9633"
   y1="98.615913"
   x1="15.9633"
   stroke-miterlimit="10"
   stroke-linecap="square"
   stroke-width="0"
   stroke="#000000"
   fill="none" />
</svg>
