<?xml version="1.0" encoding="UTF-8" standalone="no"?>
<svg
   xmlns:dc="http://purl.org/dc/elements/1.1/"
   xmlns:cc="http://creativecommons.org/ns#"
   xmlns:rdf="http://www.w3.org/1999/02/22-rdf-syntax-ns#"
   xmlns:svg="http://www.w3.org/2000/svg"
   xmlns="http://www.w3.org/2000/svg"
   xmlns:sodipodi="http://sodipodi.sourceforge.net/DTD/sodipodi-0.dtd"
   xmlns:inkscape="http://www.inkscape.org/namespaces/inkscape"
   inkscape:version="1.0 (4035a4f, 2020-05-01)"
   sodipodi:docname="7.svg"
   xml:space="preserve"
   enable-background="new 0 0 822.05 841.89"
   viewBox="0 0 822.05 841.89"
   height="841.89px"
   width="822.05px"
   y="0px"
   x="0px"
   id="Layer_1"
   version="1.1"><metadata
   id="metadata29"><rdf:RDF><cc:Work
       rdf:about=""><dc:format>image/svg+xml</dc:format><dc:type
         rdf:resource="http://purl.org/dc/dcmitype/StillImage" /></cc:Work></rdf:RDF></metadata><defs
   id="defs27" /><sodipodi:namedview
   inkscape:current-layer="Layer_1"
   inkscape:window-maximized="0"
   inkscape:window-y="23"
   inkscape:window-x="0"
   inkscape:cy="420.94501"
   inkscape:cx="411.02499"
   inkscape:zoom="0.32308258"
   showgrid="false"
   id="namedview25"
   inkscape:window-height="480"
   inkscape:window-width="705"
   inkscape:pageshadow="2"
   inkscape:pageopacity="0"
   guidetolerance="10"
   gridtolerance="10"
   objecttolerance="10"
   borderopacity="1"
   bordercolor="#666666"
   pagecolor="#ffffff" />
<path
   id="path10"
   d="m 10.011163,407.83667 c 0,-200.86469 227.339067,-299.9352 398.637767,-299.9352 171.2987,0 398.63776,99.07051 398.63776,299.9352 0,200.86469 -227.33818,299.9352 -398.63776,299.9352 -171.29959,0 -398.637767,-99.06874 -398.637767,-299.9352 z"
   stroke-miterlimit="10"
   stroke-linecap="square"
   stroke-width="0"
   stroke="#000000"
   clip-rule="evenodd"
   fill-rule="evenodd" />
<path
   style="stroke-width:0.884698"
   id="path12"
   d="m 51.763746,387.90742 c 0,-321.144354 638.218064,-321.144354 638.218064,0 0,321.14524 -638.218064,321.14524 -638.218064,0 z"
   fill="#ffffff"
   clip-rule="evenodd"
   fill-rule="evenodd" />
<path
   id="path14"
   d="m 169.06863,348.04892 c 0,-241.18377 479.1606,-241.18377 479.1606,0 0,241.18466 -479.1606,241.18378 -479.1606,0 z"
   stroke-miterlimit="10"
   stroke-linecap="square"
   stroke-width="0"
   stroke="#000000"
   clip-rule="evenodd"
   fill-rule="evenodd" />
<path
   style="stroke-width:0.884698"
   id="path16"
   d="m 220.7623,383.92157 c 0,-161.22497 320.10314,-161.22409 320.10314,0 0,161.22408 -320.10314,161.22586 -320.10314,0 z"
   fill="#ffffff"
   clip-rule="evenodd"
   fill-rule="evenodd" />
<path
   id="path18"
   d="m 322.16144,358.01354 c 0,-81.2697 161.04567,-81.2697 161.04567,0 0,81.26971 -161.04567,81.26971 -161.04567,0 z"
   stroke-miterlimit="10"
   stroke-linecap="square"
   stroke-width="0"
   stroke="#000000"
   clip-rule="evenodd"
   fill-rule="evenodd" />
<path
   style="stroke-width:0.884698"
   id="path20"
   d="m 342.04361,344.06307 c 0,-46.59193 91.45804,-46.59193 91.45804,0 0,46.59193 -91.45804,46.59193 -91.45804,0 z"
   fill="#ffffff"
   clip-rule="evenodd"
   fill-rule="evenodd" />
<line
   id="line22"
   y2="705.77899"
   x2="10.011169"
   y1="703.78607"
   x1="8.0229292"
   stroke-miterlimit="10"
   stroke-linecap="square"
   stroke-width="0"
   stroke="#000000"
   fill="none" />
</svg>
