<?xml version="1.0" encoding="UTF-8" standalone="no"?>
<!DOCTYPE svg PUBLIC "-//W3C//DTD SVG 1.1//EN" "http://www.w3.org/Graphics/SVG/1.1/DTD/svg11.dtd">
<svg width="100%" height="100%" viewBox="0 0 183 87" version="1.1" xmlns="http://www.w3.org/2000/svg" xmlns:xlink="http://www.w3.org/1999/xlink" xml:space="preserve" xmlns:serif="http://www.serif.com/" style="fill-rule:evenodd;clip-rule:evenodd;">
    <g transform="matrix(0.488135,0,0,0.62539,339.567,-207.856)">
        <g id="Layer-1" serif:id="Layer 1">
            <g id="use3388">
                <path id="path3398" d="M-423.49,386.93C-423.49,386.93 -399.87,409.11 -385.98,414.73C-385.35,414.99 -383.65,415.1 -383.65,415.1L-346.35,395.1L-344.52,401.86L-379.77,423.52C-379.77,423.52 -382.34,426.06 -383.82,426.01C-385.29,425.96 -388.38,423.96 -388.38,423.96L-430.84,391.89L-423.49,386.93Z" style="fill:rgb(39,46,86);"/>
                <g id="path3400" transform="matrix(1.5172,0,0,1.5172,220.94,-204.42)">
                    <path d="M-385.71,374.51C-385.71,385.874 -395.061,395.225 -406.425,395.225C-417.789,395.225 -427.14,385.874 -427.14,374.51C-427.14,363.146 -417.789,353.795 -406.425,353.795C-395.061,353.795 -385.71,363.146 -385.71,374.51Z" style="fill:rgb(244,215,215);fill-rule:nonzero;"/>
                </g>
                <path id="path3402" d="M-425.29,374.93L-498.93,394.86L-490.57,431.29C-490.57,431.29 -473.19,426.82 -466.63,424.02C-443.32,414.05 -414.29,388.08 -414.29,388.08L-425.29,374.93Z" style="fill:rgb(39,46,86);"/>
                <path id="path3404" d="M-489.81,431.08C-489.81,431.08 -532.6,443.66 -551.43,443.79C-564.42,441.45 -610,432.36 -610,432.36L-605.71,420.08C-605.71,420.08 -552.46,428.12 -550,428.08C-547.35,428.03 -512.86,415.22 -512.86,415.22C-512.86,415.22 -563.8,418.7 -568.57,418.08C-573.34,417.46 -623.61,404.79 -623.61,404.79L-615.79,393.5C-615.79,393.5 -571.79,402.16 -565.42,403.51C-564.45,403.71 -563.11,403.92 -562.11,403.88C-550.9,403.47 -498.19,394.79 -498.19,394.79L-489.81,431.08Z" style="fill:rgb(39,46,86);"/>
                <g id="path3406" transform="matrix(0.90045,0,0,0.91686,33.575,-77.393)">
                    <path d="M-445.98,478.34C-445.98,480.696 -447.691,482.635 -449.77,482.635C-451.849,482.635 -453.56,480.696 -453.56,478.34C-453.56,475.984 -451.849,474.045 -449.77,474.045C-447.691,474.045 -445.98,475.984 -445.98,478.34Z" style="fill:rgb(5,8,12);fill-rule:nonzero;"/>
                </g>
                <g id="path3408" transform="matrix(1,0,0,1,63.64,-116.67)">
                    <path d="M-445.98,478.34C-445.98,480.696 -447.691,482.635 -449.77,482.635C-451.849,482.635 -453.56,480.696 -453.56,478.34C-453.56,475.984 -451.849,474.045 -449.77,474.045C-447.691,474.045 -445.98,475.984 -445.98,478.34Z" style="fill:rgb(5,8,12);fill-rule:nonzero;"/>
                </g>
                <path id="path3410" d="M-395.71,332.36C-413.06,332.36 -427.15,346.45 -427.15,363.8C-427.15,381.15 -413.06,395.21 -395.71,395.21C-390.77,395.21 -386.09,394.08 -381.93,392.05C-400.27,390.18 -414.27,380.15 -414.27,368.08C-414.27,354.67 -397,343.8 -375.71,343.8C-374.23,343.8 -372.77,343.85 -371.33,343.96C-377.1,336.88 -385.88,332.36 -395.71,332.36Z" style="fill:rgb(39,46,86);fill-rule:nonzero;"/>
                <path id="path3412" d="M-401.06,352.84C-397.79,348.52 -393.74,346.95 -386.13,347.07C-381.84,347.15 -378.99,347.05 -375.38,347.17C-370.44,347.33 -366.1,346.2 -362.99,350.26C-359.57,354.09 -359.07,362.76 -360.13,368.82C-360.92,373.32 -363.04,375.05 -366.26,375.87C-369.52,376.71 -369.82,377.09 -372.71,374.12C-374.13,372.34 -376.28,368.42 -378.67,369.45C-381.23,370.7 -384.91,374.95 -387.48,376.23C-389.85,377.71 -392.49,378.25 -395.07,378.63C-399.23,378.46 -402.23,373.41 -403.18,368.43C-404.29,363.17 -404.17,356.95 -401.06,352.84Z" style="fill:url(#_Linear1);stroke:rgb(38,78,38);stroke-width:1.82px;"/>
                <g id="rect3414" transform="matrix(0.97471,-0.22345,0.22345,0.97471,0,0)">
                    <path d="M-506.367,259.161C-506.367,252.046 -513.538,246.27 -522.371,246.27L-579.406,246.27C-588.239,246.27 -595.41,252.046 -595.41,259.161C-595.41,266.277 -588.239,272.053 -579.406,272.053L-522.371,272.053C-513.538,272.053 -506.367,266.277 -506.367,259.161Z" style="fill:rgb(231,197,77);"/>
                </g>
                <path id="rect3416" d="M-368.57,384.455C-368.57,380.147 -373.051,376.65 -378.57,376.65C-384.089,376.65 -388.57,380.147 -388.57,384.455L-388.57,391.702C-388.57,396.01 -384.089,399.507 -378.57,399.507C-373.051,399.507 -368.57,396.01 -368.57,391.702L-368.57,384.455Z" style="fill:rgb(31,38,17);"/>
                <g id="rect3418" transform="matrix(0.97296,-0.23096,0.23096,0.97296,0,0)">
                    <path d="M-500.533,253.889C-500.533,251.025 -503.414,248.7 -506.962,248.7C-510.509,248.7 -513.39,251.025 -513.39,253.889L-513.39,254.94C-513.39,257.804 -510.509,260.129 -506.962,260.129C-503.414,260.129 -500.533,257.804 -500.533,254.94L-500.533,253.889Z" style="fill:rgb(76,122,169);"/>
                </g>
                <path id="path3420" d="M-475.28,387.68C-477.59,391.13 -469.85,424.43 -465.2,425.51C-458.37,427.11 -435.95,408.27 -435.95,408.27C-435.95,408.27 -438.41,389.22 -435.88,385.16C-434.1,382.3 -429.79,380.61 -426.79,382.13C-423.7,383.68 -421.42,394.08 -421.42,394.08C-421.42,394.08 -415.71,391.77 -415.99,390.05C-417.01,383.87 -418.99,377.88 -429.31,375.34C-439.62,372.8 -473.82,385.51 -475.28,387.68Z" style="fill:rgb(155,111,37);"/>
                <g id="g3422" transform="matrix(0.19236,0.73326,-0.83243,0.16944,28.614,702.66)">
                    <rect id="rect3424" x="-539.37" y="494.11" width="50.577" height="5.305" style="fill:rgb(225,86,31);"/>
                    <rect id="rect3426" x="-536.29" y="491.3" width="6.566" height="11.112" style="fill:none;stroke:rgb(223,225,9);stroke-width:3px;stroke-linecap:round;stroke-linejoin:round;"/>
                    <rect id="rect3428" x="-498.51" y="491.22" width="6.566" height="11.112" style="fill:none;stroke:rgb(223,225,9);stroke-width:3px;stroke-linecap:round;stroke-linejoin:round;"/>
                    <rect id="rect3430" x="-518.99" y="491.45" width="9.133" height="10.648" style="fill:none;stroke:rgb(223,225,9);stroke-width:3.46px;stroke-linecap:round;stroke-linejoin:round;"/>
                </g>
                <path id="path3432" d="M-619.7,387.08C-616.48,387.99 -615.23,393.65 -615.23,393.65L-623.35,404.81L-632.44,402.92L-673.86,425.6L-695.63,398.95L-638.32,394.93C-638.32,394.93 -625.43,385.44 -619.7,387.08Z" style="fill:rgb(32,39,17);"/>
                <path id="path3434" d="M-611.43,415.22C-608.1,414.85 -605,420.93 -605,420.93L-609.1,432.56L-619.29,435.93L-657.14,470.93L-684.16,446.19L-625.71,429.51C-625.71,429.51 -617.35,415.87 -611.43,415.22Z" style="fill:rgb(32,39,17);"/>
                <path id="path3436" d="M-347,389.76C-346.03,386.71 -343.84,386.14 -341.06,385.5C-339.86,385.14 -336.87,384.99 -336.8,387.35C-336.95,388.42 -339.67,389.13 -337.46,389.39C-334.64,390.06 -329.57,385.9 -326.78,386.42C-325.09,386.66 -323.82,392.11 -324.92,394.7C-324.51,396.17 -323.17,396.48 -324.06,397.77C-324.91,399.22 -326.6,400.46 -327.48,401.75C-329.51,403.6 -332.14,403.4 -334.88,404.06C-337.65,404.29 -341.82,404.18 -345.87,402.68C-348.13,400.87 -347.03,398.25 -347.64,395.95L-347.6,392.2" style="fill:rgb(39,46,86);"/>
                <path id="path3438" d="M-425.55,394.5L-444.66,425.62L-404.76,413.68L-401.2,421.87L-448.52,434.93C-448.52,434.93 -455.99,437.89 -458.18,436.39C-460.89,434.53 -456.97,427.19 -456.97,427.19L-434.74,390.02L-425.55,394.5Z" style="fill:rgb(39,46,86);"/>
                <path id="path3440" d="M-403.76,403.25C-401.48,400.05 -399.3,399.73 -396.57,399.41C-395.35,399.18 -392.66,399.42 -393.71,402.01C-394.33,403.15 -397.05,403.56 -395.23,404.13C-393.08,405.25 -387.68,401.79 -385.49,402.73C-384.13,403.23 -384.56,408.95 -386.74,411.63C-387.06,413.29 -387.3,415.93 -388.68,417.22C-390.1,418.68 -391.33,419.1 -392.7,420.39C-395.34,422.13 -398.41,421.92 -401.12,422.27C-403.64,422.14 -406.09,420.81 -407.81,418.46C-408.94,416.18 -407.74,412.49 -407.2,409.91L-405.42,405.83" style="fill:rgb(39,46,86);"/>
                <path id="path3442" d="M-434.11,368.91C-468.49,415.52 -387,392.48 -379.58,390.1L-381.01,388.67" style="fill:none;fill-rule:nonzero;stroke:black;stroke-width:3px;stroke-linecap:round;stroke-linejoin:round;"/>
            </g>
        </g>
    </g>
    <defs>
        <linearGradient id="_Linear1" x1="0" y1="0" x2="1" y2="0" gradientUnits="userSpaceOnUse" gradientTransform="matrix(45.7301,0,0,45.7301,-403.881,362.713)"><stop offset="0" style="stop-color:rgb(134,185,200);stop-opacity:1"/><stop offset="1" style="stop-color:rgb(165,192,116);stop-opacity:0"/></linearGradient>
    </defs>
</svg>
