<?xml version="1.0" encoding="UTF-8" standalone="no"?>
<svg
   xmlns:dc="http://purl.org/dc/elements/1.1/"
   xmlns:cc="http://creativecommons.org/ns#"
   xmlns:rdf="http://www.w3.org/1999/02/22-rdf-syntax-ns#"
   xmlns:svg="http://www.w3.org/2000/svg"
   xmlns="http://www.w3.org/2000/svg"
   xmlns:sodipodi="http://sodipodi.sourceforge.net/DTD/sodipodi-0.dtd"
   xmlns:inkscape="http://www.inkscape.org/namespaces/inkscape"
   inkscape:version="1.0 (4035a4f, 2020-05-01)"
   sodipodi:docname="3.svg"
   xml:space="preserve"
   enable-background="new 0 0 822.05 841.89"
   viewBox="0 0 822.05 841.89"
   height="841.89px"
   width="822.05px"
   y="0px"
   x="0px"
   id="Layer_1"
   version="1.1"><metadata
   id="metadata57"><rdf:RDF><cc:Work
       rdf:about=""><dc:format>image/svg+xml</dc:format><dc:type
         rdf:resource="http://purl.org/dc/dcmitype/StillImage" /></cc:Work></rdf:RDF></metadata><defs
   id="defs55" /><sodipodi:namedview
   inkscape:current-layer="Layer_1"
   inkscape:window-maximized="0"
   inkscape:window-y="23"
   inkscape:window-x="0"
   inkscape:cy="420.94501"
   inkscape:cx="411.02499"
   inkscape:zoom="0.71743338"
   showgrid="false"
   id="namedview53"
   inkscape:window-height="744"
   inkscape:window-width="1271"
   inkscape:pageshadow="2"
   inkscape:pageopacity="0"
   guidetolerance="10"
   gridtolerance="10"
   objecttolerance="10"
   borderopacity="1"
   bordercolor="#666666"
   pagecolor="#ffffff" />
<path
   id="path10"
   d="m 542.99299,389.93818 c 3.15992,-129.77354 -34.03688,-287.53099 -144.03962,-287.53099 -63.01381,0 -248.6171,79.19284 -269.51415,181.79379 -9.89285,48.57481 27.50879,110.99809 51.2141,109.44729 40.1416,-2.62921 99.02414,-99.91487 138.27803,-124.28759 92.2434,-57.27865 168.31169,10.68008 224.06164,120.5775 z"
   stroke-miterlimit="10"
   stroke-linecap="square"
   stroke-width="1.02743"
   stroke="#000000"
   fill="#0a3283" />
<path
   style="stroke-width:2.05484"
   id="path12"
   d="m 142.24274,289.76611 c 4.40442,22.97278 28.60478,113.422 41.61145,102.95464 33.226,-26.74224 -5.51576,-93.74129 -22.40616,-134.4903 -8.28303,7.80846 -15.1201,18.91645 -19.20529,31.53566 z"
   fill="#466aa5" />
<path
   style="stroke-width:2.05484"
   id="path14"
   d="m 309.96888,139.50797 c 16.40729,42.04506 25.29464,140.84937 64.01761,113.15736 -8.98465,-41.18681 -24.93272,-152.09092 -64.01761,-113.15736 z"
   fill="#466aa5" />
<path
   style="stroke-width:2.05484"
   id="path16"
   d="m 192.17648,224.83974 c 17.04405,39.70526 31.67079,81.24328 40.97128,126.14264 58.95595,-22.13433 12.5611,-107.89152 -7.68212,-155.82326 -10.13014,9.03281 -25.12734,17.29144 -33.28916,29.68062 z"
   fill="#466aa5" />
<path
   style="stroke-width:2.05484"
   id="path18"
   d="m 252.35303,174.7537 c 15.43594,39.95259 28.48869,82.04959 37.13023,126.14264 54.95271,-22.30993 3.21282,-178.10351 -37.13023,-126.14264 z"
   fill="#466aa5" />
<path
   style="stroke-width:2.05484"
   id="path20"
   d="m 421.36294,113.53743 c 34.56268,80.51857 52.05571,161.81873 93.4623,231.87983 -2.73142,-70.23423 -32.79408,-235.34999 -93.4623,-231.87983 z"
   fill="#466aa5" />
<path
   style="stroke-width:2.05484"
   id="path22"
   d="m 361.18297,119.10254 c 21.34091,52.12659 25.74191,139.50139 71.69973,140.98295 -8.63469,-47.0611 -29.24324,-166.866919 -71.69973,-140.98295 z"
   fill="#466aa5" />
<path
   id="path24"
   d="m 172.9712,486.4002 c -67.66918,17.42005 25.08978,161.79399 47.37303,187.35891 71.16368,81.64149 154.56583,57.88215 218.94024,-29.68062 C 341.04389,660.759 244.69311,573.86403 172.9712,486.4002 Z"
   stroke-miterlimit="10"
   stroke-linecap="square"
   stroke-width="1.02743"
   stroke="#000000"
   fill="#0a3283" />
<path
   style="stroke-width:2.05484"
   id="path26"
   d="m 221.62459,532.77616 c -16.33218,33.15078 -54.0872,69.79645 -20.48564,102.02713 15.05694,-25.40909 29.33201,-51.9955 42.25162,-79.76667 -6.79952,-6.95267 -14.03608,-18.05818 -21.76598,-22.26046 z"
   fill="#466aa5" />
<path
   style="stroke-width:2.05484"
   id="path28"
   d="m 179.37296,486.4002 c -22.81246,7.08625 -27.20663,49.98958 -14.08387,81.62171 15.62541,-26.40339 45.39616,-59.87076 14.08387,-81.62171 z"
   fill="#466aa5" />
<path
   style="stroke-width:2.05484"
   id="path30"
   d="m 398.31319,638.51336 c -8.41447,20.90753 -17.37694,41.31543 -26.88739,61.21628 22.99342,-16.52468 43.91266,-38.12722 64.01761,-61.21628 -12.06776,0 -25.1649,-2.06774 -37.13022,0 z"
   fill="#466aa5" />
<path
   style="stroke-width:2.05484"
   id="path32"
   d="m 320.2117,612.54283 c -12.83937,34.19701 -28.72086,65.40371 -44.81232,96.462 42.4855,33.0939 62.41973,-35.46834 81.94254,-79.76666 -11.84411,-4.66233 -25.08978,-14.57319 -37.13022,-16.69534 z"
   fill="#466aa5" />
<path
   style="stroke-width:2.05484"
   id="path34"
   d="m 265.15655,573.58701 c -13.50344,30.39543 -28.74475,59.31425 -46.09267,85.33178 4.15516,7.71201 16.85626,22.06507 23.04634,25.97055 15.54689,-30.51662 30.04219,-62.10422 43.53198,-94.60697 -6.82855,-5.56513 -13.65709,-11.13023 -20.48565,-16.69536 z"
   fill="#466aa5" />
<path
   id="path36"
   d="M 135.84098,417.76377 C 109.34452,395.69127 66.444187,268.35401 35.97351,273.07075 6.9112221,277.56984 21.770136,415.92605 23.810164,447.44439 25.769957,477.72603 22.526398,637.4053 64.781436,588.42732 94.330257,554.17836 139.14087,477.219 135.84098,417.76377 Z"
   stroke-miterlimit="10"
   stroke-linecap="square"
   stroke-width="1.02743"
   stroke="#000000"
   fill="#ff9900" />
<path
   id="path38"
   d="M 542.99299,391.79322 C 482.35722,285.79385 413.13284,211.92868 317.65101,271.21572 c -49.58379,30.78868 -90.17607,86.95432 -137.63787,123.36007 -33.94982,26.03979 -46.33168,20.5365 -51.85426,80.69418 34.57804,-24.36531 69.02122,43.24712 94.74606,68.63642 51.15774,50.48674 109.10307,93.03638 171.56719,102.02713 50.26492,7.23465 99.37583,-9.27272 142.11909,-48.23101 22.62469,-20.6206 39.16171,-47.46425 57.61586,-74.20154 9.90139,-14.34563 -43.24347,-113.80785 -51.21409,-131.70775 z"
   stroke-miterlimit="10"
   stroke-linecap="square"
   stroke-width="1.02743"
   stroke="#000000"
   fill="#0a3283" />
<path
   style="stroke-width:2.05484"
   id="path40"
   d="m 516.1056,414.0537 c -28.36407,64.01367 -28.36407,-64.01369 0,0 z" />
<path
   id="path42"
   d="m 594.20708,516.08081 c -27.7,13.72976 -56.37988,26.72245 -79.38184,53.79613"
   stroke-miterlimit="10"
   stroke-linecap="square"
   stroke-width="1.02743"
   stroke="#000000"
   fill="none" />
<path
   id="path44"
   d="m 696.63526,512.37074 c -6.42054,36.04711 -44.97109,45.54985 -46.09268,0 -1.16085,-47.07594 39.9248,-38.61201 46.09268,0 z"
   stroke-miterlimit="10"
   stroke-linecap="square"
   stroke-width="1.02743"
   stroke="#666666"
   fill="#dfe7e8" />
<path
   id="path46"
   d="m 755.53146,380.66299 c -4.09371,54.08551 -55.05515,49.76946 -55.05515,-4.63759 0,-51.73333 51.98401,-42.90087 55.05515,4.63759 z"
   stroke-miterlimit="10"
   stroke-linecap="square"
   stroke-width="1.02743"
   stroke="#666666"
   fill="#dfe7e8" />
<path
   id="path48"
   d="m 713.27983,261.94052 c -3.28111,60.76612 -61.4569,55.88119 -61.4569,-4.6376 0,-56.72956 60.71772,-51.39941 61.4569,4.6376 z"
   stroke-miterlimit="10"
   stroke-linecap="square"
   stroke-width="1.02743"
   stroke="#666666"
   fill="#dfe7e8" />
<path
   id="path50"
   d="m 814.42766,235.96997 c -6.26348,36.198 -43.38175,45.28274 -44.81233,0 -1.44594,-45.73782 40.42841,-40.35327 44.81233,0 z"
   stroke-miterlimit="10"
   stroke-linecap="square"
   stroke-width="1.02743"
   stroke="#666666"
   fill="#dfe7e8" />
</svg>
