<?xml version="1.0" encoding="UTF-8" standalone="no"?>
<svg
   xmlns:dc="http://purl.org/dc/elements/1.1/"
   xmlns:cc="http://creativecommons.org/ns#"
   xmlns:rdf="http://www.w3.org/1999/02/22-rdf-syntax-ns#"
   xmlns:svg="http://www.w3.org/2000/svg"
   xmlns="http://www.w3.org/2000/svg"
   xmlns:sodipodi="http://sodipodi.sourceforge.net/DTD/sodipodi-0.dtd"
   xmlns:inkscape="http://www.inkscape.org/namespaces/inkscape"
   inkscape:version="1.0 (4035a4f, 2020-05-01)"
   sodipodi:docname="4.svg"
   xml:space="preserve"
   enable-background="new 0 0 822.05 841.89"
   viewBox="0 0 822.05 841.89"
   height="841.89px"
   width="822.05px"
   y="0px"
   x="0px"
   id="Layer_1"
   version="1.1"><metadata
   id="metadata67"><rdf:RDF><cc:Work
       rdf:about=""><dc:format>image/svg+xml</dc:format><dc:type
         rdf:resource="http://purl.org/dc/dcmitype/StillImage" /></cc:Work></rdf:RDF></metadata><defs
   id="defs65" /><sodipodi:namedview
   inkscape:current-layer="Layer_1"
   inkscape:window-maximized="0"
   inkscape:window-y="23"
   inkscape:window-x="0"
   inkscape:cy="420.94501"
   inkscape:cx="411.02499"
   inkscape:zoom="0.71743338"
   showgrid="false"
   id="namedview63"
   inkscape:window-height="703"
   inkscape:window-width="1340"
   inkscape:pageshadow="2"
   inkscape:pageopacity="0"
   guidetolerance="10"
   gridtolerance="10"
   objecttolerance="10"
   borderopacity="1"
   bordercolor="#666666"
   pagecolor="#ffffff" />
<path
   style="stroke-width:1.5915"
   id="path10"
   d="m 600.16547,617.54287 c 16.04041,-18.46154 51.69833,-85.11649 79.43339,-65.05505 17.62909,12.75153 22.56761,26.925 3.84354,41.14593 -56.64539,43.02159 -103.45472,107.0595 -169.75683,138.45051 -59.03182,27.9481 -146.03956,22.52573 -204.34879,-2.78013 -24.68927,-10.71573 -62.45514,-11.52975 -83.27695,-27.24528 -6.65532,-5.02351 0.57227,-26.25778 -23.0613,-35.58567 19.0623,-17.50815 -3.32766,-33.26816 -25.62367,-41.14594 22.66499,-31.64604 58.39122,18.26435 80.71457,32.24952 33.33298,20.88138 71.0664,38.06036 111.46298,45.59414 91.76521,17.11226 175.96801,-21.64498 230.61306,-85.62803 z"
   fill="#b80335" />
<path
   id="path12"
   d="m 600.16547,617.54287 c 16.04041,-18.46154 51.69833,-85.11649 79.43339,-65.05505 17.62909,12.75153 22.56761,26.925 3.84354,41.14593 -56.64539,43.02159 -103.45472,107.0595 -169.75683,138.45051 -59.03182,27.9481 -146.03956,22.52573 -204.34879,-2.78013 -24.68927,-10.71573 -62.45514,-11.52975 -83.27695,-27.24528 -6.65532,-5.02351 0.57227,-26.25778 -23.0613,-35.58567 19.0623,-17.50815 -3.32766,-33.26816 -25.62367,-41.14594 22.66499,-31.64604 58.39122,18.26435 80.71457,32.24952 33.33298,20.88138 71.0664,38.06036 111.46298,45.59414 91.76521,17.11226 175.96801,-21.64498 230.61306,-85.62803 z"
   stroke-miterlimit="10"
   stroke-linecap="square"
   stroke-width="0.795751"
   stroke="#000000"
   fill="none" />
<path
   id="path14"
   d="m 648.85044,555.26794 c 68.15044,16.34124 -43.18101,66.04257 -57.65325,74.50751 19.21774,-24.83583 38.4355,-49.67167 57.65325,-74.50751 z"
   stroke-miterlimit="10"
   stroke-linecap="square"
   stroke-width="0.795751"
   stroke="#000000"
   fill="#3d0416" />
<path
   id="path16"
   d="M 682.16122,477.42428 C 636.03178,364.4709 483.70416,319.56771 358.02175,346.2021 263.88038,366.15381 135.86109,474.5789 169.68776,564.16437 203.70916,654.26432 365.04094,729.07282 469.48473,703.1709 527.14654,688.87139 754.15179,535.62614 682.16122,477.42428 Z"
   stroke-miterlimit="10"
   stroke-linecap="square"
   stroke-width="0.795751"
   stroke="#000000"
   fill="#ffde1d" />
<path
   style="stroke-width:1.5915"
   id="path18"
   d="m 491.26485,653.12854 c 15.25122,-49.9949 -0.8695,-106.81484 10.24948,-156.79937 5.31093,-23.87798 29.0282,-42.07561 33.31077,-65.61108 4.84971,-26.65664 -14.36805,-47.7634 2.56236,-74.50751 21.213,7.64202 41.32757,17.60452 60.21563,28.91336 -21.02849,19.3764 -13.42509,45.29611 -10.89005,69.50327 3.48823,33.30226 -19.67898,59.19973 -26.26427,90.63227 -9.71137,46.33699 -33.62168,157.27829 -103.77588,161.24758 10.03936,-18.63058 24.15971,-35.03854 34.59196,-53.37852 z"
   fill="#b80335" />
<path
   id="path20"
   d="m 491.26485,653.12854 c 15.25122,-49.9949 -0.8695,-106.81484 10.24948,-156.79937 5.31093,-23.87798 29.0282,-42.07561 33.31077,-65.61108 4.84971,-26.65664 -14.36805,-47.7634 2.56236,-74.50751 21.213,7.64202 41.32757,17.60452 60.21563,28.91336 -21.02849,19.3764 -13.42509,45.29611 -10.89005,69.50327 3.48823,33.30226 -19.67898,59.19973 -26.26427,90.63227 -9.71137,46.33699 -33.62168,157.27829 -103.77588,161.24758 10.03936,-18.63058 24.15971,-35.03854 34.59196,-53.37852 z"
   stroke-miterlimit="10"
   stroke-linecap="square"
   stroke-width="0.795751"
   stroke="#000000"
   fill="none" />
<path
   style="stroke-width:1.5915"
   id="path22"
   d="m 396.45726,637.55982 c -21.08828,-58.30565 4.18179,-115.21752 24.02476,-171.19378 9.71991,-27.42322 20.81667,-63.54712 20.81667,-92.36263 0,-40.6937 12.16613,-35.39885 57.65327,-28.91335 -20.31616,66.76761 -36.74777,128.8839 -47.11853,197.90527 -5.01881,33.39716 -3.07483,65.96695 -1.23505,99.50645 2.15238,39.21689 10.33317,74.94936 -47.7352,66.22938 13.18424,-23.59477 7.52995,-48.78944 -6.40592,-71.17134 z"
   fill="#b80335" />
<path
   id="path24"
   d="m 396.45726,637.55982 c -21.08828,-58.30565 4.18179,-115.21752 24.02476,-171.19378 9.71991,-27.42322 20.81667,-63.54712 20.81667,-92.36263 0,-40.6937 12.16613,-35.39885 57.65327,-28.91335 -20.31616,66.76761 -36.74777,128.8839 -47.11853,197.90527 -5.01881,33.39716 -3.07483,65.96695 -1.23505,99.50645 2.15238,39.21689 10.33317,74.94936 -47.7352,66.22938 13.18424,-23.59477 7.52995,-48.78944 -6.40592,-71.17134 z"
   stroke-miterlimit="10"
   stroke-linecap="square"
   stroke-width="0.795751"
   stroke="#000000"
   fill="none" />
<path
   style="stroke-width:1.5915"
   id="path26"
   d="m 296.52494,601.97414 c 6.48621,-59.11077 13.31406,-103.29187 40.99787,-157.3554 25.25811,-49.32768 -7.86987,-104.27789 78.15221,-103.9769 -34.79866,51.9284 -35.02244,109.72844 -65.98096,163.4717 -34.22298,59.4088 4.6618,126.70723 -18.57716,189.0489 -39.08977,-6.83839 -34.44334,-60.48972 -34.59196,-91.1883 z"
   fill="#b80335" />
<path
   id="path28"
   d="m 296.52494,601.97414 c 6.48621,-59.11077 13.31406,-103.29187 40.99787,-157.3554 25.25811,-49.32768 -7.86987,-104.27789 78.15221,-103.9769 -34.79866,51.9284 -35.02244,109.72844 -65.98096,163.4717 -34.22298,59.4088 4.6618,126.70723 -18.57716,189.0489 -39.08977,-6.83839 -34.44334,-60.48972 -34.59196,-91.1883 z"
   stroke-miterlimit="10"
   stroke-linecap="square"
   stroke-width="0.795751"
   stroke="#000000"
   fill="none" />
<path
   style="stroke-width:1.5915"
   id="path30"
   d="M 220.93511,575.28489 C 208.3983,485.57636 218.29416,388.4853 327.27335,353.98647 c -25.15391,57.25883 -53.37753,114.51322 -66.66938,175.08596 -10.89348,49.64055 3.82646,85.67401 6.45375,132.95254 -10.58258,-6.58039 -69.28984,-41.40839 -60.21564,-50.59838 9.84974,-9.97289 14.42613,-23.11883 14.09303,-36.1417 z"
   fill="#b80335" />
<path
   id="path32"
   d="M 220.93511,575.28489 C 208.3983,485.57636 218.29416,388.4853 327.27335,353.98647 c -25.15391,57.25883 -53.37753,114.51322 -66.66938,175.08596 -10.89348,49.64055 3.82646,85.67401 6.45375,132.95254 -10.58258,-6.58039 -69.28984,-41.40839 -60.21564,-50.59838 9.84974,-9.97289 14.42613,-23.11883 14.09303,-36.1417 z"
   stroke-miterlimit="10"
   stroke-linecap="square"
   stroke-width="0.795751"
   stroke="#000000"
   fill="none" />
<path
   style="stroke-width:1.5915"
   id="path34"
   d="m 231.18457,402.91677 c 72.12894,-137.76549 343.70058,-152.7604 403.57286,6.67232 -57.16984,-52.96038 -135.43478,-74.5594 -217.80123,-70.0593 -42.25172,2.30863 -89.02005,8.88011 -125.556,28.91337 -24.93183,13.67082 -51.63682,58.00613 -74.30865,61.16287 4.66521,-8.83563 8.61639,-18.21986 14.09302,-26.68926 z"
   fill="#b80335" />
<path
   id="path36"
   d="m 231.18457,402.91677 c 72.12894,-137.76549 343.70058,-152.7604 403.57286,6.67232 -57.16984,-52.96038 -135.43478,-74.5594 -217.80123,-70.0593 -42.25172,2.30863 -89.02005,8.88011 -125.556,28.91337 -24.93183,13.67082 -51.63682,58.00613 -74.30865,61.16287 4.66521,-8.83563 8.61639,-18.21986 14.09302,-26.68926 z"
   stroke-miterlimit="10"
   stroke-linecap="square"
   stroke-width="0.795751"
   stroke="#000000"
   fill="none" />
<path
   id="path38"
   d="m 545.07456,450.73502 c -18.37388,30.5429 31.00807,60.78479 51.88794,30.58144 22.64108,-32.75364 -25.28031,-62.76867 -51.88794,-30.58144 z"
   stroke-miterlimit="10"
   stroke-linecap="square"
   stroke-width="0.795751"
   stroke="#000000"
   fill="#ffffff" />
<path
   id="path40"
   d="m 557.8864,458.51939 c 1.72875,49.48188 49.46566,-22.67253 0,0 z"
   stroke-miterlimit="10"
   stroke-linecap="square"
   stroke-width="0.795751"
   stroke="#000000" />
<path
   style="stroke-width:1.5915"
   id="path42"
   d="m 31.31992,449.62298 c 37.834207,11.8856 75.67012,23.76974 113.50434,35.65536 32.5318,10.2205 14.01273,11.79813 19.73876,32.17982 5.28189,18.79962 0.3724,37.3783 8.32769,56.71468 6.74074,16.38424 -90.456687,37.95656 -110.241579,44.32788 C 7.7495566,636.1868 10.007856,598.47489 4.4150625,554.15589 0.03512269,519.45096 -1.4612998,475.22539 31.31992,449.62298 Z"
   fill="#b80335" />
<path
   id="path44"
   d="m 31.31992,449.62298 c 37.834207,11.8856 75.67012,23.76974 113.50434,35.65536 32.5318,10.2205 14.01273,11.79813 19.73876,32.17982 5.28189,18.79962 0.3724,37.3783 8.32769,56.71468 6.74074,16.38424 -90.456687,37.95656 -110.241579,44.32788 C 7.7495566,636.1868 10.007856,598.47489 4.4150625,554.15589 0.03512269,519.45096 -1.4612998,475.22539 31.31992,449.62298 Z"
   stroke-miterlimit="10"
   stroke-linecap="square"
   stroke-width="0.795751"
   stroke="#000000"
   fill="none" />
<path
   style="stroke-width:1.5915"
   id="path46"
   d="m 661.66228,448.51092 c -15.35029,28.29061 -19.14771,62.62634 -23.0613,93.4124 -5.07691,39.93454 -9.32018,47.39864 -39.71669,82.29187 32.22433,-62.39948 20.41865,-128.6259 47.40379,-195.72121 4.94707,6.43952 11.91842,12.91908 15.3742,20.01694 z"
   fill="#b80335" />
<path
   id="path48"
   d="m 661.66228,448.51092 c -15.35029,28.29061 -19.14771,62.62634 -23.0613,93.4124 -5.07691,39.93454 -9.32018,47.39864 -39.71669,82.29187 32.22433,-62.39948 20.41865,-128.6259 47.40379,-195.72121 4.94707,6.43952 11.91842,12.91908 15.3742,20.01694 z"
   stroke-miterlimit="10"
   stroke-linecap="square"
   stroke-width="0.795751"
   stroke="#000000"
   fill="none" />
<path
   id="path50"
   d="m 733.40857,519.68227 c 5.98056,21.37958 44.85509,26.18216 46.12261,0 1.29314,-26.70261 -40.4427,-22.04533 -46.12261,0 z"
   stroke-miterlimit="10"
   stroke-linecap="square"
   stroke-width="0.795751"
   stroke="#666666"
   fill="#dfe7e8" />
<path
   id="path52"
   d="m 689.84832,385.12394 c 0.80629,43.89196 79.03195,44.25968 79.4334,0 0.40484,-44.64964 -77.9028,-44.13959 -79.4334,0 z"
   stroke-miterlimit="10"
   stroke-linecap="square"
   stroke-width="0.795751"
   stroke="#666666"
   fill="#dfe7e8" />
<path
   id="path54"
   d="m 743.65804,257.23791 c 5.16061,21.52193 42.44817,25.70918 43.56024,0 1.12915,-26.1258 -38.66953,-22.30034 -43.56024,0 z"
   stroke-miterlimit="10"
   stroke-linecap="square"
   stroke-width="0.795751"
   stroke="#666666"
   fill="#dfe7e8" />
<path
   id="path56"
   d="m 739.81449,116.00728 c 3.90846,29.43231 57.65326,34.48102 57.65326,2.78012 0,-34.015453 -51.30201,-35.394397 -57.65326,-2.78012 z"
   stroke-miterlimit="10"
   stroke-linecap="square"
   stroke-width="0.795751"
   stroke="#666666"
   fill="#dfe7e8" />
<path
   id="path58"
   d="m 769.28172,457.40733 c 5.77044,21.00446 40.86633,24.8907 42.27905,0 1.4691,-25.89005 -37.33198,-22.55538 -42.27905,0 z"
   stroke-miterlimit="10"
   stroke-linecap="square"
   stroke-width="0.795751"
   stroke="#666666"
   fill="#dfe7e8" />
<path
   id="path60"
   d="m 653.97518,188.29067 c 0.80801,43.96166 79.03195,44.25672 79.43339,0 0.40486,-44.63777 -77.90109,-44.20482 -79.43339,0 z"
   stroke-miterlimit="10"
   stroke-linecap="square"
   stroke-width="0.795751"
   stroke="#666666"
   fill="#dfe7e8" />
</svg>
