<?xml version="1.0" encoding="UTF-8" standalone="no"?>
<!DOCTYPE svg PUBLIC "-//W3C//DTD SVG 1.1//EN" "http://www.w3.org/Graphics/SVG/1.1/DTD/svg11.dtd">
<svg width="100%" height="100%" viewBox="0 0 842 596" version="1.1" xmlns="http://www.w3.org/2000/svg" xmlns:xlink="http://www.w3.org/1999/xlink" xml:space="preserve" xmlns:serif="http://www.serif.com/" style="fill-rule:evenodd;clip-rule:evenodd;">
    <g transform="matrix(2.27212,0,0,2.43878,-645.087,-457.078)">
        <g id="vectorizado-1" serif:id="vectorizado 1">
            <g id="g4262">
                <path id="path4209" d="M589.671,334.253L610.945,320.522L634.926,319.941C657.51,331.675 651.85,398.086 637.053,396.526L616.94,396.526L591.218,384.149L589.671,334.253Z" style="fill:rgb(175,1,13);stroke:black;stroke-width:4.59px;"/>
                <path id="path4151" d="M456.022,232.467C450.131,232.419 443.534,231.692 436.805,233.448C430.448,235.107 421.575,242.715 417.445,247.206C406.16,259.474 399.39,273.812 396.189,285.55C376.115,286.969 351.999,288.487 334.052,294.903C301.959,307.408 287.534,336.886 287.533,358.694C287.533,378.488 300.646,399.022 327.777,411.496C352.352,422.795 389.121,426.995 425.277,426.995C457.587,426.971 502.775,424.023 527.526,413.726L557.858,401.09L593.693,382.757C597.245,354.107 595.742,349.487 590.309,334.961L545.177,313.205L513.515,300.551C511.793,299.755 503.813,298.131 503.813,298.131C499.881,278.035 487.402,238.508 487.402,238.508C482.861,232.384 468.982,232.574 456.022,232.467L456.022,232.467Z" style="fill:rgb(18,83,163);fill-rule:nonzero;stroke:black;stroke-width:4.59px;stroke-linejoin:round;"/>
                <path id="path4213" d="M611.3,320.969C621.447,349.006 620.445,379.478 617.454,395.635" style="fill:none;stroke:black;stroke-width:4.59px;"/>
                <path id="path4239" d="M288.747,350.691C392.598,368.84 494.329,369.663 595.086,356.88" style="fill:none;stroke:black;stroke-width:0.77px;"/>
                <path id="path4241" d="M410.772,424.315C381.902,423.274 358.751,419.858 340.133,413.89C312.417,405.006 294.381,388.237 289.703,367.001C288.987,363.75 288.759,352.496 289.397,351.886C289.606,351.686 291.058,351.775 292.874,352.098C317.214,356.433 354.135,360.904 385.049,363.261C426.641,366.433 475.541,366.853 519.122,364.414C542.512,363.105 581.799,359.596 592.943,357.821L594.466,357.578L594.236,363.133C594.109,366.189 593.706,371.496 593.34,374.926L592.674,381.163L574.704,390.263C559.094,398.168 554.633,400.225 540.753,405.921C523.211,413.119 518.991,414.614 510.503,416.635C486.853,422.267 444.485,425.53 410.772,424.315Z" style="fill:rgb(255,204,0);fill-rule:nonzero;stroke:black;stroke-width:2.31px;stroke-linejoin:round;"/>
                <circle id="path4147" cx="367.253" cy="353.789" r="23.155" style="fill:rgb(255,102,0);stroke:black;stroke-width:2.41px;"/>
                <circle id="path4149" cx="367.253" cy="353.789" r="13.995" style="fill:rgb(85,153,255);stroke:black;stroke-width:2.41px;"/>
                <circle id="circle4186" cx="437.543" cy="353.789" r="23.155" style="fill:rgb(255,102,0);stroke:black;stroke-width:2.41px;"/>
                <circle id="circle4188" cx="437.543" cy="353.789" r="13.995" style="fill:rgb(128,179,255);stroke:black;stroke-width:2.41px;"/>
                <circle id="circle4192" cx="507.833" cy="353.789" r="23.155" style="fill:rgb(255,102,0);stroke:black;stroke-width:2.41px;"/>
                <circle id="circle4194" cx="507.833" cy="353.789" r="13.995" style="fill:rgb(128,179,255);stroke:black;stroke-width:2.41px;"/>
                <path id="path4233" d="M463.928,213.314C463.928,213.314 461.213,211.585 460.647,210.183C458.693,205.34 458.917,199.175 461.303,194.53C462.101,192.977 463.776,191.867 465.428,191.304C469.776,189.823 474.883,189.851 479.208,191.399C480.344,191.806 481.456,192.61 482.02,193.676C484.497,198.361 484.629,204.381 483.333,209.519C482.954,211.019 480.802,213.409 480.802,213.409L463.741,213.029" style="fill:rgb(255,91,20);stroke:black;stroke-width:2.24px;"/>
                <path id="path4231" d="M464.285,231.501C464.285,231.127 464.103,213.16 464.103,213.16C469.562,210.569 474.948,209.942 480.166,213.815L479.985,233.747L464.285,231.501Z" style="fill:rgb(240,202,27);stroke:black;stroke-width:2.19px;"/>
                <path id="path4227" d="M413.844,204.826C413.844,204.826 430.259,203.78 436.213,204.638C441.285,205.368 448.936,210.514 452.378,218.023C455.288,224.369 454.903,223.805 455.198,226.129C455.372,227.5 455.264,230.61 455.264,230.61L435.903,231.764C435.903,231.764 435.749,226.758 434.521,225.186C433.57,223.97 431.792,223.725 430.253,223.646C424.716,223.36 414.596,223.49 414.596,223.49C414.757,217.103 414.568,210.857 413.844,204.826L413.844,204.826Z" style="fill:rgb(240,202,27);stroke:black;stroke-width:2.24px;"/>
                <path id="path4229" d="M391.335,200.833L411.437,200.286C411.437,200.286 412.747,200.681 412.941,201.243C415.535,208.726 415.037,219.494 414.035,226.2C413.959,226.711 413.368,227.078 412.873,227.226C408.677,228.474 400.706,229.154 399.54,227.773C393.572,220.709 387.565,200.935 391.335,200.833Z" style="fill:rgb(255,91,20);stroke:black;stroke-width:2.3px;"/>
                <g id="g4247" transform="matrix(0.64565,0,0,0.64565,202.874,104.749)">
                    <circle id="circle4243" cx="393.55" cy="241.044" r="24.189" style="fill:rgb(255,102,0);stroke:black;stroke-width:3.56px;"/>
                    <circle id="circle4245" cx="393.55" cy="241.044" r="14.62" style="fill:rgb(255,204,0);stroke:black;stroke-width:3.56px;"/>
                </g>
            </g>
        </g>
    </g>
</svg>
