<svg width="657" height="566" xmlns="http://www.w3.org/2000/svg">

 <metadata id="imagebot_140">image/svg+xml</metadata>
 <g id="imagebot_2" label="Layer 1">
  <path transform="translate(-60.1528 -24.2002) matrix(1 0 0 1 0 -452.362)" label="Layer 1" fill="#7f3f00" fill-rule="evenodd" stroke="#000000" stroke-width="1px" id="imagebot_139" d="M262.20697,636.56747C284.0941,621.50939 305.32675,604.77739 329.6598,594.11464C355.02242,583.00073 382.68255,577.78247 409.84848,572.41652C423.37528,569.74464 437.13502,568.23662 450.88622,567.22784C473.62873,565.55947 495.90176,559.91606 517.49682,567.24124C524.17078,569.50509 533.29097,572.43149 535.79188,579.02029C544.34115,601.54386 520.67073,650.2467 520.67073,650.2467L449.04707,737.30597L408.43339,747.41651L362.20697,800.7184L195.69754,870.05802L157.01829,884.20896L77.77301,901.6618C77.77301,901.6618 77.26489,879.2984 80.1315,868.64293C84.04093,854.1112 93.10733,841.48326 99.94282,828.07689C110.13493,808.08722 119.23875,787.40414 131.54659,768.64293C137.50007,759.56786 144.85872,751.49035 151.82961,743.17123C167.71348,724.21528 181.62911,705.37148 199.1006,687.86797C210.66823,676.27913 237.67867,654.96368 237.67867,654.96368C237.67867,654.96368 253.78708,642.36024 262.20697,636.56746L262.20697,636.56747z"/>
  <path transform="translate(-60.1528 -24.2002) matrix(1 0 0 1 0 -452.362)" label="Layer 1" fill="#d2c0b3" fill-rule="evenodd" stroke="#000000" stroke-width="1px" stroke-linejoin="round" id="imagebot_138" d="M176.58816,871.96087C176.58816,871.96087 270.42262,875.10602 316.89923,869.82415C381.07165,862.53122 448.82968,858.58889 506.35479,829.22653C531.95884,816.15754 553.50123,794.74923 570.45629,771.53518C586.12451,750.08301 598.87595,712.56147 600.55095,698.21973C600.55095,698.21973 604.98881,664.69306 614.6151,649.74232C626.03291,632.00914 650.59644,631.97074 666.07693,617.64641C678.94015,605.74389 694.0101,590.92995 699.37153,574.245C701.04205,569.0463 697.22338,562.88371 699.37153,557.8635C702.21211,551.22508 713.96307,548.9366 715.04079,542.90648C716.70628,533.58761 716.80616,521.436 712.19183,512.28021C704.01947,496.06456 688.17,483.01884 670.5936,478.45759C663.29041,476.56234 656.99217,479.93292 649.51481,480.9417C634.20524,483.00713 617.56494,477.34681 603.21928,483.07841C581.33848,491.82056 563.19074,509.98531 549.80136,529.37394C542.75888,539.57188 539.61798,552.1641 536.98106,564.27365C535.66381,570.32286 537.85432,577.04308 535.55658,582.79186C532.48772,590.46993 523.16095,594.42929 519.88733,602.02231C514.10462,615.43505 519.25904,631.77071 514.18941,645.46889C509.36689,658.49936 501.08167,670.40507 491.39777,680.3686C476.89291,695.29231 457.73761,704.90773 440.11657,715.98054C427.87418,723.67348 412.05379,726.61267 402.3679,737.34771C394.03527,746.58291 395.53494,762.11597 387.41089,771.53518C373.6865,787.44756 352.33282,794.75308 333.99297,805.01041C307.86108,819.62577 280.31402,831.55312 253.50997,844.89579C241.62882,850.81006 229.06671,854.2474 216.56386,858.69927C203.26985,863.43284 176.58816,871.96087 176.58816,871.96087z"/>
  <path transform="translate(-60.1528 -24.2002) matrix(1 0 0 1 0 -452.362)" label="Layer 1" fill="#d2c0b3" fill-rule="evenodd" stroke="#000000" stroke-width="1px" id="imagebot_137" d="M528.43419,758.71488C538.37513,764.29656 550.2774,778.56096 546.24017,787.91667C532.59887,819.52849 466.17381,876.91549 431.5697,906.86057C398.39264,935.57074 369.82155,955.40217 336.12969,974.52327C297.68098,996.34402 266.37534,1025.7537 231.43056,1037.2003C225.56451,1039.1218 216.69379,1042.0792 212.91235,1037.2003C203,1024.4112 217.71844,1004.6319 225.02041,990.19253C235.52877,969.41261 257.8295,956.39496 269.17923,936.06237C275.18092,925.31057 274.37333,914.182 281.28729,903.99285C296.78755,881.15 321.55766,864.20603 343.96431,847.03251C364.55869,831.24801 386.82618,817.64438 409.49029,805.01041C420.52774,798.85765 432.99245,795.37472 443.67776,788.62891C457.09677,780.15728 465.75166,764.00274 480.71418,758.71488C495.71182,753.41461 514.56431,750.92717 528.43419,758.71488z"/>
  <path transform="translate(-60.1528 -24.2002) matrix(1 0 0 1 0 -452.362)" label="Layer 1" fill="#ed773c" fill-opacity="0.88309" fill-rule="evenodd" stroke="#000000" stroke-width="1px" stroke-linejoin="round" id="imagebot_136" d="M377.43954,622.67724C401.71883,638.03027 416.92973,649.94403 433.44933,665.09189C433.44933,665.09189 455.0584,651.66052 464.33269,641.19546C470.35964,634.39468 474.06119,626.57173 476.78815,617.9035C480.16046,607.1839 478.50515,594.85375 484.98762,586.35306C489.89084,579.9233 496.28947,577.05213 501.67135,571.01734C502.81083,569.73962 506.35479,566.41037 506.35479,566.41037C506.35479,566.41037 476.44606,568.3974 461.48373,569.25932C447.71819,570.0523 431.99347,568.48853 419.17326,573.56406C411.65502,576.54053 406.06454,583.22327 400.65504,589.23332C391.0515,599.903 377.43954,622.67724 377.43954,622.67724z"/>
  <path transform="translate(-60.1528 -24.2002) matrix(1 0 0 1 0 -452.362)" label="Layer 1" fill="#ed773c" fill-opacity="0.88309" fill-rule="evenodd" stroke="#000000" stroke-width="1px" stroke-linejoin="round" id="imagebot_135" d="M484.37678,616.28445C484.37678,616.28445 499.42902,606.19839 507.96169,603.5486C510.61599,602.72432 513.27055,602.74267 515.75165,601.49012C523.80385,597.42508 536.88568,575.9765 534.53864,576.64708C534.53864,576.64708 528.95041,573.59121 524.6665,570.52973C520.54234,567.58241 509.38169,566.33676 509.38169,566.33676C509.38169,566.33676 506.89669,568.7051 503.93072,571.65392C500.76459,574.80175 497.05038,578.61106 495.22584,580.90709C492.34886,584.52753 488.86498,587.91094 487.20697,592.22784C484.31206,599.7652 484.37678,616.28445 484.37678,616.28445z"/>
  <path transform="translate(-60.1528 -24.2002) matrix(1 0 0 1 0 -452.362)" label="Layer 1" fill="#ed773c" fill-opacity="0.88309" fill-rule="evenodd" stroke="#000000" stroke-width="1px" stroke-linejoin="round" id="imagebot_134" d="M480.6032,628.5486C480.6032,628.5486 484.30496,644.18071 485.32018,652.1335C486.37711,660.41298 486.73527,677.1335 486.73527,677.1335C486.73527,677.1335 504.89023,658.27817 510.50575,645.05803C515.62123,633.01508 516.00426,605.90709 516.00426,605.90709L501.35791,616.75614L480.6032,628.5486z"/>
  <path transform="translate(-60.1528 -24.2002) matrix(1 0 0 1 0 -452.362)" label="Layer 1" fill="#ed773c" fill-opacity="0.88309" fill-rule="evenodd" stroke="#000000" stroke-width="1px" stroke-linejoin="round" id="imagebot_133" d="M476.74868,632.28866C476.74868,632.28866 479.5558,648.10916 480.8509,654.79692C482.52732,663.45375 483.43339,681.37879 483.43339,681.37879C483.43339,681.37879 465.08894,695.50474 455.6032,702.1335C443.59226,710.5269 418.31043,723.35501 418.31043,723.35501L398.52773,695.05803C398.52773,695.05803 408.2309,684.47361 414.09376,680.43539C424.17063,673.49464 437.02457,671.32212 447.11263,664.39765C455.09216,658.92049 461.7839,651.70688 468.33905,644.58633C470.91697,641.78606 476.74868,632.28866 476.74868,632.28866z"/>
  <path transform="translate(-60.1528 -24.2002) matrix(1 0 0 1 0 -452.362)" label="Layer 1" fill="#ed773c" fill-opacity="0.88309" fill-rule="evenodd" stroke="#000000" stroke-width="1px" id="imagebot_132" d="M390.98056,695.52973C390.98056,695.52973 398.26388,708.42589 403.51611,715.72691C405.75772,718.84292 413.62206,726.66181 413.62206,726.66181C413.62206,726.66181 405.91712,730.15604 403.24471,733.26558C394.61852,743.30276 393.36012,758.96132 385.03895,769.25279C381.49932,773.63054 373.52773,779.49199 373.52773,779.49199C364.30377,769.28604 352.53485,759.77419 339.09377,750.71841C339.09377,750.71841 347.98553,733.81344 354.18811,726.66181C364.71422,714.52509 390.98056,695.52973 390.98056,695.52973z"/>
  <path transform="translate(-60.1528 -24.2002) matrix(1 0 0 1 0 -452.362)" label="Layer 1" fill="#ed773c" fill-opacity="0.88309" fill-rule="evenodd" stroke="#000000" stroke-width="1px" id="imagebot_131" d="M373.05603,627.1335C391.69995,638.49841 408.81181,651.77839 424.94282,666.28445C424.94282,666.28445 394.75174,680.11739 381.0749,689.39765C369.26296,697.4125 357.51162,706.13507 348.52773,717.22784C342.10693,725.15586 340.12812,736.03045 333.90509,744.11464C326.78128,753.36901 308.43339,768.17124 308.43339,768.17124C308.43339,768.17124 303.40705,746.70259 300.41452,736.09577C297.9975,727.52883 291.95122,719.51434 292.39565,710.62407C292.6348,705.84025 295.30354,701.33646 298.05603,697.41652C309.30728,681.39308 326.69769,670.71401 340.98056,657.32218C351.6914,647.27953 373.05603,627.1335 373.05603,627.1335z"/>
  <path transform="translate(-60.1528 -24.2002) matrix(1 0 0 1 0 -452.362)" label="Layer 1" fill="#ed773c" fill-opacity="0.88309" fill-rule="evenodd" stroke="#000000" stroke-width="1px" stroke-linejoin="round" id="imagebot_130" d="M298.05603,686.56747C306.41885,675.40053 319.84317,669.10339 330.1315,659.68067C342.26599,648.56712 353.70643,636.70695 365.03716,624.77501C373.92987,615.41044 382.5423,605.77748 390.98056,596.00143C397.11048,588.89968 410.79187,574.30331 410.79187,574.30331C410.79187,574.30331 367.42429,580.69234 347.11263,588.45426C323.70249,597.40024 300.50871,608.86063 281.5466,625.24671C269.07772,636.02167 256.15145,648.63077 251.35792,664.39765C249.9828,668.92069 250.15995,674.33394 252.30131,678.5486C259.73321,693.17618 290.03716,710.15237 290.03716,710.15237C285.41449,708.91 296.24353,689.11095 298.05603,686.56747z"/>
  <path transform="translate(-60.1528 -24.2002) matrix(1 0 0 1 0 -452.362)" label="Layer 1" fill="#ed773c" fill-opacity="0.88309" fill-rule="evenodd" stroke="#000000" stroke-width="1px" id="imagebot_129" d="M243.33905,679.49199C243.33905,679.49199 260.26736,694.76294 269.75414,702.84105C275.21387,707.49007 282.86868,713.31132 286.73527,719.35049C291.95875,727.50895 291.74987,737.12266 294.28244,746.47313C296.64878,755.20981 302.30131,772.41652 302.30131,772.41652C302.30131,772.41652 277.75186,783.37593 265.50886,788.92596C248.6556,796.56593 231.72683,804.04815 215.03716,812.03916C208.06077,815.37945 194.28244,822.41652 194.28244,822.41652C194.28244,822.41652 194.79417,796.79203 196.16924,784.20897C197.30288,773.83517 198.74294,763.51722 201.82961,753.5486C205.15901,742.79611 211.35498,733.53783 216.68811,723.83162C224.9921,708.71846 243.33905,679.49199 243.33905,679.49199z"/>
  <path transform="translate(-60.1528 -24.2002) matrix(1 0 0 1 0 -452.362)" label="Layer 1" fill="#ed773c" fill-opacity="0.88309" fill-rule="evenodd" stroke="#000000" stroke-width="1px" id="imagebot_128" d="M198.76358,744.82218C187.72471,755.21317 170.55046,764.9473 157.48999,763.92596C152.71477,763.55253 151.15924,755.46106 151.82961,750.71841C153.70619,737.4422 165.57498,729.86262 174.23527,718.40708C189.12003,698.71803 208.92632,682.6463 226.82961,666.28445C235.93014,657.96747 246.36749,651.2428 256.0749,643.64294C259.86461,640.676 267.39565,634.68067 267.39565,634.68067C267.39565,634.68067 252.59451,649.7951 247.11263,658.73728C239.43823,671.25597 229.3141,687.92141 220.22584,704.96369C213.12533,718.27856 209.75127,734.47937 198.76358,744.82218z"/>
  <path transform="translate(-60.1528 -24.2002) matrix(1 0 0 1 0 -452.362)" label="Layer 1" fill="#ed773c" fill-opacity="0.88309" fill-rule="evenodd" stroke="#000000" stroke-width="1px" stroke-linejoin="round" id="imagebot_127" d="M196.16924,754.96369C196.16924,754.96369 189.67961,777.42962 187.67867,788.92596C185.51103,801.38008 183.90508,826.66181 183.90508,826.66181C183.90508,826.66181 155.68438,841.72324 140.50886,846.47313C131.20792,849.38429 111.73527,851.66181 111.73527,851.66181C111.73527,851.66181 121.93119,829.01766 127.77301,817.69954C132.7401,808.07614 138.68812,798.19879 144.28244,788.92596C148.11627,782.57122 151.64708,775.5776 157.48999,771.00143C168.47839,762.3953 196.16924,754.96369 196.16924,754.96369z"/>
  <path transform="translate(-60.1528 -24.2002) matrix(1 0 0 1 0 -452.362)" label="Layer 1" fill="#ed773c" fill-opacity="0.88309" fill-rule="evenodd" stroke="#000000" stroke-width="1px" stroke-linejoin="round" id="imagebot_126" d="M110.55603,856.37879C110.55603,856.37879 100.28704,875.36627 94.28244,882.79388C91.62637,886.0794 89.43201,890.78547 85.32018,891.75614C81.93279,892.55579 78.71641,895.76558 78.71641,895.76558C78.71641,895.76558 80.31765,878.63975 82.96169,870.52973C84.37841,866.18426 87.91451,856.61464 87.91451,856.61464C95.37552,857.10411 103.61001,856.55744 110.55603,856.37879z"/>
  <path transform="translate(-60.1528 -24.2002) matrix(1 0 0 1 0 -452.362)" label="Layer 1" fill="#ed773c" fill-opacity="0.88309" fill-rule="evenodd" stroke="#000000" stroke-width="1px" id="imagebot_125" d="M106.78245,850.71841C103.21343,855.86104 89.09376,853.5486 89.09376,853.5486C89.09376,853.5486 105.76847,820.99428 114.56546,804.96369C119.88523,795.26958 123.01199,783.97713 129.42396,774.77502C134.38336,767.65754 137.56059,764.97836 147.34848,755.90709C149.4655,753.94506 151.74495,761.5152 151.59377,764.39765C151.28072,770.36636 146.02506,774.41731 142.86735,779.49199C134.83885,792.39441 128.42953,806.23652 121.16923,819.58633C115.82131,829.41977 111.91385,843.3245 106.78245,850.71841z"/>
  <path transform="translate(-60.1528 -24.2002) matrix(1 0 0 1 0 -452.362)" label="Layer 1" fill="#ed773c" fill-opacity="0.88309" fill-rule="evenodd" stroke="#000000" stroke-width="1px" stroke-linejoin="round" id="imagebot_124" d="M163.15036,846.47313C163.15036,846.47313 154.32228,856.24362 152.53716,864.16181C152.01732,866.46767 149.94282,878.5486 149.94282,878.5486L98.05603,890.34105C98.05603,890.34105 107.77583,877.3286 112.20697,870.52973C114.9014,866.39556 119.75414,857.79388 119.75414,857.79388C119.75414,857.79388 132.20986,855.835 138.38621,854.492C145.52852,852.93895 163.15036,846.47313 163.15036,846.47313z"/>
  <path transform="translate(-60.1528 -24.2002) matrix(1 0 0 1 0 -452.362)" label="Layer 1" fill="#ed773c" fill-opacity="0.88309" fill-rule="evenodd" stroke="#000000" stroke-width="1px" id="imagebot_123" d="M169.51829,843.87879C177.80937,835.51154 187.06902,835.47088 200.88622,827.60521C202.47974,826.69807 217.86735,818.64294 217.86735,818.64294C217.86735,818.64294 217.92055,838.23946 216.45226,847.88822C215.79249,852.22395 213.15037,860.62407 213.15037,860.62407C213.15037,860.62407 191.11751,868.07976 179.6598,869.58633C175.60664,870.11928 171.01676,867.68904 167.39565,869.58633C165.19354,870.74013 163.74419,873.94242 161.49943,875.01086C159.64835,875.89192 157.01829,875.24671 157.01829,875.24671C157.01829,875.24671 159.36477,865.02192 161.26357,860.15237C163.47328,854.48547 165.23703,848.19938 169.51829,843.87879z"/>
  <path transform="translate(-60.1528 -24.2002) matrix(1 0 0 1 0 -452.362)" label="Layer 1" fill="#d2c0b3" fill-rule="evenodd" stroke="#000000" stroke-width="1px" stroke-linejoin="round" id="imagebot_122" d="M80.6032,897.88822C78.38242,898.94436 93.15428,896.86294 119.5183,890.1052C125.98604,888.44736 161.02773,877.36935 161.02773,877.36935C161.02773,877.36935 145.76319,896.07918 138.15037,903.0769C126.98823,913.33716 116.82084,925.16892 103.7164,932.79388C95.20547,937.74606 85.72653,942.34128 75.88622,942.69954C71.15928,942.87164 64.61058,942.9998 62.20697,938.92596C60.15278,935.44434 63.37725,930.81942 65.03716,927.1335C68.18953,920.13349 71.83275,916.22788 74.94282,909.20898C76.37989,905.96577 80.6032,897.88822 80.6032,897.88822z"/>
  <path transform="translate(-60.1528 -24.2002) matrix(1 0 0 1 0 -452.362)" label="Layer 1" fill="#ed773c" fill-opacity="0.88309" fill-rule="evenodd" stroke="#000000" stroke-width="1px" id="imagebot_121" d="M221.16924,816.28445L223.05603,858.26558L286.73527,826.19011C281.06331,815.79455 279.05052,804.94159 276.82961,794.11464L221.16924,816.28445z"/>
  <path transform="translate(-60.1528 -24.2002) matrix(1 0 0 1 0 -452.362)" label="Layer 1" fill="#ed773c" fill-opacity="0.88309" fill-rule="evenodd" stroke="#000000" stroke-width="1px" id="imagebot_120" d="M281.5466,791.75614C285.76624,801.95507 287.3052,813.39305 293.55814,822.77867C293.55814,822.77867 323.31013,808.50259 337.14975,800.96611C348.75718,794.64518 371.64094,780.90709 371.64094,780.90709L334.84848,753.5486C334.84848,753.5486 322.40593,768.91834 314.56546,774.77501C304.6499,782.18175 281.5466,791.75614 281.5466,791.75614z"/>
  <path transform="translate(-60.1528 -24.2002) matrix(1 0 0 1 0 -452.362)" label="Layer 1" fill="#d2c0b3" fill-rule="evenodd" stroke="#000000" stroke-width="1px" id="imagebot_119" d="M598.55143,711.4007C597.50863,717.7798 608.24388,722.60465 613.62206,726.19011C618.58654,729.49976 626.57388,727.44998 630.6032,731.85048C632.89535,734.35379 632.02814,742.71934 634.96294,744.42447C644.1696,749.77357 654.59538,738.44142 663.62206,732.79388C675.32313,725.47311 685.80327,714.72706 691.45225,702.1335C696.30596,691.31289 699.41792,677.84986 695.22584,666.75614C692.51155,659.57318 685.23287,654.37253 678.24471,651.19011C670.61233,647.71431 661.61951,647.91589 653.24471,648.35992C643.11165,648.89718 633.84985,652.34215 623.86127,654.12984C620.42474,654.74489 612.65271,651.7554 611.48266,655.04463C605.53495,671.76472 600.96067,696.66268 598.55143,711.4007z"/>
  <path transform="translate(-60.1528 -24.2002) matrix(1 0 0 1 0 -452.362)" label="Layer 1" fill="#000000" fill-rule="evenodd" stroke-width="1px" id="imagebot_118" d="M716.28317,540.28552C716.28317,540.28552 716.28317,540.28552 716.28317,540.28552C716.47556,541.51129 716.38501,542.78133 716.05304,544.0932C713.51859,544.23811 705.51241,545.32641 696.08093,547.11539C684.57408,549.29804 671.1445,552.49031 662.81287,556.22509C659.36942,557.73648 655.08972,560.43263 650.55629,563.67265C646.03304,566.9054 641.36174,570.60367 637.09009,574.12015C628.56752,581.13604 621.78661,587.30459 621.56002,587.07259C621.33355,586.84072 627.67293,580.19409 635.80904,572.65406C639.86608,568.89426 644.40976,564.87574 648.7864,561.34587C653.1446,557.83086 657.46977,554.69292 661.09355,552.73139C669.67866,548.14784 683.38755,544.24343 694.83306,541.4095C704.30587,539.06401 712.30763,537.4356 714.84743,536.74707C715.59955,537.88092 716.09079,539.05984 716.28317,540.28552z"/>
  <path transform="translate(-60.1528 -24.2002) matrix(1 0 0 1 0 -452.362)" label="Layer 1" fill="#000000" fill-rule="evenodd" stroke="#000000" stroke-width="1px" stroke-linejoin="round" id="imagebot_117" d="M648.05603,506.85048C644.28428,512.13724 648.16432,520.18253 645.69754,526.19011C642.37661,534.27789 629.6598,546.94482 629.6598,546.94482C629.6598,546.94482 644.34559,543.82359 650.88622,540.34105C660.8566,535.03235 673.06162,529.5844 677.30131,519.11464C678.72871,515.58973 677.59957,511.18901 675.88622,507.79388C673.85825,503.77531 670.61291,499.75082 666.10214,498.48657C665.90272,498.43067 665.70478,498.38807 665.50886,498.35992C659.10494,497.44101 651.81338,501.5839 648.05603,506.85048z"/>
  <path transform="translate(-60.1528 -24.2002) matrix(1 0 0 1 0 -452.362)" label="Layer 1" fill="#000000" fill-rule="evenodd" stroke="#000000" stroke-width="1px" id="imagebot_113" d="M584.84848,566.75614C592.89854,565.91346 599.84054,560.1257 606.0749,554.96369C607.96665,553.39733 610.96151,551.7535 610.79188,549.30331C610.63044,546.97146 607.79807,545.39015 605.6032,544.58633C601.46656,543.07138 596.50184,543.46239 592.39565,545.05803C587.19755,547.07797 582.26,550.97359 579.6598,555.90709C578.2592,558.56451 577.06087,562.3628 578.7164,564.86935C579.89503,566.65385 582.7215,566.97879 584.84848,566.75614z"/>
  <path transform="translate(-60.1528 -24.2002) matrix(1 0 0 1 0 -452.362)" label="Layer 1" fill="#000000" fill-rule="evenodd" stroke="#000000" stroke-width="1px" stroke-linejoin="round" id="imagebot_112" d="M577.30131,553.0769C582.676,554.51386 586.03471,547.55712 587.0639,542.08968C587.46717,539.94737 587.42252,537.82196 586.70175,535.87667C585.42496,532.43072 583.82731,528.37989 580.01704,527.1098C577.94479,526.41904 577.29582,527.23314 576.35791,528.0769C573.73108,530.44004 572.69225,534.45084 572.58433,537.98256C572.42333,543.2515 572.20877,551.71538 577.30131,553.0769z"/>
  <path transform="translate(-60.1528 -24.2002) matrix(1 0 0 1 0 -452.362)" label="Layer 1" fill="#000000" fill-rule="evenodd" stroke="#000000" stroke-width="1px" id="imagebot_111" d="M558.90508,573.83162L573.05603,563.45426L575.88622,556.85048L567.86735,554.0203L556.0749,559.68067L551.35791,567.69954L558.90508,573.83162z"/>
  <path transform="translate(-60.1528 -24.2002) matrix(1 0 0 1 0 -452.362)" label="Layer 1" fill="#000000" fill-rule="evenodd" stroke="#000000" stroke-width="1px" id="imagebot_110" d="M580.1315,585.62407L585.79188,591.75614L582.48999,597.88822L573.05603,600.24671L565.98056,594.58633L580.1315,585.62407z"/>
  <path transform="translate(-60.1528 -24.2002) matrix(1 0 0 1 0 -452.362)" label="Layer 1" fill="#000000" fill-rule="evenodd" stroke="#000000" stroke-width="1px" id="imagebot_109" d="M590.03716,575.71841L591.92395,581.37879L602.77301,575.24671L598.99942,568.64294L590.03716,575.71841z"/>
  <path transform="translate(-60.1528 -24.2002) matrix(1 0 0 1 0 -452.362)" label="Layer 1" fill="#000000" fill-rule="evenodd" stroke="#000000" stroke-width="1px" id="imagebot_108" d="M566.45225,576.19011L577.30131,568.64294L582.01829,571.47313L581.0749,577.1335L571.64093,582.32218L565.98056,580.90709L566.45225,576.19011z"/>
  <path transform="translate(-60.1528 -24.2002) matrix(1 0 0 1 0 -452.362)" label="Layer 1" fill="#000000" fill-rule="evenodd" stroke="#000000" stroke-width="1px" id="imagebot_107" d="M541.92395,585.15237L550.88622,575.71841L561.73527,579.49199L562.20697,585.15237L553.24471,591.75614L543.81074,591.75614L541.92395,585.15237z"/>
  <path transform="translate(-60.1528 -24.2002) matrix(1 0 0 1 0 -452.362)" label="Layer 1" fill="#000000" fill-rule="evenodd" stroke="#000000" stroke-width="1px" id="imagebot_106" d="M540.50886,607.32218L549.47112,599.30331L543.33905,595.05803L535.32018,596.00143L535.79188,604.0203L540.50886,607.32218z"/>
  <path transform="translate(-60.1528 -24.2002) matrix(1 0 0 1 0 -452.362)" label="Layer 1" fill="#000000" fill-rule="evenodd" stroke="#000000" stroke-width="1px" id="imagebot_105" d="M556.0749,607.32218L563.62206,605.90709L565.03716,600.24671L559.37678,598.35992L552.77301,601.66181L556.0749,607.32218z"/>
  <path transform="translate(-60.1528 -24.2002) matrix(1 0 0 1 0 -452.362)" label="Layer 1" fill="#000000" fill-rule="evenodd" stroke="#000000" stroke-width="1px" id="imagebot_104" d="M533.43339,613.92596L538.15037,610.62407L535.32018,606.85048L532.48999,606.85048L528.7164,611.09577L533.43339,613.92596z"/>
  <path transform="translate(-60.1528 -24.2002) matrix(1 0 0 1 0 -452.362)" label="Layer 1" fill="#000000" fill-rule="evenodd" stroke="#000000" stroke-width="1px" id="imagebot_103" d="M536.26357,580.43539L545.22584,577.1335L544.28244,561.09577L544.75414,552.6052L540.50886,553.5486L536.73527,565.34105L536.26357,580.43539z"/>
  <path transform="translate(-60.1528 -24.2002) matrix(1 0 0 1 0 -452.362)" label="Layer 1" fill="#000000" fill-rule="evenodd" stroke="#000000" stroke-width="1px" id="imagebot_102" d="M551.35791,557.32218L560.79188,551.19011L567.39565,549.77501L566.45225,536.56747L557.96169,539.39765L549.94282,537.98256L543.81074,546.47313L551.35791,557.32218z"/>
  <path transform="translate(-60.1528 -24.2002) matrix(1 0 0 1 0 -452.362)" label="Layer 1" fill="#000000" fill-rule="evenodd" stroke="#000000" stroke-width="1px" stroke-linejoin="round" id="imagebot_101" d="M552.77301,532.32218C552.77301,532.32218 562.46536,531.69255 566.92395,529.96369C569.66722,528.89996 572.1254,527.11097 574.33296,525.16578C575.85001,523.82904 576.34337,521.64777 576.74378,519.69588C577.81077,514.4945 576.57701,503.76769 576.57701,503.76769C576.57701,503.76769 567.10429,514.73328 562.20697,520.05803C558.71553,523.8542 552.77301,532.32218 552.77301,532.32218z"/>
  <path transform="translate(-60.1528 -24.2002) matrix(1 0 0 1 0 -452.362)" label="Layer 1" fill="#000000" fill-rule="evenodd" stroke="#000000" stroke-width="1px" id="imagebot_100" d="M642.17656,497.44022C649.2944,497.16271 662.89186,493.89052 667.86735,489.39765C670.52842,486.9947 662.73521,484.04945 659.37678,482.79388C651.26451,479.76106 632.93308,482.54618 632.93308,482.54618C632.93308,482.54618 611.23184,479.36483 601.82961,484.20897C597.96369,486.20073 593.33905,494.11464 593.33905,494.11464C593.33905,494.11464 604.62737,490.8832 610.45834,490.39336C618.30647,489.73408 627.3037,487.34875 634.37678,490.81275C637.62763,492.40483 638.55954,497.58125 642.17656,497.44022z"/>
  <path transform="translate(-60.1528 -24.2002) matrix(1 0 0 1 0 -452.362)" label="Layer 1" fill="none" fill-rule="evenodd" stroke="#000000" stroke-width="1px" id="imagebot_99" d="M680.71274,489.17366C683.52312,490.96996 684.3132,496.55957 682.12784,499.07932C680.37651,501.09861 677.15621,501.74525 674.94282,500.24671C672.83939,498.82262 671.00908,495.45917 672.11263,493.17124C673.53895,490.21414 677.94642,487.40552 680.71274,489.17366z"/>
  <path transform="translate(-60.1528 -24.2002) matrix(1 0 0 1 0 -452.362)" label="Layer 1" fill="none" fill-rule="evenodd" stroke="#000000" stroke-width="1px" id="imagebot_98" d="M703.62566,511.95333C699.8256,510.14897 698.58602,509.19266 695.1449,504.68738C693.63588,502.71169 691.68655,499.58433 692.95318,497.44513C693.84883,495.93249 694.97165,495.45029 696.64093,496.00143C699.91545,497.08256 700.4838,501.238 702.88255,503.71537C705.51206,506.43108 709.17214,508.67 708.56663,512.40132C708.34136,513.78949 705.50503,512.8457 703.62566,511.95333z"/>
  <ellipse transform="translate(-60.1528 -24.2002) matrix(1 0 0 1 0 -452.362)" label="Layer 1" fill="#000000" fill-rule="nonzero" stroke-width="2.9" stroke-linecap="round" stroke-linejoin="round" stroke-miterlimit="4" stroke-dashoffset="0" ry="4.95283" rx="4.71698" cy="681.14301" cx="660.79187" id="imagebot_92"/>
  <ellipse transform="translate(-60.1528 -24.2002) matrix(1 0 0 1 0 -452.362)" label="Layer 1" fill="#000000" fill-rule="nonzero" stroke-width="2.9" stroke-linecap="round" stroke-linejoin="round" stroke-miterlimit="4" stroke-dashoffset="0" ry="2.83019" rx="4.24528" cy="679.49207" cx="635.79187" id="imagebot_91"/>
  <ellipse transform="translate(-60.1528 -24.2002) matrix(1 0 0 1 0 -452.362)" label="Layer 1" fill="#000000" fill-rule="nonzero" stroke-width="2.9" stroke-linecap="round" stroke-linejoin="round" stroke-miterlimit="4" stroke-dashoffset="0" ry="3.53774" rx="4.00943" cy="669.35052" cx="633.66925" id="imagebot_90"/>
  <ellipse transform="translate(-60.1528 -24.2002) matrix(1 0 0 1 0 -452.362)" label="Layer 1" fill="#000000" fill-rule="nonzero" stroke-width="2.9" stroke-linecap="round" stroke-linejoin="round" stroke-miterlimit="4" stroke-dashoffset="0" ry="2.59434" rx="4.24528" cy="660.38824" cx="641.45227" id="imagebot_89"/>
  <ellipse transform="translate(-60.1528 -24.2002) matrix(1 0 0 1 0 -452.362)" label="Layer 1" fill="#000000" fill-rule="nonzero" stroke-width="2.9" stroke-linecap="round" stroke-linejoin="round" stroke-miterlimit="4" stroke-dashoffset="0" ry="2.35849" rx="4.71698" cy="664.86938" cx="657.48999" id="imagebot_88"/>
  <ellipse transform="translate(-60.1528 -24.2002) matrix(1 0 0 1 0 -452.362)" label="Layer 1" fill="#000000" fill-rule="nonzero" stroke-width="2.9" stroke-linecap="round" stroke-linejoin="round" stroke-miterlimit="4" stroke-dashoffset="0" ry="5.42453" rx="7.54717" cy="661.80334" cx="673.52777" id="imagebot_87"/>
  <ellipse transform="translate(-60.1528 -24.2002) matrix(1 0 0 1 0 -452.362)" label="Layer 1" fill="#000000" fill-rule="nonzero" stroke-width="2.9" stroke-linecap="round" stroke-linejoin="round" stroke-miterlimit="4" stroke-dashoffset="0" ry="2.83019" rx="2.59434" cy="676.19012" cx="676.12207" id="imagebot_86"/>
  <ellipse transform="translate(-60.1528 -24.2002) matrix(1 0 0 1 0 -452.362)" label="Layer 1" fill="#000000" fill-rule="nonzero" stroke-width="2.9" stroke-linecap="round" stroke-linejoin="round" stroke-miterlimit="4" stroke-dashoffset="0" ry="4.00943" rx="4.95283" cy="689.16187" cx="684.14093" id="imagebot_85"/>
  <ellipse transform="translate(-60.1528 -24.2002) matrix(1 0 0 1 0 -452.362)" label="Layer 1" fill="#000000" fill-rule="nonzero" stroke-width="2.9" stroke-linecap="round" stroke-linejoin="round" stroke-miterlimit="4" stroke-dashoffset="0" ry="2.83019" rx="4.48113" cy="713.45422" cx="668.57489" id="imagebot_84"/>
  <ellipse transform="translate(-60.1528 -24.2002) matrix(1 0 0 1 0 -452.362)" label="Layer 1" fill="#000000" fill-rule="nonzero" stroke-width="2.9" stroke-linecap="round" stroke-linejoin="round" stroke-miterlimit="4" stroke-dashoffset="0" ry="3.06604" rx="4.48113" cy="660.85999" cx="625.65039" id="imagebot_83"/>
  <ellipse transform="translate(-60.1528 -24.2002) matrix(1 0 0 1 0 -452.362)" label="Layer 1" fill="#000000" fill-rule="nonzero" stroke-width="2.9" stroke-linecap="round" stroke-linejoin="round" stroke-miterlimit="4" stroke-dashoffset="0" ry="3.77358" rx="3.53774" cy="655.43542" cx="659.61267" id="imagebot_82"/>
  <ellipse transform="translate(-60.1528 -24.2002) matrix(1 0 0 1 0 -452.362)" label="Layer 1" fill="#000000" fill-rule="nonzero" stroke-width="2.9" stroke-linecap="round" stroke-linejoin="round" stroke-miterlimit="4" stroke-dashoffset="0" ry="3.06604" rx="3.53774" cy="710.85992" cx="629.89569" id="imagebot_81"/>
  <ellipse transform="translate(-60.1528 -24.2002) matrix(1 0 0 1 0 -452.362)" label="Layer 1" fill="#000000" fill-rule="nonzero" stroke-width="2.9" stroke-linecap="round" stroke-linejoin="round" stroke-miterlimit="4" stroke-dashoffset="0" ry="3.77358" rx="2.12264" cy="725.71838" cx="635.08435" id="imagebot_80"/>
  <ellipse transform="translate(-60.1528 -24.2002) matrix(1 0 0 1 0 -452.362)" label="Layer 1" fill="#000000" fill-rule="nonzero" stroke-width="2.9" stroke-linecap="round" stroke-linejoin="round" stroke-miterlimit="4" stroke-dashoffset="0" ry="4.71698" rx="3.77358" cy="700.71844" cx="653.24475" id="imagebot_79"/>
  <path transform="translate(-60.1528 -24.2002) matrix(1 0 0 1 0 -452.362)" label="Layer 1" fill="#4c2b1a" fill-opacity="0.99918" fill-rule="evenodd" stroke="#140707" stroke-width="1px" stroke-opacity="0.95559" id="imagebot_78" d="M235.32018,1035.5194C235.32018,1035.5194 231.60961,1018.6567 235.79188,1012.0392C237.85804,1008.7699 242.69296,1005.1557 246.16924,1006.8505C252.99924,1010.1803 250.69574,1029.192 250.69574,1029.192C245.77409,1031.5047 241.08199,1034.0469 235.32018,1035.5194z"/>
  <path transform="translate(-60.1528 -24.2002) matrix(1 0 0 1 0 -452.362)" label="Layer 1" fill="#4c2b1a" fill-opacity="0.99918" fill-rule="evenodd" stroke="#140707" stroke-width="1px" stroke-linejoin="round" stroke-opacity="0.95559" id="imagebot_77" d="M276.59377,1013.3363C276.59377,1013.3363 273.43851,1002.4965 268.81075,1001.1901C263.59957,999.71902 256.34227,1003.2977 254.18811,1008.2656C251.95247,1013.4214 259.1999,1024.3623 259.1999,1024.3623C265.44823,1021.3175 271.12778,1017.4764 276.59377,1013.3363z"/>
  <path transform="translate(-60.1528 -24.2002) matrix(1 0 0 1 0 -452.362)" label="Layer 1" fill="#4c2b1a" fill-opacity="0.99918" fill-rule="evenodd" stroke="#140707" stroke-width="0.9" stroke-linecap="round" stroke-linejoin="round" stroke-miterlimit="4" stroke-opacity="0.95559" id="imagebot_76" d="M274.47112,996.94482C274.47112,996.94482 276.19688,989.14327 279.18811,987.03916C281.77299,985.22088 288.62207,986.09577 288.62207,986.09577L299.88386,997.94718L281.13386,1010.5651L274.47112,996.94482z"/>
  <path transform="translate(-60.1528 -24.2002) matrix(1 0 0 1 0 -452.362)" label="Layer 1" fill="#4c2b1a" fill-opacity="0.99918" fill-rule="evenodd" stroke="#140707" stroke-width="1px" stroke-opacity="0.95559" id="imagebot_75" d="M217.80675,1015.8133L229.64746,1015.313L229.31392,1035.8258L215.80551,1035.9925L217.80675,1015.8133z"/>
  <path transform="translate(-60.1528 -24.2002) matrix(1 0 0 1 0 -452.362)" label="Layer 1" fill="#4c2b1a" fill-opacity="0.99918" fill-rule="evenodd" stroke="#140707" stroke-width="1px" stroke-opacity="0.95559" id="imagebot_74" d="M222.47633,1002.8052L230.98162,1004.1394L228.98038,1008.9757L220.80862,1008.9757L222.47633,1002.8052z"/>
  <path transform="translate(-60.1528 -24.2002) matrix(1 0 0 1 0 -452.362)" label="Layer 1" fill="#4c2b1a" fill-opacity="0.99918" fill-rule="evenodd" stroke="#140707" stroke-width="1px" stroke-opacity="0.95559" id="imagebot_73" d="M225.81174,999.13625L231.14839,999.13625L232.8161,993.7996L227.64621,990.63096L225.81174,999.13625z"/>
  <path transform="translate(-60.1528 -24.2002) matrix(1 0 0 1 0 -452.362)" label="Layer 1" fill="#4c2b1a" fill-opacity="0.99918" fill-rule="evenodd" stroke="#140707" stroke-width="1px" stroke-opacity="0.95559" id="imagebot_72" d="M236.65182,994.96699L234.4838,1001.471L236.81859,1005.8071L238.9866,1001.9713L241.8217,1002.4717L244.49003,997.96886L246.49127,993.96637L241.15462,993.63283L236.65182,994.96699z"/>
  <path transform="translate(-60.1528 -24.2002) matrix(1 0 0 1 0 -452.362)" label="Layer 1" fill="#4c2b1a" fill-opacity="0.99918" fill-rule="evenodd" stroke="#140707" stroke-width="1px" stroke-opacity="0.95559" id="imagebot_71" d="M237.98598,987.79586L242.32201,986.29493L240.98785,980.95827L237.48567,977.95641L233.81672,981.45859L232.64933,986.12816L238.65306,987.96263L237.98598,987.79586z"/>
  <path transform="translate(-60.1528 -24.2002) matrix(1 0 0 1 0 -452.362)" label="Layer 1" fill="#4c2b1a" fill-opacity="0.99918" fill-rule="evenodd" stroke="#140707" stroke-width="1px" stroke-opacity="0.95559" id="imagebot_70" d="M247.99221,987.29555L250.99408,987.62909L253.49563,984.46045L257.16458,983.96014L257.33136,978.62349L251.32762,978.28995L251.16085,981.29181L247.65867,981.79213L246.3245,985.62785L247.99221,987.29555z"/>
  <path transform="translate(-60.1528 -24.2002) matrix(1 0 0 1 0 -452.362)" label="Layer 1" fill="#4c2b1a" fill-opacity="0.99918" fill-rule="evenodd" stroke="#140707" stroke-width="1px" stroke-opacity="0.95559" id="imagebot_69" d="M241.65493,976.2887C242.9891,976.78901 245.82419,977.95641 245.82419,977.95641L249.49314,974.45423L249.32637,967.95018L243.65618,967.44987L243.32264,971.11882L240.48754,971.7859L239.65369,974.45423L241.65493,976.2887z"/>
  <path transform="translate(-60.1528 -24.2002) matrix(1 0 0 1 0 -452.362)" label="Layer 1" fill="#4c2b1a" fill-opacity="0.99918" fill-rule="evenodd" stroke="#140707" stroke-width="1px" stroke-opacity="0.95559" id="imagebot_68" d="M257.16458,972.61975L262.83478,977.28932L265.50311,974.28746L263.33509,970.6185L258.16521,969.61788L257.16458,972.61975z"/>
  <path transform="translate(-60.1528 -24.2002) matrix(1 0 0 1 0 -452.362)" label="Layer 1" fill="#4c2b1a" fill-opacity="0.99918" fill-rule="evenodd" stroke="#140707" stroke-width="1px" stroke-opacity="0.95559" id="imagebot_67" d="M250.99408,961.11259L254.32949,959.44488L255.33011,955.77593L260.16645,957.27687L260.49999,962.44675L256.66427,963.61415L254.99657,967.11633L251.16085,966.28247L250.99408,961.11259z"/>
  <path transform="translate(-60.1528 -24.2002) matrix(1 0 0 1 0 -452.362)" label="Layer 1" fill="#4c2b1a" fill-opacity="0.99918" fill-rule="evenodd" stroke="#140707" stroke-width="1px" stroke-opacity="0.95559" id="imagebot_66" d="M254.32949,993.46606L260.33322,990.46419L264.50249,995.63408L262.33447,999.97011L257.49813,1001.471L252.32824,1002.3049L250.327,998.63594L254.32949,993.46606z"/>
  <path transform="translate(-60.1528 -24.2002) matrix(1 0 0 1 0 -452.362)" label="Layer 1" fill="#4c2b1a" fill-opacity="0.99918" fill-rule="evenodd" stroke="#140707" stroke-width="1px" stroke-opacity="0.95559" id="imagebot_65" d="M269.17206,994.46668C269.17206,993.29929 270.00591,987.79586 270.00591,987.79586L273.00778,984.29368L275.1758,981.12504L272.00716,978.62349L268.17144,978.95703L267.83789,982.45921L263.66863,982.45921L263.00155,986.4617L265.33634,988.46294L269.17206,994.46668z"/>
  <path transform="translate(-60.1528 -24.2002) matrix(1 0 0 1 0 -452.362)" label="Layer 1" fill="#4c2b1a" fill-opacity="0.99918" fill-rule="evenodd" stroke="#140707" stroke-width="1px" stroke-opacity="0.95559" id="imagebot_64" d="M283.51432,982.29244L278.17766,980.12442L279.34506,977.12255L274.67548,975.12131L277.51058,973.28683L279.51183,972.95329C279.51183,972.95329 279.6786,970.95205 280.34568,970.95205C281.01276,970.95205 284.68171,970.95205 284.68171,970.95205L285.84911,973.28683L288.18389,975.12131L284.51494,978.28995L283.51432,982.29244z"/>
  <path transform="translate(-60.1528 -24.2002) matrix(1 0 0 1 0 -452.362)" label="Layer 1" fill="#4c2b1a" fill-opacity="0.99918" fill-rule="evenodd" stroke="#140707" stroke-width="1px" stroke-opacity="0.95559" id="imagebot_63" d="M303.52677,993.46606L301.85907,984.79399L294.85471,982.95952L293.52055,977.12255L301.19199,975.28808L305.86156,978.62349L319.03643,980.62473L306.86218,982.12567L303.52677,993.46606z"/>
  <path transform="translate(-60.1528 -24.2002) matrix(1 0 0 1 0 -452.362)" label="Layer 1" fill="#4c2b1a" fill-opacity="0.99918" fill-rule="evenodd" stroke="#140707" stroke-width="1px" stroke-opacity="0.95559" id="imagebot_62" d="M334.04577,973.62037L329.70974,961.77967C329.70974,961.77967 331.87775,950.77282 328.54234,949.60543C325.20694,948.43803 307.52927,961.11259 307.52927,961.11259C307.52927,961.11259 301.85907,965.94893 303.52677,968.28372C305.19448,970.6185 313.86654,972.78652 313.86654,972.78652L323.706,973.28683L334.04577,973.62037z"/>
  <path transform="translate(-60.1528 -24.2002) matrix(1 0 0 1 0 -452.362)" label="Layer 1" fill="#4c2b1a" fill-opacity="0.99918" fill-rule="evenodd" stroke="#140707" stroke-width="1px" stroke-opacity="0.95559" id="imagebot_61" d="M293.35378,970.6185L295.52179,966.1157L292.68669,960.44551L289.01774,959.9452L285.34879,961.77967L285.68233,964.94831L288.01712,968.11695L291.35253,967.78341L293.35378,970.6185z"/>
  <path transform="translate(-60.1528 -24.2002) matrix(1 0 0 1 0 -452.362)" label="Layer 1" fill="#4c2b1a" fill-opacity="0.99918" fill-rule="evenodd" stroke="#140707" stroke-width="1px" stroke-opacity="0.95559" id="imagebot_60" d="M297.85658,960.11197L302.02584,956.10947L303.36,954.275L305.86156,954.275L304.19386,949.43866L301.52553,947.43741L298.8572,944.43554L295.85533,947.43741L293.52055,951.94021L291.85284,953.77469L297.85658,960.11197z"/>
  <path transform="translate(-60.1528 -24.2002) matrix(1 0 0 1 0 -452.362)" label="Layer 1" fill="#4c2b1a" fill-opacity="0.99918" fill-rule="evenodd" stroke="#140707" stroke-width="1px" stroke-opacity="0.95559" id="imagebot_59" d="M270.50622,970.28496L273.67486,965.94893L278.5112,963.44737L277.17704,959.11134L273.67486,957.1101C273.67486,957.1101 271.1733,957.61041 270.50622,957.94395C269.83914,958.27749 267.00404,960.77905 267.00404,960.77905L264.33572,962.27998L269.00529,965.11508L269.5056,968.9508L270.67299,970.78528L270.50622,970.28496z"/>
  <path transform="translate(-60.1528 -24.2002) matrix(1 0 0 1 0 -452.362)" label="Layer 1" fill="#4c2b1a" fill-opacity="0.99918" fill-rule="evenodd" stroke="#140707" stroke-width="1px" stroke-opacity="0.95559" id="imagebot_58" d="M284.51494,956.60979L286.51619,952.10698L287.85035,947.10387L285.68233,945.60293L282.01338,948.10449L279.17829,949.7722L278.17766,951.77344L279.6786,954.94208L280.84599,955.77593L284.51494,956.60979z"/>
  <path transform="translate(-60.1528 -24.2002) matrix(1 0 0 1 0 -452.362)" label="Layer 1" fill="#4c2b1a" fill-opacity="0.99918" fill-rule="evenodd" stroke="#140707" stroke-width="1px" stroke-opacity="0.95559" id="imagebot_57" d="M266.00342,954.94208L269.17206,950.43928L275.00902,947.43741L275.67611,943.43492L271.00653,943.43492L265.66988,944.60231C265.66988,944.60231 265.0028,946.9371 264.33572,947.27064C263.66863,947.60418 261.50062,948.77157 261.50062,948.77157L261.16708,951.94021L266.00342,955.60916L266.00342,954.94208z"/>
  <path transform="translate(-60.1528 -24.2002) matrix(1 0 0 1 0 -452.362)" label="Layer 1" fill="#4c2b1a" fill-opacity="0.99918" fill-rule="evenodd" stroke="#140707" stroke-width="1px" stroke-opacity="0.95559" id="imagebot_56" d="M277.17704,937.59795L285.01525,932.09453L288.35066,931.59422L289.01774,926.92464L285.84911,925.25694L280.17891,925.09017L279.34506,928.42558L276.00965,930.76036L277.01027,933.42869L274.50871,935.26317L272.17393,935.76348L272.50747,937.59795L277.67735,937.76472L277.17704,937.59795z"/>
  <path transform="translate(-60.1528 -24.2002) matrix(1 0 0 1 0 -452.362)" label="Layer 1" fill="#4c2b1a" fill-opacity="0.99918" fill-rule="evenodd" stroke="#140707" stroke-width="1px" stroke-opacity="0.95559" id="imagebot_55" d="M342.55106,967.95018L338.04826,950.60605L335.88025,941.43367C335.88025,941.43367 337.71472,935.0964 342.88461,933.929C348.05449,932.76161 359.06134,936.7641 359.06134,936.7641L374.90453,950.27251L358.7278,960.94582L343.21815,970.11819L342.55106,967.95018z"/>
  <path transform="translate(-60.1528 -24.2002) matrix(1 0 0 1 0 -452.362)" label="Layer 1" fill="#4c2b1a" fill-opacity="0.99918" fill-rule="evenodd" stroke="#140707" stroke-width="1px" stroke-opacity="0.95559" id="imagebot_54" d="M330.87713,941.60044L331.71098,932.09453L324.87339,931.59422L322.70538,935.59671L326.37433,940.43305L330.87713,941.60044z"/>
  <path transform="translate(-60.1528 -24.2002) matrix(1 0 0 1 0 -452.362)" label="Layer 1" fill="#4c2b1a" fill-opacity="0.99918" fill-rule="evenodd" stroke="#140707" stroke-width="1px" stroke-opacity="0.95559" id="imagebot_53" d="M316.03456,947.77095L317.70226,943.10138L321.20444,942.10076L318.70289,936.59733L314.36686,935.76348L312.19884,934.09577L310.36436,939.09889L305.69479,941.43367L307.69604,944.60231L311.36499,945.93648L311.8653,948.93834L316.03456,947.77095z"/>
  <path transform="translate(-60.1528 -24.2002) matrix(1 0 0 1 0 -452.362)" label="Layer 1" fill="#4c2b1a" fill-opacity="0.99918" fill-rule="evenodd" stroke="#140707" stroke-width="1px" stroke-opacity="0.95559" id="imagebot_52" d="M301.6923,928.09204C301.85907,928.75912 307.69604,934.42931 307.69604,934.42931L297.1895,940.76659L293.02024,943.60169L286.68296,940.93336L285.01525,938.26503L290.51868,936.26379L292.51992,932.09453L295.02148,934.09577L295.52179,930.76036L300.19137,931.92776L301.6923,928.09204z"/>
  <path transform="translate(-60.1528 -24.2002) matrix(1 0 0 1 0 -452.362)" label="Layer 1" fill="#4c2b1a" fill-opacity="0.99918" fill-rule="evenodd" stroke="#140707" stroke-width="1px" stroke-opacity="0.95559" id="imagebot_51" d="M315.36748,931.26067L309.86405,927.75849C309.86405,927.75849 311.36499,925.59048 310.53113,925.25694C309.69728,924.9234 306.36187,925.59048 306.86218,924.25632C307.3625,922.92215 307.69604,920.92091 308.36312,920.58736C309.0302,920.25382 312.03207,917.75227 312.03207,917.75227L317.86904,916.25133L319.87028,920.08705C319.87028,920.08705 322.87215,923.08892 322.37184,924.08954C321.87153,925.09017 319.03643,929.59297 319.03643,929.59297L315.36748,931.26067z"/>
  <path transform="translate(-60.1528 -24.2002) matrix(1 0 0 1 0 -452.362)" label="Layer 1" fill="#4c2b1a" fill-opacity="0.99918" fill-rule="evenodd" stroke="#140707" stroke-width="1px" stroke-opacity="0.95559" id="imagebot_50" d="M340.38305,929.4262C339.71597,929.25943 332.04452,928.59235 331.87775,927.92527C331.71098,927.25818 328.87589,925.09017 328.87589,925.09017C328.87589,925.09017 326.70787,923.756 328.37557,923.08892C330.04328,922.42184 332.71161,921.25445 332.71161,921.25445C332.71161,921.25445 334.71285,919.58674 335.37993,919.58674C336.04702,919.58674 341.05013,919.41997 341.05013,920.08705C341.05013,920.75414 341.88398,924.08954 342.05075,924.75663C342.21752,925.42371 340.38305,929.4262 340.38305,929.4262z"/>
  <path transform="translate(-60.1528 -24.2002) matrix(1 0 0 1 0 -452.362)" label="Layer 1" fill="#4c2b1a" fill-opacity="0.99918" fill-rule="evenodd" stroke="#140707" stroke-width="1px" stroke-opacity="0.95559" id="imagebot_49" d="M324.87339,917.5855C324.87339,917.5855 330.54359,915.25071 331.21067,915.08394C331.87775,914.91717 335.21316,911.9153 335.21316,911.9153L331.0439,908.91343C331.0439,908.91343 329.20943,906.91219 328.54234,907.4125C327.87526,907.91281 323.03892,910.74791 323.03892,910.74791L319.2032,913.91655L325.20694,918.08581L324.87339,917.5855z"/>
  <path transform="translate(-60.1528 -24.2002) matrix(1 0 0 1 0 -452.362)" label="Layer 1" fill="#4c2b1a" fill-opacity="0.99918" fill-rule="evenodd" stroke="#140707" stroke-width="1px" stroke-opacity="0.95559" id="imagebot_48" d="M355.8927,912.08207C355.39239,913.08269 355.55916,918.75289 356.55978,920.75414C357.56041,922.75538 359.72842,930.92713 359.72842,930.92713L354.225,927.75849L349.38865,926.75787L347.55418,922.92215L348.22126,919.92028L350.05574,916.91841C350.05574,916.91841 351.22313,914.25009 352.05698,914.08332C352.89083,913.91655 355.8927,912.08207 355.8927,912.08207z"/>
  <path transform="translate(-60.1528 -24.2002) matrix(1 0 0 1 0 -452.362)" label="Layer 1" fill="#4c2b1a" fill-opacity="0.99918" fill-rule="evenodd" stroke="#140707" stroke-width="1px" stroke-opacity="0.95559" id="imagebot_47" d="M376.2387,944.102C376.2387,944.102 364.398,926.09079 364.23122,921.25445C364.06445,916.4181 364.398,907.4125 368.06695,904.5774C371.7359,901.7423 374.40422,899.07397 378.40671,900.57491C382.40921,902.07584 386.07815,900.0746 390.08064,900.74168C394.08314,901.40876 408.92571,910.74791 408.92571,910.74791L415.09622,917.5855L416.43038,919.58674L397.085,934.76285L379.74088,947.60418L376.2387,944.102z"/>
  <path transform="translate(-60.1528 -24.2002) matrix(1 0 0 1 0 -452.362)" label="Layer 1" fill="#4c2b1a" fill-opacity="0.99918" fill-rule="evenodd" stroke="#140707" stroke-width="1px" stroke-opacity="0.95559" id="imagebot_46" d="M347.88772,911.74853L348.88834,908.24635L351.05636,903.07647L348.22126,901.40876L342.71783,904.5774L337.04764,908.74666L338.54857,912.58238L345.38616,913.41623L347.88772,911.74853z"/>
  <path transform="translate(-60.1528 -24.2002) matrix(1 0 0 1 0 -452.362)" label="Layer 1" fill="#4c2b1a" fill-opacity="0.99918" fill-rule="evenodd" stroke="#140707" stroke-width="1px" stroke-opacity="0.95559" id="imagebot_45" d="M345.55293,894.73794L350.22251,890.56868L349.38865,886.73296L345.55293,886.39942L341.71721,889.06775L339.88274,892.40316L345.55293,894.73794z"/>
  <path transform="translate(-60.1528 -24.2002) matrix(1 0 0 1 0 -452.362)" label="Layer 1" fill="#4c2b1a" fill-opacity="0.99918" fill-rule="evenodd" stroke="#140707" stroke-width="1px" stroke-opacity="0.95559" id="imagebot_44" d="M327.87526,904.24386L333.71223,904.74417L337.71472,902.9097L342.05075,899.40752L337.38118,897.90658L332.54484,900.40814L327.87526,904.24386z"/>
  <path transform="translate(-60.1528 -24.2002) matrix(1 0 0 1 0 -452.362)" label="Layer 1" fill="#4c2b1a" fill-opacity="0.99918" fill-rule="evenodd" stroke="#140707" stroke-width="1px" stroke-opacity="0.95559" id="imagebot_43" d="M316.20133,907.91281L321.03767,904.41063L321.20444,899.40752L315.03394,897.73981L310.6979,902.9097L311.36499,907.24573L316.20133,907.91281z"/>
  <path transform="translate(-60.1528 -24.2002) matrix(1 0 0 1 0 -452.362)" label="Layer 1" fill="#4c2b1a" fill-opacity="0.99918" fill-rule="evenodd" stroke="#140707" stroke-width="1px" stroke-opacity="0.95559" id="imagebot_42" d="M301.35876,916.58487L308.52989,913.91655L312.86592,911.58176L306.1951,910.41437L306.52864,906.74542L301.52553,906.57865L298.69043,909.58051L301.35876,916.58487z"/>
  <path transform="translate(-60.1528 -24.2002) matrix(1 0 0 1 0 -452.362)" label="Layer 1" fill="#4c2b1a" fill-opacity="0.99918" fill-rule="evenodd" stroke="#140707" stroke-width="1px" stroke-opacity="0.95559" id="imagebot_41" d="M298.35689,924.25632L300.69168,920.75414L296.18887,917.91904L293.18701,922.0883L298.35689,924.25632z"/>
  <path transform="translate(-60.1528 -24.2002) matrix(1 0 0 1 0 -452.362)" label="Layer 1" fill="#4c2b1a" fill-opacity="0.99918" fill-rule="evenodd" stroke="#140707" stroke-width="1px" stroke-opacity="0.95559" id="imagebot_40" d="M289.8516,918.75289C289.8516,918.75289 294.02086,915.08394 294.02086,912.58238C294.02086,910.08083 289.8516,905.24448 289.8516,905.24448L284.84848,903.57678L282.5137,907.24573C282.5137,907.24573 281.17953,911.58176 280.84599,912.24884C280.51245,912.91592 277.51058,917.25196 277.51058,917.25196L289.8516,918.75289z"/>
  <path transform="translate(-60.1528 -24.2002) matrix(1 0 0 1 0 -452.362)" label="Layer 1" fill="#4c2b1a" fill-opacity="0.99918" fill-rule="evenodd" stroke="#140707" stroke-width="1px" stroke-opacity="0.95559" id="imagebot_39" d="M300.85845,903.24324L306.86218,897.40627L312.53238,893.07024L304.5274,889.73483L297.68981,889.06775L292.01961,892.06961L289.01774,898.40689L291.85284,902.57615L300.85845,903.24324z"/>
  <path transform="translate(-60.1528 -24.2002) matrix(1 0 0 1 0 -452.362)" label="Layer 1" fill="#4c2b1a" fill-opacity="0.99918" fill-rule="evenodd" stroke="#140707" stroke-width="1px" stroke-opacity="0.95559" id="imagebot_38" d="M327.20818,897.2395L332.37807,892.23639L336.88087,888.23389L334.04577,885.56557L325.70725,888.40066L321.70476,891.73607C321.70476,891.73607 320.37059,892.90347 321.20444,893.73732C322.0383,894.57117 327.20818,897.2395 327.20818,897.2395z"/>
  <path transform="translate(-60.1528 -24.2002) matrix(1 0 0 1 0 -452.362)" label="Layer 1" fill="#4c2b1a" fill-opacity="0.99918" fill-rule="evenodd" stroke="#140707" stroke-width="1px" stroke-opacity="0.95559" id="imagebot_37" d="M299.85782,885.89911L315.20071,885.23203L326.70787,883.73109L335.04639,874.89226L319.03643,872.22393L313.36623,875.05903L310.03082,877.72735L299.85782,885.89911z"/>
  <path transform="translate(-60.1528 -24.2002) matrix(1 0 0 1 0 -452.362)" label="Layer 1" fill="#4c2b1a" fill-opacity="0.99918" fill-rule="evenodd" stroke="#140707" stroke-width="1px" stroke-opacity="0.95559" id="imagebot_36" d="M360.3955,892.40316C361.06259,892.7367 367.56663,897.40627 367.56663,897.40627L358.56103,896.90596L358.06072,901.57553L352.72406,899.07397L351.72344,895.90534L355.39239,892.90347L360.3955,892.40316z"/>
  <path transform="translate(-60.1528 -24.2002) matrix(1 0 0 1 0 -452.362)" label="Layer 1" fill="#4c2b1a" fill-opacity="0.99918" fill-rule="evenodd" stroke="#140707" stroke-width="1px" stroke-opacity="0.95559" id="imagebot_35" d="M363.06383,888.23389L368.40049,888.23389L370.40173,883.39755L363.89768,882.73047L363.06383,888.23389z"/>
  <path transform="translate(-60.1528 -24.2002) matrix(1 0 0 1 0 -452.362)" label="Layer 1" fill="#4c2b1a" fill-opacity="0.99918" fill-rule="evenodd" stroke="#140707" stroke-width="1px" stroke-opacity="0.95559" id="imagebot_34" d="M355.8927,885.89911L364.06445,879.06152L357.56041,877.22704L355.22562,880.39568L351.72344,880.89599L355.8927,885.89911z"/>
  <path transform="translate(-60.1528 -24.2002) matrix(1 0 0 1 0 -452.362)" label="Layer 1" fill="#4c2b1a" fill-opacity="0.99918" fill-rule="evenodd" stroke="#140707" stroke-width="1px" stroke-opacity="0.95559" id="imagebot_33" d="M376.90578,894.73794L388.24617,894.23763L388.57971,886.23265L378.40671,886.23265L375.07131,889.23452L376.90578,894.73794z"/>
  <path transform="translate(-60.1528 -24.2002) matrix(1 0 0 1 0 -452.362)" label="Layer 1" fill="#4c2b1a" fill-opacity="0.99918" fill-rule="evenodd" stroke="#140707" stroke-width="1px" stroke-opacity="0.95559" id="imagebot_32" d="M339.71597,882.73047C340.38305,882.73047 343.38492,881.89662 343.38492,881.89662L344.71908,879.39506L347.72095,879.7286L348.05449,876.22642L353.0576,875.39257L349.88896,869.88914L345.7197,870.55622L344.71908,872.22393L338.88211,872.55747L339.71597,882.73047z"/>
  <path transform="translate(-60.1528 -24.2002) matrix(1 0 0 1 0 -452.362)" label="Layer 1" fill="#4c2b1a" fill-opacity="0.99918" fill-rule="evenodd" stroke="#140707" stroke-width="1px" stroke-opacity="0.95559" id="imagebot_31" d="M370.90204,879.22829L367.06632,874.89226L371.23558,871.55685L376.2387,868.05467L377.73963,872.05716L382.74275,872.22393L382.40921,876.8935L379.57411,879.56183L370.90204,879.22829z"/>
  <path transform="translate(-60.1528 -24.2002) matrix(1 0 0 1 0 -452.362)" label="Layer 1" fill="#4c2b1a" fill-opacity="0.99918" fill-rule="evenodd" stroke="#140707" stroke-width="1px" stroke-opacity="0.95559" id="imagebot_30" d="M388.0794,879.56183L393.58282,878.89475L395.25053,876.22642L397.91886,876.22642L398.08563,873.22455L397.25178,871.55685L392.5822,872.05716L389.58033,872.89101L388.91325,877.39381L388.0794,879.56183z"/>
  <path transform="translate(-60.1528 -24.2002) matrix(1 0 0 1 0 -452.362)" label="Layer 1" fill="#4c2b1a" fill-opacity="0.99918" fill-rule="evenodd" stroke="#140707" stroke-width="1px" stroke-opacity="0.95559" id="imagebot_29" d="M378.23994,865.38634L388.74648,865.55311L390.9145,863.21832L393.41605,862.55124L394.91699,856.38073L390.9145,855.38011L385.91138,857.21459L379.90765,862.05093L378.23994,865.38634z"/>
  <path transform="translate(-60.1528 -24.2002) matrix(1 0 0 1 0 -452.362)" label="Layer 1" fill="#4c2b1a" fill-opacity="0.99918" fill-rule="evenodd" stroke="#140707" stroke-width="1px" stroke-opacity="0.95559" id="imagebot_28" d="M361.5629,870.05591L364.73154,866.05342L368.23372,864.38572L369.90142,861.71739L370.90204,858.04844L368.9008,855.04657L364.56477,854.04595L362.56352,859.04906L360.56227,862.88478L354.72531,864.05218L352.05698,866.22019L351.89021,867.22082L361.5629,870.05591z"/>
  <path transform="translate(-60.1528 -24.2002) matrix(1 0 0 1 0 -452.362)" label="Layer 1" fill="#4c2b1a" fill-opacity="0.99918" fill-rule="evenodd" stroke="#140707" stroke-width="1px" stroke-opacity="0.95559" id="imagebot_27" d="M336.04702,868.38821L352.55729,860.04969L359.56165,853.37887L350.22251,853.2121L341.55044,856.04719L334.87962,855.54688L319.53674,867.38759L336.04702,868.38821z"/>
  <path transform="translate(-60.1528 -24.2002) matrix(1 0 0 1 0 -452.362)" label="Layer 1" fill="#4c2b1a" fill-opacity="0.99918" fill-rule="evenodd" stroke="#140707" stroke-width="1px" stroke-opacity="0.95559" id="imagebot_26" d="M341.88398,850.377L352.55729,848.87606C352.55729,848.87606 363.56414,847.20836 366.39924,846.37451C369.23434,845.54065 376.57224,843.53941 378.90703,839.37015C381.24181,835.20089 384.07691,819.858 384.07691,819.858L363.39737,833.19964L341.88398,850.377z"/>
  <path transform="translate(-60.1528 -24.2002) matrix(1 0 0 1 0 -452.362)" label="Layer 1" fill="#4c2b1a" fill-opacity="0.99918" fill-rule="evenodd" stroke="#140707" stroke-width="1px" stroke-opacity="0.95559" id="imagebot_25" d="M423.43474,913.74978L404.42291,899.24074L396.25115,894.07086C396.25115,894.07086 394.75022,889.06775 398.2524,885.23203C401.75458,881.3963 416.09684,871.22331 417.76454,871.05654C419.43225,870.88977 424.10182,865.71988 430.93941,870.38945C437.777,875.05903 450.11801,890.73545 450.11801,890.73545L436.94315,902.57615L423.43474,913.74978z"/>
  <path transform="translate(-60.1528 -24.2002) matrix(1 0 0 1 0 -452.362)" label="Layer 1" fill="#4c2b1a" fill-opacity="0.99918" fill-rule="evenodd" stroke="#140707" stroke-width="1px" stroke-opacity="0.95559" id="imagebot_24" d="M454.1205,886.73296C454.1205,886.73296 442.96468,878.33508 441.27918,872.05716C440.38305,868.71937 441.28318,864.70473 443.28042,861.88416C447.64371,855.7216 455.2851,851.1853 462.79257,850.377C467.91369,849.82563 473.52552,851.89915 477.46837,855.21334C479.54351,856.95761 481.30409,862.38447 481.30409,862.38447L453.45342,886.89973L454.1205,886.73296z"/>
  <path transform="translate(-60.1528 -24.2002) matrix(1 0 0 1 0 -452.362)" label="Layer 1" fill="#4c2b1a" fill-opacity="0.99918" fill-rule="evenodd" stroke="#140707" stroke-width="1px" stroke-opacity="0.95559" id="imagebot_23" d="M412.13045,845.214C412.79753,845.54754 419.30158,850.21711 419.30158,850.21711L410.29597,849.7168L409.79566,854.38637L404.45901,851.88481L403.45838,848.71618L407.12733,845.71431L412.13045,845.214z"/>
  <path transform="translate(-60.1528 -24.2002) matrix(1 0 0 1 0 -452.362)" label="Layer 1" fill="#4c2b1a" fill-opacity="0.99918" fill-rule="evenodd" stroke="#140707" stroke-width="1px" stroke-opacity="0.95559" id="imagebot_22" d="M414.79877,841.04473L420.13543,841.04473L422.13668,836.20839L415.63263,835.54131L414.79877,841.04473z"/>
  <path transform="translate(-60.1528 -24.2002) matrix(1 0 0 1 0 -452.362)" label="Layer 1" fill="#4c2b1a" fill-opacity="0.99918" fill-rule="evenodd" stroke="#140707" stroke-width="1px" stroke-opacity="0.95559" id="imagebot_21" d="M391.45091,835.54131C392.11799,835.54131 395.11986,834.70746 395.11986,834.70746L396.45402,832.2059L399.45589,832.53944L399.78943,829.03726L404.79255,828.20341L401.62391,822.69998L397.45465,823.36706L396.45402,825.03477L390.61706,825.36831L391.45091,835.54131z"/>
  <path transform="translate(-60.1528 -24.2002) matrix(1 0 0 1 0 -452.362)" label="Layer 1" fill="#4c2b1a" fill-opacity="0.99918" fill-rule="evenodd" stroke="#140707" stroke-width="1px" stroke-opacity="0.95559" id="imagebot_20" d="M422.63699,832.03913L418.80127,827.7031L422.97053,824.36769L427.97364,820.86551L429.47458,824.868L434.47769,825.03477L434.14415,829.70434L431.30905,832.37267L422.63699,832.03913z"/>
  <path transform="translate(-60.1528 -24.2002) matrix(1 0 0 1 0 -452.362)" label="Layer 1" fill="#4c2b1a" fill-opacity="0.99918" fill-rule="evenodd" stroke="#140707" stroke-width="1px" stroke-opacity="0.95559" id="imagebot_19" d="M439.81435,832.37267L445.31777,831.70559L446.98548,829.03726L449.65381,829.03726L449.82058,826.03539L448.98673,824.36769L444.31715,824.868L441.31528,825.70185L440.6482,830.20465L439.81435,832.37267z"/>
  <path transform="translate(-60.1528 -24.2002) matrix(1 0 0 1 0 -452.362)" label="Layer 1" fill="#4c2b1a" fill-opacity="0.99918" fill-rule="evenodd" stroke="#140707" stroke-width="1px" stroke-opacity="0.95559" id="imagebot_18" d="M429.97489,818.19718L440.48143,818.36395L442.64945,816.02916L445.151,815.36208L446.65194,809.19157L442.64945,808.19095L437.64633,810.02543L431.64259,814.86177L429.97489,818.19718z"/>
  <path transform="translate(-60.1528 -24.2002) matrix(1 0 0 1 0 -452.362)" label="Layer 1" fill="#4c2b1a" fill-opacity="0.99918" fill-rule="evenodd" stroke="#140707" stroke-width="1px" stroke-opacity="0.95559" id="imagebot_17" d="M421.97894,857.84026C422.64602,858.1738 429.15007,862.84337 429.15007,862.84337L420.14446,862.34306L419.64415,867.01263L414.3075,864.51107L413.30687,861.34244L416.97582,858.34057L421.97894,857.84026z"/>
  <path transform="translate(-60.1528 -24.2002) matrix(1 0 0 1 0 -452.362)" label="Layer 1" fill="#4c2b1a" fill-opacity="0.99918" fill-rule="evenodd" stroke="#140707" stroke-width="1px" stroke-opacity="0.95559" id="imagebot_16" d="M424.64726,853.67099L429.98392,853.67099L431.98517,848.83465L425.48112,848.16757L424.64726,853.67099z"/>
  <path transform="translate(-60.1528 -24.2002) matrix(1 0 0 1 0 -452.362)" label="Layer 1" fill="#4c2b1a" fill-opacity="0.99918" fill-rule="evenodd" stroke="#140707" stroke-width="1px" stroke-opacity="0.95559" id="imagebot_15" d="M401.2994,848.16757C401.96648,848.16757 404.96835,847.33372 404.96835,847.33372L406.30251,844.83216L409.30438,845.1657L409.63792,841.66352L414.64104,840.82967L411.4724,835.32624L407.30314,835.99332L406.30251,837.66103L400.46555,837.99457L401.2994,848.16757z"/>
  <path transform="translate(-60.1528 -24.2002) matrix(1 0 0 1 0 -452.362)" label="Layer 1" fill="#4c2b1a" fill-opacity="0.99918" fill-rule="evenodd" stroke="#140707" stroke-width="1px" stroke-opacity="0.95559" id="imagebot_14" d="M432.48548,844.66539L428.64976,840.32936L432.81902,836.99395L437.82213,833.49177L439.32307,837.49426L444.32618,837.66103L443.99264,842.3306L441.15754,844.99893L432.48548,844.66539z"/>
  <path transform="translate(-60.1528 -24.2002) matrix(1 0 0 1 0 -452.362)" label="Layer 1" fill="#4c2b1a" fill-opacity="0.99918" fill-rule="evenodd" stroke="#140707" stroke-width="1px" stroke-opacity="0.95559" id="imagebot_13" d="M449.66284,844.99893L455.16626,844.33185L456.83397,841.66352L459.5023,841.66352L459.66907,838.66165L458.83522,836.99395L454.16564,837.49426L451.16377,838.32811L450.49669,842.83091L449.66284,844.99893z"/>
  <path transform="translate(-60.1528 -24.2002) matrix(1 0 0 1 0 -452.362)" label="Layer 1" fill="#4c2b1a" fill-opacity="0.99918" fill-rule="evenodd" stroke="#140707" stroke-width="1px" stroke-opacity="0.95559" id="imagebot_12" d="M461.0355,826.78304L471.54204,826.94981L473.71006,824.61502L476.21161,823.94794L477.71255,817.77743L473.71006,816.77681L468.70694,818.61129L462.7032,823.44763L461.0355,826.78304z"/>
  <path transform="translate(-60.1528 -24.2002) matrix(1 0 0 1 0 -452.362)" label="Layer 1" fill="#4c2b1a" fill-opacity="0.99918" fill-rule="evenodd" stroke="#140707" stroke-width="1px" stroke-opacity="0.95559" id="imagebot_11" d="M378.8824,851.48329L389.38893,851.65006L391.55695,849.31527L394.0585,848.64819L395.55944,842.47768L391.55695,841.47706L386.55383,843.31154L380.5501,848.14788L378.8824,851.48329z"/>
  <path transform="translate(-60.1528 -24.2002) matrix(1 0 0 1 0 -452.362)" label="Layer 1" fill="#4c2b1a" fill-opacity="0.99918" fill-rule="evenodd" stroke="#140707" stroke-width="1px" stroke-opacity="0.95559" id="imagebot_10" d="M409.94299,816.6348L420.44953,816.80157L422.61755,814.46678L425.1191,813.7997L426.62004,807.62919L422.61755,806.62857L417.61443,808.46305L411.61069,813.29939L409.94299,816.6348z"/>
  <path transform="translate(-60.1528 -24.2002) matrix(1 0 0 1 0 -452.362)" label="Layer 1" fill="#4c2b1a" fill-opacity="0.99918" fill-rule="evenodd" stroke="#140707" stroke-width="1px" stroke-opacity="0.95559" id="imagebot_9" d="M449.08441,796.93783L459.59095,797.1046L461.75897,794.76981L464.26052,794.10273L465.76146,787.93222L461.75897,786.9316L456.75585,788.76608L450.75211,793.60242L449.08441,796.93783z"/>
  <path transform="translate(-60.1528 -24.2002) matrix(1 0 0 1 0 -452.362)" label="Layer 1" fill="#4c2b1a" fill-opacity="0.99918" fill-rule="evenodd" stroke="#140707" stroke-width="1px" stroke-opacity="0.95559" id="imagebot_8" d="M459.22225,812.21109L455.38653,807.87506L459.55579,804.53965L464.5589,801.03747L466.05985,805.03996L471.06296,805.20673L470.72942,809.8763L467.89432,812.54463L459.22225,812.21109z"/>
  <path transform="translate(-60.1528 -24.2002) matrix(1 0 0 1 0 -452.362)" label="Layer 1" fill="#4c2b1a" fill-opacity="0.99918" fill-rule="evenodd" stroke="#140707" stroke-width="1px" stroke-opacity="0.95559" id="imagebot_7" d="M499.37377,767.76664L495.53805,763.43061L499.70731,760.0952L504.71042,756.59302L506.21136,760.59551L511.21447,760.76228L510.88093,765.43185L508.04583,768.10018L499.37377,767.76664z"/>
  <path transform="translate(-60.1528 -24.2002) matrix(1 0 0 1 0 -452.362)" label="Layer 1" fill="#4c2b1a" fill-opacity="0.99918" fill-rule="evenodd" stroke="#140707" stroke-width="0.76229px" stroke-opacity="0.95559" id="imagebot_6" d="M478.84205,772.25934L475.92176,768.94988L479.09599,766.40413L482.90507,763.7311L484.0478,766.786L487.85688,766.91328L487.60294,770.47732L485.44446,772.51392L478.84205,772.25934z"/>
  <path transform="translate(-60.1528 -24.2002) matrix(1 0 0 1 0 -452.362)" label="Layer 1" fill="#4c2b1a" fill-opacity="0.99918" fill-rule="evenodd" stroke="#140707" stroke-width="0.60712px" stroke-opacity="0.95559" id="imagebot_5" d="M471.02604,784.24122L468.98505,781.23757L471.20352,778.92707L473.86568,776.50104L474.66433,779.27364L477.32649,779.38917L477.14901,782.62386L475.64045,784.47227L471.02604,784.24122z"/>
  <path transform="translate(-60.1528 -24.2002) matrix(1 0 0 1 0 -452.362)" label="Layer 1" fill="#4c2b1a" fill-opacity="0.99918" fill-rule="evenodd" stroke="#140707" stroke-width="0.72022px" stroke-opacity="0.95559" id="imagebot_4" d="M518.53796,770.77899L515.79009,767.63944L518.77691,765.2244L522.36109,762.68861L523.43635,765.58665L527.02053,765.70741L526.78159,769.08846L524.75055,771.02049L518.53796,770.77899z"/>
  <path transform="translate(-60.1528 -24.2002) matrix(1 0 0 1 0 -452.362)" label="Layer 1" fill="#4c2b1a" fill-opacity="0.99918" fill-rule="evenodd" stroke="#140707" stroke-width="0.71848px" stroke-opacity="0.95559" id="imagebot_3" d="M488.58608,852.60091C488.58608,852.60091 481.1113,846.54091 479.88754,842.07743C479.2369,839.70433 479.89054,836.85 481.34055,834.84464C484.50854,830.46318 490.05662,827.23796 495.50746,826.66327C499.22568,826.27126 503.26958,827.74432 506.16291,830.10182C507.80985,831.44376 509.30498,835.64676 509.30498,835.64676C501.74519,842.18099 495.99258,848.81774 489.4843,854.59176L488.58608,852.60091z"/>
  <title>Layer 1</title>

  <metadata id="imagebot_154">image/svg+xmllogoabril 2011M Mlogolentesglassesverdeblancogrisnegrologo de un website</metadata>
  <path transform="matrix(0.839007 0 0 0.839007 378.576 -265.744)" label="Capa 1" fill="rgb(255, 255, 255)" stroke="rgb(0, 0, 0)" stroke-width="5.7" stroke-miterlimit="4" stroke-opacity="0.61497" id="imagebot_151" d="M 240.90349964904783 363.85179037231444 C 240.90349964904783 383.57020037231445 224.91857964904784 399.55512037231443 205.20016964904787 399.55512037231443 C 185.48176964904786 399.55512037231443 169.49684964904785 383.57020037231445 169.49684964904785 363.85179037231444 C 169.49684964904785 344.13339037231447 185.48176964904786 328.1484703723145 205.20016964904787 328.1484703723145 C 224.91857964904784 328.1484703723145 240.90349964904783 344.13339037231447 240.90349964904783 363.85179037231444 z"/>
  <path label="Capa 1" opacity="0.83857" fill="rgb(0, 0, 0)" transform="matrix(0.851164 0 0 0.851164 359.84 -216.338)" d="M244.28591,306.53854C244.28591,313.28431 238.48085,318.75284 231.31996,318.75284C224.15907,318.75284 218.35402,313.28431 218.35402,306.53854C218.35402,299.79277 224.15907,294.32425 231.31996,294.32425C238.48085,294.32425 244.28591,299.79277 244.28591,306.53854z" id="imagebot_148"/>
 </g>
</svg>