<?xml version="1.0" encoding="utf-8"?>
<!-- Generator: Adobe Illustrator 16.0.4, SVG Export Plug-In . SVG Version: 6.00 Build 0)  -->
<!DOCTYPE svg PUBLIC "-//W3C//DTD SVG 1.1//EN" "http://www.w3.org/Graphics/SVG/1.1/DTD/svg11.dtd">
<svg version="1.1" id="publicdomainvectors.org" xmlns="http://www.w3.org/2000/svg" xmlns:xlink="http://www.w3.org/1999/xlink"
	 x="0px" y="0px" width="600px" height="600px" viewBox="0 0 600 600" enable-background="new 0 0 600 600" xml:space="preserve">
<g>
	<path fill-rule="evenodd" clip-rule="evenodd" fill="#0C6F75" d="M299.901,251.223c131.61,0,239.048,44.741,245.428,100.969h8.477
		l-13.038,26.421c-0.273,0.586-0.568,1.167-0.865,1.753l-0.4,0.812h-0.008c-24.899,47.281-122.712,82.571-239.593,82.571
		c-116.881,0-214.693-35.29-239.592-82.571h-0.008l-0.402-0.812c-0.294-0.584-0.59-1.167-0.865-1.753l-13.037-26.421h8.477
		C60.853,295.964,168.292,251.223,299.901,251.223z"/>
	<path fill-rule="evenodd" clip-rule="evenodd" fill="#064B50" d="M370.765,459.255c-22.44,2.919-46.226,4.493-70.864,4.493
		c-25.727,0-50.529-1.712-73.833-4.882c-19.723-3.109-28.337-13.393-37.562-28.896c74.433-0.035,148.866-0.068,223.298-0.102
		c-7.531,14.866-20.715,24.176-36.715,27.268C373.656,457.863,372.215,458.569,370.765,459.255z"/>
	<path fill-rule="evenodd" clip-rule="evenodd" fill="#064B50" d="M535.325,326.946c5.58,8.055,9.014,16.512,10.004,25.245h8.477
		l-13.038,26.421c-0.273,0.586-0.568,1.167-0.865,1.753l-0.4,0.812h-0.008c-5.553,10.544-14.738,20.489-26.945,29.581l-0.012-0.033
		c6.605-7.816,11.865-16.966,14.642-27.861L535.325,326.946z"/>
	<path fill-rule="evenodd" clip-rule="evenodd" fill="#064B50" d="M88.588,411.74c-12.874-9.357-22.527-19.638-28.28-30.563h-0.008
		l-0.402-0.812c-0.294-0.584-0.59-1.167-0.865-1.753l-13.037-26.421h8.477c1.048-9.231,4.837-18.15,10.992-26.617l8.496,58.323
		C76.735,394.785,81.99,403.926,88.588,411.74z"/>
	<path fill-rule="evenodd" clip-rule="evenodd" fill="#34C0CA" d="M299.901,440.805c143.035,0,259.693-50.447,259.693-112.302
		c0-61.851-116.658-112.298-259.693-112.298c-143.032,0-259.692,50.447-259.692,112.298
		C40.208,390.357,156.869,440.805,299.901,440.805z"/>
	<path fill-rule="evenodd" clip-rule="evenodd" fill="#16959D" d="M299.901,216.205c27.767,0,54.51,1.892,79.594,5.381
		c-3.888,5.229-7.773,10.462-11.653,15.689c-12.474,16.759-24.893,33.483-37.312,50.173c29.237-7.494,58.529-14.886,87.823-21.719
		c24.812-5.146,49.681-10.118,74.544-12.359c41.458,19.898,66.697,46.242,66.697,75.133c0,19.723-11.769,38.252-32.415,54.36
		c-9.593-4.928-19.205-9.459-28.857-13.492c-26.421-11.038-53.35-19.015-79.969-26.615c-29.294-7.425-58.586-14.154-87.823-20.748
		c12.42,16.307,24.839,32.65,37.313,49.027c11.305,14.99,22.691,30.051,33.969,45.28c3.332,4.497,6.661,9.016,9.992,13.554
		c-33.885,7.009-71.832,10.936-111.903,10.936c-39.869,0-77.636-3.892-111.396-10.834c3.123-4.263,6.248-8.514,9.373-12.753
		c11.277-15.301,22.665-30.534,34.024-45.661c12.421-16.481,24.839-32.964,37.312-49.445c-29.292,7.009-58.586,14.261-87.822,22.207
		c-26.674,8.015-53.561,16.371-80.024,27.238c-9.162,3.762-18.292,7.9-27.407,12.341c-21.479-16.347-33.753-35.249-33.753-55.395
		c0-27.382,22.672-52.476,60.335-71.96l0.825,0.059c26.652,1.981,53.351,6.454,80.024,11.174
		c29.236,6.07,58.53,12.769,87.822,19.777c-12.474-16.481-24.892-32.964-37.312-49.445c-4.173-5.469-8.345-10.937-12.514-16.393
		C244.741,218.144,271.796,216.205,299.901,216.205z"/>
	<path fill-rule="evenodd" clip-rule="evenodd" fill="#56C6D2" d="M299.901,396.792c106.972,0,194.218-37.728,194.218-83.984
		c0-46.261-87.246-83.988-194.218-83.988c-106.972,0-194.218,37.728-194.218,83.988C105.683,359.064,192.93,396.792,299.901,396.792
		z"/>
	<path fill-rule="evenodd" clip-rule="evenodd" fill="#22B0BA" d="M369.938,234.451l-2.096,2.824
		c-12.474,16.759-24.893,33.483-37.312,50.173c29.237-7.494,58.529-14.886,87.823-21.719c10.521-2.182,21.049-4.332,31.585-6.256
		c27.605,14.502,44.182,33.081,44.182,53.334c0,16.206-10.627,31.336-29.015,44.17c-15.581-5.225-31.22-9.788-46.752-14.222
		c-29.294-7.425-58.586-14.154-87.823-20.748c12.42,16.307,24.839,32.65,37.313,49.027c4.518,5.993,9.05,11.995,13.582,18.017
		c-24.789,4.965-52.404,7.74-81.524,7.74c-28.976,0-56.463-2.748-81.16-7.667c4.385-5.871,8.777-11.728,13.162-17.568
		c12.421-16.481,24.839-32.964,37.312-49.445c-29.292,7.009-58.586,14.261-87.822,22.207c-14.847,4.461-29.76,9.027-44.628,14.074
		c-19.661-13.129-31.082-28.781-31.082-45.585c0-19.189,14.89-36.87,39.933-51.014c11.926,1.811,23.855,3.872,35.777,5.981
		c29.236,6.07,58.53,12.769,87.822,19.777c-12.474-16.481-24.892-32.964-37.312-49.445l-2.704-3.546
		c21.908-3.706,45.756-5.742,70.702-5.742C324.597,228.819,348.208,230.817,369.938,234.451z"/>
	<path fill-rule="evenodd" clip-rule="evenodd" fill="#E4EAF1" d="M299.901,107.493c72.68,0,131.596,86.785,131.596,193.841H168.305
		C168.305,194.278,227.221,107.493,299.901,107.493z"/>
	<path fill-rule="evenodd" clip-rule="evenodd" fill="#F4F8FD" d="M351.443,122.932c18.118,11.375,34.15,28.566,47.02,49.979
		c-20.485,47.061-69.195,97.607-125.659,156.197c-7.745,8.036-15.65,16.242-23.759,24.725
		c-23.974-4.348-44.337-11.677-58.619-20.914c13.731-14.569,27.79-29.16,41.374-43.254
		C301.883,216.943,357.853,158.859,351.443,122.932L351.443,122.932z M401.926,178.909c7.044,41.835-50.61,101.666-122.662,176.429
		l-1.984,2.062c7.351,0.553,14.907,0.842,22.621,0.842c8.518,0,16.843-0.355,24.914-1.024
		c43.454-45.419,80.012-85.776,98.612-122.859C418.353,214.063,411.037,195.364,401.926,178.909z"/>
	<path fill-rule="evenodd" clip-rule="evenodd" fill="#82CBD1" d="M422.134,229.404c6.037,22.242,9.363,46.514,9.363,71.93
		c0,31.428-58.916,56.907-131.596,56.907c-72.68,0-131.596-25.479-131.596-56.907c0-25.416,3.328-49.688,9.365-71.93
		c36.431-8.42,78.037-13.199,122.23-13.199C344.095,216.205,385.703,220.984,422.134,229.404z"/>
	<path fill-rule="evenodd" clip-rule="evenodd" fill="#BDE4E8" d="M422.134,229.404c0.444,1.642,0.874,3.295,1.291,4.958
		c-18.603,37.084-55.158,77.436-98.61,122.854c-8.07,0.669-16.396,1.024-24.914,1.024c-7.714,0-15.271-0.289-22.621-0.842
		l1.984-2.062c49.524-51.387,92.248-95.721,111.836-132.007C401.798,225.067,412.159,227.099,422.134,229.404L422.134,229.404z
		 M249.045,353.833c8.108-8.482,16.014-16.688,23.759-24.725c38.003-39.434,72.486-75.222,97.223-108.758
		c-22.095-2.675-45.38-4.118-69.437-4.145c-19.482,22.291-43.192,46.897-68.79,73.459c-13.584,14.094-27.643,28.685-41.374,43.254
		C204.708,342.156,225.072,349.485,249.045,353.833z"/>
	<path fill-rule="evenodd" clip-rule="evenodd" fill="#7CB6BB" d="M428.989,263.542c1.641,12.227,2.508,24.859,2.508,37.792
		c0,14.072-11.818,26.949-31.39,36.882c-23.209-5.674-46.41-10.984-69.578-16.208c7.901,10.375,15.802,20.764,23.717,31.169
		c-16.564,3.252-34.966,5.064-54.345,5.064c-19.312,0-37.65-1.799-54.17-5.029c7.814-10.367,15.639-20.735,23.484-31.101
		c-22.648,5.421-45.296,10.982-67.921,16.902c-20.524-10.037-32.989-23.227-32.989-37.68c0-12.115,0.761-23.966,2.205-35.466
		c3.629,0.627,7.257,1.265,10.883,1.907c29.236,6.07,58.53,12.769,87.822,19.777c-12.474-16.481-24.892-32.964-37.312-49.445
		c-4.173-5.469-8.345-10.937-12.514-16.393c25.352-3.571,52.407-5.51,80.512-5.51c27.767,0,54.51,1.892,79.594,5.381
		c-3.888,5.229-7.773,10.462-11.653,15.689c-12.474,16.759-24.893,33.483-37.312,50.173c29.237-7.494,58.529-14.886,87.823-21.719
		C421.896,264.994,425.443,264.263,428.989,263.542z"/>
	<path fill-rule="evenodd" clip-rule="evenodd" fill="#95C4C8" d="M353.13,327.139c-7.537-1.726-15.071-3.436-22.601-5.131
		c4.108,5.391,8.214,10.787,12.323,16.188c-5.854,6.242-11.881,12.586-18.044,19.024c-8.064,0.671-16.392,1.021-24.908,1.021
		c-7.714,0-15.274-0.287-22.625-0.84l1.988-2.063c24.898-25.833,48.074-49.883,67.458-72.026
		c18.195-4.627,36.406-9.183,54.623-13.558C388.038,287.997,371.6,307.064,353.13,327.139L353.13,327.139z M249.043,353.835
		c8.11-8.484,16.016-16.688,23.761-24.727c38.001-39.432,72.484-75.219,97.221-108.754c-22.097-2.675-45.376-4.122-69.433-4.148
		c-13.805,15.792-29.729,32.75-46.948,50.739c5.185,6.869,10.373,13.738,15.571,20.607c-9.612-2.3-19.227-4.567-28.84-6.789
		l-8.575,8.901c-13.582,14.094-27.641,28.681-41.37,43.252c3.306,2.139,6.938,4.175,10.864,6.097
		c22.625-5.92,45.272-11.481,67.921-16.902c-7.846,10.365-15.67,20.733-23.484,31.101
		C246.826,353.426,247.93,353.632,249.043,353.835z"/>
	<path fill-rule="evenodd" clip-rule="evenodd" fill="#C6E8EB" d="M299.901,228.819c48.449,0,92.75,7.673,126.771,20.359
		c3.141,16.598,4.825,34.085,4.825,52.155H168.305c0-18.07,1.685-35.558,4.825-52.155
		C207.151,236.492,251.453,228.819,299.901,228.819z"/>
	<path fill-rule="evenodd" clip-rule="evenodd" fill="#D8EFF2" d="M299.901,228.819c21.109,0,41.43,1.457,60.459,4.151
		c-23.7,29.873-54.28,61.61-87.556,96.138c-7.745,8.036-15.65,16.242-23.759,24.725c-23.974-4.348-44.337-11.677-58.619-20.914
		c13.731-14.569,27.79-29.16,41.374-43.254c20.813-21.598,40.377-41.901,57.44-60.72
		C292.771,228.862,296.324,228.819,299.901,228.819L299.901,228.819z M382.991,236.875
		c-21.932,33.591-60.205,73.303-103.727,118.463l-1.984,2.062c7.351,0.553,14.907,0.842,22.621,0.842
		c8.518,0,16.843-0.355,24.914-1.024c39.007-40.77,72.455-77.459,92.351-111.363C406.572,242.379,395.126,239.362,382.991,236.875z"
		/>
	<path fill-rule="evenodd" clip-rule="evenodd" fill="#A4DBDF" d="M428.989,263.542c1.641,12.227,2.508,24.859,2.508,37.792H168.305
		c0-12.115,0.761-23.966,2.205-35.466c3.629,0.627,7.257,1.265,10.883,1.907c29.236,6.07,58.53,12.769,87.822,19.777
		c-12.474-16.481-24.892-32.964-37.312-49.445l-2.704-3.546c21.908-3.706,45.756-5.742,70.702-5.742
		c24.696,0,48.307,1.998,70.037,5.632l-2.096,2.824c-12.474,16.759-24.893,33.483-37.312,50.173
		c29.237-7.494,58.529-14.886,87.823-21.719C421.896,264.994,425.443,264.263,428.989,263.542z"/>
	<path fill-rule="evenodd" clip-rule="evenodd" fill="#CAEAEE" d="M353.13,327.139c-7.537-1.726-15.071-3.436-22.601-5.131
		c4.108,5.391,8.214,10.787,12.323,16.188c-5.854,6.242-11.881,12.586-18.044,19.024c-8.064,0.671-16.392,1.021-24.908,1.021
		c-7.714,0-15.274-0.287-22.625-0.84l1.988-2.063c24.898-25.833,48.074-49.883,67.458-72.026
		c18.195-4.627,36.406-9.183,54.623-13.558C388.038,287.997,371.6,307.064,353.13,327.139L353.13,327.139z M249.043,353.835
		c8.11-8.484,16.016-16.688,23.761-24.727c33.276-34.527,63.852-66.261,87.554-96.134c-19.029-2.695-39.347-4.155-60.458-4.155
		c-3.577,0-7.13,0.042-10.66,0.125c-10.945,12.073-22.92,24.757-35.597,38.001c5.185,6.869,10.373,13.738,15.571,20.607
		c-9.612-2.3-19.227-4.567-28.84-6.789l-8.575,8.901c-13.582,14.094-27.641,28.681-41.37,43.252
		c3.306,2.139,6.938,4.175,10.864,6.097c22.625-5.92,45.272-11.481,67.921-16.902c-7.846,10.365-15.67,20.733-23.484,31.101
		C246.826,353.426,247.93,353.632,249.043,353.835z"/>
	<path fill-rule="evenodd" clip-rule="evenodd" fill="#518F94" d="M299.901,358.241c72.482,0,131.596-25.563,131.596-56.907
		c0-31.342-59.114-56.905-131.596-56.905c-72.479,0-131.596,25.563-131.596,56.905C168.305,332.678,227.422,358.241,299.901,358.241
		z"/>
	<path fill-rule="evenodd" clip-rule="evenodd" fill="#6DA7AB" d="M299.901,244.429c16.881,0,33.019,1.375,47.849,3.88
		c-21.524,25.362-47.303,52.117-74.946,80.8c-7.745,8.036-15.65,16.242-23.759,24.725c-23.974-4.348-44.337-11.677-58.619-20.914
		c13.731-14.569,27.79-29.16,41.374-43.254c14.829-15.387,29.027-30.119,42.136-44.126
		C282.331,244.812,291.013,244.429,299.901,244.429L299.901,244.429z M371.225,253.505c-22.578,29.838-55.418,63.915-91.96,101.833
		l-1.984,2.062c7.351,0.553,14.907,0.842,22.621,0.842c8.518,0,16.843-0.355,24.914-1.024
		c31.259-32.672,58.949-62.727,78.955-90.823C394.682,261.351,383.676,256.985,371.225,253.505z"/>
	<path fill-rule="evenodd" clip-rule="evenodd" fill="#BAD532" d="M299.901,339.977c30.177,0,54.642-4.354,54.642-25.051
		c0-16.827-16.178-39.275-38.445-47.078c-3.785-1.326-6.262-4.622-6.481-8.628c-0.218-4.006,1.883-7.549,5.499-9.281
		c22.772-10.902,39.428-44.235,39.428-69.132c0-30.177-24.465-36.527-54.642-36.527c-30.177,0-54.642,6.351-54.642,36.527
		c0,24.896,16.655,58.229,39.426,69.132c3.62,1.732,5.719,5.275,5.499,9.281c-0.216,4.008-2.692,7.302-6.479,8.628
		c-22.27,7.803-38.445,30.251-38.445,47.078C245.259,335.622,269.724,339.977,299.901,339.977z"/>
	<path fill-rule="evenodd" clip-rule="evenodd" fill="#D2E060" d="M299.901,339.977c30.177,0,54.642-4.354,54.642-25.051
		c0-8.624-4.249-18.722-11.386-27.565c-14.63,16.501-31.257,34.038-49.046,52.558C296.013,339.957,297.946,339.977,299.901,339.977
		L299.901,339.977z M326.282,272.64c-16.437,18.03-34.518,36.795-53.478,56.469l-7.211,7.484
		c-12.399-3.4-20.334-9.886-20.334-21.667c0-16.827,16.176-39.275,38.445-47.078c3.787-1.326,6.264-4.62,6.479-8.628
		c0.22-4.006-1.879-7.549-5.499-9.281c-3.239-1.552-6.356-3.559-9.32-5.931c32.011-34.281,57.346-64.163,69.223-88.584
		c6.27,5.555,9.955,13.675,9.955,25.383c0,24.896-16.655,58.229-39.428,69.132c-3.616,1.732-5.717,5.275-5.499,9.281
		c0.22,4.006,2.696,7.302,6.481,8.628C319.663,269.098,323.071,270.721,326.282,272.64z"/>
	<path fill-rule="evenodd" clip-rule="evenodd" fill="#E6EAD1" d="M321.033,182.919c10.004,0,18.112,8.11,18.112,18.113
		c0,10.004-8.108,18.112-18.112,18.112s-18.113-8.108-18.113-18.112C302.92,191.029,311.029,182.919,321.033,182.919
		L321.033,182.919z M276.655,182.919c10.003,0,18.112,8.11,18.112,18.113c0,10.004-8.109,18.112-18.112,18.112
		c-10.004,0-18.113-8.108-18.113-18.112C258.542,191.029,266.651,182.919,276.655,182.919z"/>
	<path fill-rule="evenodd" clip-rule="evenodd" fill="#2A2B1C" d="M321.033,191.976c0.171,0,0.342,0.006,0.511,0.016
		c-0.136,0.397-0.208,0.824-0.208,1.268c0,2.167,1.757,3.925,3.923,3.925c1.252,0,2.366-0.585,3.083-1.496
		c1.099,1.497,1.748,3.346,1.748,5.345c0,0.113-0.004,0.224-0.008,0.335c-0.394-0.305-0.891-0.485-1.428-0.485
		c-1.291,0-2.338,1.047-2.338,2.34c0,1.292,1.047,2.34,2.338,2.34c0.079,0,0.153-0.004,0.229-0.011
		c-1.562,2.713-4.493,4.538-7.85,4.538c-5.002,0-9.057-4.055-9.057-9.057S316.031,191.976,321.033,191.976L321.033,191.976z
		 M276.655,191.976c0.173,0,0.342,0.006,0.513,0.016c-0.136,0.397-0.21,0.824-0.21,1.268c0,2.167,1.757,3.925,3.925,3.925
		c1.252,0,2.364-0.585,3.083-1.496c1.097,1.497,1.745,3.346,1.745,5.345c0,0.113-0.002,0.224-0.006,0.335
		c-0.395-0.305-0.89-0.485-1.427-0.485c-1.291,0-2.341,1.047-2.341,2.34c0,1.292,1.05,2.34,2.341,2.34
		c0.077,0,0.153-0.004,0.229-0.011c-1.564,2.713-4.495,4.538-7.852,4.538c-5,0-9.057-4.055-9.057-9.057
		S271.655,191.976,276.655,191.976z"/>
</g>
</svg>
