<?xml version="1.0" encoding="UTF-8" standalone="no"?>
<svg
   xmlns:dc="http://purl.org/dc/elements/1.1/"
   xmlns:cc="http://creativecommons.org/ns#"
   xmlns:rdf="http://www.w3.org/1999/02/22-rdf-syntax-ns#"
   xmlns:svg="http://www.w3.org/2000/svg"
   xmlns="http://www.w3.org/2000/svg"
   xmlns:sodipodi="http://sodipodi.sourceforge.net/DTD/sodipodi-0.dtd"
   xmlns:inkscape="http://www.inkscape.org/namespaces/inkscape"
   inkscape:version="1.0 (4035a4f, 2020-05-01)"
   sodipodi:docname="5.svg"
   xml:space="preserve"
   enable-background="new 0 0 822.05 841.89"
   viewBox="0 0 822.05 841.89"
   height="841.89px"
   width="822.05px"
   y="0px"
   x="0px"
   id="Layer_1"
   version="1.1"><metadata
   id="metadata113"><rdf:RDF><cc:Work
       rdf:about=""><dc:format>image/svg+xml</dc:format><dc:type
         rdf:resource="http://purl.org/dc/dcmitype/StillImage" /></cc:Work></rdf:RDF></metadata><defs
   id="defs111" /><sodipodi:namedview
   inkscape:current-layer="Layer_1"
   inkscape:window-maximized="0"
   inkscape:window-y="23"
   inkscape:window-x="0"
   inkscape:cy="420.94501"
   inkscape:cx="411.02499"
   inkscape:zoom="0.32308258"
   showgrid="false"
   id="namedview109"
   inkscape:window-height="480"
   inkscape:window-width="705"
   inkscape:pageshadow="2"
   inkscape:pageopacity="0"
   guidetolerance="10"
   gridtolerance="10"
   objecttolerance="10"
   borderopacity="1"
   bordercolor="#666666"
   pagecolor="#ffffff" />
<path
   style="stroke-width:2.0337"
   id="path10"
   d="m 638.07195,687.0845 c 11.99919,32.33347 60.78685,84.41914 117.5692,71.83088 42.84507,-9.49734 33.2804,-18.3382 24.93892,-45.71057 C 759.23711,643.171 691.22748,666.84647 638.07195,687.0845 Z"
   fill="#3f3939" />
<path
   id="path12"
   d="m 638.07195,687.0845 c 11.99919,32.33347 60.78685,84.41914 117.5692,71.83088 30.99788,-6.87138 43.27497,-15.46323 28.50162,-39.83349 -41.21335,-67.98598 -63.23085,-57.33585 -149.63352,-31.99739"
   stroke-miterlimit="10"
   stroke-linecap="square"
   stroke-width="1.01685"
   stroke="#000000"
   fill="none" />
<path
   id="path14"
   d="m 301.39653,734.10108 c 3.79072,24.2118 -45.26294,75.21435 -23.15756,91.42114 23.34758,17.11751 70.24225,16.57944 94.41163,0 27.81995,-19.08526 12.93973,-37.42869 24.93892,-59.42375 29.41842,-53.92105 -52.79688,-36.36471 -96.19299,-31.99739 z"
   stroke-miterlimit="10"
   stroke-linecap="square"
   stroke-width="1.01685"
   stroke="#000000"
   fill="#3f3939" />
<path
   id="path16"
   d="M 162.45112,312.25783 C 150.12655,273.01813 55.570044,95.459129 94.759775,66.726771 153.66787,23.537684 340.74302,10.568072 418.96574,10.568072 c 131.10033,0 113.59559,85.697304 131.49223,164.422228 14.77571,64.99956 -60.41394,57.56745 -140.18998,76.97659 -82.60484,20.09698 -165.21203,40.19397 -247.81687,60.29094 z"
   stroke-miterlimit="10"
   stroke-linecap="square"
   stroke-width="1.01685"
   stroke="#000000"
   fill="#a09f9f" />
<path
   id="path18"
   d="m 185.6087,526.4445 c -37.83829,38.02074 60.6372,35.30945 64.12865,23.50829 4.68376,-15.83066 -55.76343,-20.56018 -64.12865,-23.50829 z"
   stroke-miterlimit="10"
   stroke-linecap="square"
   stroke-width="1.01685"
   stroke="#000000"
   fill="#3f3939" />
<path
   id="path20"
   d="m 125.04275,539.50465 c -16.12004,36.59632 -6.61475,81.94295 57.89392,72.48391 28.77476,-4.2193 37.02599,-21.0704 40.0804,-39.83349 9.26066,-56.91446 -50.04172,-44.64835 -97.97432,-32.65042 z"
   stroke-miterlimit="10"
   stroke-linecap="square"
   stroke-width="1.01685"
   stroke="#000000"
   fill="#3f3939" />
<path
   id="path22"
   d="m 292.48978,740.63117 c -12.63335,-8.4717 17.20311,11.53472 0,0 z M 655.88547,267.85327 C 614.09259,242.73771 576.74834,200.38621 518.7214,194.71636 429.87235,186.03397 298.64613,232.88512 212.02732,248.94912 50.473003,278.90913 123.7293,466.9929 114.35464,546.03474 c 29.72957,-10.56306 63.42323,-18.582 94.41163,-9.14212 -4.01874,-34.50842 22.92718,-50.18585 23.15756,-84.89106 23.5661,35.45051 31.92895,51.45182 38.29906,88.80911 3.58408,21.02686 3.0283,52.2424 13.36014,71.17789 24.88666,45.61479 -47.40771,122.16824 51.65918,137.78471 80.36745,12.66662 78.84262,-33.56288 80.16081,-71.83089 1.61034,-46.76757 26.269,-88.47128 33.84568,-135.82569 45.78548,22.64981 67.72461,22.52617 99.75568,57.46472 22.3524,24.38245 40.93783,72.95232 74.81676,88.8091 34.51785,16.15803 73.82634,4.68076 112.22515,-5.87708 23.19318,-6.37684 -26.03624,-67.06132 -30.28298,-76.40195 -28.93865,-63.65001 -95.75358,-132.01386 -100.21646,-197.4505 -3.48907,-51.13662 27.76058,-32.83499 70.82416,-64.40576 34.2352,-25.09989 12.42196,-56.13605 -20.48554,-76.40195 z"
   stroke-miterlimit="10"
   stroke-linecap="square"
   stroke-width="1.01685"
   stroke="#000000"
   fill="#ffffff" />
<path
   id="path24"
   d="m 760.98521,697.53262 c -24.79166,-2.03738 -44.87106,5.18402 -57.00325,20.89627"
   stroke-miterlimit="10"
   stroke-linecap="square"
   stroke-width="1.01685"
   stroke="#000000"
   fill="none" />
<path
   id="path26"
   d="m 299.61519,775.8936 c 18.86095,-6.76168 39.21823,-7.72291 58.7846,-2.61203"
   stroke-miterlimit="10"
   stroke-linecap="square"
   stroke-width="1.01685"
   stroke="#000000"
   fill="none" />
<path
   style="stroke-width:2.0337"
   id="path28"
   d="m 269.33222,342.29621 c -8.95664,36.11047 -12.94449,77.20471 -37.40839,109.70535 12.46947,-36.56844 24.93892,-73.13691 37.40839,-109.70535 z"
   fill="#ffffff" />
<path
   id="path30"
   d="m 269.33222,342.29621 c -8.95664,36.11047 -12.94449,77.20471 -37.40839,109.70535"
   stroke-miterlimit="10"
   stroke-linecap="square"
   stroke-width="1.01685"
   stroke="#000000"
   fill="none" />
<path
   style="stroke-width:2.0337"
   id="path32"
   d="m 618.47708,291.36156 c -44.05638,2.53367 -94.88426,16.16152 -117.56918,45.71057 39.18973,-15.23685 78.37945,-30.47371 117.56918,-45.71057 z"
   fill="#ffffff" />
<path
   id="path34"
   d="m 618.47708,291.36156 c -44.05638,2.53367 -94.88426,16.16152 -117.56918,45.71057"
   stroke-miterlimit="10"
   stroke-linecap="square"
   stroke-width="1.01685"
   stroke="#000000"
   fill="none" />
<path
   style="stroke-width:2.0337"
   id="path36"
   d="m 392.24546,497.71213 c 24.95316,10.29141 48.21762,24.1317 57.00324,44.40456 14.27694,-5.43826 25.04818,-13.21688 32.06433,-23.50829 -29.68919,-6.96542 -59.37837,-13.93084 -89.06757,-20.89627 z"
   fill="#ffffff" />
<path
   id="path38"
   d="m 392.24546,497.71213 c 24.95316,10.29141 48.21762,24.1317 57.00324,44.40456 14.30307,-5.16312 25.15744,-13.37709 32.06433,-23.50829"
   stroke-miterlimit="10"
   stroke-linecap="square"
   stroke-width="1.01685"
   stroke="#000000"
   fill="none" />
<path
   style="stroke-width:2.0337"
   id="path40"
   d="m 376.21329,621.78369 c 14.68071,4.11133 27.14306,8.93141 42.75245,10.44812 -14.25083,-3.48271 -28.46364,-7.05248 -42.75245,-10.44812 z"
   fill="#ffffff" />
<path
   id="path42"
   d="m 376.21329,621.78369 c 13.22713,5.38601 28.00998,9.01499 42.75245,10.44812"
   stroke-miterlimit="10"
   stroke-linecap="square"
   stroke-width="1.01685"
   stroke="#000000"
   fill="none" />
<path
   style="stroke-width:2.0337"
   id="path44"
   d="m 280.02033,564.31897 c 18.73981,-10.16951 40.60055,-13.5582 62.34729,-9.14212 -20.6708,3.02996 -41.46749,7.04552 -62.34729,9.14212 z"
   fill="#ffffff" />
<path
   id="path46"
   d="m 280.02033,564.31897 c 18.73981,-10.16951 40.60055,-13.5582 62.34729,-9.14212"
   stroke-miterlimit="10"
   stroke-linecap="square"
   stroke-width="1.01685"
   stroke="#000000"
   fill="none" />
<path
   style="stroke-width:2.0337"
   id="path48"
   d="m 285.36438,615.2536 c 20.89881,-5.8823 44.11339,-8.25751 65.90999,-6.53008 -21.97,2.1767 -43.94,4.35338 -65.90999,6.53008 z"
   fill="#ffffff" />
<path
   id="path50"
   d="m 285.36438,615.2536 c 20.89881,-5.8823 44.11339,-8.25751 65.90999,-6.53008"
   stroke-miterlimit="10"
   stroke-linecap="square"
   stroke-width="1.01685"
   stroke="#000000"
   fill="none" />
<path
   style="stroke-width:2.0337"
   id="path52"
   d="m 281.80167,680.55441 c 38.09955,19.61288 94.22162,32.71309 130.03866,3.91805 -43.34623,-1.30601 -86.69244,-2.61203 -130.03866,-3.91805 z"
   fill="#ffffff" />
<path
   id="path54"
   d="m 281.80167,680.55441 c 38.09955,19.61288 94.22162,32.71309 130.03866,3.91805"
   stroke-miterlimit="10"
   stroke-linecap="square"
   stroke-width="1.01685"
   stroke="#000000"
   fill="none" />
<path
   style="stroke-width:2.0337"
   id="path56"
   d="m 591.75682,653.12807 c 43.22983,6.0338 92.59939,5.9328 124.6946,-18.28423 -41.56486,6.09475 -83.12973,12.18949 -124.6946,18.28423 z"
   fill="#ffffff" />
<path
   id="path58"
   d="m 591.75682,653.12807 c 43.22983,6.0338 92.59939,5.9328 124.6946,-18.28423"
   stroke-miterlimit="10"
   stroke-linecap="square"
   stroke-width="1.01685"
   stroke="#000000"
   fill="none" />
<path
   id="path60"
   d="m 356.61843,307.03376 c -77.6693,-3.08916 -39.55787,49.04005 -30.28298,84.89106 49.87784,-7.83609 99.75569,-15.67219 149.63353,-23.5083 -7.7192,-26.12031 -15.43838,-52.24064 -23.15757,-78.36097 -32.06433,5.65941 -64.12865,11.31881 -96.19298,16.97821 z"
   stroke-miterlimit="10"
   stroke-linecap="square"
   stroke-width="1.01685"
   stroke="#000000"
   fill="#a09f9f" />
<path
   id="path62"
   d="m 479.53167,333.15408 c -39.63387,-4.11133 -51.84444,15.32915 -9.79743,24.81432 72.28012,16.30604 67.24959,-21.56146 9.79743,-24.81432 z"
   stroke-miterlimit="10"
   stroke-linecap="square"
   stroke-width="1.01685"
   stroke="#000000"
   fill="#3f3939" />
<path
   id="path64"
   d="m 504.47059,337.07213 c -51.23878,18.0474 -109.90225,79.667 -5.34405,79.667 83.45037,0 73.07816,-63.49329 5.34405,-79.667 z"
   stroke-miterlimit="10"
   stroke-linecap="square"
   stroke-width="1.01685"
   stroke="#000000"
   fill="#3f3939" />
<path
   id="path66"
   d="m 406.49627,346.21425 c -11.28189,1.74135 -22.56378,3.48272 -33.84567,5.22406 -6.80952,-10.38369 -13.35064,-34.20891 -12.46947,-45.71057 39.30137,-12.86687 48.24138,14.90774 46.31514,40.48651 z"
   stroke-miterlimit="10"
   stroke-linecap="square"
   stroke-width="1.01685"
   stroke="#000000"
   fill="#3f3939" />
<path
   id="path68"
   d="m 452.81141,322.70596 c -7.81183,-5.08128 -18.7897,6.42211 -17.81352,-10.44813 4.75027,-0.87067 9.50055,-1.74136 14.25081,-2.61204 1.18757,4.35339 2.37514,8.70677 3.56271,13.06017 z"
   stroke-miterlimit="10"
   stroke-linecap="square"
   stroke-width="1.01685"
   stroke="#000000"
   fill="#3f3939" />
<path
   id="path70"
   d="m 456.37411,343.60222 c -5.01628,-3.979 -15.54526,4.2193 -14.25081,-10.44814 3.5627,-0.43533 7.1254,-0.87067 10.68811,-1.30601 1.18756,3.91805 2.37514,7.8361 3.5627,11.75415 z"
   stroke-miterlimit="10"
   stroke-linecap="square"
   stroke-width="1.01685"
   stroke="#000000"
   fill="#3f3939" />
<path
   id="path72"
   d="m 509.81465,560.40092 c 19.05808,-16.23988 42.31304,-28.36842 71.25406,-30.03837"
   stroke-miterlimit="10"
   stroke-linecap="square"
   stroke-width="1.01685"
   stroke="#000000"
   fill="none" />
<path
   id="path74"
   d="m 693.29385,589.13327 c -21.50211,-2.48839 -41.34161,1.89286 -53.44054,13.06016"
   stroke-miterlimit="10"
   stroke-linecap="square"
   stroke-width="1.01685"
   stroke="#000000"
   fill="none" />
<path
   id="path76"
   d="m 607.78897,448.08351 c -22.70154,-3.17448 -43.81648,1.1702 -58.78459,13.06018"
   stroke-miterlimit="10"
   stroke-linecap="square"
   stroke-width="1.01685"
   stroke="#000000"
   fill="none" />
<path
   id="path78"
   d="m 271.11356,502.93621 c 16.59032,-7.42166 36.41557,-11.23871 55.22189,-10.44814"
   stroke-miterlimit="10"
   stroke-linecap="square"
   stroke-width="1.01685"
   stroke="#000000"
   fill="none" />
<path
   style="stroke-width:2.0337"
   id="path80"
   d="m 125.04275,483.34595 c 28.61562,-6.01985 59.84153,-5.86314 83.72352,7.83611 -27.90784,-2.61204 -55.81568,-5.22407 -83.72352,-7.83611 z"
   fill="#ffffff" />
<path
   id="path82"
   d="m 125.04275,483.34595 c 28.61562,-6.01985 59.84153,-5.86314 83.72352,7.83611"
   stroke-miterlimit="10"
   stroke-linecap="square"
   stroke-width="1.01685"
   stroke="#000000"
   fill="none" />
<path
   style="stroke-width:2.0337"
   id="path84"
   d="m 538.31627,313.56384 c 23.95087,5.76389 41.07322,17.95511 48.0965,35.26244 -16.03217,-11.75415 -32.06434,-23.50829 -48.0965,-35.26244 z"
   fill="#ffffff" />
<path
   id="path86"
   d="m 538.31627,313.56384 c 23.95087,5.76389 41.07322,17.95511 48.0965,35.26244"
   stroke-miterlimit="10"
   stroke-linecap="square"
   stroke-width="1.01685"
   stroke="#000000"
   fill="none" />
<path
   style="stroke-width:2.0337"
   id="path88"
   d="m 602.44493,372.33458 c -15.77802,3.71256 -23.84874,9.00281 -40.97108,6.53007 13.65465,-2.17668 27.35442,-4.23497 40.97108,-6.53007 z"
   fill="#ffffff" />
<path
   id="path90"
   d="m 602.44493,372.33458 c -12.53359,6.19225 -26.59439,8.60578 -40.97108,6.53007"
   stroke-miterlimit="10"
   stroke-linecap="square"
   stroke-width="1.01685"
   stroke="#000000"
   fill="none" />
<path
   id="path92"
   d="m 256.86275,260.01717 c -24.6349,61.37581 -143.86906,90.04199 -169.228381,15.6722 -13.502643,-39.59841 6.726383,-68.84273 38.299051,-98.60422 12.32696,-11.62006 22.19327,-31.56207 -2.67202,-38.52748 C 98.571867,131.641 78.9485,164.5857 68.039503,177.73816 17.510877,238.6525 8.0198362,333.27076 121.48005,359.27441 c 64.57755,14.80152 143.04251,-15.81673 169.22837,-61.38276 13.06801,-22.74035 10.56461,-68.29246 -33.84567,-37.87448 z"
   stroke-miterlimit="10"
   stroke-linecap="square"
   stroke-width="1.01685"
   stroke="#000000"
   fill="#ffffff" />
<path
   id="path94"
   d="M 495.56384,128.10954 C 531.25737,285.29468 210.92526,331.79931 169.57654,175.12612 127.53664,15.835671 436.02633,-23.679157 495.56384,128.10954 Z"
   stroke-miterlimit="10"
   stroke-linecap="square"
   stroke-width="1.01685"
   stroke="#000000"
   fill="#ffffff" />
<path
   style="stroke-width:2.0337"
   id="path96"
   d="m 383.33871,130.72156 c 11.57165,24.51655 -0.74104,57.05725 -39.18973,35.91546 -44.53379,-24.48868 -99.29966,26.61138 -142.50813,13.71316 -1.36332,70.40821 113.73099,87.69464 187.93258,67.91285 141.48206,-37.71949 21.01995,-140.47511 -6.23472,-117.54147 z"
   fill="#574c46" />
<path
   style="stroke-width:2.0337"
   id="path98"
   d="m 319.21006,101.98921 c -30.07872,5.77085 -166.22859,65.79535 -97.97434,84.89106 34.92399,9.77074 81.67853,-42.91744 130.03865,-16.3252 46.79017,25.72851 25.9341,-44.03017 44.53379,-48.97562 32.11658,-8.5396 62.62519,54.13003 76.59812,66.60683 25.09804,-65.96252 -83.48601,-93.704052 -153.19622,-86.19707 z"
   fill="#302c2d" />
<path
   style="stroke-width:2.0337"
   id="path100"
   d="m 340.58626,179.04417 c -3.84296,-3.99118 -18.6163,-3.98771 -16.03215,-20.89626 2.96892,-0.43533 5.93784,-0.87068 8.90676,-1.30602 2.37513,7.40076 4.75027,14.80152 7.12539,22.20228 z"
   fill="#ffffff" />
<path
   style="stroke-width:2.0337"
   id="path102"
   d="m 265.7695,176.43213 c -5.72407,-3.81182 -14.04891,5.19969 -14.25081,-7.8361 18.24343,-7.19179 7.01854,3.01778 14.25081,7.8361 z"
   fill="#ffffff" />
<path
   style="stroke-width:2.0337"
   id="path104"
   d="m 395.80816,130.72156 c -4.74552,-3.01776 -12.12743,4.78699 -10.68811,-6.53007 13.38389,-4.24717 5.01153,2.91851 10.68811,6.53007 z"
   fill="#ffffff" />
<path
   style="stroke-width:2.0337"
   id="path106"
   d="m 418.96574,128.10954 c -1.29446,-1.38264 -8.57187,0.6443 -7.12541,-7.8361 8.38897,-1.74136 3.06629,3.50535 7.12541,7.8361 z"
   fill="#ffffff" />
</svg>
