<?xml version="1.0" encoding="UTF-8" standalone="no"?>
<svg
   xmlns:dc="http://purl.org/dc/elements/1.1/"
   xmlns:cc="http://creativecommons.org/ns#"
   xmlns:rdf="http://www.w3.org/1999/02/22-rdf-syntax-ns#"
   xmlns:svg="http://www.w3.org/2000/svg"
   xmlns="http://www.w3.org/2000/svg"
   xmlns:sodipodi="http://sodipodi.sourceforge.net/DTD/sodipodi-0.dtd"
   xmlns:inkscape="http://www.inkscape.org/namespaces/inkscape"
   inkscape:version="1.0 (4035a4f, 2020-05-01)"
   sodipodi:docname="6.svg"
   xml:space="preserve"
   enable-background="new 0 0 822.05 841.89"
   viewBox="0 0 822.05 841.89"
   height="841.89px"
   width="822.05px"
   y="0px"
   x="0px"
   id="Layer_1"
   version="1.1"><metadata
   id="metadata43"><rdf:RDF><cc:Work
       rdf:about=""><dc:format>image/svg+xml</dc:format><dc:type
         rdf:resource="http://purl.org/dc/dcmitype/StillImage" /></cc:Work></rdf:RDF></metadata><defs
   id="defs41" /><sodipodi:namedview
   inkscape:current-layer="Layer_1"
   inkscape:window-maximized="0"
   inkscape:window-y="23"
   inkscape:window-x="0"
   inkscape:cy="420.94501"
   inkscape:cx="411.02499"
   inkscape:zoom="0.32308258"
   showgrid="false"
   id="namedview39"
   inkscape:window-height="480"
   inkscape:window-width="705"
   inkscape:pageshadow="2"
   inkscape:pageopacity="0"
   guidetolerance="10"
   gridtolerance="10"
   objecttolerance="10"
   borderopacity="1"
   bordercolor="#666666"
   pagecolor="#ffffff" />
<path
   style="stroke-width:1.71145"
   id="path10"
   d="M 505.60812,634.26628 C 455.23075,686.5661 228.57898,530.0184 263.24988,465.90788 c 37.43503,-69.2205 250.79976,96.67749 242.35824,168.3584 z"
   stroke-miterlimit="10"
   stroke-linecap="square"
   stroke="#0a0a0a"
   fill="#b9def9" />
<path
   style="stroke-width:1.71145"
   id="path12"
   d="M 684.58036,683.31558 C 598.88083,796.19437 57.494767,361.99936 127.77783,244.5232 193.93293,133.94752 727.83531,536.43988 684.58036,683.31558 Z"
   fill="#3d88c1" />
<path
   style="stroke-width:1.71145"
   id="path14"
   d="M 684.58036,683.31558 C 598.88083,796.19437 57.494767,361.99936 127.77783,244.5232 193.93293,133.94752 727.83531,536.43988 684.58036,683.31558 Z"
   stroke-miterlimit="10"
   stroke-linecap="square"
   stroke="#000000"
   fill="none" />
<path
   style="stroke-width:1.71145"
   id="path16"
   d="M 806.38092,731.03922 C 730.21829,809.27772 442.29669,563.44262 380.07897,515.74374 304.98354,458.17311 235.53569,393.70908 166.19057,328.61932 132.75922,297.24015 13.127879,188.33833 22.134491,133.16804 39.103711,29.227707 355.00463,259.77355 397.47905,290.92119 c 137.35126,100.71809 318.53912,231.19983 399.58039,391.73156 8.45976,16.75807 14.22995,30.6315 9.32148,48.38647 z"
   stroke-miterlimit="10"
   stroke-linecap="square"
   stroke="#000000"
   fill="#ffffff" />
<path
   style="stroke-width:1.71145"
   id="path18"
   d="M 766.60931,693.92083 C 674.1254,794.2377 11.6033,253.70028 74.334728,150.40157 136.03376,48.801471 787.31871,546.74466 766.60931,693.92083 Z"
   stroke-miterlimit="10"
   stroke-linecap="square"
   stroke="#0a0a0a"
   fill="#b9def9" />
<path
   style="stroke-width:1.71145"
   id="path20"
   d="m 209.80677,259.10542 c -12.13034,3.34065 -55.19471,-16.4894 -42.25733,-35.79273 13.12131,-19.57729 41.90436,22.26926 42.25733,35.79273 z"
   stroke-miterlimit="10"
   stroke-linecap="square"
   stroke="#000000"
   fill="#ffed43" />
<path
   style="stroke-width:1.71145"
   id="path22"
   d="m 294.32145,374.43756 c -12.53967,3.51917 -57.41033,-17.00552 -43.50021,-35.79273 14.65253,-19.79117 42.0154,22.30991 43.50021,35.79273 z"
   stroke-miterlimit="10"
   stroke-linecap="square"
   stroke="#000000"
   fill="#ffed43" />
<path
   style="stroke-width:1.71145"
   id="path24"
   d="m 428.55062,496.39798 c -11.51554,4.51077 -56.04648,-15.03471 -42.25733,-35.79273 13.22738,-19.91137 42.04356,23.32625 42.25733,35.79273 z"
   stroke-miterlimit="10"
   stroke-linecap="square"
   stroke="#000000"
   fill="#ffed43" />
<path
   style="stroke-width:1.71145"
   id="path26"
   d="m 603.79428,615.70708 c -13.24063,2.21297 -67.63328,-22.26572 -54.68597,-45.07232 12.39052,-21.82384 52.96088,32.39021 54.68597,45.07232 z"
   stroke-miterlimit="10"
   stroke-linecap="square"
   stroke="#000000"
   fill="#ffed43" />
<path
   style="stroke-width:1.71145"
   id="path28"
   d="m 688.30896,611.73012 c -13.73447,5.19481 -66.96546,-21.58346 -54.68597,-43.74668 11.88176,-21.44559 52.57973,31.76098 54.68597,43.74668 z"
   stroke-miterlimit="10"
   stroke-linecap="square"
   stroke="#000000"
   fill="#ffed43" />
<path
   style="stroke-width:1.71145"
   id="path30"
   d="m 309.2358,282.96724 c -11.42439,4.47366 -56.2702,-15.25566 -42.25734,-35.79273 13.30527,-19.50129 41.94911,23.67799 42.25734,35.79273 z"
   stroke-miterlimit="10"
   stroke-linecap="square"
   stroke="#000000"
   fill="#ffed43" />
<path
   style="stroke-width:1.71145"
   id="path32"
   d="m 587.63706,499.0493 c -12.43194,3.54568 -55.94705,-15.92026 -42.25733,-35.79274 13.79412,-20.02625 42.48105,21.60467 42.25733,35.79274 z"
   stroke-miterlimit="10"
   stroke-linecap="square"
   stroke="#000000"
   fill="#f9f998" />
<path
   style="stroke-width:1.71145"
   id="path34"
   d="m 555.32263,542.79597 c 177.36149,-100.3257 -9.61975,-304.90105 -142.92756,-304.90105 -59.18181,0 -107.32535,51.08197 -98.80925,114.6693 10.56599,78.89249 182.75385,162.51138 241.73681,190.23175 z"
   fill="#3d88c1" />
<path
   style="stroke-width:1.71145"
   id="path36"
   d="m 555.32263,542.79597 c 177.36149,-100.3257 -9.61975,-304.90105 -142.92756,-304.90105 -59.18181,0 -107.32535,51.08197 -98.80925,114.6693 10.56599,78.89249 182.75385,162.51138 241.73681,190.23175 z"
   stroke-miterlimit="10"
   stroke-linecap="square"
   stroke="#000000"
   fill="none" />
</svg>
