<?xml version="1.0" encoding="UTF-8" standalone="no"?>
<svg
   xmlns:dc="http://purl.org/dc/elements/1.1/"
   xmlns:cc="http://creativecommons.org/ns#"
   xmlns:rdf="http://www.w3.org/1999/02/22-rdf-syntax-ns#"
   xmlns:svg="http://www.w3.org/2000/svg"
   xmlns="http://www.w3.org/2000/svg"
   xmlns:sodipodi="http://sodipodi.sourceforge.net/DTD/sodipodi-0.dtd"
   xmlns:inkscape="http://www.inkscape.org/namespaces/inkscape"
   sodipodi:docname="7.svg"
   viewBox="0 0 637.79498 637.79498"
   height="637.79498"
   width="637.79498"
   xml:space="preserve"
   inkscape:version="1.0 (4035a4f, 2020-05-01)"
   version="1.1"
   id="svg2"><metadata
     id="metadata8"><rdf:RDF><cc:Work
         rdf:about=""><dc:format>image/svg+xml</dc:format><dc:type
           rdf:resource="http://purl.org/dc/dcmitype/StillImage" /><dc:title /></cc:Work></rdf:RDF></metadata><defs
     id="defs6"><clipPath
       id="clipPath16"
       clipPathUnits="userSpaceOnUse"><path
         inkscape:connector-curvature="0"
         id="path18"
         d="m 0,510.236 510.236,0 L 510.236,0 0,0 0,510.236 Z" /></clipPath></defs><sodipodi:namedview
     inkscape:document-rotation="0"
     inkscape:current-layer="g10"
     inkscape:window-maximized="1"
     inkscape:window-y="23"
     inkscape:window-x="0"
     inkscape:cy="318.89749"
     inkscape:cx="318.89749"
     inkscape:zoom="0.87175349"
     showgrid="false"
     id="namedview4"
     inkscape:window-height="764"
     inkscape:window-width="1440"
     inkscape:pageshadow="2"
     inkscape:pageopacity="0"
     guidetolerance="10"
     gridtolerance="10"
     objecttolerance="10"
     borderopacity="1"
     bordercolor="#666666"
     pagecolor="#ffffff" /><g
     transform="matrix(1.25,0,0,-1.25,0,637.795)"
     inkscape:label="Cartoon alien"
     inkscape:groupmode="layer"
     id="g10"><g
       transform="matrix(2.1595441,0,0,1.4531327,-280.67947,-116.06092)"
       id="g12"><g
         clip-path="url(#clipPath16)"
         id="g14"><g
           transform="translate(323.1016,171.9297)"
           id="g20"><path
             inkscape:connector-curvature="0"
             id="path22"
             style="fill:#d1d3d4;fill-opacity:1;fill-rule:nonzero;stroke:none"
             d="m 0,0 c -1.334,-3.735 -4.408,-6.051 -6.867,-5.175 l -22.524,8.049 c -2.457,0.878 -3.367,4.619 -2.035,8.354 1.336,3.736 4.41,6.05 6.869,5.173 L -2.037,8.354 C 0.424,7.475 1.334,3.734 0,0" /></g><g
           transform="translate(323.1016,171.9297)"
           id="g24"><path
             inkscape:connector-curvature="0"
             id="path26"
             style="fill:#636466;fill-opacity:1;fill-rule:nonzero;stroke:none"
             d="m 0,0 -2.002,0.715 c -0.461,-1.296 -1.184,-2.356 -1.924,-3.028 -0.367,-0.337 -0.734,-0.579 -1.056,-0.723 -0.323,-0.147 -0.592,-0.198 -0.801,-0.198 -0.139,10e-4 -0.256,0.021 -0.371,0.062 l 0.011,-0.005 -22.531,8.053 c -0.14,0.051 -0.26,0.122 -0.392,0.245 -0.196,0.181 -0.413,0.493 -0.579,0.957 -0.164,0.46 -0.269,1.059 -0.269,1.736 0,0.822 0.154,1.755 0.49,2.699 0.461,1.296 1.186,2.354 1.924,3.027 0.367,0.338 0.736,0.578 1.057,0.724 0.324,0.146 0.593,0.197 0.8,0.197 0.141,0 0.256,-0.021 0.372,-0.062 L -2.752,6.353 c 0.139,-0.051 0.26,-0.124 0.393,-0.246 0.197,-0.181 0.414,-0.495 0.578,-0.958 0.164,-0.46 0.269,-1.058 0.269,-1.736 0,-0.82 -0.152,-1.754 -0.49,-2.697 L 0,0 2.002,-0.716 C 2.498,0.674 2.74,2.074 2.74,3.413 2.738,4.887 2.451,6.295 1.807,7.534 1.484,8.152 1.066,8.727 0.541,9.216 0.02,9.705 -0.615,10.104 -1.32,10.356 l -22.52,8.047 c -0.59,0.211 -1.203,0.311 -1.803,0.31 -0.9,0 -1.765,-0.219 -2.554,-0.576 -1.188,-0.541 -2.227,-1.39 -3.11,-2.442 -0.882,-1.054 -1.609,-2.323 -2.121,-3.753 -0.494,-1.388 -0.736,-2.789 -0.738,-4.128 0.004,-1.472 0.289,-2.881 0.934,-4.121 0.322,-0.617 0.74,-1.192 1.265,-1.681 0.522,-0.49 1.154,-0.889 1.862,-1.14 l 22.521,-8.049 0.004,-0.001 c 0.586,-0.209 1.197,-0.308 1.797,-0.308 0.902,10e-4 1.765,0.218 2.556,0.577 1.188,0.541 2.227,1.389 3.11,2.441 0.883,1.055 1.607,2.323 2.119,3.753 z" /></g><g
           transform="translate(327.9707,138.3848)"
           id="g28"><path
             inkscape:connector-curvature="0"
             id="path30"
             style="fill:#d1d3d4;fill-opacity:1;fill-rule:nonzero;stroke:none"
             d="m 0,0 c -4.477,-0.523 -8.531,2.68 -9.053,7.156 l -4.789,41.003 c -0.521,4.475 2.684,8.529 7.16,9.051 4.475,0.522 8.53,-2.683 9.051,-7.159 l 4.787,-41 C 7.68,4.573 4.475,0.522 0,0" /></g><g
           transform="translate(327.9707,138.3848)"
           id="g32"><path
             inkscape:connector-curvature="0"
             id="path34"
             style="fill:#636466;fill-opacity:1;fill-rule:nonzero;stroke:none"
             d="M 0,0 -0.246,2.111 C -0.486,2.084 -0.723,2.07 -0.957,2.07 c -1.508,0 -2.912,0.563 -3.99,1.515 -1.076,0.955 -1.813,2.274 -1.994,3.817 l -4.789,41.004 c -0.028,0.24 -0.041,0.476 -0.041,0.709 0,1.507 0.564,2.91 1.515,3.989 0.957,1.078 2.277,1.814 3.82,1.995 0.241,0.027 0.477,0.041 0.709,0.041 1.506,0 2.911,-0.564 3.989,-1.516 1.078,-0.956 1.814,-2.276 1.996,-3.819 l 4.787,-41 C 5.072,8.564 5.086,8.327 5.086,8.093 5.086,6.586 4.523,5.184 3.57,4.105 2.617,3.028 1.297,2.293 -0.246,2.111 L 0,0 0.246,-2.111 c 2.611,0.303 4.897,1.572 6.51,3.4 1.617,1.825 2.582,4.228 2.582,6.804 0,0.398 -0.022,0.801 -0.07,1.205 l -4.788,41 c -0.302,2.611 -1.574,4.898 -3.402,6.512 -1.826,1.616 -4.228,2.582 -6.805,2.582 -0.398,0 -0.798,-0.023 -1.203,-0.071 -2.611,-0.302 -4.898,-1.573 -6.511,-3.401 -1.616,-1.826 -2.582,-4.229 -2.582,-6.805 0,-0.398 0.023,-0.8 0.07,-1.202 l 4.789,-41.004 c 0.303,-2.611 1.572,-4.897 3.402,-6.51 1.826,-1.615 4.229,-2.581 6.805,-2.581 0.398,0 0.801,0.023 1.205,0.071 z" /></g><g
           transform="translate(329.0801,124.9824)"
           id="g36"><path
             inkscape:connector-curvature="0"
             id="path38"
             style="fill:#d1d3d4;fill-opacity:1;fill-rule:nonzero;stroke:none"
             d="m 0,0 c -12.354,-1.442 -23.066,3.364 -23.926,10.738 -0.861,7.37 8.453,14.517 20.807,15.959 C 9.234,28.142 19.947,23.332 20.807,15.961 21.668,8.589 12.352,1.442 0,0" /></g><g
           transform="translate(329.0801,124.9824)"
           id="g40"><path
             inkscape:connector-curvature="0"
             id="path42"
             style="fill:#636466;fill-opacity:1;fill-rule:nonzero;stroke:none"
             d="M 0,0 -0.246,2.111 C -1.643,1.948 -3.016,1.87 -4.35,1.87 c -4.906,-0.005 -9.291,1.076 -12.384,2.797 -1.547,0.856 -2.768,1.865 -3.614,2.934 -0.845,1.074 -1.324,2.186 -1.466,3.383 -0.028,0.236 -0.041,0.469 -0.041,0.703 0,1.294 0.41,2.622 1.267,3.977 1.275,2.026 3.586,4.047 6.656,5.645 3.067,1.602 6.871,2.789 11.059,3.277 1.398,0.163 2.771,0.241 4.105,0.241 4.907,0.005 9.289,-1.075 12.383,-2.796 1.549,-0.857 2.77,-1.866 3.614,-2.934 0.845,-1.074 1.324,-2.186 1.466,-3.382 0.028,-0.235 0.041,-0.469 0.041,-0.702 C 18.734,13.718 18.326,12.39 17.469,11.034 16.191,9.007 13.881,6.986 10.813,5.389 7.746,3.786 3.941,2.6 -0.248,2.111 L 0,0 0.246,-2.111 c 6.236,0.732 11.766,2.822 15.863,5.777 2.047,1.48 3.741,3.185 4.952,5.093 1.209,1.902 1.929,4.035 1.927,6.254 0,0.396 -0.023,0.796 -0.07,1.195 -0.236,2.047 -1.09,3.932 -2.355,5.527 -1.909,2.401 -4.702,4.205 -8.012,5.444 -3.319,1.234 -7.18,1.899 -11.319,1.9 -1.5,0 -3.037,-0.088 -4.597,-0.27 -6.239,-0.733 -11.768,-2.823 -15.864,-5.777 -2.046,-1.481 -3.74,-3.184 -4.951,-5.093 -1.209,-1.901 -1.929,-4.034 -1.927,-6.252 0,-0.398 0.023,-0.797 0.07,-1.196 0.236,-2.048 1.088,-3.932 2.355,-5.528 1.909,-2.401 4.702,-4.205 8.014,-5.443 3.316,-1.236 7.18,-1.9 11.318,-1.902 1.5,0 3.037,0.088 4.596,0.271 z" /></g><g
           transform="translate(329.0801,124.9824)"
           id="g44"><path
             inkscape:connector-curvature="0"
             id="path46"
             style="fill:#d1d3d4;fill-opacity:1;fill-rule:nonzero;stroke:none"
             d="m 0,0 c -10.893,-1.273 -20.229,2.03 -20.854,7.375 -0.623,5.348 7.7,10.712 18.594,11.983 C 8.631,20.63 17.967,17.328 18.592,11.983 19.215,6.636 10.891,1.271 0,0" /></g><g
           transform="translate(330.5938,112.0127)"
           id="g48"><path
             inkscape:connector-curvature="0"
             id="path50"
             style="fill:#d1d3d4;fill-opacity:1;fill-rule:nonzero;stroke:none"
             d="M 0,0 7.061,24.809" /></g><g
           transform="translate(318.0059,134.5273)"
           id="g52"><path
             inkscape:connector-curvature="0"
             id="path54"
             style="fill:#d1d3d4;fill-opacity:1;fill-rule:nonzero;stroke:none"
             d="M 0,0 12.588,-22.515" /></g><g
           transform="translate(344.5801,133.9014)"
           id="g56"><path
             inkscape:connector-curvature="0"
             id="path58"
             style="fill:#636466;fill-opacity:1;fill-rule:nonzero;stroke:none"
             d="m 0,0 c -1.066,-1.42 -3.121,-2.96 -5.863,-4.188 -0.323,-0.146 -0.656,-0.287 -0.995,-0.423 l 1.977,6.949 -4.09,1.164 -2.736,-9.617 c -1.289,-0.295 -2.641,-0.53 -4.039,-0.693 l 0.246,-2.111 -0.248,2.111 c -1.401,-0.164 -2.771,-0.24 -4.095,-0.25 l -4.876,8.721 -3.711,-2.074 3.523,-6.301 c -2.154,0.328 -4.048,0.867 -5.532,1.56 -1.256,0.58 -2.213,1.259 -2.827,1.927 -0.617,0.676 -0.898,1.292 -0.976,1.928 -0.012,0.107 -0.018,0.212 -0.018,0.318 0,0.718 0.278,1.548 0.998,2.5 1.067,1.419 3.121,2.96 5.864,4.188 2.738,1.235 6.146,2.184 9.884,2.619 1.496,0.175 2.959,0.258 4.366,0.258 4.15,0.005 7.816,-0.742 10.326,-1.913 1.256,-0.58 2.213,-1.26 2.826,-1.928 C 0.623,4.069 0.902,3.453 0.98,2.817 L 0.979,2.844 0.98,2.819 C 0.992,2.713 0.998,2.606 0.998,2.5 0.998,1.782 0.721,0.952 0,0 m -14.213,-14.919 c -0.194,-0.007 -0.389,-0.011 -0.582,-0.034 -0.196,-0.023 -0.39,-0.057 -0.58,-0.095 l -2.136,3.819 c 0.745,0.047 1.496,0.11 2.257,0.199 0.76,0.089 1.505,0.201 2.24,0.326 z M 5.203,3.31 v 0.003 0 10e-4 L 5.201,3.336 5.203,3.315 C 5.014,4.962 4.23,6.444 3.127,7.63 c -1.664,1.788 -4.01,3.035 -6.783,3.898 -2.778,0.857 -6.006,1.309 -9.492,1.31 -1.575,0 -3.2,-0.093 -4.86,-0.287 -5.525,-0.65 -10.439,-2.278 -14.121,-4.536 -1.84,-1.135 -3.381,-2.43 -4.517,-3.919 -1.129,-1.482 -1.866,-3.214 -1.866,-5.075 0,-0.27 0.016,-0.541 0.047,-0.811 0.19,-1.649 0.973,-3.133 2.074,-4.319 1.664,-1.787 4.012,-3.036 6.784,-3.899 2.166,-0.668 4.611,-1.081 7.233,-1.235 l 3.289,-5.883 c -0.043,-0.046 -0.09,-0.089 -0.132,-0.137 -1.097,-1.238 -1.754,-2.871 -1.754,-4.622 0,-0.268 0.016,-0.54 0.047,-0.811 v -0.002 c 0.207,-1.772 1.07,-3.327 2.311,-4.421 1.238,-1.097 2.869,-1.754 4.619,-1.754 0.271,0 0.545,0.016 0.818,0.048 1.772,0.205 3.328,1.068 4.422,2.308 1.096,1.24 1.754,2.871 1.754,4.621 0,0.271 -0.016,0.543 -0.049,0.818 -0.205,1.771 -1.07,3.327 -2.31,4.421 -0.24,0.211 -0.497,0.401 -0.763,0.578 l 1.846,6.484 c 2.684,0.805 5.107,1.852 7.143,3.102 1.84,1.134 3.381,2.43 4.518,3.919 C 4.514,-1.093 5.25,0.64 5.25,2.5 5.25,2.769 5.236,3.039 5.203,3.31" /></g><g
           transform="translate(305.9219,211.2539)"
           id="g60"><path
             inkscape:connector-curvature="0"
             id="path62"
             style="fill:#2bb673;fill-opacity:1;fill-rule:nonzero;stroke:none"
             d="M 0,0 C -3.092,13.241 -10.141,37.25 -23.557,47.5 -36.24,57.19 -50.773,62.057 -60.06,61.42 -69.347,62.057 -83.879,57.19 -96.563,47.5 -109.979,37.25 -117.028,13.241 -120.12,0 c -1.885,-8.074 -7.707,-38.275 0.52,-39.362 18.928,-2.5 24.761,76.958 36.14,56.362 4.42,-8 5.46,-89.75 -6.552,-114.5 -2.821,-5.814 -27.036,-7.425 -28.496,-13.5 -1.123,-4.674 2.706,-11.942 8.32,-13.5 11.084,-3.074 34.46,5.403 40.768,15 8.1,12.322 5.445,51.309 9.36,53 3.914,-1.691 1.26,-40.678 9.36,-53 6.307,-9.597 29.684,-18.074 40.768,-15 5.614,1.558 9.444,8.826 8.321,13.5 -1.461,6.075 -25.676,7.686 -28.496,13.5 C -42.119,-72.75 -41.08,9 -36.66,17 -25.281,37.596 -19.449,-41.862 -0.52,-39.362 7.707,-38.275 1.885,-8.074 0,0" /></g><g
           transform="translate(305.9219,211.2539)"
           id="g64"><path
             inkscape:connector-curvature="0"
             id="path66"
             style="fill:#004928;fill-opacity:1;fill-rule:nonzero;stroke:none"
             d="m 0,0 2.07,0.483 c -1.564,6.694 -4.123,16.11 -8.021,25.225 -1.953,4.559 -4.24,9.045 -6.93,13.086 -2.691,4.039 -5.783,7.642 -9.385,10.395 -6.138,4.69 -12.687,8.275 -18.931,10.703 -6.248,2.424 -12.179,3.704 -17.194,3.71 -0.618,0 -1.223,-0.02 -1.815,-0.061 l 0.146,-2.121 0.146,2.121 c -0.591,0.041 -1.196,0.061 -1.815,0.061 -5.014,-0.006 -10.946,-1.286 -17.194,-3.71 -6.244,-2.428 -12.792,-6.013 -18.931,-10.703 -3.601,-2.753 -6.694,-6.356 -9.385,-10.395 -4.033,-6.062 -7.168,-13.124 -9.608,-19.932 -2.437,-6.806 -4.171,-13.359 -5.343,-18.379 -0.587,-2.518 -1.536,-7.071 -2.342,-12.257 -0.807,-5.189 -1.474,-10.992 -1.476,-16.056 0.006,-3.25 0.259,-6.187 1.042,-8.61 0.399,-1.211 0.935,-2.318 1.763,-3.243 0.413,-0.46 0.905,-0.868 1.471,-1.179 0.563,-0.313 1.199,-0.523 1.854,-0.608 0.385,-0.051 0.769,-0.076 1.149,-0.076 1.338,-0.002 2.633,0.317 3.814,0.873 2.221,1.051 4.058,2.857 5.714,5.091 2.887,3.923 5.273,9.285 7.46,15.182 3.264,8.835 6.021,18.879 8.632,26.632 1.299,3.87 2.575,7.171 3.768,9.352 0.59,1.088 1.167,1.886 1.6,2.303 0.214,0.211 0.385,0.323 0.474,0.367 l 0.08,0.032 0.004,10e-4 -0.009,0.075 v -0.075 h 0.009 l -0.009,0.075 v -0.075 0.049 l -0.011,-0.049 h 0.011 v 0.049 l -0.011,-0.049 c 0.005,-10e-4 0.048,-0.01 0.142,-0.068 0.142,-0.084 0.392,-0.288 0.697,-0.659 0.305,-0.37 0.663,-0.898 1.044,-1.588 0.086,-0.146 0.281,-0.632 0.46,-1.32 0.323,-1.213 0.65,-3.062 0.936,-5.368 0.865,-6.934 1.405,-18.012 1.403,-30.519 0.001,-13.632 -0.635,-28.996 -2.144,-42.712 -0.755,-6.857 -1.728,-13.302 -2.939,-18.895 -1.209,-5.591 -2.669,-10.336 -4.32,-13.729 -0.086,-0.203 -0.469,-0.662 -1.227,-1.151 -1.312,-0.871 -3.59,-1.779 -6.209,-2.612 -3.944,-1.267 -8.661,-2.43 -12.623,-3.815 -1.988,-0.7 -3.79,-1.446 -5.291,-2.381 -0.751,-0.471 -1.433,-0.992 -2.015,-1.632 -0.577,-0.636 -1.065,-1.417 -1.286,-2.341 -0.176,-0.734 -0.255,-1.486 -0.255,-2.243 0.013,-2.831 1.053,-5.753 2.775,-8.276 0.867,-1.259 1.913,-2.415 3.133,-3.374 1.22,-0.958 2.617,-1.722 4.166,-2.153 1.819,-0.503 3.823,-0.717 5.957,-0.718 3.217,10e-4 6.736,0.492 10.321,1.344 5.376,1.282 10.899,3.383 15.67,5.991 2.385,1.306 4.583,2.74 6.483,4.282 1.897,1.544 3.504,3.193 4.681,4.982 1.166,1.778 2.068,3.901 2.819,6.273 1.307,4.15 2.147,9.081 2.761,14.205 0.914,7.679 1.3,15.796 1.78,22.077 0.238,3.134 0.504,5.818 0.843,7.67 0.166,0.921 0.359,1.637 0.514,2.019 0.038,0.095 0.073,0.167 0.097,0.214 l 0.035,0.062 -0.16,0.107 0.147,-0.123 0.013,0.016 -0.16,0.107 0.147,-0.123 -0.831,0.689 0.422,-0.976 c 0.258,0.113 0.378,0.249 0.409,0.287 l -0.831,0.689 0.422,-0.976 -0.843,1.951 -0.843,-1.951 0.439,1.016 -0.837,-0.744 c 0.044,-0.048 0.165,-0.172 0.398,-0.272 l 0.439,1.016 -0.837,-0.744 0.341,0.303 -0.362,-0.276 0.021,-0.027 0.341,0.303 -0.362,-0.276 0.055,0.042 -0.058,-0.038 0.003,-0.004 0.055,0.042 -0.058,-0.038 c 0.019,-0.021 0.154,-0.28 0.276,-0.692 0.24,-0.777 0.482,-2.071 0.681,-3.673 0.355,-2.812 0.616,-6.601 0.897,-10.82 0.424,-6.335 0.899,-13.65 1.878,-20.36 0.49,-3.357 1.107,-6.563 1.923,-9.445 0.819,-2.882 1.826,-5.443 3.193,-7.53 1.574,-2.383 3.899,-4.527 6.678,-6.487 4.17,-2.931 9.391,-5.427 14.766,-7.224 5.377,-1.791 10.888,-2.883 15.713,-2.888 2.132,10e-4 4.136,0.215 5.957,0.718 1.549,0.431 2.945,1.195 4.164,2.153 1.83,1.441 3.275,3.315 4.293,5.333 1.013,2.022 1.611,4.192 1.617,6.317 -0.002,0.757 -0.08,1.509 -0.256,2.243 -0.168,0.701 -0.494,1.328 -0.891,1.861 -0.755,1.002 -1.738,1.728 -2.847,2.375 -1.944,1.119 -4.354,1.99 -6.967,2.818 -3.908,1.231 -8.271,2.331 -11.777,3.535 -1.748,0.599 -3.28,1.226 -4.375,1.849 -0.547,0.308 -0.983,0.614 -1.28,0.88 -0.3,0.268 -0.455,0.488 -0.513,0.613 -1.651,3.394 -3.112,8.139 -4.321,13.73 -1.818,8.391 -3.095,18.693 -3.91,29.438 -0.816,10.747 -1.174,21.944 -1.174,32.169 0,9.533 0.311,18.225 0.844,24.899 0.266,3.335 0.59,6.168 0.947,8.318 0.178,1.075 0.366,1.979 0.549,2.67 0.18,0.688 0.375,1.174 0.461,1.32 0.578,1.053 1.111,1.724 1.469,2.04 0.18,0.16 0.307,0.232 0.365,0.258 l 0.049,0.017 -0.012,0.049 v -0.049 h 0.012 l -0.012,0.049 v -0.049 0.046 l -0.01,-0.046 h 0.01 v 0.046 l -0.01,-0.046 c 0.006,-10e-4 0.051,-0.011 0.151,-0.069 0.189,-0.11 0.551,-0.424 0.955,-0.963 0.769,-1.007 1.676,-2.741 2.58,-4.932 1.596,-3.842 3.25,-9.086 4.998,-14.752 2.633,-8.509 5.483,-17.969 8.945,-25.459 1.741,-3.748 3.621,-7.013 5.836,-9.473 1.112,-1.228 2.315,-2.259 3.662,-3.002 1.342,-0.744 2.848,-1.186 4.418,-1.183 0.383,0 0.766,0.025 1.151,0.076 0.656,0.085 1.291,0.295 1.855,0.608 0.994,0.549 1.739,1.378 2.287,2.293 0.821,1.383 1.278,2.998 1.577,4.801 0.293,1.805 0.41,3.807 0.412,5.938 -0.002,5.064 -0.67,10.867 -1.477,16.056 C 3.605,-6.587 2.658,-2.035 2.07,0.483 L 0,0 -2.07,-0.483 C -1.51,-2.888 -0.576,-7.37 0.211,-12.428 1,-17.483 1.639,-23.136 1.637,-27.83 c 0.006,-2.998 -0.278,-5.616 -0.832,-7.29 -0.272,-0.838 -0.604,-1.417 -0.881,-1.717 -0.139,-0.153 -0.258,-0.243 -0.365,-0.303 -0.11,-0.058 -0.209,-0.094 -0.358,-0.115 -0.203,-0.026 -0.4,-0.039 -0.594,-0.039 -0.675,0.002 -1.318,0.15 -2.005,0.471 -1.284,0.593 -2.706,1.868 -4.102,3.767 -2.455,3.313 -4.781,8.41 -6.891,14.13 -3.179,8.594 -5.925,18.587 -8.589,26.515 -1.34,3.972 -2.647,7.42 -4.067,10.031 -0.717,1.308 -1.455,2.415 -2.357,3.305 -0.453,0.442 -0.955,0.834 -1.543,1.13 -0.584,0.295 -1.27,0.485 -1.981,0.484 -0.609,10e-4 -1.22,-0.14 -1.765,-0.384 -0.823,-0.369 -1.502,-0.936 -2.114,-1.623 -0.613,-0.691 -1.168,-1.517 -1.714,-2.504 -0.368,-0.677 -0.61,-1.404 -0.848,-2.285 -0.404,-1.531 -0.742,-3.512 -1.045,-5.932 -0.902,-7.245 -1.436,-18.406 -1.438,-31.046 0,-13.765 0.639,-29.25 2.172,-43.177 0.766,-6.965 1.756,-13.539 3.01,-19.33 1.258,-5.794 2.766,-10.797 4.649,-14.686 0.621,-1.252 1.611,-2.114 2.722,-2.85 1.961,-1.274 4.475,-2.21 7.242,-3.105 4.137,-1.324 8.838,-2.488 12.514,-3.779 1.832,-0.639 3.404,-1.318 4.441,-1.972 0.52,-0.324 0.899,-0.637 1.122,-0.885 0.224,-0.25 0.283,-0.405 0.3,-0.478 0.09,-0.367 0.139,-0.788 0.137,-1.249 0.014,-1.731 -0.728,-3.998 -2.025,-5.867 -0.645,-0.939 -1.416,-1.781 -2.258,-2.441 -0.842,-0.662 -1.748,-1.14 -2.674,-1.397 -1.332,-0.371 -2.979,-0.565 -4.82,-0.564 -2.784,-0.001 -6.01,0.435 -9.336,1.229 -4.994,1.187 -10.217,3.177 -14.615,5.585 -2.198,1.202 -4.19,2.509 -5.842,3.851 -1.653,1.34 -2.959,2.72 -3.811,4.018 -0.858,1.302 -1.646,3.093 -2.316,5.218 -1.178,3.721 -2.001,8.447 -2.593,13.427 -0.893,7.478 -1.278,15.525 -1.764,21.897 -0.244,3.192 -0.507,5.956 -0.898,8.109 -0.2,1.082 -0.422,2.008 -0.751,2.837 -0.168,0.416 -0.361,0.813 -0.65,1.209 -0.287,0.389 -0.692,0.811 -1.321,1.086 l -0.843,0.365 -0.843,-0.365 c -0.477,-0.207 -0.83,-0.509 -1.094,-0.805 -0.505,-0.582 -0.759,-1.163 -0.99,-1.791 -0.414,-1.172 -0.675,-2.575 -0.91,-4.273 -0.402,-2.959 -0.668,-6.777 -0.955,-11.033 -0.426,-6.377 -0.892,-13.723 -1.837,-20.32 -0.472,-3.296 -1.065,-6.404 -1.816,-9.083 -0.747,-2.679 -1.666,-4.926 -2.691,-6.478 -1.133,-1.733 -3.083,-3.602 -5.571,-5.346 -3.728,-2.626 -8.636,-4.992 -13.666,-6.668 -5.025,-1.681 -10.19,-2.674 -14.366,-2.669 -1.844,-0.001 -3.488,0.193 -4.82,0.564 -0.928,0.257 -1.833,0.735 -2.675,1.397 -1.263,0.99 -2.365,2.394 -3.122,3.903 -0.763,1.505 -1.167,3.109 -1.162,4.405 0,0.461 0.049,0.882 0.137,1.249 0.014,0.058 0.049,0.156 0.168,0.316 0.214,0.299 0.749,0.767 1.565,1.234 1.424,0.829 3.629,1.663 6.116,2.443 3.741,1.182 8.121,2.282 11.878,3.568 1.883,0.648 3.613,1.337 5.089,2.169 0.738,0.418 1.416,0.873 2.019,1.41 0.598,0.536 1.132,1.16 1.507,1.929 1.883,3.889 3.392,8.892 4.65,14.686 1.881,8.685 3.169,19.138 3.995,30.015 0.826,10.876 1.185,22.168 1.185,32.492 0,9.628 -0.312,18.407 -0.857,25.237 -0.272,3.417 -0.603,6.345 -0.99,8.678 -0.195,1.168 -0.403,2.186 -0.635,3.063 -0.238,0.881 -0.479,1.608 -0.848,2.285 -0.73,1.314 -1.467,2.349 -2.351,3.149 -0.443,0.396 -0.93,0.734 -1.477,0.978 -0.545,0.244 -1.155,0.385 -1.765,0.384 -0.578,10e-4 -1.141,-0.124 -1.642,-0.33 -0.977,-0.406 -1.726,-1.064 -2.389,-1.825 -1.231,-1.437 -2.233,-3.341 -3.244,-5.657 -1.75,-4.044 -3.433,-9.353 -5.212,-15.091 -2.658,-8.595 -5.523,-18.149 -8.837,-25.4 -1.648,-3.622 -3.421,-6.657 -5.204,-8.654 -0.888,-1.001 -1.771,-1.736 -2.602,-2.2 -0.837,-0.465 -1.602,-0.673 -2.407,-0.676 -0.193,0 -0.39,0.013 -0.592,0.039 -0.148,0.021 -0.249,0.057 -0.358,0.115 -0.183,0.101 -0.425,0.31 -0.694,0.757 -0.403,0.659 -0.79,1.819 -1.027,3.301 -0.244,1.482 -0.357,3.282 -0.356,5.252 -0.002,4.694 0.637,10.346 1.425,15.402 0.786,5.057 1.72,9.54 2.281,11.945 1.529,6.547 4.04,15.756 7.791,24.518 1.874,4.38 4.058,8.646 6.56,12.403 2.5,3.758 5.319,7.001 8.427,9.373 5.807,4.438 12.028,7.84 17.889,10.118 5.858,2.281 11.369,3.425 15.654,3.421 0.528,0 1.036,-0.017 1.524,-0.051 l 0.145,-0.01 0.146,0.01 c 0.487,0.034 0.996,0.051 1.523,0.051 4.285,0.004 9.797,-1.14 15.655,-3.421 5.861,-2.278 12.08,-5.68 17.888,-10.118 3.108,-2.372 5.928,-5.615 8.428,-9.373 3.754,-5.635 6.785,-12.416 9.145,-19.009 2.361,-6.594 4.058,-13.001 5.205,-17.912 z" /></g><g
           transform="translate(244.8623,255.543)"
           id="g68"><path
             inkscape:connector-curvature="0"
             id="path70"
             style="fill:#2bb673;fill-opacity:1;fill-rule:nonzero;stroke:none"
             d="m 0,0 c -25,-1.36 -61.634,42.928 -69.853,59.498 -8.675,17.492 -20.338,52.228 -11.647,69.712 10.887,21.901 54,39.394 81.5,39.369 27.499,0.025 70.612,-17.468 81.499,-39.369 C 90.19,111.726 78.528,76.99 69.853,59.498 61.634,42.928 24.999,-1.36 0,0" /></g><g
           transform="translate(244.8623,255.543)"
           id="g72"><path
             inkscape:connector-curvature="0"
             id="path74"
             style="fill:#004928;fill-opacity:1;fill-rule:nonzero;stroke:none"
             d="M 0,0 -0.115,2.123 C -0.453,2.104 -0.795,2.095 -1.14,2.095 c -2.811,-0.001 -5.864,0.613 -9.068,1.764 -5.607,2.009 -11.65,5.665 -17.611,10.264 -8.949,6.895 -17.723,15.889 -24.882,24.464 -3.581,4.288 -6.761,8.471 -9.363,12.227 -2.602,3.754 -4.627,7.093 -5.884,9.629 -3.199,6.448 -6.843,15.359 -9.668,24.832 -2.828,9.472 -4.829,19.524 -4.825,28.193 -0.004,5.751 0.884,10.867 2.844,14.796 2.515,5.072 7.027,10.078 12.859,14.66 8.74,6.88 20.404,12.802 32.391,16.961 11.983,4.166 24.308,6.573 34.289,6.568 h 0.051 0.009 0.001 0.055 c 6.651,0.002 14.351,-1.063 22.291,-3.012 11.912,-2.92 24.369,-7.83 34.769,-13.986 5.201,-3.076 9.887,-6.463 13.735,-10.041 3.849,-3.579 6.855,-7.347 8.744,-11.15 1.959,-3.929 2.847,-9.045 2.843,-14.796 C 82.444,104.799 80.444,94.747 77.614,85.275 74.79,75.802 71.147,66.891 67.948,60.443 66.03,56.571 62.335,50.869 57.524,44.606 50.306,35.199 40.546,24.458 30.37,16.148 25.284,11.992 20.095,8.446 15.108,5.968 10.122,3.484 5.354,2.09 1.139,2.095 0.794,2.095 0.453,2.104 0.115,2.123 L -0.001,2.129 -0.115,2.123 0,0 -0.115,-2.123 c 0.416,-0.023 0.834,-0.033 1.254,-0.033 3.427,0.001 6.95,0.738 10.505,2.013 6.22,2.237 12.572,6.124 18.771,10.898 9.291,7.164 18.229,16.345 25.549,25.106 3.66,4.382 6.91,8.658 9.596,12.532 2.683,3.878 4.796,7.341 6.197,10.16 3.316,6.688 7.029,15.774 9.933,25.507 2.899,9.736 4.998,20.101 5.002,29.408 -0.004,6.173 -0.92,11.907 -3.289,16.688 -2.925,5.871 -7.875,11.258 -14.037,16.11 -9.248,7.27 -21.269,13.34 -33.625,17.635 -12.361,4.289 -25.038,6.799 -35.683,6.804 h -0.062 0.003 0.008 -0.065 c -7.099,-0.001 -15.095,-1.122 -23.304,-3.135 -12.313,-3.023 -25.097,-8.053 -35.923,-14.456 -5.412,-3.203 -10.336,-6.75 -14.464,-10.587 -4.126,-3.838 -7.464,-7.967 -9.655,-12.371 -2.369,-4.781 -3.284,-10.515 -3.289,-16.688 0.005,-9.307 2.103,-19.672 5.003,-29.408 2.904,-9.733 6.617,-18.819 9.932,-25.507 2.131,-4.288 5.929,-10.108 10.861,-16.536 7.395,-9.63 17.311,-20.56 27.837,-29.162 5.266,-4.3 10.684,-8.02 16.058,-10.694 5.374,-2.668 10.718,-4.312 15.862,-4.317 0.42,0 0.838,0.01 1.255,0.033 L 0,0 -0.115,-2.123 Z" /></g><g
           transform="translate(256.7539,281.2393)"
           id="g76"><path
             inkscape:connector-curvature="0"
             id="path78"
             style="fill:#004928;fill-opacity:1;fill-rule:nonzero;stroke:none"
             d="m 0,0 c -0.817,-0.757 -2.382,-1.487 -4.426,-1.945 -2.04,-0.468 -4.528,-0.696 -7.151,-0.695 -0.102,0 -0.201,0.001 -0.301,0.001 h -0.025 c -0.103,0 -0.204,-0.001 -0.303,-0.001 -3.497,-0.006 -6.76,0.413 -9.026,1.235 -1.134,0.404 -2.003,0.904 -2.552,1.405 -0.552,0.511 -0.802,0.959 -0.911,1.52 l -4.183,-0.764 c 0.278,-1.564 1.13,-2.915 2.24,-3.908 1.678,-1.501 3.87,-2.366 6.332,-2.938 2.467,-0.562 5.234,-0.8 8.1,-0.802 0.105,0 0.21,0.001 0.313,0.001 0.106,0 0.212,-0.001 0.316,-0.001 3.823,0.006 7.462,0.415 10.462,1.484 1.5,0.541 2.855,1.252 3.969,2.256 1.109,0.993 1.962,2.344 2.24,3.908 L 0.91,1.52 C 0.801,0.959 0.553,0.511 0,0 m 21.742,98.206 c 7.904,3.889 17.504,6.183 27.865,6.182 v 4.252 C 34.957,108.635 21.666,104.337 11.932,97.255 7.066,93.712 3.088,89.464 0.313,84.685 -2.166,80.418 -3.665,75.718 -3.958,70.787 -4.643,68.651 -5.018,66.377 -5.018,64.014 -5.017,51.793 4.887,41.889 17.107,41.888 29.328,41.889 39.232,51.793 39.234,64.014 39.232,76.234 29.328,86.138 17.107,86.14 11.893,86.139 7.103,84.331 3.321,81.313 c 0.216,0.415 0.433,0.829 0.669,1.237 3.649,6.293 9.842,11.769 17.752,15.656 M -18.766,64.014 c 0,2.363 -0.375,4.639 -1.061,6.774 -0.292,4.931 -1.792,9.631 -4.27,13.897 -4.165,7.169 -11.024,13.141 -19.552,17.336 -8.533,4.195 -18.754,6.618 -29.743,6.619 v -4.252 c 13.816,0.004 26.275,-4.084 35.173,-10.57 4.451,-3.241 8.01,-7.072 10.445,-11.268 0.236,-0.408 0.453,-0.822 0.669,-1.237 -3.782,3.018 -8.571,4.826 -13.787,4.827 -12.22,-0.002 -22.125,-9.906 -22.126,-22.126 10e-4,-12.221 9.906,-22.125 22.126,-22.126 12.221,0.001 22.124,9.905 22.126,22.126 M -1.925,18.263 C 1.438,16.471 3.088,18.28 3.9,22.001 4.99,26.985 -7.263,35.999 -8.43,35.326 -9.84,34.512 -7.857,21.424 -1.925,18.263 m -25.76,3.738 c 0.814,-3.721 2.464,-5.53 5.826,-3.738 5.932,3.161 7.915,16.249 6.505,17.063 -1.167,0.673 -13.419,-8.341 -12.331,-13.325" /></g></g></g></g></svg>
